<?xml version="1.0" encoding="UTF-8" standalone="no"?>
<svg
   width="1610.0009"
   height="3425.0017"
   version="1.1"
   id="svg44"
   viewBox="0 0 1610.0009 3425.0017"
   xmlns="http://www.w3.org/2000/svg"
   xmlns:svg="http://www.w3.org/2000/svg">
  <defs
     id="defs44">
    <style
       id="style1">
.quilt1 .floor {
  fill: #F2F6D0;
}
.quilt2 .floor {
  fill: #D0E1D4;
}
.quilt3 .floor {
  fill: #D9D2B6;
}
.quilt4 .floor {
  fill: #E4BE9E;
}
.walls {
  fill:none;
  stroke: grey;
  stroke-width:20;
}
.floor {
  fill:#ffb380;
  stroke:none;
  stroke-opacity:1;
}
.marker {
  fill:none;
  stroke:none;
}
.outer-walls {
  fill:none;
  stroke:#000000;
  stroke-width:20;
}
.ventilationshaft {
  fill:#7C7C7C;
  stroke:none;
}
.ventilationshaft-walls {
  fill:none;
  stroke:#000000;
  stroke-width:20;
}
</style>
  </defs>
  <g
     id="rooms"
     transform="translate(-1097.9183,773.37674)">
    <g
       id="woodworkshop" class="quilt3">
      <rect
         id="woodworkshop-floor"
         width="574.99994"
         height="929.99994"
         x="2122.9192"
         y="1711.625"
         class="floor" />
      <path
         d="m 2332.9191,1711.6249 h 365 v 930 h -575 v -930 h 35"
         id="woodworkshop-walls"
         class="walls" />
      <circle
         id="woodworkshop-marker"
         cx="2387.9192"
         cy="2181.625"
         r="15"
         class="marker" />
    </g>
    <g
       id="CNCworkshop" class="quilt2">
      <path
         d="m 1877.9191,2171.6249 h -70 l 45,125 -65,25 65,160 -100,40 45,120 h 325 v -470 h -150"
         id="CNCworkshop-floor"
         class="floor" />
      <path
         d="m 1877.9191,2171.6249 h -70 l 45,125 -65,25 65,160 -100,40 45,120 h 325 v -470 h -150"
         id="CNCworkshop-walls"
         class="walls" />
      <circle
         id="CNCworkshop-marker"
         cx="1947.9192"
         cy="2391.625"
         r="15"
         class="marker" />
    </g>
    <g
       id="outercleaningroom" class="quilt2">
      <rect
         id="outercleaningroom-floor"
         width="204.99991"
         height="255.00006"
         x="2317.9192"
         y="1006.6249"
         class="floor" />
      <path
         d="m 2522.9191,1036.6249 v -30 h -90 m 90,115 v 140 h -205 v -255 h 25"
         id="outercleaningroom-walls"
         class="walls" />
      <circle
         id="outercleaningroom-marker"
         cx="2417.9192"
         cy="1131.6249"
         r="15"
         class="marker" />
    </g>
    <g id="storagebathroom" class="quilt2">
      <rect
         id="storagebathroom-floor"
         width="175"
         height="125"
         x="2522.9192"
         y="576.62494"
         class="floor" />
      <path
         d="m 2522.9191,601.62494 v -25 h 175 v 125 h -175 v -35"
         id="storagebathroom-walls"
         class="walls" />
      <circle
         id="storagebathroom-marker"
         cx="2617.9192"
         cy="636.62488"
         r="15"
         class="marker" />
    </g>
    <g
       id="smallbathroom" class="quilt3">
      <rect
         id="smallbathroom-floor"
         width="175"
         height="130"
         x="2522.9192"
         y="701.62494"
         class="floor" />
      <path
         d="m 2522.9191,726.62494 v -25 h 175 v 130 l -175,0.36169 v -40.36169"
         id="smallbathroom-walls"
         class="walls" />
      <circle
         id="smallbathroom-marker"
         cx="2612.9192"
         cy="766.62488"
         r="15"
         class="marker" />
    </g>
    <g
       id="bigbathroom" class="quilt4">
      <rect
         id="bigbathroom-floor"
         width="175"
         height="180"
         x="2522.9192"
         y="831.62494"
         class="floor" />
      <path
         d="m 2522.9191,886.62494 v -55 h 175 v 179.99996 h -175 v -44.99996"
         id="bigbathroom-walls"
         class="walls" />
      <circle
         id="bigbathroom-marker"
         cx="2607.9192"
         cy="921.62488"
         r="15"
         class="marker" />
    </g>
    <g
       id="innercleaningroom" class="quilt3">
      <rect
         id="innercleaningroom-floor"
         width="175"
         height="140"
         x="2522.9192"
         y="1011.6249"
         class="floor" />
      <path
         d="m 2522.9191,1036.6249 v -25 h 175 v 140 h -175 v -30"
         id="innercleaningroom-walls"
         class="walls" />
      <circle
         id="innercleaningroom-marker"
         cx="2607.9192"
         cy="1081.6249"
         r="15"
         class="marker" />
    </g>
    <g
       id="paintroom" class="quilt1">
      <path
         id="paintroom-floor"
         d="m 2522.9191,1151.6249 v 110 h -155 v 450 h 330 v -450 -110 z"
         class="floor" />
      <path
         d="m 2367.9191,1571.6249 v 140 h 330 v -560 h -175 v 110 h -155 v 125"
         id="paintroom-walls"
         class="walls" />
      <circle
         id="paintroom-marker"
         cx="2537.9192"
         cy="1471.6249"
         r="15"
         class="marker" />
    </g>
    <g id="storageroom" class="quilt1">
      <rect
         id="storageroom-floor"
         width="399.99991"
         height="720"
         x="2297.9192"
         y="-763.37506"
         class="floor" />
      <path
         d="m 2452.9191,-43.37506 h 245 v -720 h -400 v 720 h 55"
         id="storageroom-walls"
         class="walls" />
      <circle
         id="storageroom-marker"
         cx="2487.9192"
         cy="-418.37509"
         r="15"
         class="marker" />
    </g>
    <g
       id="boxstorage" class="quilt2">
      <rect
         id="boxstorage-floor"
         width="209.99991"
         height="719.90002"
         x="2087.9192"
         y="-763.27509"
         class="floor" />
      <path
         d="m 2087.9191,-43.37506 v -720 h 210 l 10e-5,719.999999"
         id="boxstorage-walls"
         class="walls" />
      <circle
         id="boxstorage-marker"
         cx="2186.1692"
         cy="-401.62509"
         r="15"
         class="marker" />
    </g>
    <g id="metalworkshop" class="quilt3">
      <rect
         id="metalworkshop-floor"
         width="609.99994"
         height="620"
         x="2087.9192"
         y="-43.375061"
         class="floor" />
      <path
         d="m 2452.9191,-43.37506 h 245 v 620 h -395 m -140,0 h -75 v -620 m 205,0 h 60"
         id="metalworkshop-walls"
         class="walls" />
      <circle
         id="metalworkshop-marker"
         cx="2402.9192"
         cy="246.62489"
         r="15"
         class="marker" />
    </g>
    <g
       id="entrance"
       transform="translate(1102.9191,-768.37506)" class="quilt1">
      <path
         id="entrance-floor"
         d="m 985,1345 v 220 h 40 v 210 255 h 190 v -255 h 205 v -210 -220 z"
         class="floor" />
      <path
         d="m 985,1375 v -30 h 75 m 140.6481,0 H 1420 v 25 m 0,65 v 60 m 0,65 v 95 m 0,80 v 40 h -90 m -90,0 h -25 v 255 h -30 m -115,0 h -45 v -70 m 0,-190 v -205 h -40 v -30 0"
         id="entrance-walls"
         class="walls" />
      <circle
         id="entrance-marker"
         cx="2327.9192"
         cy="791.62488"
         r="15"
         transform="translate(-1102.9191,768.37506)"
         class="marker" />
    </g>
    <g
       id="3dworkshop" class="quilt3"
       transform="translate(1102.9191,-768.37506)">
      <path
         d="m 1025,1960 v 70 H 710 L 590,1725 v -160 h 435 v 205"
         id="3dworkshop-floor"
         class="floor" />
      <path
         d="m 1025,1960 v 70 H 710 L 590,1725 v -160 h 435 l 0.018,205"
         id="3dworkshop-walls"
         class="walls" />
      <circle
         id="3dworkshop-marker"
         cx="1927.9192"
         cy="1006.6249"
         r="15"
         transform="translate(-1102.9191,768.37506)"
         class="marker" />
    </g>
    <g
       id="kitchen" class="quilt2">
      <path
         d="m 1281.1481,1261.625 -168.229,-450.00006 230,-15 h 350 v 160 l 120,304.99996"
         id="kitchen-floor"
         class="floor" />
      <path
         d="m 1281.1481,1261.625 -168.229,-450.00006 230,-15 h 350 v 160 l 120,304.99996"
         id="kitchen-walls"
         class="walls" />
      <circle
         id="kitchen-marker"
         cx="1467.9192"
         cy="1026.6249"
         r="15"
         class="marker" />
    </g>
    <g
       id="bigroom" class="quilt4">
      <path
         d="m 2287.9191,1261.6249 h 80 v 450 h -245 v 460 h -315 l -66.9013,24.5311 -8.0987,-19.5311 -95.8952,35 -355.8758,-949.9999 891.771,-10e-5"
         id="bigroom-floor"
         class="floor" />
      <path
         d="m 2287.9191,1261.6249 h 80 v 125 m 0,185 v 140 h -35 m -175,0 h -35 v 460 h -150 m -95,0 h -70 l -66.9013,24.5311 -8.0987,-19.5311 -95.8952,35 -355.8758,-949.9999 m 531.771,-10e-5 h 360"
         id="bigroom-walls"
         class="walls" />
      <circle
         id="bigroom-marker"
         cx="1752.9192"
         cy="1556.6249"
         r="15"
         class="marker" />
    </g>
  </g>
  <g
     id="Outline"
     transform="translate(5.0008465,5.0016395)">
    <g
       id="ventilationshaft"
       transform="translate(-1102.9191,768.37506)">
      <path
         d="m 630.1482,2943.3642 7.9505,21.1669 L 705,2940 l 45,125 -65,25 65,160 -100,40 -115.8952,-310 z"
         id="ventilationshaft-floor"
         transform="translate(1102.9191,-768.37506)"
         class="ventilationshaft" />
      <path
         d="m 1733.0673,2174.9891 7.9505,21.1669 66.9013,-24.5311 45,125 -65,25 65,160 -100,40 -115.8952,-310 z"
         id="ventilationshaft-walls"
         class="ventilationshaft-walls" />
    </g>
    <path
       d="m 2087.9191,766.62494 v 30 h -745 l -230.0004,15 685.0004,1829.99996 h 900 V -763.37506 l -610,0.1 v 1369.9"
       id="Outline-walls"
       class="outer-walls"
       transform="translate(-1102.9191,768.37506)" />
  </g>
</svg>
