<?xml version="1.0" encoding="UTF-8" standalone="no"?>
<svg
   width="1610.0009"
   height="3425.0017"
   version="1.1"
   id="svg44"
   viewBox="0 0 1610.0009 3425.0017"
   xmlns="http://www.w3.org/2000/svg"
   xmlns:svg="http://www.w3.org/2000/svg">
  <defs
     id="defs44">
    <style
       id="style1">
.quilt1 .floor {
  fill: #F2F6D0;
}
.quilt2 .floor {
  fill: #D0E1D4;
}
.quilt3 .floor {
  fill: #D9D2B6;
}
.quilt4 .floor {
  fill: #E4BE9E;
}
.walls {
  fill:none;
  stroke: grey;
  stroke-width:20;
}
.floor {
  fill:#ffb380;
  stroke:none;
  stroke-opacity:1;
}
.marker {
  fill:none;
  stroke:none;
}
.outer-walls {
  fill:none;
  stroke:#000000;
  stroke-width:20;
}
.ventilationshaft {
  fill:#7C7C7C;
  stroke:none;
}
.ventilationshaft-walls {
  fill:none;
  stroke:#000000;
  stroke-width:20;
}
</style>
  </defs>
  <g id="rooms">
    <g id="woodworkshop" class="quilt3">
      <rect
              id="woodworkshop-floor"
              width="575"
              height="930"
              x="1025"
              y="2485"
              class="floor" />
      <path
              d="m 1235,2485 h 365 v 930 h -575 v -930 h 35"
              id="woodworkshop-walls"
              class="walls" />
      <circle
              id="woodworkshop-marker"
              cx="1320"
              cy="2955"
              r="15"
              class="marker" />
    </g>
    <g id="CNCworkshop" class="quilt2">
      <path
              d="m 780,2945 h -70 l 45,125 -65,25 65,160 -100,40 45,120 h 325 v -470 h -150"
              id="CNCworkshop-floor"
              class="floor" />
      <path
              d="m 780,2945 h -70 l 45,125 -65,25 65,160 -100,40 45,120 h 325 v -470 h -150"
              id="CNCworkshop-walls"
              class="walls" />
      <circle
              id="CNCworkshop-marker"
              cx="890"
              cy="3165"
              r="15"
              class="marker" />
    </g>
    <g id="outercleaningroom" class="quilt2">
      <rect
              id="outercleaningroom-floor"
              width="205"
              height="255"
              x="1220"
              y="1780"
              class="floor" />
      <path
              d="m 1425,1810 v -30 h -90 m 90,115 v 140 h -205 v -255 h 25"
              id="outercleaningroom-walls"
              class="walls" />
      <circle
              id="outercleaningroom-marker"
              cx="1320"
              cy="1905"
              r="15"
              class="marker" />
    </g>
    <g id="storagebathroom" class="quilt2">
      <rect
              id="storagebathroom-floor"
              width="175"
              height="125"
              x="1425"
              y="1350"
              class="floor" />
      <path
              d="m 1425,1375 v -25 h 175 v 125 h -175 v -35"
              id="storagebathroom-walls"
              class="walls" />
      <circle
              id="storagebathroom-marker"
              cx="1510"
              cy="1410"
              r="15"
              class="marker" />
    </g>
    <g id="smallbathroom" class="quilt3">
      <rect
              id="smallbathroom-floor"
              width="175"
              height="130"
              x="1425"
              y="1475"
              class="floor" />
      <path
              d="m 1425,1500 v -25 h 175 v 130 l -175,0.3617 v -40.3617"
              id="smallbathroom-walls"
              class="walls" />
      <circle
              id="smallbathroom-marker"
              cx="1515"
              cy="1540"
              r="15"
              class="marker" />
    </g>
    <g id="bigbathroom" class="quilt4">
      <rect
              id="bigbathroom-floor"
              width="175"
              height="180"
              x="1425"
              y="1605"
              class="floor" />
      <path
              d="m 1425,1660 v -55 h 175 v 180 h -175 v -45"
              id="bigbathroom-walls"
              class="walls" />
      <circle
              id="bigbathroom-marker"
              cx="1510"
              cy="1695"
              r="15"
              class="marker" />
    </g>
    <g id="innercleaningroom" class="quilt3">
      <rect
              id="innercleaningroom-floor"
              width="175"
              height="140"
              x="1425"
              y="1785"
              class="floor" />
      <path
              d="m 1425,1810 v -25 h 175 v 140 h -175 v -30"
              id="innercleaningroom-walls"
              class="walls" />
      <circle
              id="innercleaningroom-marker"
              cx="1510"
              cy="1855"
              r="15"
              class="marker" />
    </g>
    <g id="paintroom" class="quilt1">
      <path
              id="paintroom-floor"
              d="m 1425,1925 v 110 h -155 v 450 h 330 v -450 -110 z"
              class="floor" />
      <path
              d="m 1270,2345 v 140 h 330 v -560 h -175 v 110 h -155 v 125"
              id="paintroom-walls"
              class="walls" />
      <circle
              id="paintroom-marker"
              cx="1440"
              cy="2245"
              r="15"
              class="marker" />
    </g>
    <g id="storageroom" class="quilt1">
      <rect
              id="storageroom-floor"
              width="400"
              height="720"
              x="1200"
              y="10"
              class="floor" />
      <path
              d="m 1355,730 h 245 v -720 h -400 v 720 h 55"
              id="storageroom-walls"
              class="walls" />
      <circle
              id="storageroom-marker"
              cx="1400"
              cy="355"
              r="15"
              class="marker" />
    </g>
    <g
       id="boxstorage" class="quilt2">
      <rect
              id="boxstorage-floor"
              width="210"
              height="720"
              x="990"
              y="10"
              class="floor" />
      <path
              d="m 990,730 v -720 h 210 l 10e-5,720"
              id="boxstorage-walls"
              class="walls" />
      <circle
              id="boxstorage-marker"
              cx="1088"
              cy="372"
              r="15"
              class="marker" />
    </g>
    <g id="metalworkshop" class="quilt3">
      <rect
              id="metalworkshop-floor"
              width="610"
              height="620"
              x="990"
              y="730"
              class="floor" />
      <path
              d="m 1355,730 h 245 v 620 h -395 m -140,0 h -75 V 730 m 205,0 h 60"
              id="metalworkshop-walls"
              class="walls" />
      <circle
              id="metalworkshop-marker"
              cx="1305"
              cy="1020"
              r="15"
              class="marker" />
    </g>
    <g id="entrance" class="quilt1">
      <path
              id="entrance-floor"
              d="m 990,1350 v 220 h 40 v 210 255 h 190 v -255 h 205 v -210 -220 z"
              class="floor" />
      <path
              id="entrance-walls"
              d="m 990,1380 v -30 h 75 m 140.6481,0 h 219.3519 v 25 m 0,65 v 60 m 0,65 v 95 m 0,80 v 40 h -90 m -90,0 h -25 v 255 h -30 m -115,0 h -45 v -70 m 0,-190 v -205 h -40 v -30 0"
              class="walls" />
      <circle
              id="entrance-marker"
              cx="1180"
              cy="1473"
              r="15"
              class="marker" />
    </g>
    <g id="3dworkshop" class="quilt3">
      <path
              d="m 1030,1965 v 70 h -315 l -120,-305 v -160 h 435 v 205"
              id="3dworkshop-floor"
              class="floor" />
      <path
              d="m 1030,1965 v 70 h -315 l -120,-305 v -160 h 435 l 0.018,205"
              id="3dworkshop-walls"
              class="walls" />
      <circle
              id="3dworkshop-marker"
              cx="831"
              cy="1780"
              r="15"
              class="marker" />
    </g>
    <g id="kitchen" class="quilt2">
      <path
              d="m 183,2035 -168,-450 230,-15 h 350 v 160 l 120,305"
              id="kitchen-floor"
              class="floor" />
      <path
              d="m 183,2035 -168,-450 230,-15 h 350 v 160 l 120,305"
              id="kitchen-walls"
              class="walls" />
      <circle
              id="kitchen-marker"
              cx="370"
              cy="1800"
              r="15"
              class="marker" />
    </g>
    <g id="bigroom" class="quilt4">
      <path
              d="m 1190,2035 h 80 v 450 h -245 v 460 h -315 l -67,24.5 -8,-19.5 -96,35 -356,-950 892,0"
              id="bigroom-floor"
              class="floor" />
      <path
              d="m 1190,2035 h 80 v 125 m 0,185 v 140 h -35 m -175,0 h -35 v 460 h -150 m -95,0 h -70 l -67,24.5 -8,-19.5 -96,35 -356,-950 m 532,0 h 360"
              id="bigroom-walls"
              class="walls" />
      <circle
              id="bigroom-marker"
              cx="705"
              cy="2530"
              r="15"
              class="marker" />
    </g>
  </g>
  <g id="outline">
    <g id="ventilationshaft">
      <path
              d="m 635.149,2948.3658 7.9505,21.1669 66.9013,-24.5311 45,125 -65,25 65,160 -100,40 -115.8952,-310 z"
              id="ventilationshaft-floor"
              class="ventilationshaft" />
      <path
              d="m 635.149,2948.3658 7.9505,21.1669 66.9013,-24.5311 45,125 -65,25 65,160 -100,40 -115.8952,-310 z"
              id="ventilationshaft-walls"
              class="ventilationshaft-walls" />
    </g>
    <path
            d="m 990.0008,1540.0016 v 30 h -745 l -230.0004,15 685.0004,1830 h 900 V 10.00164 l -610,0.1 V 1380.0016"
            id="Outline-walls"
            class="outer-walls" />
  </g>
</svg>
