<?xml version="1.0" encoding="UTF-8" standalone="no"?>
<!-- Created with Inkscape (http://www.inkscape.org/) -->

<svg
   width="120.29064mm"
   height="127.15822mm"
   viewBox="0 0 120.29064 127.15822"
   version="1.1"
   id="svg1"
   xml:space="preserve"
   xmlns="http://www.w3.org/2000/svg"
   xmlns:svg="http://www.w3.org/2000/svg"><defs
     id="defs1" /><g
     id="layer1"><path
       style="fill:#000000;stroke-width:1"
       d="m 56.441739,126.89098 c -1.973627,-0.86518 -6.565617,-3.3605 -6.776549,-3.68242 -0.126305,-0.19277 -0.294076,-0.75056 -0.372824,-1.23954 -0.07875,-0.48898 -0.211242,-0.97106 -0.294432,-1.0713 -0.08319,-0.10024 -2.340124,-1.29846 -5.015412,-2.66271 -2.675288,-1.36425 -8.222639,-4.19489 -12.327448,-6.29032 l -7.463287,-3.80986 -1.499667,0.70415 c -2.100085,0.98607 -3.405364,1.38442 -4.105791,1.25302 -0.647966,-0.12156 -9.8773048,-4.74473 -10.6527335,-5.33618 -0.7503017,-0.57228 -0.9806752,-1.27088 -0.9806752,-2.97384 v -1.4286 L 3.8809399,98.808547 C 2.1913506,97.958889 0.6463252,97.105471 0.44754999,96.912063 L 0.08614053,96.560411 0.04307026,92.789992 0,89.019574 0.22710761,88.672965 c 0.43244065,-0.659992 1.07444039,-0.499066 4.38460159,1.099027 1.646906,0.795102 3.0753501,1.445636 3.1743192,1.445636 0.09897,0 0.7977058,-0.294516 1.5527473,-0.654479 L 10.711579,89.908664 V 86.318153 82.727648 L 10.024901,82.466084 C 8.4312508,81.859047 5.6886615,80.468869 5.2416279,80.04151 4.5704581,79.399876 4.2306985,78.673788 4.0648232,77.526586 3.8831528,76.270146 3.8757983,66.08021 4.0554347,64.518036 4.2651235,62.694511 5.0150866,61.494523 6.3271081,60.883219 6.7110601,60.704322 7.8383735,60.249825 8.8322493,59.873214 l 1.8070477,-0.684738 -0.01487,-0.790965 c -0.0082,-0.43503 -0.02472,-5.117036 -0.03676,-10.404454 L 10.565776,38.379561 9.4710146,37.817526 C 8.7420213,37.44327 8.3316796,37.138252 8.2428421,36.904592 8.1694662,36.711598 8.1114999,34.752688 8.1140286,32.55146 c 0.00508,-4.403304 -0.00702,-4.340744 0.9117277,-4.724618 1.7156127,-0.716829 8.3312577,-2.963993 8.7259867,-2.963993 0.259424,0 0.899144,0.210792 1.421601,0.468428 l 0.949922,0.468427 11.304596,-3.805489 C 37.645389,19.901196 51.742395,15.171084 62.754537,11.482856 73.766686,7.7946268 82.874204,4.7193895 82.993469,4.6489946 83.112733,4.5785992 83.247389,4.2501253 83.292695,3.9190517 83.33799,3.5879787 83.444513,3.2476653 83.529383,3.1627995 83.683873,3.0083081 92.179989,0.00401174 92.473735,4.5726873e-6 92.631514,-0.00212632 94.299402,0.74033419 98.244947,2.5691398 c 1.528299,0.7083826 2.221173,1.1066973 2.347033,1.3492372 0.23518,0.4532338 0.25842,7.811515 0.026,8.245732 -0.0862,0.161145 -0.49283,0.441605 -0.903524,0.623244 l -0.74672,0.330253 -0.04191,3.306614 -0.04191,3.306614 0.920174,0.664875 c 1.04907,0.758011 2.1087,2.05622 2.67152,3.27304 0.31459,0.680159 0.38557,1.044539 0.3875,1.989201 0.003,1.482511 -0.37709,2.381235 -1.42713,3.374316 -0.92763,0.877324 -1.703165,1.284092 -2.953464,1.5491 -2.043444,0.433118 -3.64745,0.214273 -7.368912,-1.005393 -5.768174,-1.890452 -7.195053,-2.187487 -9.960144,-2.07341 -4.553057,0.187843 -8.564824,2.145627 -11.624141,5.672704 -3.202,3.691582 -5.309153,8.719868 -5.977532,14.264146 -0.131028,1.086925 -0.282715,3.849338 -0.337085,6.138698 l -0.09885,4.162473 -0.371425,0.208199 c -0.223356,0.125198 -0.521441,0.170542 -0.747725,0.113751 -0.667041,-0.167417 -0.742824,-0.74296 -0.640175,-4.862066 0.102321,-4.10581 0.233819,-5.561363 0.751255,-8.315537 1.16957,-6.225327 4.37875,-11.93965 8.669953,-15.43789 2.901528,-2.365358 7.219531,-3.861373 11.145221,-3.861373 2.354888,0 5.074011,0.622294 9.458678,2.164699 3.275604,1.152265 5.502955,1.441312 7.207003,0.935264 1.419563,-0.421566 2.465453,-1.73865 2.472033,-3.113014 0.004,-0.882188 -0.64964,-2.17787 -1.525436,-3.022789 l -0.674313,-0.650537 0.09682,2.103682 c 0.06154,1.337102 0.04245,2.246757 -0.05245,2.496317 -0.146097,0.384258 -0.550049,0.617388 -1.347118,0.777451 l -0.397548,0.07983 V 20.54611 13.73565 l -1.409498,0.503822 c -0.775224,0.277102 -1.409498,0.503844 -1.409498,0.503871 v 6.059677 c 0,3.332796 -0.04682,6.106437 -0.104021,6.163647 -0.05721,0.05721 -0.447531,-0.01945 -0.867383,-0.170357 l -0.763362,-0.274375 -0.03786,-5.602477 -0.03786,-5.602477 -0.341352,0.08567 c -0.231284,0.05805 -0.672395,-0.08104 -1.368044,-0.431364 -0.564687,-0.28437 -1.060852,-0.517037 -1.10259,-0.517037 -0.04174,0 -0.07589,2.439515 -0.07589,5.421142 0,2.981628 -0.05322,5.421143 -0.118324,5.421143 -0.06508,0 -0.455399,-0.100102 -0.867383,-0.222447 l -0.74905,-0.22244 v -5.286444 -5.286445 l -0.252986,0.102468 c -0.139142,0.05636 -2.887661,1.001755 -6.107817,2.100884 -3.220162,1.099129 -7.578756,2.594401 -9.685778,3.322827 -2.107016,0.728425 -5.132009,1.767738 -6.722213,2.309585 -1.590203,0.541847 -5.948798,2.040889 -9.685772,3.331205 -3.736974,1.290317 -7.249873,2.494722 -7.806444,2.676457 -1.250352,0.408274 -12.308262,4.212572 -17.20309,5.91845 -1.987752,0.692744 -3.82552,1.329039 -4.083927,1.413989 l -0.469833,0.154455 v 0.832802 c 0,0.534206 -0.07505,0.907851 -0.209318,1.04212 -0.115125,0.115126 -0.830716,0.450091 -1.590202,0.744367 l -1.380883,0.535049 v 11.699176 11.699178 l 1.790744,0.891992 1.790743,0.891992 1.425801,-0.544957 c 3.449253,-1.318356 13.471189,-5.176021 13.930568,-5.362184 0.590129,-0.239147 3.638169,-1.417263 4.720075,-1.824378 l 0.744571,-0.28018 0.05555,-1.838187 0.05555,-1.838185 0.383241,-0.73583 c 0.42343,-0.812996 1.124457,-1.496001 1.987239,-1.936162 0.748615,-0.381916 10.230904,-4.050221 10.469509,-4.050221 0.147835,0 0.09864,1.30097 -0.06043,1.598208 -0.211942,0.396018 -0.539629,0.543154 -5.092135,2.286492 -2.245858,0.860028 -4.27854,1.665593 -4.51707,1.790147 -0.691017,0.36082 -1.200145,0.995782 -1.361423,1.697906 -0.09195,0.400286 -0.150788,3.437504 -0.152963,7.895371 l -0.0036,7.244839 -0.302793,0.384938 c -0.481756,0.612451 0.09945,0.369103 -13.57533,5.683944 -1.550447,0.602594 -3.404478,1.330562 -4.120068,1.617708 l -1.301074,0.522074 -0.07273,2.022983 -0.07273,2.022982 -0.453773,0.653895 c -0.559895,0.806821 -0.609889,0.833458 -3.768895,2.008345 l -2.570932,0.95617 v 3.756502 3.756502 l 0.7951,0.414562 c 2.509532,1.308472 3.627047,2.010143 3.831669,2.405839 0.153406,0.296653 0.216118,0.879982 0.216118,2.010273 v 1.592351 l -0.434055,0.494362 c -0.240327,0.273715 -0.788761,0.638328 -1.228792,0.816918 -0.437106,0.177411 -0.794738,0.364875 -0.794738,0.416584 0,0.05174 4.927818,2.557834 10.950707,5.569164 11.117427,5.5585 14.538026,7.33269 14.741078,7.64589 0.06207,0.0957 0.145378,2.22325 0.185133,4.72782 l 0.07228,4.55376 2.674431,1.40702 c 1.470935,0.77387 2.755743,1.40814 2.855136,1.4095 0.139294,0.002 0.180699,-0.74503 0.180699,-3.25972 0,-1.83942 0.06139,-3.37689 0.140754,-3.52518 0.205877,-0.38469 0.833256,-0.49893 1.247911,-0.22724 l 0.346101,0.22678 v 3.39392 c 0,2.28845 0.04977,3.39391 0.152823,3.39391 0.08405,0 1.547755,-0.67818 3.252683,-1.50706 l 3.099864,-1.50706 v -1.21202 c 0,-0.74502 0.06963,-1.30466 0.180705,-1.45243 0.09939,-0.13222 3.238231,-1.74667 6.975206,-3.58765 C 95.858001,103.92013 107.69173,98.111695 108.0351,97.986038 l 0.39371,-0.144081 0.85399,0.51878 c 0.4697,0.285321 0.8932,0.518774 0.94111,0.518774 0.0479,0 0.10446,-1.700682 0.12565,-3.779292 l 0.0385,-3.779297 0.38096,-0.284332 0.38096,-0.284332 0.41414,0.198364 0.41415,0.198359 0.0723,3.901408 0.0723,3.901403 0.28913,-0.04781 c 0.15902,-0.02628 1.60646,-0.702249 3.21654,-1.502132 l 2.92742,-1.45434 V 91.774103 87.600694 L 118.30279,87.38389 C 118.02422,87.145372 89.250432,72.880054 85.904798,71.321786 l -1.353133,-0.630236 0.09771,-0.398548 c 0.13788,-0.562343 0.300762,-0.681547 1.524326,-1.115528 0.596328,-0.21151 1.230602,-0.479746 1.409499,-0.596082 l 0.325267,-0.211515 v -7.890861 c 0,-6.254774 -0.03748,-7.875914 -0.180706,-7.818757 -0.09939,0.03967 -1.937151,0.754233 -4.083921,1.587942 -8.477802,3.292385 -8.185088,3.168001 -8.325755,3.537967 -0.07237,0.190344 -0.13147,3.664218 -0.131771,7.744649 l -5.41e-4,7.399482 -0.281682,0.461978 c -0.373933,0.613265 -0.69419,0.806138 -2.320116,1.397265 -0.754943,0.274469 -2.071949,0.770153 -2.926683,1.101513 l -1.554061,0.602469 v 0.919551 c 0,0.505748 -0.05768,1.070151 -0.128176,1.254222 -0.0705,0.184076 -0.623078,0.887637 -1.227962,1.563474 -0.604884,0.675832 -1.0808,1.286874 -1.05759,1.357865 0.02322,0.07099 2.023234,1.164413 4.444502,2.42983 5.601315,2.927383 6.181098,3.253825 6.394974,3.600625 0.09669,0.156779 2.159933,1.300473 4.584993,2.541549 7.653195,3.916674 9.893228,5.118203 10.227888,5.486115 0.362044,0.398023 0.434035,1.159326 0.144562,1.528801 -0.09939,0.126859 -2.29495,1.317711 -4.879029,2.646345 -2.584074,1.328629 -5.674126,2.923679 -6.866776,3.544549 -10.237236,5.32928 -15.995248,8.27866 -16.492505,8.44782 -0.396772,0.13497 -0.761516,0.16229 -1.111807,0.0833 -0.28672,-0.0647 -3.338743,-1.58065 -6.782261,-3.36886 -3.443523,-1.78821 -8.310142,-4.30907 -10.81471,-5.6019 -2.504567,-1.29284 -4.74892,-2.4651 -4.987451,-2.60502 -0.238529,-0.13993 -1.685975,-0.882134 -3.216544,-1.649348 l -2.782853,-1.394937 v -0.727859 c 0,-0.573511 0.06897,-0.788638 0.325269,-1.014485 0.178898,-0.157643 3.545427,-1.944915 7.481176,-3.971712 3.935749,-2.026796 7.286015,-3.828772 7.445035,-4.004401 0.528336,-0.583504 1.154396,-0.941215 6.016065,-3.437387 2.654421,-1.362881 4.849175,-2.498986 4.877243,-2.524677 0.02808,-0.02568 -0.440598,-0.615888 -1.041466,-1.311559 l -1.092487,-1.264854 -0.04278,-0.73211 -0.04278,-0.732109 -2.845289,-1.445641 C 53.067562,75.315609 51.622811,74.509896 51.421915,74.320231 50.77822,73.712522 50.73218,73.05631 50.781771,65.196146 l 0.04606,-7.300473 0.274454,-0.404935 c 0.348387,-0.514026 0.47031,-0.5748 4.116877,-2.052181 3.705224,-1.501145 4.412599,-1.572306 4.412599,-0.443898 0,0.283644 -0.06523,0.580942 -0.14495,0.660665 -0.07972,0.07972 -1.273105,0.583892 -2.651956,1.120368 -1.378857,0.536483 -2.502747,1.033926 -2.497541,1.105437 0.0099,0.136563 1.029148,0.696397 4.542187,2.494975 l 2.124555,1.087711 3.657995,-1.440543 c 2.011896,-0.792299 4.487431,-1.757566 5.501184,-2.145045 1.013753,-0.387472 1.841982,-0.737223 1.840507,-0.777218 -0.0016,-0.04 -1.560693,-0.872202 -3.464936,-1.849353 -1.904242,-0.977153 -3.565306,-1.87969 -3.691253,-2.005642 -0.161762,-0.161763 -0.201085,-0.36169 -0.133929,-0.680946 0.127799,-0.60754 0.173242,-0.642044 1.069304,-0.81198 0.427725,-0.08112 2.474633,-0.805538 4.548681,-1.609819 2.074041,-0.804286 5.267223,-2.033445 7.095955,-2.731466 1.828733,-0.69802 4.756148,-1.820274 6.505371,-2.493898 1.749222,-0.673625 4.774222,-1.829066 6.722219,-2.567656 1.947996,-0.738583 3.591472,-1.385309 3.65217,-1.437161 0.0607,-0.05185 -0.378463,-0.309094 -0.975911,-0.571653 l -1.086269,-0.47738 -1.337114,0.505824 c -0.735409,0.278202 -3.126085,1.201507 -5.312611,2.051783 -2.186526,0.850281 -4.8212,1.859215 -5.854831,2.242076 -1.033636,0.382862 -3.603252,1.363449 -5.710274,2.179084 -8.605223,3.331132 -8.410804,3.270675 -8.873623,2.759272 -0.58599,-0.647513 -0.01508,-1.304315 1.645438,-1.893042 0.516812,-0.183235 1.78536,-0.676755 2.818991,-1.096716 1.668904,-0.678067 7.185906,-2.792639 15.468327,-5.928745 l 2.74671,-1.040029 0.03808,-4.778076 0.03808,-4.778075 0.865448,0.292266 0.865443,0.292266 0.01557,2.480453 c 0.0086,1.36425 0.0033,3.212308 -0.0112,4.106797 -0.01486,0.90126 0.03191,1.626345 0.104879,1.626345 0.07242,0 0.646693,-0.223635 1.276164,-0.496963 l 1.144492,-0.496964 0.106446,-1.273944 c 0.05854,-0.700669 0.146551,-2.070853 0.195572,-3.044851 0.09881,-1.963381 0.0448,-1.887946 1.151885,-1.60918 l 0.642273,0.161725 v 0.72251 0.72251 l 0.325267,-0.07259 c 0.178896,-0.03992 2.100661,-0.698045 4.270593,-1.462491 2.540301,-0.894927 4.157771,-1.3899 4.541891,-1.3899 0.41323,0 1.08894,0.227836 2.19864,0.74134 4.59131,2.124582 4.89555,2.293951 5.24718,2.921037 0.13068,0.23306 0.17689,2.074111 0.1807,7.200032 l 0.005,6.886904 -0.25406,0.313744 c -0.24798,0.306253 -1.36561,0.768897 -7.40782,3.066481 l -2.67443,1.016966 -0.831245,-0.0727 -0.831239,-0.0727 v 8.699444 8.699447 l 1.525004,0.758434 c 0.83876,0.417142 1.78203,0.920688 2.09617,1.118998 l 0.57118,0.360563 v 2.751622 2.751623 l 0.39754,0.217083 c 0.21866,0.119396 3.64849,1.814625 7.62185,3.767173 3.97335,1.952554 7.50294,3.74181 7.84351,3.976131 0.34058,0.234322 0.74891,0.680247 0.90743,0.990948 l 0.28819,0.56491 v 4.620711 4.620705 l -0.38256,0.454645 c -0.4423,0.525653 -5.1223,2.929693 -7.08779,3.640889 -1.46356,0.52958 -1.84494,0.50616 -3.51498,-0.21587 l -1.18045,-0.510357 -0.89232,0.406257 c -0.49077,0.22345 -3.75467,1.81979 -7.25311,3.54743 -3.498446,1.72764 -7.531773,3.71161 -8.962957,4.40883 -1.431179,0.69722 -5.984935,2.942 -10.119463,4.9884 -4.134523,2.04641 -8.883442,4.3864 -10.553155,5.19998 -1.669713,0.8136 -3.186346,1.60326 -3.370302,1.75482 -0.26369,0.21725 -0.362897,0.50205 -0.468868,1.34601 -0.07393,0.58874 -0.238206,1.22885 -0.365066,1.42246 -0.290577,0.44348 -7.537651,4.03662 -8.372814,4.15129 -0.418414,0.0574 -0.784764,-0.0112 -1.325349,-0.24811 z m -7.142345,-9.97714 c -0.0059,-1.05351 -0.05468,-2.20045 -0.108423,-2.54876 l -0.09771,-0.63329 -12.767714,-6.38427 c -7.022243,-3.51135 -12.797848,-6.33552 -12.834677,-6.27593 -0.03683,0.0596 -0.02766,1.13204 0.02038,2.3832 0.07276,1.89512 0.127834,2.30467 0.329909,2.45344 0.283136,0.20845 9.024359,4.68816 18.313042,9.38509 3.577954,1.80923 6.567171,3.34497 6.642706,3.41276 0.07553,0.0678 0.221905,0.12323 0.325269,0.12323 0.145284,0 0.1855,-0.43468 0.177218,-1.91547 z m 17.697494,-8.18505 c 2.159026,-1.10272 6.234911,-3.20749 9.057519,-4.67727 10.708092,-5.575873 14.14531,-7.340466 14.298368,-7.340466 0.08691,0 0.158009,-0.08741 0.158009,-0.194228 0,-0.201402 -1.231498,-0.886353 -6.866776,-3.81926 -4.587501,-2.387589 -5.751843,-2.96523 -5.652303,-2.804167 0.0471,0.07619 1.62326,0.939456 3.502593,1.918355 1.879333,0.978905 3.56229,1.894134 3.739903,2.033845 0.226115,0.177864 0.352832,0.479396 0.422654,1.005748 0.05485,0.413448 0.194671,0.978971 0.310723,1.256714 0.116046,0.277748 0.175935,0.615462 0.133082,0.750478 -0.08596,0.270842 -21.99599,11.695591 -23.013365,12.000071 -0.493051,0.14757 -0.696458,0.14594 -1.084232,-0.009 -0.26252,-0.10466 -3.53484,-1.76345 -7.271814,-3.6862 -3.736972,-1.92276 -8.355785,-4.29448 -10.264026,-5.270516 -4.227719,-2.162403 -5.187098,-2.683193 -5.386366,-2.923935 -0.111555,-0.134771 -0.05896,-0.464584 0.191039,-1.197917 0.189737,-0.556573 0.346655,-1.175302 0.348707,-1.37495 l 0.0037,-0.363001 1.987752,-1.103502 c 1.093263,-0.606927 2.78842,-1.507781 3.767015,-2.001897 0.978595,-0.494116 1.746868,-0.930791 1.707274,-0.970387 -0.09843,-0.09843 -10.973132,5.517232 -12.167891,6.283463 l -0.281601,0.180595 0.285468,0.220499 c 0.157007,0.121275 2.433886,1.333365 5.059732,2.69353 4.837473,2.505768 6.675806,3.459968 10.195407,5.292018 10.828565,5.63657 11.75081,6.08719 12.482483,6.09922 0.253516,0.004 1.917951,-0.7627 4.336913,-1.99818 z m -45.819318,-1.11928 1.084661,-0.52209 -0.212148,-0.32378 c -0.175152,-0.26732 -0.205405,-0.96324 -0.173479,-3.99073 l 0.03867,-3.666951 1.87933,-0.944466 1.879329,-0.944467 0.04343,-0.751396 0.04343,-0.751391 -2.888921,1.401931 -2.888922,1.401931 -0.102152,1.082646 c -0.05618,0.595453 -0.06127,2.286853 -0.01131,3.758653 0.04996,1.47181 0.09159,3.14766 0.0925,3.7241 9.29e-4,0.57645 0.03075,1.04809 0.06629,1.04809 0.03554,0 0.552722,-0.23494 1.149285,-0.52208 z m -2.948674,-4.32037 V 98.591256 L 13.60373,96.2778 c -2.54384,-1.272406 -4.6915137,-2.313462 -4.7726073,-2.313462 -0.097954,0 -0.1346397,1.564824 -0.109299,4.662187 l 0.038143,4.662185 4.5537583,2.3335 c 2.504569,1.28343 4.635077,2.34055 4.734464,2.34917 0.141179,0.0122 0.180706,-1.01195 0.180707,-4.68224 z m 53.705446,-0.0985 c 4.61158,-2.39139 9.410111,-4.876379 10.663392,-5.522203 1.876711,-0.967081 2.272002,-1.224974 2.240738,-1.46188 -0.08718,-0.66067 0.02863,-0.712603 -9.579167,4.295873 -9.026211,4.70531 -11.701302,6.07434 -12.242204,6.26518 l -0.585269,0.20649 -4.93452,-2.51643 C 54.78333,103.07363 49.863066,100.53796 46.563397,98.822856 L 40.564,95.704475 40.437048,95.982939 c -0.06982,0.153151 -0.08984,0.375179 -0.04448,0.493389 0.04536,0.11821 1.761361,1.063398 3.813329,2.100405 2.051969,1.037013 7.012088,3.574297 11.022485,5.638417 l 7.291632,3.75294 0.514813,-0.21474 c 0.283146,-0.1181 4.287925,-2.17133 8.899511,-4.56271 z m -6.929331,1.38144 c 2.605486,-1.32999 15.036395,-7.753826 17.528666,-9.058173 l 1.78094,-0.932074 -0.624434,-0.36088 c -0.815656,-0.471392 -3.511564,-1.846813 -3.619862,-1.846813 -0.04622,0 0.01322,0.426485 0.132104,0.947745 0.118904,0.52126 0.178421,1.098208 0.132263,1.282104 -0.06722,0.267826 -1.055202,0.839479 -4.964953,2.872777 -2.684571,1.396128 -6.572429,3.420844 -8.63969,4.499384 -2.157398,1.12555 -3.928241,1.96142 -4.156722,1.96202 -0.23778,5.5e-4 -3.002696,-1.34379 -6.866781,-3.33895 -9.300909,-4.80239 -10.343044,-5.35109 -10.624923,-5.594153 -0.287408,-0.247834 -0.323063,-0.922956 -0.09987,-1.891048 0.08032,-0.348412 0.117192,-0.662325 0.08193,-0.697589 -0.06727,-0.06727 -3.4309,1.676653 -3.909011,2.026687 l -0.27672,0.202594 2.372895,1.232229 c 2.762268,1.434436 16.498009,8.51234 17.985782,9.26792 0.556573,0.28266 1.146437,0.51712 1.310811,0.52104 0.164374,0.004 1.270286,-0.48876 2.457581,-1.09482 z m 0.0247,-2.92662 c 1.173724,-0.62549 4.801247,-2.520104 8.061158,-4.210252 3.259916,-1.690142 5.984154,-3.125222 6.053867,-3.189062 0.06971,-0.06384 0.08382,-0.287135 0.03136,-0.496203 l -0.09541,-0.380135 -2.778056,1.428343 c -1.527933,0.78559 -5.237216,2.714949 -8.242852,4.287466 l -5.464795,2.859123 -0.679165,-0.34279 c -0.37354,-0.18854 -3.978219,-2.054639 -8.010398,-4.146892 -4.03218,-2.092258 -7.454804,-3.836416 -7.605832,-3.875909 -0.379064,-0.09913 -0.552598,0.528806 -0.215631,0.780268 0.131358,0.09802 2.325906,1.249414 4.876772,2.55864 2.550866,1.309231 6.134173,3.162983 7.962905,4.119463 1.828733,0.95648 3.470559,1.74043 3.648505,1.74213 0.177946,0.002 1.283857,-0.50869 2.457586,-1.13419 z m 0.818323,-2.670556 c 7.664167,-3.932454 12.316895,-6.365218 12.503042,-6.537438 0.270908,-0.250637 0.106791,-0.614364 -0.356728,-0.790588 -0.299483,-0.113867 -0.477281,-0.0862 -0.834949,0.129902 -0.640443,0.386965 -11.11771,5.830943 -13.003288,6.756499 -1.311439,0.643732 -1.620828,0.744359 -1.928693,0.627313 -0.636913,-0.242157 -12.801393,-6.518888 -13.784671,-7.112735 l -0.939665,-0.567506 -0.469832,0.252811 c -0.495291,0.266515 -0.588928,0.509732 -0.289128,0.750998 0.09939,0.07998 2.490112,1.334912 5.312719,2.788738 2.822607,1.453826 6.302979,3.249016 7.734163,3.989316 1.431179,0.740296 2.660611,1.347356 2.732061,1.349026 0.07146,0.002 1.567693,-0.734679 3.324969,-1.636336 z M 6.9439006,95.590685 6.9348634,92.880113 4.4501746,91.681994 c -1.366579,-0.658965 -2.5334793,-1.195661 -2.5931118,-1.19265 -0.059633,0.0033 -0.1034578,1.192693 -0.097389,2.643755 l 0.011034,2.638291 2.4826917,1.251654 c 1.3654803,0.688415 2.531482,1.257631 2.5911147,1.264936 0.059632,0.0073 0.1043564,-1.206484 0.099386,-2.697295 z M 68.646893,95.033167 c 8.11031,-4.222474 7.980249,-4.150493 7.983161,-4.418112 0.0044,-0.388822 -0.158107,-0.698501 -0.366164,-0.698501 -0.16551,0 -3.216534,1.54051 -11.927848,6.022543 l -1.815762,0.934222 -3.749945,-1.937687 c -8.524625,-4.404889 -9.734381,-5.019078 -9.88594,-5.019078 -0.0873,0 -0.234081,0.16539 -0.326185,0.367541 l -0.167461,0.367535 0.278984,0.265832 c 0.279723,0.266536 2.494938,1.430955 9.880918,5.193871 3.301518,1.682018 4.020465,1.998019 4.302136,1.890927 0.186005,-0.07072 2.793355,-1.40681 5.794106,-2.969093 z m -47.577324,0.976506 c 2.843197,-1.311827 3.231022,-1.50476 3.231022,-1.607387 0,-0.0477 -0.424399,-0.296041 -0.94311,-0.55183 l -0.94311,-0.46507 -0.129375,0.340282 c -0.09891,0.260143 -0.676854,0.590612 -2.454139,1.403258 -1.27862,0.584641 -2.324764,1.101918 -2.324764,1.149508 0,0.0839 1.133523,0.694714 1.322738,0.712778 0.05167,0.0049 1.060001,-0.436762 2.240738,-0.981539 z m 48.132427,-3.743957 c 3.687986,-1.888364 6.705975,-3.515514 6.706647,-3.61589 5.46e-4,-0.100376 -0.340315,-0.400941 -0.757746,-0.667931 -0.746255,-0.477304 -6.77595,-3.656667 -9.249616,-4.877183 l -1.262472,-0.622904 -0.206544,0.282469 -0.206549,0.282464 0.529352,0.159484 c 1.02838,0.309837 8.551951,4.212551 9.049498,4.694264 l 0.280011,0.271093 -0.261068,0.28848 c -0.143589,0.158664 -0.855078,0.592759 -1.581084,0.964655 -0.726012,0.371895 -2.850272,1.477446 -4.720578,2.456777 -1.870312,0.979326 -3.764212,1.941419 -4.208672,2.137974 l -0.8081,0.357384 -2.518579,-1.270313 c -3.845787,-1.939724 -8.405903,-4.355769 -8.688618,-4.603401 -0.139143,-0.121876 -0.252987,-0.306422 -0.252987,-0.410098 0,-0.23342 1.642134,-1.131406 6.216242,-3.399283 1.947996,-0.965835 3.567344,-1.77806 3.598553,-1.804948 0.0312,-0.02688 -0.01748,-0.1383 -0.108151,-0.247577 -0.135432,-0.163183 -0.959175,0.205582 -4.610504,2.063983 -2.44508,1.244463 -4.803398,2.451041 -5.240704,2.681275 -0.886689,0.466835 -1.590201,1.047821 -1.590201,1.313248 0,0.0961 1.545025,0.971299 3.433389,1.944893 1.888365,0.973589 4.832045,2.503942 6.541507,3.400774 1.709468,0.896833 3.131396,1.635799 3.159836,1.642154 0.02847,0.0063 3.069152,-1.533478 6.757138,-3.421843 z M 15.554482,89.845229 v -4.625081 l -1.373356,-0.747752 c -0.755346,-0.411257 -1.43841,-0.753009 -1.51792,-0.75944 -0.175032,-0.01415 -0.276444,9.656333 -0.104035,9.920613 0.238725,0.365935 1.681301,0.899991 2.344774,0.868055 l 0.650537,-0.03131 z m 3.752685,3.550287 1.523893,-0.71339 v -4.069263 c 0,-2.238093 -0.05252,-4.047577 -0.11671,-4.021077 -0.06419,0.0265 -0.844836,0.305854 -1.734766,0.620773 l -1.618055,0.572582 v 4.16188 4.161885 h 0.210873 c 0.11598,0 0.896625,-0.321027 1.734765,-0.71339 z m 44.459336,-0.732252 c 0.331376,-0.181421 0.416196,-0.279097 0.245807,-0.283064 -0.264034,-0.0062 -1.11319,0.37802 -1.11319,0.503623 0,0.14295 0.37984,0.04639 0.867383,-0.220559 z m -53.054908,-0.36512 v -0.509682 l -0.433691,0.224268 c -0.53719,0.277792 -0.5448344,0.406241 -0.03614,0.60725 0.218652,0.0864 0.413813,0.164013 0.433691,0.172471 0.01988,0.0085 0.03614,-0.21398 0.03614,-0.494307 z m 51.582068,0.18276 0.04841,-0.251331 h -0.73342 c -0.403384,0 -0.733421,0.03568 -0.733421,0.07926 0,0.129279 0.921436,0.494198 1.154851,0.457355 0.118352,-0.01869 0.236966,-0.147059 0.263586,-0.285288 z m 3.430393,-0.839201 c 0.168302,-0.272322 -0.04109,-0.3084 -0.462994,-0.07977 l -0.410333,0.222372 0.389019,0.0058 c 0.213963,0.0033 0.431899,-0.06359 0.484308,-0.148392 z M 62.2931,90.96332 c 0.03251,-0.44952 -0.0153,-0.638678 -0.177116,-0.700769 -0.222618,-0.08543 -2.235481,1.06684 -2.246802,1.286191 -0.0033,0.06285 0.530789,0.09538 1.186749,0.07229 l 1.19265,-0.04202 z m 2.44921,0.102927 c 0.576445,-0.319688 1.048082,-0.644097 1.048082,-0.720908 0,-0.08003 -0.586323,-0.139655 -1.373355,-0.139655 h -1.373355 v 0.722815 0.722821 l 0.325267,-0.0022 c 0.178903,-0.0011 0.796911,-0.263471 1.373361,-0.58316 z m -6.035541,-0.426872 v -0.433691 l -0.975807,0.0068 -0.975802,0.0068 0.795097,0.420054 c 1.014889,0.53616 1.156512,0.53616 1.156512,0 z m 8.917415,-0.261898 c -0.458169,-0.05522 -0.966409,0.198244 -0.966409,0.481948 0,0.167144 0.13647,0.144027 0.670133,-0.113505 l 0.670128,-0.323393 z m -7.327212,-0.0584 c 0,-0.06236 -0.195162,-0.11339 -0.433691,-0.11339 h -0.433708 v 0.369578 0.369585 l 0.433691,-0.256188 c 0.238529,-0.140901 0.433692,-0.307215 0.433692,-0.369585 z m 7.806445,-1.313755 c 0.516812,-0.312728 0.966769,-0.593427 0.999897,-0.623778 0.03311,-0.03032 -0.503563,-0.05519 -1.19265,-0.05519 h -1.252889 v 0.718286 0.71828 l 0.252992,-0.09451 c 0.139142,-0.05196 0.675832,-0.350368 1.19265,-0.66309 z m 1.301074,0.321191 v -0.445482 l -0.542116,0.324054 c -0.849964,0.508076 -0.864219,0.56691 -0.137333,0.56691 h 0.679449 z m -12.352241,-0.349619 1.141547,-0.65054 h -1.189153 -1.189153 v 0.65054 c 0,0.357793 0.02142,0.650534 0.04759,0.650534 0.02617,0 0.561305,-0.292741 1.189153,-0.650534 z m 1.628434,0.252986 c 0.0259,-0.18247 -0.03005,-0.325267 -0.127504,-0.325267 -0.18995,0 -1.147485,0.559621 -1.147485,0.670635 0,0.03787 0.27648,0.04879 0.614396,0.02437 0.510748,-0.03694 0.622188,-0.09933 0.660593,-0.369721 z m 3.305595,0.08322 c 0.184021,-0.172881 0.334583,-0.465622 0.334583,-0.65054 v -0.336211 h -1.445653 -1.445636 v 0.65054 0.650534 h 1.111053 1.111048 z m 3.92046,-0.372355 -0.04404,-0.686677 -0.334152,-0.04737 c -0.308799,-0.04377 -2.23134,0.982927 -2.423836,1.294398 -0.04294,0.06948 0.579871,0.126318 1.384021,0.126318 h 1.462087 z M 55.092676,88.832329 v -0.505978 l -0.542113,0.0022 c -0.513942,0.0022 -1.046346,0.199343 -0.899337,0.33319 0.121514,0.110632 1.221389,0.663571 1.333031,0.670149 0.05963,0.0033 0.108419,-0.221296 0.108419,-0.499579 z m 16.086843,0.03611 0.899401,-0.469829 -0.770695,-0.04409 c -0.443963,-0.02541 -0.857652,0.02808 -0.975807,0.126122 -0.191862,0.159238 -0.296675,0.857646 -0.128706,0.857646 0.04202,0 0.481134,-0.211428 0.975807,-0.469835 z m -7.702145,-0.397548 c 0.17535,-0.113319 0.154604,-0.140562 -0.108425,-0.142349 -0.178896,-0.0011 -0.325267,0.06284 -0.325267,0.142349 0,0.181126 0.153419,0.181126 0.433692,0 z m -9.030591,-0.932287 c 0.275729,-0.115211 0.501331,-0.27565 0.501331,-0.356537 0,-0.11385 -0.779754,0.240327 -1.144464,0.51984 -0.146919,0.112598 0.183771,0.02863 0.643133,-0.163303 z m 4.231765,-0.549492 0.04404,-0.686678 h -0.672007 c -0.803461,0 -2.23511,0.765761 -2.23511,1.195519 v 0.260586 l 1.409499,-0.04136 1.409498,-0.04136 z m 3.614902,0.144562 c 0.0247,-0.298161 -0.01437,-0.542116 -0.08673,-0.542116 -0.166609,0 -1.26916,0.794141 -1.402827,1.010426 -0.07044,0.113976 0.129236,0.149015 0.672242,0.11797 l 0.772449,-0.04415 z m 2.923858,0.163789 c 1.134755,-0.698222 0.963928,-0.91329 -0.765805,-0.964125 l -1.407821,-0.04136 v 0.728049 0.728055 h 0.720646 c 0.553727,0 0.890277,-0.104375 1.45298,-0.450607 z m 4.187183,-0.121843 v -0.572451 l -0.564179,-0.169034 -0.564178,-0.169029 -0.809177,0.462966 c -0.542328,0.310286 -0.809182,0.554814 -0.809182,0.74148 v 0.27854 h 1.373361 1.373355 z m 1.284464,0.441215 c 0.159981,-0.101321 0.13818,-0.160025 -0.108424,-0.292004 l -0.308657,-0.165187 v 0.294216 c 0,0.319005 0.105566,0.360257 0.417081,0.162975 z m -9.401057,-1.24519 c 0.03808,-0.03808 -0.364482,-0.06921 -0.894549,-0.06921 h -0.963776 v 0.647382 0.647387 l 0.894549,-0.578177 c 0.492001,-0.317994 0.925693,-0.60932 0.963759,-0.647381 z M 67.17226,85.6473 c -0.357564,-0.270449 -0.514485,-0.269045 -0.514485,0.0044 0,0.1413 0.138508,0.215247 0.397554,0.212248 l 0.397548,-0.0044 z m -8.537772,-0.06769 c 0.04912,-0.07951 0.02431,-0.144562 -0.05522,-0.144562 -0.07951,0 -0.18477,0.06505 -0.233912,0.144562 -0.04912,0.07951 -0.02431,0.144562 0.05522,0.144562 0.07952,0 0.18477,-0.06505 0.233912,-0.144562 z m 3.614093,-0.722821 v -0.795096 l -0.539297,0.03262 c -0.296609,0.01792 -0.930883,0.230311 -1.409492,0.471911 -0.717724,0.362306 -0.870203,0.503158 -0.870203,0.803843 v 0.364563 l 1.409499,-0.04136 1.409493,-0.04136 z m 3.686379,0.438778 c 0,-0.280567 -0.09981,-0.482019 -0.288966,-0.583253 -0.236463,-0.126553 -0.47939,-0.04901 -1.337211,0.426698 l -1.048252,0.58134 1.337212,0.0022 1.337217,0.0016 z m -2.101427,-0.530658 c 0.761909,-0.42584 0.683465,-0.62492 -0.247735,-0.628722 l -0.542116,-0.0022 v 0.505972 c 0,0.278284 0.02431,0.505973 0.05409,0.505973 0.02972,0 0.360837,-0.171455 0.735776,-0.381009 z M 22.165227,82.178763 c 4.982322,-1.854861 5.145835,-1.924989 5.360498,-2.29919 0.125379,-0.218559 0.172446,-2.025567 0.17439,-6.695353 l 0.0027,-6.396001 -0.291597,0.09022 c -1.060406,0.328087 -9.633978,3.6461 -9.819779,3.8003 l -0.229874,0.190781 v 6.415387 6.415386 h 0.358362 c 0.197098,0 2.1975,-0.684688 4.445336,-1.521528 z m -6.538479,-5.423271 v -6.222005 l 0.287191,-0.562944 c 0.450377,-0.882807 0.20691,-0.766531 6.977139,-3.332235 1.331794,-0.504711 2.421158,-0.954351 2.420809,-0.999203 -3.48e-4,-0.04486 -0.874344,-0.556027 -1.942212,-1.135952 l -1.94158,-1.054399 -4.67158,1.824864 c -2.569369,1.003673 -4.866741,1.946096 -5.105272,2.094275 -0.886304,0.55059 -0.863914,0.378943 -0.90471,6.935772 -0.02053,3.299672 0.01611,6.081154 0.08141,6.181076 0.138508,0.21192 4.350551,2.481272 4.618094,2.488124 0.141837,0.0038 0.180706,-1.333683 0.180706,-6.217373 z m 48.821712,3.316391 c 1.210265,-1.3455 1.71644,-2.015054 1.748627,-2.313019 0.02601,-0.240867 -0.02382,-0.419359 -0.117155,-0.419359 -0.08936,0 -1.168396,0.398684 -2.397872,0.885959 -2.273035,0.900871 -2.70547,0.974993 -3.601953,0.617402 -0.238479,-0.09512 -0.216542,-0.02797 0.125231,0.383309 1.140525,1.372492 2.343655,2.72049 2.436075,2.729385 0.05704,0.0055 0.870213,-0.842162 1.807047,-1.883677 z m -55.4414764,-6.165766 0.04211,-6.035541 0.3126009,-0.578254 c 0.1719303,-0.318038 0.5297252,-0.786157 0.7951005,-1.040258 0.42595,-0.407858 0.811836,-0.612522 2.648809,-1.40487 l 0.431543,-0.186137 -1.298926,-0.65008 -1.298926,-0.650076 -0.04222,-1.106272 c -0.02322,-0.608446 -0.05943,-1.106267 -0.08045,-1.106267 -0.02102,0 -0.6974891,0.25692 -1.5032497,0.570932 -2.2812548,0.889036 -2.6221867,1.096541 -2.9355253,1.78671 l -0.2750873,0.605917 0.00317,6.577651 c 0.00333,6.911339 0.033373,7.272744 0.663412,7.980768 0.2389583,0.268536 2.1233343,1.271313 2.3889988,1.271313 0.058592,0 0.1254806,-2.715993 0.1486423,-6.035536 z m 55.2654754,2.129352 c 0.954121,-0.378982 3.296054,-1.288884 5.204296,-2.022015 1.908242,-0.733126 3.583376,-1.392883 3.722517,-1.466126 l 0.252987,-0.133164 V 65.55247 c 0,-4.58478 -0.04912,-6.861694 -0.148015,-6.861694 -0.320263,0 -10.620967,3.972312 -11.091818,4.277391 l -0.325272,0.210751 v 6.873189 6.87319 l 0.325272,-0.100387 c 0.178897,-0.05521 1.105912,-0.410459 2.060033,-0.789441 z m 37.258501,-0.539154 c 0.0303,-0.655069 -0.008,-1.048667 -0.10088,-1.049634 -0.22342,-0.0022 -2.676161,0.929299 -2.677767,1.017081 -0.0033,0.165881 2.674567,1.39904 2.701637,1.244222 0.0157,-0.08997 0.0504,-0.635219 0.077,-1.211669 z m -41.380785,-5.49342 c -0.0011,-3.717097 -0.04999,-6.833129 -0.108418,-6.924512 -0.05842,-0.09139 -1.342233,-0.788359 -2.852922,-1.548837 -1.510694,-0.760472 -3.153922,-1.612441 -3.651623,-1.893265 l -0.904912,-0.51059 0.03753,6.974588 0.03753,6.974593 3.257909,1.662485 c 1.791852,0.914366 3.385667,1.741824 3.541812,1.838791 0.660713,0.410317 0.645436,0.566468 0.643098,-6.573253 z m -23.20027,1.414656 c 3.895994,-1.521698 7.76669,-3.039867 8.601546,-3.373695 l 1.517919,-0.606972 0.0392,-2.855134 c 0.02156,-1.570321 0.0043,-2.855134 -0.03837,-2.855134 -0.06351,0 -11.926228,4.614727 -16.372674,6.369151 l -1.192652,0.470583 v 2.884126 c 0,2.25101 0.03967,2.867625 0.180705,2.808965 0.09939,-0.04136 3.368336,-1.320192 7.26433,-2.84189 z m 61.222761,2.292338 c 0.834857,-0.325699 1.680554,-0.65626 1.879324,-0.734579 l 0.36141,-0.142409 -0.675205,-0.345789 -0.675214,-0.34579 -0.698141,0.310532 c -0.383981,0.170793 -1.280197,0.519074 -1.991593,0.773962 l -1.293441,0.463436 0.570626,0.300817 c 0.313842,0.16545 0.668204,0.303335 0.787469,0.306406 0.119264,0.0033 0.899909,-0.260893 1.734765,-0.586586 z m -5.637987,-12.13637 c 0,-5.879052 -0.02093,-10.68919 -0.04655,-10.68919 -0.02557,0 -0.659604,0.248462 -1.408914,0.552137 l -1.362378,0.552136 -5.46e-4,9.510172 -5.47e-4,9.51017 1.301069,0.693152 c 0.715592,0.381228 1.349866,0.663325 1.409498,0.626882 0.05963,-0.03644 0.108424,-4.876402 0.108424,-10.755459 z m 3.190793,10.009335 1.362963,-0.552361 0.03715,-9.698289 0.03715,-9.698292 -1.338151,-0.722444 c -0.735978,-0.397346 -1.381327,-0.695758 -1.434102,-0.663145 -0.09516,0.05881 -0.172411,21.886885 -0.07746,21.886885 0.02721,0 0.662806,-0.24856 1.412432,-0.552354 z M 34.781449,64.547787 c 5.354896,-2.097733 11.491057,-4.453408 12.034935,-4.620219 l 0.325268,-0.09976 v -0.929922 c 0,-0.511458 -0.05766,-0.929921 -0.128135,-0.929921 -0.07047,0 -2.266037,0.819875 -4.879028,1.821946 -2.61299,1.002077 -5.238795,2.005012 -5.835121,2.228756 -0.913816,0.34286 -6.411337,2.471158 -7.494763,2.9015 l -0.338857,0.134596 0.447279,0.417824 c 0.286848,0.267952 0.44728,0.55812 0.44728,0.80898 0,0.254637 0.06307,0.36623 0.180705,0.319744 0.09939,-0.03929 2.457584,-0.963361 5.240437,-2.05352 z m -19.15518,-12.32624 -4.78e-4,-11.528962 -1.336737,-0.605321 c -0.735205,-0.332928 -1.45058,-0.648895 -1.589723,-0.702146 l -0.252987,-0.09682 V 50.794 62.299699 l 1.481779,0.712619 c 0.814978,0.391937 1.530569,0.718374 1.590201,0.725406 0.05963,0.007 0.108208,-5.175246 0.107945,-11.516173 z m 3.578432,10.235298 1.626342,-0.642448 V 50.627049 c 0,-6.153047 -0.05185,-11.165667 -0.11523,-11.139162 -0.06338,0.0265 -0.844021,0.308335 -1.734765,0.626292 l -1.619535,0.5781 v 11.252033 c 0,6.188624 0.04879,11.230196 0.108423,11.203505 0.05963,-0.02672 0.840277,-0.337631 1.734765,-0.690972 z m 58.620117,-7.872887 c 1.928393,-0.748058 6.563692,-2.539931 10.300666,-3.981945 3.736974,-1.442008 6.973397,-2.691886 7.192048,-2.777498 L 95.71508,47.66885 v -2.65689 c 0,-1.46129 -0.04065,-2.656891 -0.09037,-2.656891 -0.04972,0 -1.074293,0.386031 -2.276876,0.857849 -3.835574,1.504842 -24.012929,9.251889 -25.095832,9.635483 -0.23247,0.08235 5.396475,3.070061 5.814157,3.086016 0.138869,0.0055 1.830268,-0.602398 3.758655,-1.350459 z m 27.024902,-5.293285 c 2.0921,-0.797003 3.95019,-1.511202 4.12909,-1.587106 l 0.32527,-0.138005 v -6.002496 c 0,-3.301374 -0.04,-6.002497 -0.0889,-6.002497 -0.0698,0 -4.42082,1.60724 -8.00667,2.957631 l -0.50598,0.190545 -0.0378,6.015511 -0.0378,6.015511 h 0.20942 c 0.11517,0 1.92113,-0.652091 4.01323,-1.449094 z m -5.954233,-4.74575 V 38.783775 L 97.847399,38.3021 c -0.57645,-0.264921 -1.649836,-0.760324 -2.385305,-1.100895 l -1.337212,-0.61922 v 1.049755 1.049757 l 1.323017,0.644131 c 0.727662,0.354275 1.47578,0.762701 1.662484,0.907613 l 0.339463,0.263482 v 3.936923 3.936929 l -0.362613,0.491499 -0.362618,0.491493 0.254194,0.144065 c 0.224585,0.127285 1.787043,0.796134 1.880535,0.805013 0.01989,0.0016 0.03612,-2.58909 0.03612,-5.757722 z M 15.626748,35.864332 v -2.87664 L 14.361814,32.335847 C 13.238,31.756723 10.182228,30.356273 10.042399,30.356273 c -0.0295,0 -0.053638,1.296013 -0.053638,2.880029 v 2.88003 l 1.843188,0.880887 c 1.013754,0.484489 2.233511,1.071128 2.710571,1.303641 0.477061,0.232518 0.916173,0.426659 0.975806,0.431435 0.05963,0.0049 0.108423,-1.285811 0.108423,-2.867963 z m 5.240436,1.649757 3.144263,-1.131636 v -2.868526 c 0,-2.202304 -0.04197,-2.866846 -0.180705,-2.861291 -0.09939,0.004 -1.579359,0.508146 -3.288826,1.12037 l -3.108121,1.113133 -0.03919,2.944053 c -0.03104,2.331734 -9.84e-4,2.930689 0.144564,2.879794 0.101063,-0.03535 1.598669,-0.573497 3.328013,-1.195897 z m 82.726626,-1.805866 c 1.98775,-0.738083 3.66114,-1.383761 3.71864,-1.43484 0.13546,-0.120334 -3.56424,-1.747904 -3.98036,-1.751036 -0.3158,-0.0024 -7.448871,2.416034 -7.651579,2.594206 -0.124751,0.109655 3.940053,2.045559 4.15464,1.978689 0.07951,-0.02478 1.770899,-0.648936 3.758659,-1.387019 z M 27.198761,33.236447 c 1.920774,-0.700996 11.656244,-4.061824 29.700945,-10.253208 1.11314,-0.381934 6.512599,-2.235092 11.998796,-4.118129 5.486192,-1.883037 12.219251,-4.182506 14.962349,-5.10993 l 4.987454,-1.686226 0.0406,-1.683823 0.0406,-1.6838234 -2.570469,0.8643563 C 83.56466,10.505315 71.413822,14.622835 58.706755,18.936117 c -8.029699,2.725599 -13.955596,4.747021 -24.792686,8.457199 -3.180404,1.08884 -6.286718,2.149693 -6.902921,2.357449 l -1.120369,0.377739 v 1.776368 c 0,0.977002 0.02007,1.776368 0.04461,1.776368 0.02454,0 0.593054,-0.200157 1.263372,-0.444793 z m -7.241694,-3.172872 2.667837,-0.977182 -2.469847,-1.236539 -2.469848,-1.23654 -1.643627,0.615333 c -0.903995,0.338433 -2.245374,0.836333 -2.980842,1.106444 -0.735468,0.270111 -1.337215,0.529074 -1.337215,0.575474 0,0.0464 1.076042,0.615734 2.391204,1.265187 l 2.391204,1.180824 0.391649,-0.15791 c 0.215407,-0.08685 1.592175,-0.597641 3.059485,-1.135091 z m 9.981495,-3.260064 c 2.425057,-0.840774 6.100592,-2.103127 8.167854,-2.805229 2.067262,-0.702101 8.377471,-2.851661 14.022687,-4.776799 5.645214,-1.925138 16.070067,-5.453213 23.166345,-7.840167 7.096273,-2.3869543 12.902317,-4.3856566 12.902317,-4.4415608 0,-0.11655 -2.299698,-1.1622803 -2.552094,-1.1605013 -0.09174,6.557e-4 -5.914042,1.9263284 -12.93846,4.2792931 -11.794897,3.950931 -15.981173,5.355709 -36.118715,12.120274 -3.935749,1.32209 -8.708208,2.933634 -10.605464,3.581212 l -3.449557,1.177412 0.702845,0.362227 c 0.386565,0.199225 1.06064,0.51154 1.497946,0.694036 0.437305,0.182495 0.795101,0.333311 0.795101,0.335146 0,0.0019 1.984138,-0.684569 4.409195,-1.525343 z M 95.414668,12.413024 c 1.397636,-0.486597 2.752578,-0.97118 3.010985,-1.076852 l 0.469834,-0.192129 V 8.3744871 5.6049321 L 98.642501,5.7054676 C 98.503354,5.7607621 97.186019,6.2164951 95.71508,6.7182068 94.244147,7.219919 92.926807,7.676501 92.787665,7.7328331 l -0.252986,0.1024228 v 2.7312451 c 0,1.991587 0.0459,2.731245 0.169417,2.731245 0.09318,0 1.312941,-0.398125 2.710572,-0.884722 z m -0.89285,-7.2199556 c 1.530233,-0.5118072 2.782515,-0.9652087 2.782854,-1.0075589 3.38e-4,-0.04235 -1.10877,-0.5777534 -2.464679,-1.1897852 l -2.46529,-1.1127851 -0.852395,0.2949894 c -2.639876,0.9135827 -4.694975,1.708998 -4.67442,1.8092068 0.03054,0.1487511 4.557395,2.2209471 4.747127,2.173014 0.07951,-0.020085 1.396571,-0.455274 2.926803,-0.967081 z"
       id="path1" /></g></svg>
