<?xml version="1.0" encoding="UTF-8" standalone="no"?>
<!-- Created with Inkscape (http://www.inkscape.org/) -->

<svg
   width="60.953564mm"
   height="87.922867mm"
   viewBox="0 0 60.953564 87.922867"
   version="1.1"
   id="svg1"
   xml:space="preserve"
   xmlns="http://www.w3.org/2000/svg"
   xmlns:svg="http://www.w3.org/2000/svg"><defs
     id="defs1" /><g
     id="layer1"><path
       style="fill:#000000;stroke-width:1"
       d="m 0.10841687,22.239322 c 0.12707,-1.86345 0.17501,-1.956795 1.00502503,-1.956795 0.810848,0 0.873404,0.09211 0.93714,1.379825 l 0.05149,1.040421 0.422329,0.03092 0.422329,0.03092 0.06432,-0.688786 c 0.07489,-0.802015 0.227533,-1.080305 0.720954,-1.31445 0.315955,-0.14993 0.894354,-0.169834 4.925449,-0.169494 4.3484111,3.67e-4 4.5832651,0.01003 4.8971691,0.201424 0.659238,0.401961 0.648682,0.308748 0.648682,5.728549 0,4.743738 -0.007,4.922112 -0.207599,5.246599 -0.418122,0.676529 -0.415872,0.676261 -5.4274571,0.644175 -4.051822,-0.02592 -4.546053,-0.04715 -4.870797,-0.209071 -0.475999,-0.237329 -0.607329,-0.469646 -0.684867,-1.211511 l -0.06444,-0.616577 h -0.448782 -0.448779 v 0.970924 c 0,0.926237 -0.01249,0.980748 -0.271362,1.184376 -0.319532,0.251343 -1.02924803,0.287945 -1.32928703,0.06855 -0.149441,-0.109274 -0.216423,-0.330863 -0.272401,-0.901158 -0.127674,-1.300731 -0.175848,-7.893613 -0.06912,-9.458838 z m 0.502744,7.451229 c 0.147133,2.465186 0.140566,2.435735 0.54293003,2.435735 l 0.33005,-4e-6 V 26.487626 20.848967 H 1.1236789 0.76321787 l -0.112315,1.802311 c -0.152313,2.444174 -0.166284,4.919021 -0.03974,7.039273 z m 1.90287103,0.06698 h 0.463453 v -3.244158 -3.244161 h -0.463453 -0.46345 v 3.244161 3.244158 z m 1.061576,1.276267 c 0.0476,0.267598 0.167957,0.473017 0.362045,0.617935 0.28527,0.212998 0.374965,0.217078 4.772142,0.217078 h 4.4814071 l 0.248579,-0.288964 0.248583,-0.288964 v -4.816797 -4.816797 l -0.265675,-0.249678 -0.265671,-0.249678 -4.2401071,-0.03072 c -2.332058,-0.0169 -4.382673,-0.0047 -4.556925,0.02706 -0.454193,0.08283 -0.667237,0.27223 -0.762795,0.678127 -0.102119,0.433774 -0.121368,8.640445 -0.0216,9.201401 z m -3.45883003,8.713685 c 0.114517,-1.791701 0.148588,-1.853805 1.01702203,-1.853805 0.810202,0 0.916782,0.158316 0.916782,1.361777 0,0.868391 0.0091,0.904042 0.231725,0.905393 0.127448,7.78e-4 0.330353,0.02787 0.4509,0.06023 0.204419,0.05486 0.222067,0.01327 0.262238,-0.617558 0.03655,-0.574156 0.08815,-0.72343 0.341416,-0.987778 0.164088,-0.17127 0.463188,-0.357199 0.664661,-0.413166 0.215006,-0.05973 2.153053,-0.101069 4.691862,-0.100076 4.0272531,0.0016 4.3552631,0.01518 4.7564241,0.197311 0.773943,0.35138 0.7535,0.195929 0.7535,5.730208 0,4.746506 -0.007,4.921941 -0.207953,5.247172 -0.401839,0.650188 -0.533963,0.66649 -5.3812961,0.663968 -4.066041,-0.0019 -4.37757,-0.01514 -4.784785,-0.199989 -0.57602,-0.261483 -0.850905,-0.719888 -0.851404,-1.419827 l -3.85e-4,-0.540696 h -0.463453 -0.46345 v 0.955481 c 0,1.260359 -0.09919,1.413272 -0.916782,1.413272 -0.43838603,0 -0.63829303,-0.04769 -0.75546903,-0.180231 -0.337866,-0.382178 -0.495847,-6.556042 -0.261553,-10.221681 z m 0.495017,7.515459 c 0.149835,2.40472 0.142236,2.371506 0.54229603,2.371509 h 0.33005 v -5.617594 -5.617594 l -0.360462,0.03044 -0.36046103,0.03044 -0.112739,1.750818 c -0.152286,2.364981 -0.166724,4.997008 -0.03869,7.052006 z m 1.63451403,-0.07307 c 0.107651,0.02814 0.316204,0.02814 0.463453,8e-6 l 0.267723,-0.05118 v -3.18066 -3.18066 h -0.463453 -0.46345 v 3.180652 c 0,3.038517 0.0088,3.182941 0.195727,3.231838 z m 1.344514,1.557081 c 0.05412,0.142337 0.225781,0.342322 0.381478,0.444411 0.258178,0.169285 0.636907,0.188518 4.304398,0.218615 2.2117181,0.01814 4.2240971,0.0027 4.4719441,-0.03398 0.268836,-0.03997 0.549291,-0.165649 0.695179,-0.311537 l 0.244542,-0.244542 v -4.770764 c 0,-5.310277 0.02409,-5.126356 -0.698214,-5.326964 -0.482246,-0.133934 -8.0463771,-0.140524 -8.6223131,-0.0075 -0.227692,0.05258 -0.515605,0.215287 -0.64368,0.363747 l -0.231725,0.26861 v 4.570572 c 0,2.655441 0.04123,4.67901 0.09839,4.829362 z m -3.48251903,8.414246 c 0.105113,-1.656133 0.162158,-1.75935 0.97236703,-1.75935 0.463948,0 0.574082,0.03951 0.756458,0.271362 0.177307,0.225411 0.213453,0.417253 0.213453,1.132882 v 0.861517 h 0.46345 0.463453 v -0.466758 c 0,-0.698055 0.223442,-1.133249 0.709032,-1.380979 0.400784,-0.204466 0.576087,-0.212045 4.903085,-0.212045 4.9603561,0 5.0207681,0.0071 5.4050871,0.637484 0.2009,0.329516 0.207864,0.507594 0.208233,5.32617 l 3.86e-4,4.985251 -0.252418,0.33094 c -0.173683,0.22771 -0.39672,0.36727 -0.715033,0.44742 -0.549147,0.13828 -8.4107121,0.15607 -9.1119041,0.0206 -0.276672,-0.0534 -0.564838,-0.20187 -0.748498,-0.38553 -0.24995,-0.24995 -0.309158,-0.41134 -0.363194,-0.99 -0.0627,-0.67147 -0.07278,-0.69137 -0.350213,-0.69137 -0.585191,0 -0.611466,0.0462 -0.611466,1.07445 0,0.85926 -0.02261,0.9707 -0.238365,1.17336 -0.309785,0.29103 -1.18976003,0.31778 -1.43737803,0.0437 -0.334498,-0.37025 -0.498194,-6.769233 -0.266535,-10.419122 z m 0.565207,9.080264 0.06725,0.90115 h 0.37169103 0.371692 l -0.0046,-5.587157 -0.0046,-5.587166 -0.330817,-0.03235 c -0.20434503,-0.01997 -0.34971003,0.01942 -0.38023903,0.102992 -0.216696,0.593307 -0.279373,7.669657 -0.09036,10.202511 z m 1.84052103,-1.57059 h 0.463453 v -3.192662 -3.192668 h -0.463453 -0.46345 v 3.192668 3.192662 z m 1.318858,1.9143 0.288961,0.24848 h 4.530464 4.5304631 l 0.252791,-0.25279 0.252795,-0.2528 V 61.492047 56.65603 L 13.367746,56.386248 13.047128,56.11647 8.6376789,56.14535 c -4.296785,0.02818 -4.416881,0.03445 -4.700111,0.245376 -0.177063,0.131874 -0.316333,0.353245 -0.356363,0.566441 -0.03612,0.192481 -0.05931,2.381614 -0.05149,4.864745 l 0.01421,4.514781 z M 15.789344,16.410135 16.139506,16.059972 h 14.26946 c 10.238446,0 14.340353,0.0323 14.52042,0.114345 0.138028,0.06289 0.302417,0.227279 0.365308,0.365309 0.08288,0.181908 0.114346,7.760551 0.114346,27.542937 v 27.29197 l -0.239171,0.23918 c -0.207389,0.20739 -0.368196,0.24563 -1.210125,0.28779 -0.534021,0.0267 -6.995818,0.0444 -14.359547,0.0394 -10.673972,-0.007 -13.435366,-0.036 -13.61926,-0.14104 -0.579917,-0.33134 -0.541759,1.63292 -0.541759,-27.886455 v -27.15307 z m 0.325106,54.726148 0.160321,0.22889 h 14.186075 c 10.896294,0 14.214733,-0.0286 14.30966,-0.12358 0.179989,-0.17999 0.179989,-54.363102 0,-54.543089 -0.09492,-0.09492 -3.403218,-0.123587 -14.264005,-0.123587 -14.0031,0 -14.142421,0.002 -14.346396,0.205979 -0.204932,0.204929 -0.205979,0.343297 -0.205979,27.166235 0,24.234452 0.01619,26.983392 0.160324,27.189152 z M 16.958271,0.48227076 c 0.445346,-0.39843 5.769328,-0.608348 8.879615,-0.350112 2.169352,0.180114 2.165977,0.178465 2.165977,1.05808104 0,0.459927 -0.03993,0.570691 -0.271362,0.752735 -0.228179,0.179486 -0.41665,0.213453 -1.184376,0.213453 H 25.63511 v 0.463452 0.463451 l 0.437705,0.0058 c 0.660776,0.0088 1.123015,0.2093 1.386786,0.601606 l 0.235295,0.349945 v 4.938551 4.9385502 l -0.340925,0.340923 c -0.242815,0.242815 -0.472504,0.360023 -0.798167,0.407296 -0.251483,0.0365 -2.296122,0.05225 -4.543647,0.03499 -3.96261,-0.03044 -4.095208,-0.03793 -4.377041,-0.247292 -0.550903,-0.40925 -0.544959,-0.349117 -0.54659,-5.5308562 -0.0016,-5.433493 -0.02106,-5.288404 0.751982,-5.639376 0.236979,-0.107593 0.627842,-0.196642 0.868577,-0.197886 l 0.437705,-0.0023 v -0.463452 -0.463452 h -0.931582 c -0.851773,0 -0.953243,-0.02166 -1.184376,-0.252792 -0.31889,-0.318888 -0.361953,-1.16246104 -0.07256,-1.42136504 z m 5.04647,1.06936604 c 2.591467,0.0072 4.827322,0.02462 4.968566,0.03864 0.405435,0.04025 0.515609,-0.04885 0.515609,-0.416951 0,-0.32598904 -0.02188,-0.34601204 -0.437705,-0.40074804 -2.559824,-0.336952 -6.393642,-0.335377 -9.217535,0.0038 -0.532977,0.06401 -0.540692,0.06991 -0.540692,0.41353604 v 0.348596 z m -4.154233,12.3140712 0.248556,0.288963 h 4.291888 4.291884 L 26.93437,13.862248 27.1859,13.569824 27.15717,8.8443088 27.12844,4.1187928 26.893974,3.8842818 c -0.234348,-0.234393 -0.236387,-0.234526 -4.068073,-0.266577 -2.108484,-0.01764 -4.036396,-0.0023 -4.284243,0.034 -0.269945,0.03957 -0.548688,0.164117 -0.695178,0.310606 l -0.244543,0.244542 v 4.684947 4.6849472 z M 22.390952,3.0833308 h 2.729215 v -0.45144 c 0,-0.3811 -0.03612,-0.461115 -0.231729,-0.513539 -0.310019,-0.08308 -3.795878,-0.08213 -4.593659,0.0012 l -0.633042,0.06617 v 0.44878 0.44878 z M 16.974803,86.078293 c 0.177553,-0.21939 0.293207,-0.24662 1.184376,-0.27882 l 0.987611,-0.0357 v -0.44113 -0.44113 l -0.619317,-0.0448 c -0.66674,-0.0482 -1.086819,-0.27612 -1.31021,-0.71081 -0.09556,-0.18594 -0.127596,-1.44699 -0.128737,-5.0674 -0.0016,-5.4335 -0.02106,-5.28841 0.751982,-5.63938 0.400274,-0.18173 0.723449,-0.19562 4.550444,-0.19562 3.826991,0 4.15017,0.0139 4.55044,0.19562 0.773612,0.35123 0.753504,0.19904 0.753504,5.70273 0,4.85333 -0.0016,4.88495 -0.223271,5.16705 -0.276196,0.35113 -0.775359,0.56785 -1.307889,0.56785 h -0.404895 l -0.03686,0.46346 -0.03686,0.46345 h 0.888009 c 0.742429,0 0.932497,0.035 1.159371,0.21345 0.237478,0.1868 0.271362,0.2881 0.271362,0.8113 0,0.39995 -0.05004,0.63938 -0.151169,0.72331 -0.312358,0.25923 -3.248915,0.43554 -6.234163,0.37429 -3.332031,-0.0684 -4.520227,-0.17889 -4.709784,-0.43813 -0.203574,-0.2784 -0.164279,-1.10497 0.06606,-1.38959 z m 0.652898,1.08887 c 1.553242,0.25048 5.820132,0.33643 7.955915,0.16026 1.929967,-0.15918 1.9053,-0.1518 1.9053,-0.57003 v -0.3558 h -5.029304 c -2.76612,0 -5.060203,0.0309 -5.097968,0.0687 -0.03776,0.0378 -0.06866,0.19788 -0.06866,0.3558 0,0.24422 0.05003,0.2952 0.334717,0.34111 z m 0.222807,-3.1658 0.248556,0.28896 h 4.291888 4.291884 l 0.248556,-0.28896 0.248556,-0.28897 v -4.63554 c 0,-3.12363 -0.03628,-4.70336 -0.111279,-4.84347 -0.248704,-0.46471 -0.56924,-0.49949 -4.597169,-0.49888 -2.289039,3.4e-4 -3.939796,0.0427 -4.171334,0.10699 -0.721161,0.20029 -0.698214,0.0289 -0.698214,5.21355 v 4.65735 z m 4.566189,1.86125 2.70347,0.0274 v -0.51665 -0.51666 h -2.734859 -2.734855 l 0.03137,0.4892 0.03137,0.4892 z M 33.026478,0.51248676 c 0.166412,-0.205511 0.346285,-0.237386 2.08553,-0.369572 C 36.158886,0.06335476 37.780115,-9.5623605e-4 38.71474,1.0763955e-5 40.791372,0.00211076 43.701161,0.22755876 43.912084,0.40260976 c 0.189082,0.156925 0.305799,0.73772904 0.218307,1.08632904 -0.137534,0.547981 -0.388024,0.667487 -1.399072,0.667487 h -0.926903 v 0.463452 0.463451 l 0.437705,1.6e-4 c 0.516535,1.89e-4 1.070739,0.257951 1.328251,0.617775 0.170157,0.237762 0.18579,0.634316 0.204228,5.179806 0.01931,4.7626152 0.01335,4.9313732 -0.184263,5.2009552 -0.112326,0.153242 -0.36314,0.36044 -0.557368,0.46044 -0.323716,0.166667 -0.715123,0.17954 -4.697005,0.154484 -4.227409,-0.0266 -4.351654,-0.03312 -4.634514,-0.243241 -0.551529,-0.409694 -0.544974,-0.342291 -0.546605,-5.6208292 l -0.0016,-4.909833 0.264091,-0.313856 c 0.275048,-0.326829 0.785566,-0.524304 1.358025,-0.525287 0.327955,-5.44e-4 0.334716,-0.0099 0.334716,-0.464025 v -0.463452 h -0.880091 c -0.797096,0 -0.903926,-0.02384 -1.132879,-0.252792 -0.314592,-0.314592 -0.351657,-1.04414804 -0.07067,-1.39114704 z m 5.482286,0.97450904 h 5.097964 l 0.03258,-0.28317 c 0.04558,-0.39610704 -0.122825,-0.43915804 -2.325667,-0.59454104 -2.487343,-0.17545 -7.420802,-0.0063 -7.867435,0.269714 -0.05429,0.03355 -0.08447,0.18408104 -0.06706,0.33450304 l 0.03165,0.273494 z m -4.591961,12.3787102 0.248528,0.288963 h 4.274661 4.274664 l 0.265803,-0.249678 0.265808,-0.249678 V 8.9022188 4.1491258 l -0.265808,-0.249678 -0.265803,-0.249679 h -4.274664 -4.274661 l -0.248528,0.288964 -0.248533,0.288963 v 4.674523 4.6745232 z M 38.45727,3.0833288 h 2.729211 v -0.450578 c 0,-0.422256 -0.02024,-0.454623 -0.32184,-0.514946 -0.418078,-0.08362 -3.894958,-0.08183 -4.595893,0.0024 l -0.540692,0.06495 v 0.449107 0.449106 z M 32.951111,86.219873 c 0.129149,-0.32147 0.495629,-0.43621 1.393295,-0.43621 h 0.765714 v -0.46345 -0.46345 h -0.415264 c -0.542261,0 -1.040365,-0.21456 -1.318259,-0.56785 -0.221838,-0.28202 -0.22327,-0.31492 -0.22327,-5.12063 0,-5.47919 -0.01561,-5.36185 0.763013,-5.73877 0.416069,-0.20142 0.615198,-0.21053 4.599193,-0.21037 4.579786,1.7e-4 4.60926,0.004 5.078587,0.64399 0.202656,0.27639 0.207393,0.41029 0.184015,5.20096 -0.02211,4.53413 -0.03834,4.93732 -0.208012,5.17473 -0.257108,0.35975 -0.811373,0.61759 -1.328002,0.61778 l -0.437705,1.6e-4 v 0.51494 0.51495 h 0.971044 c 0.722846,0 1.010254,0.0392 1.124464,0.15342 0.330088,0.33009 0.330598,1.23313 7.78e-4,1.50679 -0.401072,0.33286 -5.089019,0.48837 -8.58468,0.28477 -1.921808,-0.11193 -2.018264,-0.12775 -2.240012,-0.36729 -0.246302,-0.26606 -0.300646,-0.80721 -0.124973,-1.24447 z m 0.639916,0.89029 c 0.348823,0.12876 3.641544,0.32468 5.278199,0.31405 1.924568,-0.0125 4.542336,-0.21981 4.694307,-0.37178 0.06993,-0.0699 0.09279,-0.23242 0.05429,-0.38582 l -0.06652,-0.26502 h -5.037346 -5.037346 l -0.04463,0.23173 c -0.02456,0.12745 -0.05095,0.26763 -0.05866,0.31152 -0.0077,0.0439 0.09025,0.11828 0.2177,0.16532 z m 0.197195,-3.2357 c 0.20478,0.44944 0.556605,0.48162 4.892579,0.44756 l 4.034135,-0.0317 0.265667,-0.24968 0.265664,-0.24967 v -4.75311 -4.7531 l -0.265644,-0.24967 -0.265644,-0.24968 -3.931166,-0.0314 c -2.162143,-0.0173 -4.086968,-0.003 -4.277389,0.0326 -0.190421,0.0352 -0.456906,0.17467 -0.592186,0.30995 l -0.245968,0.24597 v 4.63435 c 0,3.30713 0.03437,4.70975 0.119952,4.89762 z m 4.669048,2.01219 h 2.729211 v -0.51495 -0.51494 H 38.45727 35.728056 v 0.51494 0.51495 z m 8.365949,-64.463924 c 0.100185,-0.194227 0.312953,-0.449126 0.472818,-0.566441 0.282335,-0.207189 0.422454,-0.214079 4.891985,-0.240549 4.226883,-0.02503 4.630061,-0.01246 4.954466,0.154484 0.521187,0.268214 0.712442,0.60415 0.748436,1.314615 l 0.0313,0.617935 0.489198,0.03139 0.489198,0.03139 v -1.024126 c 0,-1.299388 0.10467,-1.468315 0.913661,-1.474582 0.721978,-0.0056 0.857515,0.138967 0.954423,1.017966 0.162337,1.472451 0.217112,6.373082 0.09643,8.627205 -0.145467,2.71702 -0.150041,2.729215 -1.024025,2.729215 -0.858157,0 -0.940492,-0.120173 -0.940492,-1.372716 v -0.996037 h -0.463449 -0.463454 l -1.59e-4,0.489198 c -2.06e-4,0.628165 -0.265442,1.14799 -0.720764,1.412598 -0.34778,0.202115 -0.521716,0.209483 -4.943482,0.209483 -5.04051,0 -4.979842,0.0072 -5.417387,-0.638417 -0.184135,-0.271682 -0.197136,-0.570412 -0.223192,-5.128976 -0.0255,-4.460212 -0.01335,-4.868238 0.154482,-5.193636 z m 0.664781,10.157524 0.22271,0.237066 h 4.596874 c 3.669492,0 4.634787,-0.02772 4.784781,-0.137398 0.109566,-0.08012 0.222554,-0.348465 0.271019,-0.643684 0.111793,-0.680975 0.109718,-8.418685 -0.0023,-8.999893 -0.05694,-0.295103 -0.186829,-0.544741 -0.361723,-0.695177 l -0.272884,-0.234726 h -4.376414 c -3.72145,0 -4.421887,0.02351 -4.680263,0.157128 -0.167121,0.08642 -0.313246,0.167525 -0.324721,0.180231 -0.06243,0.06913 -0.139581,5.122809 -0.111902,7.33 0.03095,2.469285 0.0409,2.578629 0.254932,2.806453 z m 10.949175,-1.925708 h 0.463449 v -3.14117 -3.141172 h -0.463449 -0.463454 v 3.141172 3.14117 z m 1.362645,2.471741 c 0.261425,0 0.343596,-0.04967 0.383346,-0.231724 0.0913,-0.418157 0.262277,-3.864772 0.263289,-5.307412 7.78e-4,-1.333125 -0.183345,-5.405042 -0.255313,-5.641508 -0.01829,-0.06012 -0.188697,-0.09116 -0.378671,-0.06898 l -0.345406,0.04033 v 5.60465 5.604647 z m -13.049014,6.966453 c 0.04851,-0.161858 0.171858,-0.386744 0.274126,-0.499744 0.444466,-0.491133 0.468035,-0.493343 5.253524,-0.493176 4.091055,1.48e-4 4.543757,0.01693 4.864032,0.180231 0.515438,0.262829 0.715579,0.604646 0.748841,1.278933 l 0.0288,0.583911 0.490312,0.03402 0.490311,0.03402 -6.6e-5,-1.004142 c -7.8e-5,-1.253079 0.112272,-1.416101 0.97596,-1.416101 0.821346,0 0.843981,0.05743 0.974151,2.471741 0.136249,2.527104 0.137024,4.846629 0.0023,7.412381 -0.126611,2.414304 -0.150399,2.474583 -0.976622,2.474583 -0.859535,0 -0.976022,-0.165945 -0.976022,-1.390356 V 47.780643 H 58.45118 58.001907 l -0.06612,0.562568 c -0.08897,0.757026 -0.237525,1.047376 -0.675101,1.319517 -0.366573,0.22798 -0.392828,0.229194 -4.951547,0.229194 -4.383946,0 -4.597653,-0.0088 -4.919921,-0.20373 -0.185295,-0.112053 -0.428608,-0.393166 -0.540692,-0.624704 -0.194233,-0.401228 -0.203376,-0.638091 -0.194941,-5.048724 0.0049,-2.545259 0.04854,-4.760172 0.09704,-4.92203 z m 0.673692,9.893986 c 0.269949,0.418783 0.749988,0.458335 5.128878,0.422609 3.092899,-0.02522 4.190703,-0.06654 4.362347,-0.164135 0.48009,-0.272974 0.489677,-0.358068 0.524721,-4.657219 0.03943,-4.8364 0.0087,-5.277958 -0.395833,-5.682459 l -0.290914,-0.290914 h -4.428558 -4.428554 l -0.31441,0.264558 -0.314413,0.264562 -0.02822,1.71798 c -0.01553,0.94489 -0.01327,3.108337 0.005,4.807661 0.02639,2.455728 0.0633,3.136391 0.179954,3.317357 z m 11.012677,-1.824016 h 0.463449 V 43.970044 40.77738 h -0.463449 -0.463454 v 3.192664 3.192665 z m 1.390352,2.450678 0.360466,-0.03044 0.06726,-0.875409 c 0.168363,-2.191189 0.213387,-5.712556 0.09876,-7.724191 -0.151559,-2.659827 -0.155015,-2.677717 -0.517505,-2.677717 -0.155992,0 -0.30293,0.01931 -0.326531,0.04292 -0.02359,0.02363 -0.04291,2.574698 -0.04291,5.669092 v 5.626169 z M 46.84857,56.376888 c 0.396238,-0.792436 0.231819,-0.769062 5.409579,-0.769062 5.046719,0 5.078825,0.0035 5.437546,0.610871 0.09701,0.164217 0.205848,0.580575 0.241873,0.925237 l 0.0655,0.626666 h 0.448779 0.448778 v -0.98308 c 0,-0.906444 0.0197,-1.002783 0.252795,-1.23587 0.190986,-0.19099 0.362427,-0.252791 0.701239,-0.252791 0.686646,0 0.825694,0.158966 0.912843,1.043616 0.28912,2.934867 0.16904,10.558358 -0.174563,11.082768 -0.129601,0.1978 -0.242827,0.23232 -0.761943,0.23232 -0.832926,0 -0.930371,-0.14802 -0.930371,-1.41327 v -0.95548 H 58.41083 57.92104 l -0.03153,0.59218 c -0.03589,0.67386 -0.196766,0.97879 -0.668059,1.26615 -0.313265,0.19101 -0.551389,0.2007 -4.943,0.20107 -5.024142,3.9e-4 -4.985879,0.005 -5.386527,-0.58654 -0.184131,-0.27168 -0.19714,-0.57049 -0.223274,-5.12898 -0.02682,-4.677176 -0.02075,-4.854503 0.179916,-5.255805 z m 0.681991,10.225035 0.258719,0.23173 h 4.417943 c 2.921622,0 4.499955,-0.0374 4.660069,-0.11032 0.533686,-0.24317 0.537415,-0.27217 0.575122,-4.472704 0.04223,-4.704175 -0.0077,-5.54331 -0.349929,-5.885578 L 56.850204,56.12277 h -4.524796 c -5.44084,0 -4.98284,-0.127168 -5.066073,1.406635 -0.03025,0.557488 -0.03981,2.774729 -0.02125,4.927203 l 0.03375,3.913595 z m 10.906614,-1.93105 h 0.463449 v -3.192662 -3.192668 h -0.463449 -0.463454 v 3.192668 3.192662 z m 1.362645,2.47174 c 0.420803,0 0.402699,0.0893 0.553666,-2.729211 0.114736,-2.14203 0.07351,-5.28582 -0.09927,-7.569705 l -0.06622,-0.875409 -0.360466,-0.03044 -0.360462,-0.03044 v 5.61759 5.617595 z"
       id="path1" /></g></svg>
