<?xml version="1.0" encoding="UTF-8" standalone="no"?>
<!-- Created with Inkscape (http://www.inkscape.org/) -->

<svg
   width="55.406082mm"
   height="90.217522mm"
   viewBox="0 0 55.406082 90.217522"
   version="1.1"
   id="svg1"
   xml:space="preserve"
   xmlns="http://www.w3.org/2000/svg"
   xmlns:svg="http://www.w3.org/2000/svg"><defs
     id="defs1" /><g
     id="layer1"
     transform="translate(0.00862855,-0.86305532)"><path
       style="fill:#000000;stroke-width:1"
       d="M 11.502119,90.946063 C 9.7530512,90.625875 7.5589422,89.882808 5.900681,89.04905 4.5420405,88.365939 3.3241679,87.480704 2.2326084,86.382837 1.1815393,85.325696 0.74526999,84.705205 0.28506817,83.612919 L 0.02557998,82.997029 -0.00233427,51.412022 c -0.01524906,-17.371753 -0.0018553,-31.731094 0.03007454,-31.90965 0.07813025,-0.437324 0.6233223,-1.018483 1.24955883,-1.331978 0.2826604,-0.141499 1.220177,-0.54917 2.0833713,-0.905928 3.7975011,-1.569511 7.5284506,-3.126254 9.6356476,-4.020489 0.821795,-0.348746 1.660463,-0.694082 1.86371,-0.767415 0.203247,-0.07332 0.678525,-0.274847 1.05617,-0.447812 0.377648,-0.172971 1.061827,-0.461062 1.520396,-0.640219 0.458572,-0.179155 1.20896,-0.489061 1.667532,-0.688675 0.458572,-0.199615 1.451732,-0.616206 2.207028,-0.9257623 0.755295,-0.3095559 2.697479,-1.1163032 4.315963,-1.7927706 1.618487,-0.6764695 4.399339,-1.8377469 6.179674,-2.5806176 2.900547,-1.2102925 4.319811,-1.8044341 7.405801,-3.1002569 3.734696,-1.56821763 4.047037,-1.65294311 4.406934,-1.1954077 0.194595,0.2473969 0.2033,0.3751374 0.2033,2.9862743 V 6.819135 l 1.250645,0.6560358 c 0.687862,0.3608203 2.045183,1.0861313 3.016273,1.6118024 0.971092,0.5256732 2.079129,1.1130058 2.4623,1.3051838 l 0.696681,0.349418 1.559392,-0.620862 C 54.884626,9.2939686 54.716166,9.3261589 55.08402,9.6858038 l 0.313434,0.3064384 -3.71e-4,31.5978898 -3.7e-4,31.597885 -0.220216,0.271942 c -0.136288,0.16829 -0.50061,0.379142 -0.955892,0.55321 -0.404621,0.154694 -1.243289,0.501555 -1.863708,0.770804 -0.620421,0.269246 -2.032918,0.873043 -3.138884,1.341765 -1.105967,0.468723 -2.827444,1.19943 -3.825512,1.62379 -0.998066,0.424356 -3.293374,1.397312 -5.100684,2.162118 -5.823191,2.464219 -8.56078,3.62726 -9.563781,4.063095 -0.539495,0.234425 -2.040276,0.877224 -3.335065,1.428439 -1.294789,0.551213 -2.994197,1.27947 -3.776468,1.618343 -0.782268,0.33887 -1.86371,0.794264 -2.403207,1.011982 -0.864137,0.348727 -3.013238,1.24005 -6.326808,2.623993 -0.953577,0.39827 -1.091772,0.429572 -1.863714,0.422211 -0.458569,-0.0044 -1.142748,-0.06451 -1.520396,-0.133642 z m 1.422307,-8.380305 V 75.513404 L 12.066139,75.398252 C 10.121657,75.1374 7.5107615,74.308061 5.5462462,73.327231 4.3856911,72.747805 3.2262245,71.955734 2.3520657,71.145183 l -0.7570418,-0.701956 -0.025288,6.124588 -0.025288,6.124584 0.413385,0.838942 c 0.7687116,1.560053 2.9266655,3.433822 5.1792462,4.497177 1.6067723,0.758496 3.7798389,1.388376 5.2478199,1.521125 0.215801,0.01949 0.425466,0.04291 0.465928,0.05197 0.04046,0.0091 0.07357,-3.157068 0.07357,-7.035864 z m 3.089839,6.041209 1.471352,-0.611451 0.02517,-6.937821 c 0.01735,-4.781565 -0.0067,-6.937818 -0.07748,-6.937818 -0.05646,0 -0.288494,0.09615 -0.515632,0.213665 -0.227137,0.117523 -0.876448,0.401198 -1.442919,0.630409 l -1.029948,0.416742 -0.02517,6.922529 c -0.01387,3.807392 0.0082,6.920877 0.04904,6.918861 0.04082,-0.0019 0.736334,-0.278819 1.545579,-0.615116 z m 5.895301,-2.473789 c 1.505143,-0.631483 3.244241,-1.366943 3.864662,-1.63435 1.810996,-0.780557 6.141104,-2.626339 8.582881,-3.658597 1.240839,-0.524563 3.734781,-1.583361 5.542087,-2.352883 1.80731,-0.769519 4.455742,-1.895423 5.885405,-2.502003 1.429665,-0.606584 3.349776,-1.423256 4.26692,-1.814833 0.91714,-0.391581 2.164113,-0.920425 2.771044,-1.175215 l 1.103513,-0.463256 V 41.836525 11.141007 l -0.269747,0.137729 c -0.722979,0.369116 -5.146219,2.237276 -10.127801,4.277482 -1.664874,0.681849 -2.747392,1.139191 -4.708324,1.98917 -0.620418,0.268923 -1.457329,0.618917 -1.859798,0.777761 -0.402466,0.158845 -1.55012,0.635551 -2.55034,1.059346 -1.833706,0.776944 -5.33093,2.241832 -8.586795,3.596768 -0.971094,0.404121 -2.493942,1.039196 -3.38411,1.411279 -0.890166,0.372082 -2.037823,0.845105 -2.55034,1.051163 l -0.931855,0.374648 -0.0241,30.783183 c -0.02021,25.772222 -0.0026,30.774935 0.107984,30.732496 0.07265,-0.02787 1.363579,-0.567361 2.868722,-1.198846 z M 12.924426,66.27267 c 0,-4.262015 -0.01434,-7.749117 -0.03188,-7.749117 -0.170349,0 -2.449355,-0.446317 -3.0579486,-0.598863 C 7.0007016,57.214364 3.8783527,55.608536 2.1631447,53.979256 l -0.7190441,-0.68302 0.026432,7.10128 0.026432,7.10128 0.3212744,0.67842 c 0.604475,1.276446 2.5432426,2.945805 4.5317731,3.902036 1.979309,0.951797 4.8238929,1.80397 6.4518339,1.932831 0.09714,0.0076 0.122614,-1.600338 0.122614,-7.739413 z m 3.653856,6.676096 0.956379,-0.41969 V 64.82919 c 0,-6.123208 -0.0251,-7.688871 -0.122613,-7.646089 -0.06744,0.02959 -0.762652,0.313194 -1.54492,0.630237 l -1.422307,0.576442 -0.02536,7.595301 c -0.01394,4.177413 -0.0052,7.648097 0.01942,7.712624 0.04942,0.129511 0.485454,-0.02313 2.139399,-0.748939 z M 12.899383,49.35213 12.92337,41.701104 11.28583,41.38033 C 10.385187,41.203907 9.1353816,40.888065 8.5084928,40.678466 6.1535549,39.891105 3.4081479,38.324645 2.1021314,37.023165 1.7876089,36.709731 1.5100909,36.453284 1.485434,36.453284 c -0.024653,0 -0.032171,3.211224 -0.016732,7.136054 l 0.028168,7.136053 0.2942687,0.533276 c 0.3863287,0.700097 1.778587,2.102179 2.6721756,2.691019 1.7299996,1.140009 3.930797,2.099035 6.0664457,2.643535 1.580829,0.403043 1.768932,0.440939 2.100335,0.423121 l 0.245226,-0.01313 z m 3.065834,6.895164 c 0.62042,-0.265105 1.227353,-0.546597 1.348738,-0.625534 l 0.220706,-0.14351 v -7.590635 -7.590633 l -0.809246,0.34366 c -0.445081,0.189004 -1.140297,0.46645 -1.544916,0.616526 l -0.735678,0.272865 -0.02513,7.669799 -0.02514,7.669801 0.221303,-0.07017 c 0.121715,-0.03859 0.728919,-0.287063 1.349339,-0.55217 z M 12.924426,34.110565 v -6.168237 l -0.220702,-0.05915 c -0.121387,-0.03253 -0.419337,-0.05987 -0.662109,-0.06074 -0.48327,-0.0017 -2.3015022,-0.436303 -3.504113,-0.837465 C 6.1785295,26.198071 3.7661577,24.650914 2.0635831,22.832971 l -0.6104242,-0.651793 -0.00254,5.603324 c -0.00233,4.645481 0.021645,5.672141 0.1394018,6.005885 0.351241,0.995529 1.7033117,2.482681 3.1252951,3.437535 0.9103795,0.611316 2.5744566,1.454226 3.5989774,1.823008 0.5719499,0.205883 4.1752488,1.173871 4.5366658,1.218735 0.04046,0.0051 0.07357,-2.766572 0.07357,-6.1591 z m 3.089839,5.24965 1.471352,-0.609842 0.02525,-6.161917 c 0.02399,-5.846553 0.01641,-6.158148 -0.147136,-6.088276 -0.40297,0.172124 -2.639246,1.048701 -2.796307,1.096088 -0.161117,0.04861 -0.171658,0.430639 -0.171658,6.220026 0,3.392528 0.03311,6.164979 0.07356,6.160999 0.04046,-0.004 0.735677,-0.281664 1.54492,-0.617078 z M 11.497214,26.163212 C 11.376073,26.047891 8.5511202,24.15917 7.7256505,23.641595 4.4874256,21.611206 4.5249277,21.631928 3.936136,21.547751 3.6196142,21.502491 3.184082,21.434611 2.9682824,21.396912 l -0.3923583,-0.06858 0.932139,0.916873 c 1.8596992,1.829235 4.0236193,3.046273 6.6009479,3.712519 1.15381,0.298261 1.546774,0.35643 1.388203,0.205482 z m 6.773121,-1.622975 c 0.431597,-0.175851 1.002709,-0.419298 1.269138,-0.541015 0.266431,-0.121717 0.653426,-0.280937 0.859992,-0.353817 0.206565,-0.07288 1.047946,-0.417252 1.869741,-0.765272 0.821795,-0.348019 3.326005,-1.39175 5.564914,-2.319401 2.238903,-0.92765 4.203158,-1.746656 4.365006,-1.820011 0.340848,-0.154481 2.242596,-0.949368 4.561191,-1.906469 2.095748,-0.865111 3.855494,-1.603089 5.443997,-2.28303 2.298991,-0.984058 4.59935,-1.948097 5.198773,-2.178716 0.323697,-0.124534 0.918699,-0.381298 1.322221,-0.570584 l 0.733683,-0.344154 -0.574231,-0.253952 c -0.315825,-0.139677 -0.602677,-0.253952 -0.637447,-0.253952 -0.07559,0 -1.129161,0.434808 -2.609847,1.077084 -1.231967,0.534388 -2.612541,1.116805 -5.345907,2.255251 -1.052018,0.438165 -2.155531,0.900794 -2.452251,1.028064 -0.791043,0.339294 -3.920402,1.652416 -6.670127,2.798874 -1.321763,0.551091 -2.954963,1.237792 -3.629332,1.526001 -1.246219,0.532605 -8.425794,3.529998 -9.858055,4.115628 -0.431594,0.176465 -1.51304,0.629822 -2.403206,1.007444 -0.890166,0.37762 -1.720281,0.717455 -1.844699,0.755188 -0.213547,0.06477 -0.200638,0.08679 0.230585,0.393377 l 0.4568,0.324772 1.682169,-0.685802 c 0.925194,-0.377189 2.035298,-0.829669 2.466892,-1.005508 z m -2.85098,-0.605082 c 1.51409,-0.626824 3.039802,-1.261151 3.390476,-1.409613 0.350674,-0.148467 1.17863,-0.495586 1.839909,-0.771384 1.873901,-0.781547 3.493868,-1.461261 4.830217,-2.026685 3.651699,-1.545081 7.068849,-2.975621 8.239568,-3.449377 0.728318,-0.294731 1.655268,-0.681869 2.059892,-0.860306 0.404619,-0.178435 1.508132,-0.643796 2.45225,-1.034128 1.935188,-0.800075 2.997338,-1.24513 3.286018,-1.376884 0.107887,-0.04924 1.18934,-0.505866 2.403205,-1.014717 3.099941,-1.299487 3.433155,-1.449326 3.433155,-1.543817 0,-0.04598 -0.22668,-0.198492 -0.503732,-0.338874 L 46.346586,9.8541111 44.667812,10.56239 c -0.923328,0.389554 -2.407096,1.013565 -3.297266,1.38669 -0.890166,0.373128 -1.905398,0.805743 -2.256069,0.961371 -0.572602,0.254117 -1.652242,0.706156 -5.444001,2.279378 -0.647395,0.268608 -1.596414,0.665452 -2.108937,0.881879 -0.512521,0.216424 -1.704311,0.714558 -2.648431,1.106959 -3.023514,1.256662 -4.706055,1.959852 -6.91535,2.890154 -4.458567,1.877443 -9.87503,4.123204 -9.944595,4.123204 -0.03967,0 -0.153257,0.0593 -0.252395,0.131798 -0.16784,0.122734 -0.150545,0.15283 0.250998,0.437032 0.237192,0.167867 0.47253,0.307195 0.522976,0.309601 0.05045,0.0023 1.33052,-0.508482 2.844613,-1.135308 z m -1.661163,-1.183713 c 0.97109,-0.404223 2.582219,-1.080135 3.580287,-1.502024 0.998069,-0.421891 2.21193,-0.931601 2.697477,-1.132691 0.485547,-0.201097 1.456637,-0.605627 2.157981,-0.898968 0.701347,-0.293341 2.157984,-0.899972 3.236971,-1.348068 1.078994,-0.448096 3.727426,-1.55361 5.885407,-2.456702 2.157984,-0.90309 4.188447,-1.751444 4.512146,-1.885229 0.323696,-0.133789 0.765103,-0.321715 0.980898,-0.417619 0.215798,-0.0959 2.157982,-0.913071 4.315965,-1.815926 2.157982,-0.902854 4.028052,-1.6956951 4.155714,-1.7618697 0.227516,-0.1179261 0.221425,-0.1263554 -0.307416,-0.4248071 l -0.539529,-0.3044919 -2.68433,1.1251498 c -1.476381,0.6188319 -3.169878,1.3278969 -3.763322,1.5756959 -1.391143,0.58089 -3.545869,1.489528 -3.923603,1.654566 -0.161852,0.07072 -1.331573,0.556061 -2.599386,1.078547 -1.267816,0.522487 -2.592034,1.072727 -2.942703,1.222754 -0.350673,0.150034 -1.343834,0.567886 -2.207028,0.928575 -0.863192,0.360689 -1.812213,0.758321 -2.108937,0.883628 -0.296721,0.125296 -0.914691,0.383395 -1.373258,0.573534 -2.159401,0.895355 -6.474513,2.695347 -7.798164,3.252899 -2.493877,1.05048 -4.93673,2.014638 -5.1044171,2.014638 -0.2726956,0 -0.1158505,0.185043 0.4455381,0.525656 l 0.539095,0.32708 0.539497,-0.239688 c 0.296724,-0.13184 1.334023,-0.570416 2.305117,-0.974639 z M 10.74832,22.127757 c 0.900135,-0.380053 1.989734,-0.841002 2.421332,-1.024332 1.964272,-0.834367 4.621424,-1.942552 5.270609,-2.198145 0.754874,-0.297208 4.910686,-2.024353 9.393859,-3.904067 1.483611,-0.622051 3.227163,-1.352072 3.874558,-1.622271 0.647394,-0.270196 1.993677,-0.835704 2.991747,-1.256681 0.998063,-0.42098 2.498844,-1.050887 3.33506,-1.399796 0.836221,-0.348909 2.226645,-0.9294285 3.089839,-1.2900413 0.863192,-0.3606106 1.80496,-0.7481104 2.092817,-0.8611081 L 43.741521,8.3658557 43.184199,8.088416 C 42.877674,7.9358195 42.550448,7.8109763 42.457035,7.8109763 c -0.09342,0 -0.585756,0.1815697 -1.094094,0.4035134 -0.508336,0.221931 -1.387722,0.5933516 -1.954193,0.8253766 -0.566471,0.232025 -2.045176,0.8492138 -3.286018,1.3715297 -1.240839,0.522319 -2.874037,1.205174 -3.629336,1.517458 -0.755292,0.312284 -3.536143,1.471943 -6.179673,2.577021 -2.643529,1.105081 -5.689224,2.374167 -6.768213,2.820191 -1.078992,0.446027 -2.888753,1.197644 -4.021694,1.670259 -4.661408,1.944547 -6.3099484,2.627555 -6.9110007,2.863301 l -0.6332321,0.248369 0.5351425,0.350413 c 0.2943302,0.192731 0.5490573,0.352649 0.5660642,0.355381 0.016943,0.0028 0.7673963,-0.305985 1.6675321,-0.686038 z M 8.1302059,21.309798 c 0.7983879,-0.32252 2.7888821,-1.151784 5.0884901,-2.119928 0.62042,-0.2612 2.16534,-0.90129 3.433154,-1.422424 2.546825,-1.046871 6.847811,-2.835809 7.307708,-3.039545 0.161852,-0.07169 1.221223,-0.511974 2.354163,-0.978388 1.132939,-0.466413 2.302665,-0.951939 2.599387,-1.078945 1.087383,-0.465425 4.332804,-1.822657 6.817259,-2.8509685 C 38.530893,8.6604697 41.692115,7.3259333 41.732154,7.285896 41.746133,7.2719177 41.548488,7.1042416 41.292837,6.9133763 40.943242,6.652378 40.779772,6.585979 40.633358,6.6455033 c -0.107061,0.043523 -0.945054,0.3942602 -1.862194,0.7794049 -0.917145,0.3851447 -2.550344,1.0654074 -3.629336,1.5116965 -1.07899,0.4462871 -5.051639,2.1027563 -8.828107,3.6810403 -3.776466,1.578287 -7.21943,3.013751 -7.651024,3.189924 -0.913125,0.372725 -5.984402,2.469831 -9.8353591,4.067179 l -2.6747784,1.109476 0.5167991,0.320934 c 0.2842383,0.176507 0.5443555,0.324442 0.5780368,0.328729 0.033654,0.0042 0.4309491,-0.141562 0.8828105,-0.324089 z M 6.0581212,19.485706 c 1.7725254,-0.760852 2.9038871,-1.236811 4.6592798,-1.96014 0.755293,-0.311227 2.079507,-0.861199 2.942702,-1.222161 0.863192,-0.360962 2.297759,-0.959827 3.187925,-1.330809 3.143696,-1.310157 4.771431,-1.990225 6.032541,-2.520397 0.701344,-0.294844 1.628294,-0.683899 2.059891,-0.864564 0.431595,-0.180659 1.777882,-0.747246 2.991748,-1.259075 1.213865,-0.5118261 2.42773,-1.0171736 2.697478,-1.1229936 0.451097,-0.1769526 1.856861,-0.763296 4.757368,-1.984265 0.620419,-0.2611677 1.503229,-0.6263255 1.961802,-0.8114639 0.458573,-0.1851278 1.415975,-0.5856571 2.127562,-0.8900411 0.711587,-0.3043839 1.351626,-0.55295 1.422307,-0.5523697 0.07068,5.952e-4 0.415423,0.2014994 0.766092,0.4464777 l 0.637589,0.4454187 0.02702,-1.5883654 c 0.01483,-0.8735997 0.0083,-1.607196 -0.01483,-1.6302136 -0.02302,-0.023022 -0.609001,0.1980684 -1.302189,0.4913014 -0.693187,0.2932331 -1.966589,0.8289559 -2.829779,1.1904963 -0.863197,0.3615383 -1.96671,0.8277381 -2.452257,1.0359979 -0.485543,0.2082556 -1.235934,0.5177946 -1.667527,0.6878555 -0.431599,0.1700482 -1.490971,0.6099116 -2.354163,0.97745 -2.840764,1.2095682 -6.489843,2.7371513 -10.544684,4.4142368 -1.59151,0.658251 -3.555767,1.477284 -4.365009,1.820073 -1.393583,0.59031 -5.327554,2.232161 -8.3376556,3.47974 -2.7858742,1.154642 -6.24197,2.628269 -6.2998635,2.686164 -0.032807,0.03281 -0.033696,0.08556 -0.00185,0.11727 0.1351236,0.135145 1.9133293,0.611379 2.1820961,0.58442 0.1618518,-0.01631 0.93431,-0.304255 1.7165762,-0.640041 z"
       id="path1" /></g></svg>
