<?xml version="1.0" encoding="UTF-8" standalone="no"?>
<!-- Created with Inkscape (http://www.inkscape.org/) -->

<svg
   width="54.418613mm"
   height="90.217522mm"
   viewBox="0 0 54.418614 90.217522"
   version="1.1"
   id="svg1"
   xml:space="preserve"
   xmlns="http://www.w3.org/2000/svg"
   xmlns:svg="http://www.w3.org/2000/svg"><defs
     id="defs1" /><g
     id="layer1"
     transform="translate(0.00862855,-0.86305531)"><path
       style="fill:#000000;stroke-width:1"
       d="m 14.706279,90.893911 c -0.34842,-0.282231 -0.465714,-0.594897 -0.465714,-1.241433 0,-0.785373 0.355189,-1.83059 0.840529,-2.473426 0.216686,-0.287003 0.727887,-0.771118 1.136004,-1.075815 0.408117,-0.304692 0.826198,-0.657935 0.92907,-0.784974 0.423868,-0.523455 0.15833,-1.12145 -1.5127,-3.40664 C 12.797494,78.033332 10.121219,73.679617 8.1602556,69.754339 6.0088136,65.447778 4.7564555,62.240555 3.4774452,57.761907 2.1740693,53.197938 1.6797633,49.707304 1.7930181,45.867009 1.8597255,43.605051 2.0954819,42.04506 2.6871274,39.950712 L 3.0779071,38.567402 2.8917436,37.177998 C 2.6219542,35.164463 2.2545517,33.324087 1.6031151,30.723058 0.2297434,25.239517 -0.18677818,22.317535 0.0572053,19.87819 c 0.29593504,-2.958759 1.180342,-4.963206 2.9796701,-6.75322 1.4621818,-1.454613 3.0643199,-2.307371 5.1137033,-2.721834 1.3520322,-0.273433 3.6785733,-0.175013 4.9647863,0.210025 0.99971,0.29927 2.343829,0.928453 3.110898,1.45621 0.248708,0.171115 0.474792,0.311119 0.502411,0.311119 0.09287,0 -0.513342,-2.5838353 -0.849277,-3.6197775 C 15.561937,7.7817466 15.512402,7.7033788 15.163318,7.6278442 14.054711,7.3879631 12.907077,6.4105589 12.580875,5.4284544 12.307088,4.6041593 12.40207,3.1869342 12.773589,2.5529876 13.121469,1.9593733 13.800704,1.3338185 14.385918,1.0680806 14.809347,0.87580839 15.323153,0.86765291 27.153976,0.86540431 l 12.326876,-0.002349 0.65482,0.32721699 c 1.520489,0.7597962 2.19118,2.4771143 1.662589,4.2570808 -0.23203,0.7813312 -1.13066,1.6868756 -1.994859,2.0102147 -0.339028,0.1268446 -0.683149,0.2306283 -0.764715,0.2306283 -0.150758,0 -0.434602,0.6583398 -0.746661,1.731784 -0.225713,0.7764229 -0.687624,2.9605009 -0.626118,2.9605009 0.02629,0 0.32109,-0.185203 0.65513,-0.411561 1.111518,-0.753209 2.33462,-1.253199 3.820173,-1.561645 0.97769,-0.202998 2.887926,-0.230638 3.88622,-0.05624 4.278086,0.7474 7.472402,4.031065 8.146813,8.374687 0.257721,1.659875 0.290437,2.413366 0.164376,3.785821 -0.173747,1.89169 -0.6456,4.409235 -1.441406,7.690559 -0.72601,2.993535 -1.402889,6.458836 -1.507124,7.715759 -0.05291,0.637979 -0.01341,0.917412 0.263847,1.869823 1.310545,4.500809 1.296849,9.458501 -0.04264,15.434408 -0.356846,1.592009 -1.586406,5.647307 -2.239779,7.38716 -1.166031,3.104999 -3.165687,7.430978 -4.609078,9.971105 -2.102222,3.699556 -4.05746,6.738448 -6.141,9.544533 -1.103954,1.486793 -1.559308,2.273837 -1.559308,2.695142 0,0.366119 0.252399,0.659095 1.121574,1.301878 0.916925,0.678099 1.457241,1.410446 1.760447,2.386126 0.348323,1.120863 0.21635,2.179777 -0.306556,2.459625 -0.150715,0.08067 -3.888302,0.114517 -12.459578,0.112859 -11.440238,-0.0025 -12.259213,-0.01447 -12.471741,-0.186625 z m 23.652352,-1.837219 c -0.07505,-0.547516 -0.487144,-1.079159 -1.207983,-1.558373 -1.304628,-0.867315 -1.744436,-1.627583 -1.664261,-2.876903 0.06154,-0.958966 0.335678,-1.548525 1.418068,-3.049733 3.709309,-5.144564 5.766526,-8.519266 8.211482,-13.470309 2.36286,-4.784794 4.40143,-10.699149 5.164474,-14.983319 0.839855,-4.715436 0.838489,-8.386446 -0.0043,-11.735431 -1.172959,-4.660627 -3.562095,-7.788821 -8.809979,-11.535273 -3.73774,-2.668364 -5.12501,-5.093398 -5.735728,-10.026412 -0.414022,-3.34422 0.0075,-7.926438 1.005809,-10.9330033 l 0.398339,-1.1997318 h -9.945181 -9.945182 l 0.318933,0.933126 c 1.348986,3.9468201 1.635081,9.6974971 0.678905,13.6463951 -0.830942,3.431691 -2.204949,5.377633 -5.441087,7.705946 -3.9643574,2.852247 -5.9331682,4.947445 -7.4043659,7.879685 -1.9693031,3.925013 -2.4070204,8.466269 -1.4048734,14.575367 0.3151809,1.921346 0.5122685,2.796495 1.0411908,4.623302 1.2115949,4.184645 2.5309326,7.584351 4.4121205,11.369277 2.383639,4.795851 4.64768,8.508049 7.804886,12.797144 1.240902,1.685775 1.612849,2.438199 1.665449,3.369093 0.07152,1.265696 -0.305034,1.935542 -1.645213,2.926649 -0.430329,0.318243 -0.857771,0.693629 -0.949872,0.834192 -0.20423,0.311698 -0.376627,0.88278 -0.292027,0.967383 0.03401,0.03401 5.080496,0.04962 11.214412,0.0347 l 11.152574,-0.02717 z M 5.3358879,34.753099 C 6.4938973,33.075871 6.4385972,33.372454 5.9807909,31.294391 5.7629653,30.305642 5.3943723,28.752832 5.1616956,27.843701 4.4237178,24.960227 4.1729854,23.332963 4.1675734,21.391809 c -0.0041,-1.474154 0.028698,-1.821841 0.2411501,-2.555683 0.5396855,-1.864153 1.5412938,-3.111649 3.1133425,-3.877647 1.8693738,-0.910873 3.686313,-0.866011 5.727463,0.141417 1.130152,0.557797 2.479622,1.746502 3.319441,2.92399 l 0.49763,0.697715 0.03219,-1.597574 c 0.0489,-2.426614 0.05836,-2.394731 -0.918783,-3.094245 -1.142499,-0.81789 -2.566737,-1.496906 -3.813303,-1.818024 -0.941216,-0.242459 -1.218717,-0.268136 -2.4984947,-0.23118 -1.280257,0.03697 -1.5512235,0.07967 -2.4470045,0.385668 -4.0531863,1.384544 -6.0584763,4.924176 -5.6672224,10.003482 0.1285376,1.668689 0.7816394,5.174978 1.4381406,7.720901 0.2031291,0.787737 0.5417793,2.296058 0.7525561,3.351821 0.495814,2.483493 0.4760817,2.400086 0.5667593,2.395662 0.042873,-0.0021 0.4138752,-0.490347 0.8244515,-1.085013 z M 50.34112,33.916237 c 0.209417,-1.023079 0.566721,-2.603977 0.79401,-3.513107 0.491213,-1.964811 1.114449,-5.052 1.334781,-6.611857 0.228196,-1.615491 0.207685,-3.986717 -0.04427,-5.118855 -0.439505,-1.974836 -1.020035,-3.115923 -2.175627,-4.276404 -0.931096,-0.935029 -1.991123,-1.592425 -3.270095,-2.028011 -0.885918,-0.301723 -1.187161,-0.350751 -2.399462,-0.390532 -1.149091,-0.0377 -1.547101,-0.0072 -2.325562,0.178207 -1.301528,0.309997 -2.40849,0.793514 -3.480707,1.520363 -1.545858,1.047926 -1.419193,0.864779 -1.511334,2.185281 -0.08014,1.14863 -0.01634,2.811271 0.107883,2.810905 0.03556,-1.05e-4 0.19667,-0.209172 0.35803,-0.464593 0.416304,-0.658983 1.491456,-1.806249 2.213104,-2.361544 0.696951,-0.536291 1.847271,-1.139605 2.559049,-1.34216 0.761682,-0.216755 2.711572,-0.188405 3.412573,0.04962 1.633186,0.55454 2.918728,1.62856 3.562292,2.976153 1.069164,2.238773 1.066996,4.419751 -0.0091,9.140819 -1.143601,5.017274 -1.427057,6.50642 -1.286486,6.758616 0.221771,0.397887 1.702987,2.424407 1.742878,2.384517 0.02051,-0.0205 0.208611,-0.874336 0.418033,-1.897414 z M 11.254565,29.014878 c 2.135985,-1.56089 2.78684,-2.125329 3.435207,-2.979104 0.911567,-1.200359 1.896936,-3.483526 1.896936,-4.395332 0,-0.629461 -1.908989,-3.431696 -2.899161,-4.255724 -2.094775,-1.743289 -4.5947982,-1.842311 -6.3635546,-0.252047 -1.6333528,1.468525 -1.9056841,3.929739 -0.9373682,8.471531 0.2208706,1.035971 1.1240934,5.170758 1.2988563,5.945923 0.050185,0.222598 0.1236327,0.182087 0.9851747,-0.543398 0.5120203,-0.431161 1.6747798,-1.327493 2.5839098,-1.991849 z m 35.456527,2.428019 c 0.03035,-0.131972 0.219769,-1.031769 0.420952,-1.999552 0.201187,-0.967784 0.466328,-2.147458 0.589209,-2.621499 0.384418,-1.482983 0.756845,-3.780075 0.81986,-5.056786 0.13551,-2.745686 -0.697737,-4.462792 -2.603806,-5.365737 -0.657213,-0.311335 -0.805914,-0.339656 -1.783426,-0.339656 -0.852068,0 -1.19526,0.04893 -1.707368,0.243385 -1.352725,0.513668 -2.726243,1.855917 -3.918372,3.829169 -0.773875,1.280944 -0.80106,1.390369 -0.571316,2.299734 0.526054,2.082204 1.888961,4.091921 3.690948,5.4426 0.263944,0.197837 1.127749,0.842902 1.919572,1.433477 0.791822,0.590575 1.775606,1.363775 2.186178,1.718219 0.410577,0.354445 0.781578,0.647179 0.824452,0.650519 0.04287,0.0033 0.102783,-0.101898 0.133117,-0.233873 z M 39.37201,5.8067134 c 0.560246,-0.2658527 0.889407,-0.8238846 0.889407,-1.5078103 0,-0.6569564 -0.1782,-1.058127 -0.644209,-1.4502452 l -0.33194,-0.2793096 -12.069119,6.855e-4 c -11.643447,6.841e-4 -12.079872,0.00774 -12.37398,0.2016923 -0.511834,0.3374456 -0.706841,0.7376363 -0.706841,1.4505685 0,0.7552271 0.210862,1.1446005 0.819315,1.5129363 l 0.405672,0.245578 11.821239,5.639e-4 c 10.744599,4.837e-4 11.854865,-0.01541 12.190456,-0.1746594 z"
       id="path1" /></g></svg>
