<?xml version="1.0" encoding="UTF-8" standalone="no"?>
<!-- Created with Inkscape (http://www.inkscape.org/) -->

<svg
   width="75.227013mm"
   height="86.283371mm"
   viewBox="0 0 75.227013 86.283371"
   version="1.1"
   id="svg1"
   xml:space="preserve"
   xmlns="http://www.w3.org/2000/svg"
   xmlns:svg="http://www.w3.org/2000/svg"><defs
     id="defs1" /><g
     id="layer1"><path
       style="fill:#000000;stroke-width:1"
       d="M 48.41856,86.218211 C 48.009735,86.070337 47.54929,85.329737 44.090618,79.25697 40.488701,72.932698 38.701402,69.565576 38.23294,68.221592 37.854234,67.13511 37.842334,67.043321 37.841882,65.205069 c -4.12e-4,-1.67987 0.0314,-1.99047 0.279214,-2.725414 0.658426,-1.952725 1.713832,-3.317404 3.778822,-4.886152 0.723984,-0.550004 0.859094,-0.707485 0.859094,-1.001348 0,-0.232762 -0.38868,-0.986449 -1.168946,-2.266702 -1.622876,-2.662785 -1.579488,-2.56229 -1.535951,-3.557503 l 0.03713,-0.848915 -1.243418,-2.03823 c -0.683878,-1.121026 -1.270517,-2.040855 -1.303636,-2.044062 -0.03314,-0.0031 -0.406384,0.536443 -0.829473,1.199227 l -0.769259,1.205058 v 1.075998 c 0,1.216335 -0.200444,1.770266 -0.962922,2.661052 l -0.428561,0.500676 0.478148,1.030823 c 0.793878,1.711493 0.911378,2.297908 0.906962,4.526461 -0.0036,1.893724 -0.01626,1.992446 -0.398143,3.140155 -0.216845,0.651731 -1.024768,2.438063 -1.795379,3.969629 -2.408771,4.787358 -3.689574,8.548637 -4.371509,12.837621 -0.352134,2.214724 -0.596095,4.523556 -0.609294,5.76631 -0.01456,1.371532 -0.08025,1.628546 -0.495437,1.938528 -0.304516,0.227352 -0.381675,0.233308 -1.30064,0.100361 -1.325075,-0.191693 -3.56759,-0.748975 -5.358575,-1.331646 C 13.6946,81.881804 6.4565952,76.824336 1.9027168,70.686696 -0.45127043,67.514036 -0.52061802,67.112229 1.1421751,66.280064 1.4870988,66.107445 2.4469195,65.559354 3.27511,65.062085 c 5.4956603,-3.29975 9.421052,-6.745095 13.550746,-11.89359 2.264284,-2.822891 3.586304,-3.889488 5.765354,-4.651464 0.972039,-0.339908 1.14514,-0.362077 3.045065,-0.389997 l 2.014438,-0.0296 0.450668,-0.807393 c 0.708668,-1.269617 1.340639,-1.802705 2.364883,-1.994855 0.482259,-0.09047 0.641097,-0.316235 2.677312,-3.805361 L 34.12104,39.8149 32.969572,37.93493 C 32.336265,36.900946 31.355557,35.281774 30.79022,34.336761 28.280336,30.141277 16.902535,11.232668 15.210655,8.4453033 14.182125,6.7508048 13.214854,5.09778 13.061165,4.771915 c -0.889202,-1.8853607 0.40397,-4.19395945 2.467703,-4.40539836 0.93708,-0.0960083 1.578858,0.12554646 2.234233,0.77130336 0.571998,0.5636022 0.833962,0.9928482 10.245071,16.787194 5.587757,9.377742 9.548463,15.987883 9.620694,16.056258 0.03444,0.0326 0.112673,-0.02074 0.173886,-0.118495 0.637355,-1.017829 6.382866,-10.359444 10.34904,-16.826486 0.899326,-1.466393 2.995209,-4.879089 4.657524,-7.5837686 1.662309,-2.7046802 3.471938,-5.6641273 4.0214,-6.5765497 0.549462,-0.9124223 1.140781,-1.8104723 1.314041,-1.99566662 0.927689,-0.99159643 2.668356,-1.1741994 3.822385,-0.40098326 0.569978,0.38189501 1.133163,1.27734028 1.295655,2.06005018 0.253453,1.2208906 0.139612,1.4621373 -3.31826,7.0316456 -4.685721,7.5471824 -7.174718,11.5612974 -9.368061,15.1082884 -1.088121,1.759674 -2.792454,4.505824 -3.787398,6.102563 -4.580638,7.351238 -5.716085,9.223854 -5.668679,9.348982 0.02141,0.05647 0.945397,1.62537 2.053341,3.486445 l 2.014434,3.383767 0.503669,0.127622 c 0.743842,0.188482 1.086218,0.578591 2.344884,2.671854 0.627014,1.042767 1.248317,1.989257 1.380669,2.103309 0.373229,0.321618 0.980541,0.248406 2.094688,-0.252503 2.08453,-0.937193 3.030675,-1.137337 4.966439,-1.050569 1.61872,0.07255 2.736024,0.412121 4.188547,1.272963 1.565622,0.927872 2.168952,1.612539 7.83186,8.887717 1.344338,1.727084 3.166906,4.046651 4.050149,5.15459 2.590375,3.24938 2.677932,3.371587 2.677932,3.737771 0,0.490421 -0.347424,0.802651 -2.132935,1.916896 -0.879835,0.549059 -2.239584,1.411706 -3.02166,1.916991 -0.782077,0.505285 -2.11516,1.333849 -2.962409,1.841252 -5.345056,3.20106 -12.455762,7.548521 -15.226786,9.309606 -2.506755,1.593134 -2.91403,1.778821 -3.464675,1.579648 z m 2.502594,-3.162964 c 0.822424,-0.512325 2.481796,-1.545486 3.687499,-2.295911 1.205698,-0.750431 3.977497,-2.442832 6.159553,-3.760894 2.182052,-1.318062 5.034851,-3.074665 6.339553,-3.90356 1.304707,-0.828896 3.077697,-1.93005 3.93998,-2.447015 0.862283,-0.516965 1.568819,-0.972905 1.570077,-1.013199 0.0022,-0.07775 -1.354611,-1.262254 -3.423368,-2.98812 C 68.504224,66.070729 67.619556,65.29341 67.228516,64.919177 66.83748,64.544941 66.064289,63.871686 65.510322,63.423055 64.95635,62.97442 63.383581,61.649869 62.015282,60.4796 c -2.930605,-2.50645 -3.336945,-2.740565 -4.752636,-2.738195 -0.888779,0.0013 -1.0341,0.03852 -1.955188,0.498486 -1.084807,0.54171 -8.471247,5.017433 -9.373972,5.680052 -1.559243,1.144502 -2.142693,2.800721 -1.649621,4.682702 0.328523,1.253915 4.988326,15.384102 5.073316,15.384102 0.03776,0 0.741545,-0.419175 1.563973,-0.9315 z m -23.994651,0.0724 c 0.03568,-0.407329 0.09604,-1.140526 0.134128,-1.629325 0.176726,-2.267701 0.955322,-6.457036 1.644063,-8.846102 0.666825,-2.313042 2.204962,-6.215997 2.941987,-7.46516 0.207295,-0.351338 0.219293,-0.436579 0.07933,-0.563615 -0.0907,-0.08232 -1.418003,-0.941425 -2.949569,-1.909125 C 27.244876,61.746623 24.792,60.184697 23.325608,59.24337 21.859214,58.30205 19.92386,57.059613 19.02482,56.482402 l -1.634619,-1.049471 -0.37982,0.438755 c -2.048014,2.365809 -4.807651,5.034766 -7.0753459,6.842845 -1.4249574,1.13615 -4.901434,3.481985 -6.4871976,4.377392 -0.6680232,0.377201 -1.2145879,0.759284 -1.2145879,0.849076 0,0.162542 2.4049352,3.419548 2.6257021,3.555989 0.1336724,0.08261 1.0684972,-0.521175 3.6546064,-2.360457 2.4815629,-1.764924 3.3528679,-2.479776 5.1095349,-4.192049 1.331648,-1.297998 1.540489,-1.457611 1.907201,-1.457611 0.679689,0 1.074642,0.665574 0.758142,1.27762 -0.206457,0.399241 -2.648039,2.68134 -4.378412,4.092409 -1.445101,1.178442 -2.4016503,1.86992 -4.2647359,3.082928 -0.7708268,0.501863 -1.3840458,0.958846 -1.3627083,1.015518 0.05643,0.149872 1.8828578,1.788683 1.99346,1.788683 0.051414,0 1.1006222,-1.039806 2.3315752,-2.310677 1.974479,-2.038517 2.282029,-2.310682 2.611091,-2.310682 0.427356,0 0.864182,0.451931 0.864182,0.894064 0,0.353491 -0.657768,1.168808 -2.003267,2.483085 -0.600492,0.586554 -1.384745,1.397849 -1.742783,1.802867 l -0.6509786,0.736398 0.9461936,0.70156 c 1.715391,1.271888 5.972094,3.833878 6.106521,3.675348 0.02023,-0.02387 0.662499,-0.763248 1.427254,-1.643087 0.764756,-0.879835 2.08493,-2.547708 2.93372,-3.706381 0.848791,-1.158673 1.640057,-2.15849 1.758371,-2.221808 0.333764,-0.178625 0.644285,-0.137493 0.984941,0.130471 0.425056,0.334345 0.403526,0.581681 -0.225475,2.590191 -0.635778,2.030156 -1.017512,3.516282 -1.350498,5.257608 -0.376509,1.968928 -0.498729,1.760359 1.325337,2.261699 2.052922,0.564241 2.829517,0.759638 3.071474,0.772801 0.158537,0.0086 0.210849,-0.136656 0.262805,-0.729838 z M 20.302302,81.82419 c 0.155115,-0.665785 0.63833,-3.46132 0.604197,-3.495452 -0.06143,-0.06142 -2.379996,2.808318 -2.379996,2.945775 0,0.10535 1.36191,0.781431 1.627068,0.807707 0.04764,0.0047 0.114567,-0.111392 0.148731,-0.25803 z m 24.298227,-6.197899 c -0.286872,-0.843698 -0.900087,-2.760428 -1.3627,-4.259408 -0.966886,-3.132949 -1.101454,-4.034738 -0.786891,-5.27309 0.534951,-2.105969 1.561147,-3.21033 4.759003,-5.121475 1.169091,-0.69869 3.235241,-1.960863 4.591442,-2.804829 3.117906,-1.940279 3.789553,-2.205139 5.591936,-2.205139 1.251989,0 1.338551,0.0168 2.192182,0.425543 0.967038,0.463039 1.827149,1.114313 4.406682,3.336739 2.241926,1.931555 3.306835,2.835964 3.592762,3.051259 0.299131,0.225243 0.374707,0.328726 -1.557801,-2.132934 -0.844204,-1.075354 -2.079291,-2.658961 -2.744641,-3.51913 -1.625769,-2.101809 -2.374569,-2.88908 -3.400639,-3.575359 -1.142085,-0.763871 -2.094218,-1.080938 -3.496827,-1.164469 -1.395663,-0.08311 -2.498313,0.16746 -4.230081,0.961274 -1.047819,0.480299 -1.280308,0.543089 -2.002424,0.540787 -0.959519,-0.0031 -1.587688,-0.250846 -2.134606,-0.842026 -0.335116,-0.362234 -1.396939,-2.004399 -2.231298,-3.450809 -0.178562,-0.309543 -0.363529,-0.586832 -0.411042,-0.616198 -0.152631,-0.09433 -3.446047,1.951937 -3.446047,2.1411 0,0.0986 0.571649,1.122248 1.270334,2.274763 1.236484,2.039641 1.271583,2.116955 1.317184,2.901544 0.08151,1.402502 -0.187376,1.839215 -1.874278,3.044075 -2.01689,1.440561 -3.083169,3.430512 -3.083169,5.754007 0,1.913524 0.612359,3.447414 3.19079,7.992561 0.720957,1.270876 1.534195,2.723036 1.807193,3.227022 0.272996,0.503991 0.511697,0.901006 0.53044,0.882263 0.01876,-0.01872 -0.200633,-0.724379 -0.487504,-1.568071 z M 33.102334,62.418876 c 1.043582,-2.05941 1.371367,-4.300825 0.90172,-6.166034 -0.27694,-1.099869 -0.96445,-2.61936 -1.536466,-3.395798 -0.727653,-0.987698 -3.193192,-2.445398 -4.757615,-2.812845 -0.964648,-0.226573 -2.774701,-0.232637 -3.812077,-0.01276 -0.43473,0.09214 -1.207919,0.368741 -1.718197,0.61467 -0.771331,0.371751 -1.154406,0.672346 -2.271736,1.782614 -0.739176,0.734509 -1.321405,1.403469 -1.293841,1.486583 0.04649,0.140176 1.217178,0.910787 6.962916,4.583358 1.205701,0.770665 3.284384,2.101639 4.619295,2.957719 1.334912,0.856081 2.467135,1.556512 2.516052,1.556512 0.04892,0 0.224394,-0.267305 0.389949,-0.59401 z M 33.599329,50.65964 c 0.346943,-0.38091 0.509449,-0.735374 0.509449,-1.111218 0,-0.718646 -2.194004,-2.295553 -3.193877,-2.295553 -0.475736,0 -0.888957,0.342201 -1.229691,1.018354 l -0.184754,0.366623 0.973945,0.493833 c 0.53567,0.271609 1.345918,0.783008 1.800551,1.136437 0.454634,0.353429 0.883966,0.646096 0.954072,0.650369 0.0701,0.0045 0.236743,-0.112207 0.370305,-0.258845 z m 9.050096,-2.235312 c 0.451314,-0.26812 0.820566,-0.538471 0.820566,-0.600778 0,-0.09827 -2.988013,-5.241608 -3.380715,-5.819307 -0.128249,-0.18867 -0.219473,-0.09059 -0.812347,0.873336 l -0.667876,1.085869 1.023043,1.674333 c 0.562674,0.920886 1.242853,2.034267 1.511506,2.474187 0.268658,0.439915 0.532744,0.799847 0.586863,0.799847 0.05411,0 0.467647,-0.219366 0.91896,-0.487487 z m -7.683537,-2.089806 c 0.225955,-0.374747 1.333926,-2.174409 2.462157,-3.999252 1.128237,-1.824843 2.595324,-4.197733 3.2602,-5.27309 2.388963,-3.863871 4.943459,-7.983196 8.707689,-14.04182 C 61.867161,2.9475973 61.481442,3.5859595 61.481442,3.0189656 c 0,-1.2641454 -1.728101,-1.5668749 -2.326765,-0.407604 -0.202254,0.3916454 -0.790899,1.3583336 -4.490507,7.3743945 -1.162274,1.8900169 -2.763474,4.5028629 -3.55822,5.8063229 -1.527271,2.504872 -6.863521,11.184581 -8.414309,13.686334 -0.844051,1.361638 -2.166659,3.519506 -5.737709,9.361213 -1.899466,3.107237 -3.456414,5.641741 -3.922113,6.384659 -0.39128,0.624206 -0.394743,0.641068 -0.164965,0.803314 0.800612,0.565307 1.437756,0.965515 1.55394,0.976071 0.07385,0.0067 0.31914,-0.294405 0.545094,-0.669148 z m 0.97012,-9.38587 0.656617,-1.061501 -0.604688,-0.982561 C 35.476194,34.073052 24.358391,15.453001 18.56842,5.7304503 17.601585,4.1069349 16.724522,2.6835572 16.61939,2.567388 16.330199,2.247836 15.813089,2.179313 15.349809,2.3991533 14.85022,2.6362241 14.647072,2.9984849 14.696551,3.5640658 c 0.02879,0.3290811 2.521702,4.5782407 10.228757,17.4348812 5.604879,9.349864 10.227455,17.002329 10.272384,17.005477 0.04493,0.0031 0.377174,-0.471946 0.738316,-1.055772 z"
       id="path1" /></g></svg>
