<?xml version="1.0" encoding="UTF-8" standalone="no"?>
<!-- Created with Inkscape (http://www.inkscape.org/) -->

<svg
   width="56.713665mm"
   height="102.27718mm"
   viewBox="0 0 56.713665 102.27718"
   version="1.1"
   id="svg1"
   xml:space="preserve"
   xmlns="http://www.w3.org/2000/svg"
   xmlns:svg="http://www.w3.org/2000/svg"><defs
     id="defs1" /><g
     id="layer1"><path
       style="fill:#000000;stroke-width:0.999999"
       d="m 34.700877,102.09769 c -0.174081,-0.13845 -0.733364,-0.53843 -1.242846,-0.88884 -0.509482,-0.35041 -1.01363,-0.80594 -1.120337,-1.01229 -0.25285,-0.488957 -0.246391,-1.400774 0.01655,-2.337931 0.16677,-0.594357 0.181607,-0.849134 0.07134,-1.224768 -0.403653,-1.374997 -0.293405,-3.067778 0.281591,-4.323734 l 0.319183,-0.697188 -0.2094,-0.479515 c -0.295378,-0.676413 -0.296573,-2.481901 -0.0019,-3.200337 l 0.223032,-0.544164 h -0.314558 c -0.179948,0 -0.371272,-0.105985 -0.447099,-0.247663 -0.07558,-0.141241 -0.132536,-1.131584 -0.132536,-2.304696 0,-1.560216 -0.03867,-2.057057 -0.160048,-2.057134 -0.08803,-5.8e-5 -0.506418,-0.163964 -0.929762,-0.364241 -0.985247,-0.466109 -2.264661,-1.529611 -2.541185,-2.112341 l -0.214852,-0.452765 0.0083,-2.920603 0.0083,-2.920597 0.266282,-0.553964 c 0.15115,-0.314455 0.541054,-0.771164 0.901806,-1.056323 0.349535,-0.276293 0.615945,-0.502866 0.592015,-0.503495 -0.245475,-0.0064 -2.634956,-0.926737 -3.066069,-1.180857 -1.644553,-0.96937 -2.301994,-1.751012 -2.638441,-3.136872 -0.163932,-0.675252 -0.331356,-1.002666 -0.757959,-1.48228 -0.669232,-0.752383 -1.174333,-1.754612 -1.307982,-2.595317 -0.06572,-0.413417 -0.266942,-0.861953 -0.584854,-1.303706 -0.613471,-0.852434 -0.842964,-1.615792 -0.842964,-2.803941 0,-0.516969 -0.03486,-0.939944 -0.07746,-0.939944 -0.0426,0 -1.104496,0.577309 -2.359764,1.282911 -2.701493,1.518511 -3.174969,1.70878 -3.964757,1.593239 C 13.793898,61.228764 13.281602,60.981659 10.05717,59.197648 8.7191801,58.457357 6.4274114,57.194544 4.9643645,56.391397 1.8525621,54.68315 1.1292845,54.152645 0.51830466,53.130343 L 0.07016921,52.380509 0.0350846,42.132339 0,31.884164 0.291164,31.307992 c 0.33436841,-0.66167 0.839459,-1.027034 3.3640912,-2.433477 0.9154765,-0.510004 2.4567417,-1.385407 3.4250338,-1.945347 l 1.7605315,-1.018074 0.00126,-1.110699 c 0.00102,-0.895064 0.059428,-1.234994 0.3009108,-1.750895 0.3295194,-0.703985 0.042552,-0.507448 3.9259957,-2.688813 1.653142,-0.928584 2.010653,-1.17721 1.841123,-1.280385 -0.753017,-0.458289 -1.023898,-0.685564 -1.222597,-1.025785 l -0.224689,-0.38472 -0.02731,-2.880235 -0.02731,-2.880235 0.229658,-0.483967 c 0.355234,-0.748602 0.966144,-1.183716 4.252089,-3.0285072 11.134381,-6.2510485 13.860042,-7.75105635 14.481069,-7.96932858 1.744103,-0.61300212 4.134815,-0.56213863 5.763037,0.12261124 0.472926,0.19889052 2.501962,1.28694644 4.508967,2.41790234 2.007009,1.130956 5.435245,3.0537597 7.618301,4.2728971 6.021182,3.3625501 5.645133,3.1256801 6.046655,3.8087351 l 0.35528,0.60439 0.04195,2.81685 c 0.02627,1.765304 -0.0095,2.989524 -0.0959,3.279405 -0.191257,0.641735 -0.605758,1.014328 -2.071898,1.862409 l -1.267183,0.732997 2.28e-4,3.784623 c 0,0 -0.218456,11.115645 -0.409012,13.72027 -0.190555,2.604625 -0.500554,7.484499 -1.71725,11.103675 -0.38603,1.148283 -1.534542,2.890999 -1.573,3.441832 -0.17133,2.453945 -0.120468,9.171026 -1.360184,10.217314 -0.201149,0.169764 -0.316061,0.628011 -0.353473,0.926104 -0.09537,0.759962 -0.543419,1.6225 -1.315639,2.532785 -0.525141,0.619032 -0.680622,0.90898 -0.755621,1.409117 -0.273244,1.822102 -1.784398,3.15372 -4.646692,4.094631 l -1.055301,0.346902 0.644497,0.579458 c 1.028332,0.924559 1.017966,0.879602 1.017966,4.414964 v 3.113291 l -0.236495,0.446141 c -0.431138,0.813334 -2.528525,2.297404 -3.252561,2.301444 l -0.224066,0.0015 -0.003,3.55307 -0.003,3.553074 -0.294266,0.833475 -0.294271,0.833475 0.166878,0.408975 c 0.256219,0.627912 0.424117,2.44303 0.291371,3.149963 -0.06367,0.339073 -0.232347,0.880063 -0.37484,1.202198 l -0.259084,0.585695 0.317819,0.654363 c 0.174799,0.359906 0.354698,0.975502 0.399775,1.367996 0.09972,0.868177 -0.111777,1.353524 -0.812108,1.863654 -0.264152,0.1924 -0.797171,0.58862 -1.184491,0.88047 -0.96335,0.7259 -0.92874,0.71426 -1.283965,0.43175 z m 2.372126,-2.544567 c 0.09727,-0.306469 -0.1624,-1.665033 -0.318248,-1.665033 -0.141553,0 -0.805547,0.848234 -1.072467,1.370057 -0.115284,0.225374 -0.209597,0.674055 -0.209597,0.997073 v 0.5873 l 0.759163,-0.51554 c 0.417541,-0.28354 0.796057,-0.63178 0.841149,-0.773857 z m -2.2847,-0.315625 c 0.111073,-0.349355 0.547577,-1.149217 0.970016,-1.777473 1.051464,-1.563752 1.28728,-2.138966 1.292922,-3.153783 0.0023,-0.459517 -0.03867,-1.058993 -0.09164,-1.33217 l -0.09629,-0.496686 -1.609236,2.417267 c -1.776114,2.667935 -2.034603,3.157232 -2.137921,4.046963 -0.09293,0.80019 -0.01984,0.949637 0.677907,1.386304 l 0.590307,0.36943 0.101007,-0.41233 c 0.05554,-0.22678 0.191872,-0.698166 0.302941,-1.047522 z m -0.121671,-5.094537 c 0.715886,-1.073923 1.548988,-2.41353 1.85134,-2.976896 l 0.549735,-1.024312 0.04877,-1.344409 c 0.02682,-0.739419 0.01897,-1.315595 -0.01742,-1.280384 -0.09312,0.09006 -2.767338,3.920935 -3.199832,4.583821 -0.433761,0.664831 -0.584476,1.046503 -0.743175,1.882064 -0.120262,0.633246 -0.03136,2.112703 0.126994,2.112703 0.0451,0 0.667702,-0.878664 1.383583,-1.952587 z m 0.227802,-5.062225 c 0.632646,-0.895257 1.396078,-2.105449 1.696514,-2.68932 l 0.546244,-1.061582 v -1.116972 -1.116973 l -2.048608,0.0019 -2.048607,0.0019 -1.4e-5,1.577342 -1.1e-5,1.577341 0.95738,-0.791915 c 0.955777,-0.79059 1.260031,-0.882661 1.432405,-0.433458 0.110838,0.288846 -0.249187,0.990446 -1.046774,2.039888 -0.807836,1.062922 -1.016553,1.72471 -0.896759,2.843367 0.04748,0.443156 0.124912,0.803607 0.172123,0.801008 0.04723,-0.0023 0.603456,-0.737207 1.236101,-1.632464 z m 2.523291,-7.020531 c 0.05697,-0.03522 0.10359,-0.716835 0.10359,-1.51472 v -1.450709 l 0.248055,-0.302268 c 0.203415,-0.247872 0.289829,-0.27623 0.480147,-0.157572 l 0.232091,0.1447 -0.03954,1.487795 c -0.02724,1.025928 0.0044,1.487791 0.10218,1.487791 0.261901,0 1.4699,-0.84823 1.889928,-1.327065 l 0.416127,-0.474387 v -1.924843 -1.924844 l -0.352108,0.248578 c -0.682815,0.482054 -1.962497,1.055326 -2.81685,1.2619 -1.175513,0.284223 -4.010316,0.284156 -5.186084,-1.2e-4 -0.847519,-0.204915 -2.226165,-0.810011 -2.964462,-1.301118 l -0.372197,-0.247581 0.07835,1.969761 0.07835,1.969762 0.532275,0.542346 c 0.29275,0.29829 0.813899,0.695628 1.158111,0.882969 l 0.625837,0.340626 v -1.544458 c 0,-0.849449 0.02409,-1.544454 0.05354,-1.544454 0.02948,0 0.137264,-0.03212 0.239567,-0.07139 0.102306,-0.03925 0.279879,0.02245 0.394588,0.137185 0.169331,0.169331 0.208567,0.494819 0.208567,1.730088 v 1.521515 l 0.416128,0.06802 c 0.228869,0.0374 0.588977,0.09282 0.800239,0.123128 0.469301,0.06732 3.529332,-0.04147 3.673551,-0.130626 z m 0.261672,-5.370795 c 1.429217,-0.345436 2.703625,-1.138933 3.047807,-1.897691 0.270361,-0.596002 0.165949,-1.019355 -0.380534,-1.542918 l -0.363075,-0.347846 v 0.627782 c 0,1.107972 -0.594038,1.842285 -1.879422,2.32321 -2.54663,0.952816 -6.078097,0.548094 -7.403437,-0.848466 -0.378832,-0.399186 -0.605662,-1.010205 -0.605662,-1.631482 v -0.3825 l -0.381169,0.381653 c -0.209642,0.209906 -0.415475,0.554505 -0.457407,0.765767 -0.158142,0.79674 0.985969,1.842553 2.605248,2.381414 1.434684,0.477431 4.2122,0.559108 5.817651,0.171077 z m -1.190796,-1.343688 c 1.039975,-0.168734 1.993018,-0.574898 2.317794,-0.987779 0.453842,-0.57697 0.314093,-0.683704 -0.441978,-0.337562 -1.953018,0.89412 -4.838079,0.897725 -6.63686,0.0083 l -0.608184,-0.300726 v 0.223235 c 0,0.303808 0.76768,0.955694 1.352902,1.148834 1.085362,0.358202 2.710297,0.45761 4.016326,0.245709 z m 0.633405,-1.84499 c 1.030984,-0.271967 1.915891,-0.898809 1.647592,-1.167108 -0.04791,-0.04791 -0.911232,-0.01565 -1.918552,0.07183 -1.392839,0.120842 -2.20416,0.124881 -3.387488,0.01689 -0.855799,-0.0781 -1.675724,-0.141992 -1.822054,-0.141992 -0.383055,0 -0.3274,0.309732 0.123879,0.689464 0.911648,0.767098 3.491838,1.022829 5.356617,0.53091 z m 2.108034,-2.299223 c 2.042698,-0.472457 3.736539,-1.196676 4.57903,-1.957817 0.523264,-0.472738 1.010441,-1.263627 1.010441,-1.640358 0,-0.172863 -0.06334,-0.160779 -0.394938,0.07535 -0.954784,0.679862 -3.252796,1.459621 -5.494839,1.864503 -1.674755,0.302434 -6.114575,0.309722 -7.746337,0.01268 -1.84892,-0.336536 -3.367219,-0.815322 -4.705423,-1.483822 -0.686607,-0.342997 -1.248376,-0.571265 -1.248376,-0.507266 0,0.064 0.110181,0.33014 0.244857,0.591411 0.735448,1.426829 2.94665,2.549131 6.221095,3.157528 1.380296,0.25646 6.254326,0.183856 7.53449,-0.112232 z m -0.270118,-2.579081 c 2.378431,-0.405022 4.670355,-1.288612 6.048585,-2.331859 0.69728,-0.527802 1.527594,-1.54741 1.728114,-2.122082 l 0.127542,-0.365537 -0.350125,0.231814 c -3.145938,2.082879 -6.73563,3.0387 -11.42547,3.042243 -2.916107,0.0023 -6.030641,-0.503268 -8.16985,-1.325922 -0.947351,-0.364315 -2.564276,-1.196352 -3.088384,-1.589221 -0.241431,-0.18098 -0.46137,-0.306649 -0.488752,-0.279266 -0.107895,0.107895 0.606928,1.318132 1.043071,1.766006 1.296977,1.33185 3.874849,2.479156 6.587692,2.931911 2.21715,0.370024 5.945898,0.38959 7.987571,0.04191 z m -1.445636,-2.553245 c 2.115399,-0.133131 5.27914,-0.961759 7.012144,-1.83658 1.124369,-0.567576 2.775725,-1.843583 3.218207,-2.48671 0.501386,-0.728739 0.6834,-1.469773 0.634799,-2.584453 v 0 l 0.263542,-5.687049 c 0.0074,-0.159794 -3.497659,3.555795 -11.107889,3.296843 l -5.249732,-0.0029 -2.597446,1.450073 -2.597452,1.450079 -0.57832,-0.01033 c -0.452677,-0.0081 -0.870397,-0.17132 -1.922726,-0.75126 -2.202995,-1.214078 -2.278741,-1.248476 -2.555647,-1.160589 l -0.261204,0.08291 0.0028,1.367786 c 0.0034,1.661002 0.193253,2.164749 1.177045,3.123348 2.202252,2.145856 5.986868,3.543603 10.279604,3.796493 1.527883,0.09 2.21603,0.08235 4.282272,-0.04772 z M 15.303403,60.373983 15.63697,60.247161 15.594777,50.22692 C 15.549152,39.391463 15.571718,39.737459 14.834921,38.576279 14.324612,37.772039 13.762299,37.380679 10.505153,35.562822 8.9910954,34.717805 6.9168697,33.553136 5.8957616,32.974671 4.8746529,32.396207 3.6015898,31.701977 3.066731,31.43194 L 2.0942617,30.94096 1.6826108,31.191299 c -0.80442953,0.4892 -0.78035666,0.151244 -0.78035666,10.955441 v 9.822665 l 0.26355846,0.54444 c 0.4573706,0.944798 1.0420385,1.359953 4.6659295,3.313096 0.4929488,0.26568 1.4724443,0.811727 2.1766567,1.213438 2.9594932,1.688204 5.5896622,3.113772 6.0437862,3.275762 0.592892,0.211489 0.81954,0.221965 1.251218,0.05785 z m 5.678426,-3.030685 c 1.948955,-1.094635 3.658791,-2.101369 3.799632,-2.237193 l 0.256079,-0.246947 -0.0072,-9.566915 -0.0072,-9.566919 -0.225235,-0.905937 C 24.510911,33.665045 23.977869,32.732921 23.281241,32.167202 22.979567,31.92222 21.782055,31.188918 20.620105,30.537641 19.458153,29.88637 17.672014,28.879684 16.650907,28.300559 14.10443,26.856332 11.606278,25.546254 11.398794,25.546254 c -0.09472,0 -2.0608389,1.080229 -4.369148,2.400503 l -4.1969262,2.400508 0.475151,0.241997 c 0.2613335,0.1331 2.2612906,1.234959 4.4443496,2.448586 7.3568506,4.089877 7.2898856,4.042971 8.0973266,5.672214 0.370372,0.74733 0.478592,1.136881 0.536618,1.931608 0.03998,0.547518 0.07269,5.089575 0.07269,10.093458 v 9.097966 l 0.489662,-0.249777 c 0.269313,-0.137373 2.08426,-1.145385 4.033216,-2.240019 z m 6.087558,1.255457 0.214976,-0.237544 -0.03785,-12.47029 c -0.02854,-9.401957 -0.0763,-12.580555 -0.194133,-12.918428 -0.266435,-0.76403 -1.080241,-1.700882 -2.016526,-2.32142 -1.035289,-0.686157 -11.669614,-6.670812 -13.517371,-7.60714 l -0.631418,-0.319964 -0.36714,0.189856 c -0.446964,0.231133 -0.7829982,1.004816 -0.7829982,1.802768 0,0.315471 0.031451,0.573582 0.069884,0.573582 0.038438,0 0.3404692,-0.144042 0.6711842,-0.320096 1.018022,-0.541935 1.160503,-0.499343 4.252439,1.271135 0.880266,0.504047 3.151885,1.778253 5.048042,2.831569 2.808341,1.560027 3.593745,2.057551 4.235999,2.683345 0.881802,0.8592 1.519423,2.012283 1.726607,3.122413 0.07915,0.424126 0.128717,4.475204 0.128717,10.521356 v 9.831676 l -0.30661,0.364385 c -0.168635,0.200409 -0.766607,0.621332 -1.328827,0.935375 l -1.022217,0.571 1.552893,0.863487 c 0.854093,0.474919 1.673605,0.865065 1.821138,0.866987 0.147534,0.0019 0.364982,-0.103402 0.483218,-0.234052 z m 3.00415,-1.569158 c 1.032949,-0.571157 1.92042,-1.10412 1.972157,-1.184358 0.115754,-0.179517 0.105218,-24.102075 -0.0108,-24.509739 l -0.08327,-0.292588 -1.953548,1.112923 -1.953546,1.112928 0.01908,12.399655 c 0.01049,6.819809 0.04444,12.39965 0.07546,12.39965 0.03101,0 0.901512,-0.467311 1.934461,-1.038471 z m 18.059452,-4.638693 c 3.375875,-3.801185 3.845715,-9.833225 4.303332,-23.643116 0.02615,-0.789154 -11.205515,6.184622 -12.632395,7.125107 -0.914261,0.602609 -1.551252,1.407092 -1.776505,2.243621 -0.08457,0.314086 -0.11793,3.441098 -0.09438,8.847998 l 0.123532,8.917385 2.455959,0.02286 c 4.9896,-0.736236 6.114418,-1.818082 7.620457,-3.513858 z m -10.944414,3.212424 c -0.05858,-0.158451 -0.124536,-4.08498 -0.146532,-8.725623 l -0.04001,-8.437539 0.194505,-0.669076 c 0.464157,-1.596635 1.256004,-2.273628 5.318284,-4.546882 5.149505,-2.881666 7.820823,-4.352084 8.802655,-4.845387 L 52.3738,27.848089 v -3.469311 c 0,-2.88321 -0.02962,-3.457954 -0.17524,-3.402069 -0.17367,0.06664 -5.104277,2.798137 -9.171586,5.080938 -4.558723,2.558616 -5.546019,2.902315 -7.989181,2.781193 -0.781913,-0.03876 -1.830022,-0.177886 -2.329138,-0.30916 l -0.907482,-0.238683 0.47538,0.929553 c 0.320929,0.627546 0.522171,1.244149 0.619395,1.897845 0.09867,0.663506 0.144012,4.714752 0.144012,12.870655 v 11.902365 h 2.127573 2.12757 z m -5.496433,-25.36118 c 0.182983,-0.06099 -0.610583,-1.599606 -1.150072,-2.229827 -0.255581,-0.298568 -0.820821,-0.739502 -1.256088,-0.979858 -0.435262,-0.24036 -3.124894,-1.720064 -5.976955,-3.288234 -2.852061,-1.568171 -5.617694,-3.108572 -6.145855,-3.423115 -0.52816,-0.31454 -1.017908,-0.57271 -1.088329,-0.573711 -0.142023,-0.002 -4.289294,2.332667 -4.289294,2.414629 0,0.02835 0.360108,0.232572 0.800241,0.45384 0.440133,0.221266 1.376416,0.732484 2.080628,1.136038 0.704213,0.403552 1.626092,0.922846 2.048618,1.153984 1.952234,1.067943 7.893061,4.446954 8.605023,4.894348 0.817374,0.513629 1.954625,1.650143 2.279114,2.277634 l 0.183475,0.354801 1.892392,-1.07448 c 1.040817,-0.59096 1.948511,-1.093184 2.017102,-1.116049 z m 5.78581,-2.44215 c 1.0501,-0.279593 1.774546,-0.651726 8.159626,-4.191455 7.642893,-4.23703 9.546187,-5.323223 9.905178,-5.652799 l 0.288091,-0.26448 v -1.512967 -1.512962 l -0.608183,0.370004 c -0.334505,0.203503 -1.443637,0.828916 -2.464745,1.389807 -1.842629,1.012148 -9.32262,5.178885 -12.449277,6.934879 -0.896502,0.503495 -2.020041,1.070187 -2.496751,1.259315 l -0.866745,0.343869 -1.792544,5e-6 -1.792542,6e-6 -0.704213,-0.295058 C 32.268522,24.50588 29.992635,23.289258 27.598312,21.964554 25.203989,20.639852 21.217236,18.433831 18.738858,17.062285 l -4.506139,-2.49372 0.04807,0.527346 c 0.02644,0.290041 0.052,0.971637 0.0568,1.514659 0.0071,0.802553 0.05485,1.030176 0.255195,1.216367 0.252356,0.234526 4.143494,2.418369 10.956913,6.149403 2.112637,1.156882 4.275184,2.356036 4.805659,2.664791 1.691199,0.984329 2.944324,1.313189 5.053316,1.326159 0.817384,0.005 1.685746,-0.06517 2.069271,-0.167298 z m 0.142007,-4.026436 c 0.371147,-0.150837 3.136782,-1.650095 6.145856,-3.331691 3.009068,-1.681596 6.853852,-3.821786 8.543963,-4.755981 1.690109,-0.934195 3.179232,-1.790871 3.309155,-1.903726 l 0.236226,-0.205197 -0.04476,-0.985678 -0.04476,-0.985678 L 55.4001,11.224073 C 55.199052,11.014227 54.680764,10.655684 54.248346,10.427313 53.252558,9.9014098 44.213533,4.8640461 41.73704,3.4548801 37.52559,1.058494 36.639087,0.73750132 34.599664,0.87053345 c -1.764712,0.11511284 -1.65004,0.0623035 -8.537806,3.93185205 -1.408426,0.7912536 -3.396225,1.9022093 -4.417333,2.4687908 -2.484273,1.3784463 -6.172007,3.4779697 -6.590109,3.7519207 -0.479031,0.313873 -0.738025,0.89292 -0.756308,1.690914 l -0.0158,0.689902 0.342567,0.295084 c 0.342534,0.295055 1.352579,0.863608 10.348661,5.825235 6.469995,3.56841 7.774097,4.254731 8.450548,4.447336 0.909315,0.258907 3.355636,0.143463 4.195882,-0.198012 z m -3.171572,-0.74863 c -1.111257,-0.186491 -1.792542,-0.754015 -1.792542,-1.493224 0,-0.918343 0.945683,-1.534701 2.368719,-1.543836 1.520334,-0.0097 2.496751,0.63929 2.496751,1.659654 0,0.924391 -1.572438,1.62922 -3.072928,1.377406 z m 1.985509,-1.201848 c 0.703614,-0.703614 -1.588946,-1.327888 -2.467537,-0.671922 -0.468977,0.35014 -0.483867,0.507293 -0.07006,0.7394 0.483611,0.271261 2.245711,0.224405 2.537595,-0.06747 z M 16.715027,13.83034 c -1.462977,-0.517583 -1.453705,-2.012027 0.01597,-2.573299 1.102742,-0.421141 2.480017,-0.268808 3.187738,0.352578 l 0.445398,0.391065 v 0.540591 c 0,0.397065 -0.07746,0.613356 -0.291733,0.81466 -0.664152,0.623938 -2.286673,0.853204 -3.357368,0.474405 z m 2.308808,-0.88936 c 0.887627,-0.370875 0.325246,-0.973904 -0.924786,-0.991628 -0.797464,-0.0113 -1.57608,0.279312 -1.57608,0.588274 0,0.49636 1.64376,0.761475 2.500866,0.403354 z m 31.863401,0.874925 c -0.773143,-0.274215 -1.136548,-0.716453 -1.11961,-1.362483 0.0108,-0.413824 0.09028,-0.590378 0.36366,-0.808367 1.069128,-0.85249 3.551012,-0.725337 4.210139,0.215697 0.522605,0.746123 0.02666,1.731307 -1.017434,2.021199 -0.684106,0.189938 -1.800311,0.159684 -2.436755,-0.06605 z m 2.32292,-0.874925 c 0.543605,-0.227132 0.568066,-0.511985 0.06627,-0.771478 -0.808993,-0.418345 -2.644106,-0.114906 -2.541524,0.420243 0.09031,0.471147 1.656405,0.693373 2.475259,0.351235 z M 33.744166,4.7395967 C 32.351345,4.2468331 32.27085,2.8362552 33.601078,2.2321752 c 0.726039,-0.3297057 2.253172,-0.3277637 2.98345,0.00377 0.978018,0.4440332 1.224355,1.6211884 0.451822,2.1590283 -0.794384,0.5530484 -2.267235,0.7072145 -3.29219,0.344599 z m 2.503115,-0.8991828 c 0.393132,-0.2032976 0.437333,-0.2857261 0.279767,-0.521708 -0.19476,-0.2916832 -0.679019,-0.435234 -1.462064,-0.4334062 -0.920273,0.00213 -1.448855,0.2116646 -1.448855,0.5742866 0,0.1366831 0.144043,0.3213885 0.320098,0.4104565 0.448395,0.2268508 1.84982,0.2088836 2.311054,-0.02963 z"
       id="path3" /></g></svg>
