<?xml version="1.0" encoding="UTF-8" standalone="no"?>
<!-- Created with Inkscape (http://www.inkscape.org/) -->

<svg
   width="71.441994mm"
   height="91.080582mm"
   viewBox="0 0 71.441994 91.080582"
   version="1.1"
   id="svg1"
   xml:space="preserve"
   xmlns="http://www.w3.org/2000/svg"
   xmlns:svg="http://www.w3.org/2000/svg"><defs
     id="defs1" /><g
     id="layer1"><path
       style="fill:#000000;stroke-width:0.999998"
       d="m 18.489768,90.766588 -0.351559,-0.313987 -0.03138,-3.292251 -0.03138,-3.292257 h -3.120802 c -3.446213,0 -3.716911,-0.04254 -4.021766,-0.63207 -0.116434,-0.22517 -0.168623,-0.626064 -0.168623,-1.295425 V 80.971256 L 6.7005028,80.939484 2.636752,80.907753 2.0446829,80.627713 C 0.43927728,79.868394 -0.36999827,77.938425 0.16358455,76.141655 0.41682453,75.288904 0.91030956,74.726669 1.8147744,74.260422 l 0.783103,-0.403681 h 4.0831881 4.0831885 v -1.017605 c 0,-0.55968 0.05188,-1.131484 0.115304,-1.270675 0.249162,-0.546853 0.347743,-0.561996 3.894618,-0.598344 l 3.310207,-0.03393 V 66.691049 62.445924 H 14.703009 11.321632 L 11.042941,62.114718 C 10.786266,61.809681 10.764248,61.703371 10.764248,60.769105 V 59.7547 H 6.8545939 c -4.3882321,0 -4.585601,-0.02612 -5.5096384,-0.728996 C 0.95482872,58.72895 0.70302674,58.413017 0.42993801,57.877644 0.08484369,57.201104 0.05336269,57.061164 0.05549806,56.213137 0.0592639,54.715964 0.61657986,53.740686 1.8507562,53.071494 l 0.6783388,-0.367806 4.0906627,-0.05382 4.0906623,-0.05382 0.05382,-1.101451 c 0.05011,-1.025614 0.07437,-1.121968 0.352152,-1.399435 l 0.298325,-0.29799 3.361741,-0.03368 3.36174,-0.03368 v -4.191566 -4.191551 l -3.352879,2.9e-5 -3.352882,2.4e-5 -0.334099,-0.380518 c -0.322789,-0.367637 -0.334098,-0.414613 -0.334098,-1.387918 0,-0.819315 -0.03179,-1.019601 -0.170277,-1.072746 -0.09366,-0.03593 -1.9059211,-0.06534 -4.0272602,-0.06534 -3.6567392,0 -3.8875976,-0.01172 -4.4466807,-0.225663 -0.8296474,-0.31749 -1.34287514,-0.780182 -1.69776482,-1.5306 -0.8644618,-1.827899 -0.24267471,-4.062281 1.35328842,-4.863032 l 0.645894,-0.324066 4.1444876,-0.05382 4.1444877,-0.05382 0.05382,-1.042386 c 0.04324,-0.837255 0.09847,-1.10206 0.280691,-1.345612 l 0.226865,-0.303226 3.406289,-0.02844 3.40629,-0.02844 V 24.390504 20.139878 H 14.736622 11.388868 L 11.076554,19.805547 C 10.775716,19.483499 10.764242,19.432301 10.764242,18.411985 V 17.352742 L 6.6466667,17.319951 C 2.59064,17.287649 2.5221799,17.283465 2.0667326,17.040291 1.3915152,16.679763 0.83631226,16.138237 0.47709466,15.489808 0.17858374,14.950964 0.16081317,14.849327 0.16081317,13.680922 c 0,-1.00838 0.0376723,-1.307838 0.20313482,-1.614737 0.41062546,-0.761619 0.83014391,-1.175872 1.54969211,-1.530241 l 0.7180224,-0.353616 4.0662907,-0.03061 4.0662888,-0.03062 V 9.2601501 c 0,-0.4927725 0.06419,-1.0145751 0.150103,-1.2201939 0.296831,-0.7104183 0.296342,-0.7103289 3.904791,-0.7103289 h 3.253444 l 0.0328,-3.2218074 c 0.03133,-3.0756915 0.04304,-3.2355806 0.258486,-3.52550541 0.124119,-0.16703439 0.342111,-0.36353715 0.484422,-0.43667389 0.377854,-0.19418747 33.403185,-0.19418747 33.781042,0 0.637154,0.32744789 0.648409,0.38827313 0.726583,3.9276034 l 0.07193,3.2563833 h 3.264307 3.264302 l 0.351558,0.3139424 c 0.346821,0.309715 0.352058,0.3285679 0.388558,1.3994379 l 0.03699,1.0854944 h 3.915063 c 4.447581,0 4.618179,0.02675 5.582325,0.875429 0.686262,0.604072 1.005922,1.195538 1.13393,2.098124 0.263979,1.861282 -0.375527,3.16844 -1.928615,3.942138 -0.476756,0.237503 -0.580348,0.243705 -4.605301,0.275757 l -4.117578,0.03279 v 0.968311 c 0,1.027462 -0.147979,1.502299 -0.532282,1.707971 -0.129056,0.06907 -1.443718,0.110841 -3.488292,0.110841 h -3.281187 l -0.07521,0.802511 c -0.04135,0.44138 -0.047,1.13168 -0.01255,1.533999 0.03446,0.402318 0.06417,1.95397 0.06601,3.448113 l 0.0032,2.716629 3.40629,0.02844 3.406288,0.02844 0.226863,0.303226 c 0.182222,0.243552 0.237461,0.508359 0.28069,1.345612 l 0.05382,1.042386 4.152414,0.05382 4.152416,0.05382 0.626889,0.322948 c 1.523835,0.785009 2.161709,2.849893 1.45693,4.716268 -0.305339,0.808595 -0.771415,1.263765 -1.657102,1.618328 l -0.713954,0.285817 h -3.86543 c -2.125987,0 -3.942054,0.02942 -4.035706,0.06535 -0.138485,0.05314 -0.17028,0.253431 -0.17028,1.072746 0,0.973305 -0.0113,1.020281 -0.3341,1.387918 l -0.334093,0.380519 -3.352881,-3.8e-5 -3.352881,-4.1e-5 v 4.194012 4.194008 l 3.361726,0.03124 3.361725,0.03124 0.298341,0.297991 c 0.277804,0.277472 0.302045,0.373805 0.352163,1.399436 l 0.05382,1.10145 4.090666,0.05382 4.090664,0.05382 0.645894,0.33969 c 0.806458,0.42413 1.143919,0.777071 1.527912,1.597993 0.256672,0.548731 0.300565,0.775447 0.291785,1.507087 -0.01842,1.535109 -0.662571,2.667025 -1.849382,3.249823 l -0.616209,0.302596 -4.090664,0.05382 -4.090666,0.05382 -0.05382,1.022666 c -0.05402,1.026481 -0.178572,1.428653 -0.478027,1.543562 -0.08858,0.03402 -1.664295,0.07117 -3.501584,0.08264 l -3.34052,0.02084 v 4.228986 4.228981 l 3.346089,0.03393 3.34609,0.03393 0.313976,0.351558 c 0.302233,0.338408 0.313976,0.391577 0.313976,1.42161 v 1.070057 l 4.171402,0.03165 4.171399,0.03165 0.702505,0.395458 c 0.850631,0.478848 0.979293,0.614371 1.36471,1.437494 0.260685,0.556742 0.300728,0.772912 0.298559,1.611818 -0.0021,0.815024 -0.04714,1.06489 -0.283672,1.57383 -0.379126,0.815762 -0.945202,1.415976 -1.625492,1.723506 -0.557459,0.252006 -0.613863,0.255461 -4.681833,0.286786 l -4.117578,0.03169 v 0.969395 c 0,1.889143 -0.08468,1.927548 -4.249845,1.927548 h -3.061356 l -0.03137,3.292258 -0.03137,3.292262 -0.351558,0.313973 -0.351557,0.313987 H 35.738826 18.841326 Z M 51.428801,45.518125 51.45586,1.8395307 h -3.983143 -3.983148 v 0.2465047 c 0,0.4164039 -0.315375,1.4960164 -0.635535,2.1755979 -1.0001,2.1228483 -3.043535,3.7978409 -5.272067,4.3214875 -0.976698,0.2294985 -2.884362,0.2240868 -3.774581,-0.01074 C 30.945177,7.8174829 28.595447,5.3376738 28.077187,2.5249772 L 27.950878,1.8395307 H 23.986472 20.022065 V 45.545398 89.251257 l 15.689847,-0.0272 15.689846,-0.0272 z M 18.084386,77.357308 V 72.78421 l -2.602157,2.52e-4 c -1.736235,1.72e-4 -2.649708,0.03971 -2.745051,0.118847 -0.114551,0.09507 -0.142894,1.002245 -0.142894,4.572846 v 4.454253 h 2.745052 2.74505 z m 40.798983,0.127202 c 0,-3.314396 -0.03288,-4.478784 -0.129182,-4.575088 -0.09339,-0.09338 -0.854017,-0.129182 -2.745053,-0.129182 h -2.615869 v 4.575087 4.575084 h 2.745049 2.745052 z m -48.143296,-0.102264 0.02964,-1.695473 H 6.8809701 c -3.3180943,0 -3.9412398,0.0249 -4.2465,0.169767 -0.8476424,0.402233 -0.9485431,2.197257 -0.1629143,2.898232 0.2279336,0.203371 0.438939,0.218571 3.8094858,0.274388 1.9625031,0.03251 3.7619554,0.05672 3.9987834,0.05382 l 0.430595,-0.0053 z m 58.154656,1.439659 c 0.66144,-0.467184 0.874323,-1.795484 0.400449,-2.498661 -0.42782,-0.634841 -0.415345,-0.633147 -4.6795,-0.634885 l -3.902278,-0.0017 -3.2e-5,1.695473 -3.8e-5,1.695473 3.956136,-0.03287 c 3.57545,-0.02969 3.982036,-0.05116 4.225263,-0.222949 z M 18.084386,56.318742 c 0,-2.363437 0.0294,-4.37378 0.06534,-4.467432 0.05854,-0.15254 -0.221823,-0.17028 -2.691226,-0.17028 h -2.756571 v 4.467436 4.467435 h 2.691227 2.691226 z m 40.731131,4.05495 c 0.03568,-0.133213 0.06557,-2.143563 0.06638,-4.467436 l 0.0017,-4.225226 h -2.810395 c -2.518483,0 -2.803603,0.0177 -2.745049,0.17028 0.03593,0.09366 0.06535,2.103995 0.06535,4.467432 v 4.297159 h 2.678667 2.678674 z m -48.075444,-4.198313 0.02964,-1.695473 H 6.9347964 c -3.2987657,0 -3.885868,0.02417 -4.1993488,0.172933 -1.2321498,0.584693 -1.0667556,2.767381 0.2395895,3.161855 0.1691809,0.05109 1.9788538,0.08462 4.0214939,0.07452 l 3.713891,-0.01835 z M 68.68111,57.72535 c 1.216111,-0.646244 1.243359,-2.514304 0.04441,-3.044656 -0.427124,-0.18894 -0.730172,-0.201556 -4.209277,-0.175282 l -3.749019,0.02831 -0.02965,1.695474 -0.02967,1.69547 h 3.799038 c 3.490742,0 3.829484,-0.01615 4.174136,-0.199323 z M 18.151666,39.072639 c -0.037,-0.185022 -0.06728,-2.196199 -0.06728,-4.469283 v -4.132881 l -2.718138,0.02876 -2.718138,0.02876 -0.02811,4.440522 -0.0281,4.440521 h 2.813526 2.813525 z m 40.731703,-4.12703 v -4.463433 l -2.341367,-0.03092 c -1.287753,-0.017 -2.523025,-0.01587 -2.745053,0.0025 l -0.403681,0.0334 v 4.124532 c 0,2.268494 -0.03027,4.275918 -0.06728,4.460938 l -0.06728,0.336402 h 2.812332 2.812331 z m -48.25368,1.6698 c 0.101636,-0.004 0.134566,-0.413515 0.134566,-1.673804 v -1.668559 l -3.9022773,8.13e-4 c -3.6414053,8.15e-4 -3.92285,0.01428 -4.2100132,0.203594 -0.5107451,0.336729 -0.7134294,0.746138 -0.7142202,1.442691 -0.00102,0.891988 0.3653908,1.497896 1.0095413,1.669429 0.2042311,0.05438 6.4141059,0.07536 7.6824074,0.02591 z m 58.26504,-0.206166 c 0.461414,-0.327735 0.662209,-0.846176 0.619818,-1.600332 -0.03154,-0.560872 -0.08753,-0.722938 -0.341415,-0.987931 -0.167033,-0.174345 -0.431221,-0.369695 -0.587086,-0.434115 -0.190497,-0.07873 -1.518387,-0.107759 -4.051106,-0.08855 l -3.767717,0.02857 -0.0299,1.606536 c -0.01693,0.910136 0.01353,1.633428 0.07024,1.668565 0.05508,0.0341 1.836667,0.04771 3.959086,0.03022 3.492552,-0.02876 3.884499,-0.04995 4.128071,-0.222949 z M 18.084386,13.734748 V 9.1596635 h -2.674481 -2.674481 l -0.07017,1.5339995 c -0.08957,1.958067 -0.09005,5.944683 -8.15e-4,6.889537 l 0.06862,0.726631 h 2.67566 2.675659 z m 40.773237,0.02692 -0.02808,-4.548173 -2.71814,-0.02876 -2.718137,-0.02876 v 4.576932 4.576932 h 2.746215 2.74622 z m -48.093372,-0.02692 v -1.66856 H 6.7729561 2.7816614 l -0.3059366,0.305937 c -0.5447437,0.544743 -0.6597579,1.619422 -0.2574577,2.405666 0.3238745,0.63297 0.2692182,0.625517 4.5869218,0.625517 h 3.9590621 z m 58.069997,1.544355 c 0.627286,-0.28581 0.907169,-1.646246 0.50132,-2.436748 -0.400295,-0.779685 -0.378834,-0.776167 -4.736497,-0.776167 H 60.7134 v 1.66856 1.66856 h 3.924127 c 2.735507,0 4.006693,-0.03763 4.196721,-0.124203 z M 37.461209,6.723174 c 2.053769,-0.5764604 3.919444,-2.6215051 4.111577,-4.5068727 l 0.03292,-0.322947 -5.839956,-0.027839 -5.839961,-0.027839 0.0025,0.3507863 c 0.0063,0.8589999 1.095873,2.6580964 2.087267,3.4463461 0.737073,0.5860409 1.921366,1.1367931 2.704386,1.2576681 0.793699,0.1225292 1.957646,0.05063 2.741223,-0.1693022 z"
       id="path1" /></g></svg>
