<?xml version="1.0" encoding="UTF-8" standalone="no"?>
<svg
   id="Layer_1"
   data-name="Layer 1"
   viewBox="0 0 152.26465 47.22624"
   version="1.1"
   xml:space="preserve"
   width="152.26465"
   height="47.226242"
   xmlns="http://www.w3.org/2000/svg"
   xmlns:svg="http://www.w3.org/2000/svg"
   xmlns:rdf="http://www.w3.org/1999/02/22-rdf-syntax-ns#"
   xmlns:cc="http://creativecommons.org/ns#"
   xmlns:dc="http://purl.org/dc/elements/1.1/"><defs
     id="defs1"><style
       id="style1">.cls-1{fill-rule:evenodd;}</style></defs><title
     id="title1">man-woman-toilet</title><metadata
     id="metadata1"><rdf:RDF><cc:Work
         rdf:about=""><dc:title>man-woman-toilet</dc:title></cc:Work></rdf:RDF></metadata><path
     style="fill:#000000;fill-opacity:1;stroke-width:10;stroke-dasharray:none"
     d="M 2.0383295,27.34977 C 1.2326317,26.66915 0.71519716,25.871377 0.33551946,24.724393 -0.50506035,22.185067 0.24771583,19.759756 2.4372393,17.953012 2.9110538,17.56203 4.2981612,16.731856 5.5197018,16.108183 c 1.2215423,-0.623675 2.4519965,-1.262337 2.7343296,-1.419255 0.4546588,-0.252683 0.5474654,-0.246263 0.8117639,0.05616 0.3037032,0.347508 4.4073317,8.128133 4.8471317,9.190326 0.132564,0.320181 0.19085,0.693034 0.129508,0.828555 -0.179212,0.395935 -2.789973,2.122559 -4.3264789,2.861307 C 8.0585471,28.422162 6.583323,28.793637 5.4757021,28.69302 4.3752097,28.59305 2.7654002,27.963971 2.0383295,27.349771 Z m 3.3054946,-0.126584 c 1.2693182,0.228833 4.4904132,-1.068295 6.3208529,-2.545402 l 0.598824,-0.483237 -0.241404,-0.560879 C 11.889318,23.325184 11.362341,22.264231 10.851027,21.275992 10.339713,20.287753 9.5774191,18.813514 9.1570401,17.999904 8.7366679,17.186299 8.3413623,16.497372 8.2785941,16.468961 c -0.2161901,-0.09785 -3.5476396,1.69545 -4.5620759,2.455743 -0.8635595,0.647218 -1.1078316,0.93625 -1.6250193,1.922764 -0.5429881,1.035697 -0.6053641,1.271048 -0.5781312,2.179958 0.064726,2.158756 1.5488609,3.784431 3.8304564,4.19576 z M 30.221281,38.442405 c -1.972441,-1.622646 -2.672546,-4.366451 -1.674198,-6.561373 1.4086,-3.097769 4.103864,-4.034395 9.538433,-3.315626 2.266042,0.299702 2.168357,0.165054 2.151116,2.96504 -0.0082,1.33331 -0.0043,3.735471 0.0086,5.338139 0.01296,1.602668 -0.01625,3.001874 -0.06489,3.10935 -0.09815,0.216837 -5.315575,0.135869 -6.762535,-0.104945 -1.106718,-0.184188 -2.367193,-0.7483 -3.196555,-1.430583 z m 4.599731,0.122443 c 1.621503,0.165582 3.745688,0.114136 3.839438,-0.09299 0.02837,-0.06267 0.05052,-1.17635 0.04922,-2.474844 -0.0013,-1.298496 0.0047,-3.090176 0.01334,-3.981512 0.0086,-0.891339 -0.05412,-1.691819 -0.139456,-1.778851 -0.20499,-0.209066 -2.381501,-0.487963 -3.801848,-0.487165 -1.334808,7.51e-4 -2.911021,0.480916 -3.74426,1.140628 -1.360987,1.077555 -1.790794,3.251021 -0.970785,4.909094 0.830184,1.678644 2.261146,2.511043 4.754351,2.765636 z m 7.240724,-1.071196 c -0.150598,-3.799261 -0.158337,-7.807799 -0.01568,-8.122979 0.102173,-0.225731 0.507733,-0.318442 1.585979,-0.362553 1.730382,-0.07079 3.681925,-0.481759 4.826869,-1.01648 0.458265,-0.214018 1.58246,-0.850682 2.498212,-1.414803 2.924028,-1.801253 5.520772,-2.463768 9.116179,-2.325844 2.812901,0.107908 4.078226,0.385209 5.851199,1.282322 1.240367,0.627618 1.571462,0.871294 2.155846,1.586626 1.014486,1.241815 1.484127,2.427567 1.529614,3.862 0.03652,1.151442 -0.01051,1.353486 -0.625878,2.688405 -0.576095,1.249757 -0.804314,1.578018 -1.701168,2.44682 -1.371757,1.328876 -3.233131,2.487251 -5.455272,3.394945 -3.297187,1.346822 -6.194611,1.712454 -10.476331,1.322036 -5.456388,-0.49753 -8.528779,-0.840386 -8.855314,-0.988186 -0.290885,-0.131664 -0.361361,-0.513426 -0.434258,-2.352309 z m 4.467043,1.444676 c 7.080934,0.700458 8.437362,0.741439 10.917331,0.329848 3.115289,-0.517027 7.192238,-2.519084 8.907735,-4.374302 1.615117,-1.746652 2.07654,-3.527603 1.387626,-5.35587 -1.05276,-2.793861 -4.136453,-4.025215 -9.455949,-3.775868 -2.28148,0.106942 -4.007342,0.660427 -6.414899,2.057262 -0.965832,0.56036 -2.277224,1.243272 -2.914204,1.517588 -1.273395,0.548383 -3.913913,1.178909 -4.814957,1.149757 -0.315708,-0.01021 -0.596932,0.03205 -0.624935,0.09392 -0.02801,0.06186 -0.02792,1.228377 1.83e-4,2.592245 0.0281,1.363864 0.0532,3.120553 0.05577,3.903753 0.0026,0.783199 0.09737,1.465948 0.21064,1.517219 0.113282,0.05127 1.348824,0.206277 2.745654,0.344452 z M 15.242614,22.31507 c -1.566793,-2.888348 -4.346019,-8.643437 -4.289054,-8.881576 0.03514,-0.146888 0.870955,-0.799304 1.857374,-1.449802 0.986419,-0.6505 2.698536,-1.846363 3.804699,-2.657476 3.352007,-2.4579055 4.713307,-3.2531992 7.092157,-4.1433503 2.369794,-0.8867618 5.322297,-1.4748633 7.397767,-1.4735441 2.925534,0.00186 6.073579,0.926051 7.688297,2.2570824 1.682901,1.3872502 2.662761,3.5778931 2.473515,5.529985 -0.120441,1.242357 -1.164127,3.159997 -2.31631,4.255937 -2.348252,2.233607 -5.837554,4.235692 -8.56623,4.9151 -1.731299,0.431077 -3.154654,0.537285 -5.822608,0.43446 -2.624109,-0.101134 -4.236464,0.269556 -7.334982,1.686351 l -1.384539,0.63308 z m 3.451261,-1.74057 c 2.575501,-0.947233 3.543309,-1.08682 6.655276,-0.959912 2.700633,0.110129 3.979527,-0.08538 6.247929,-0.955154 3.215512,-1.232928 6.320475,-3.497069 7.405361,-5.400004 1.030314,-1.807235 0.911197,-3.7850756 -0.323715,-5.3749857 -0.548157,-0.705745 -0.73501,-0.8297431 -2.347414,-1.5577797 -2.016041,-0.91068 -3.340774,-1.1495107 -5.851457,-1.0564886 -3.155604,0.1169149 -7.005453,1.2770817 -9.412839,2.8365922 -1.633901,1.0584508 -8.082771,5.5748898 -8.199355,5.7423898 -0.04879,0.07013 0.7241,1.797329 1.71756,3.838246 0.993461,2.040916 1.805159,3.716372 1.803775,3.723237 -0.0013,0.0069 1.035815,-0.369396 2.304879,-0.836141 z m 65.07074,19.539142 c -0.887632,-0.942374 -1.278516,-1.620846 -1.577405,-2.737954 -0.347982,-1.300581 -0.237761,-2.250963 0.436966,-3.767707 0.717368,-1.612576 1.419732,-2.279813 3.002982,-2.852729 2.1037,-0.761239 3.729775,-0.578466 7.374101,0.828876 l 1.826265,0.705258 -0.08322,0.402074 c -0.04577,0.221133 -0.410271,2.029107 -0.809969,4.017699 -1.025785,5.103629 -1.315959,6.35744 -1.486162,6.421572 -0.08187,0.03089 -1.296149,-0.190328 -2.698263,-0.49156 -3.219814,-0.691747 -4.942819,-1.418782 -5.985278,-2.525529 z m 5.347901,0.824351 c 1.03472,0.261006 1.970621,0.441167 2.079785,0.400362 0.168977,-0.06316 1.327706,-5.268827 1.682278,-7.557717 l 0.102185,-0.659648 -1.289952,-0.464175 c -2.593845,-0.933373 -3.912961,-1.080797 -5.328729,-0.595528 -1.181217,0.404869 -1.860525,1.027436 -2.364164,2.166681 -0.507996,1.149189 -0.564531,1.963736 -0.215731,3.109596 0.557497,1.831431 1.891888,2.732083 5.334328,3.600429 z m 5.49873,2.234313 c -0.0686,-0.13776 0.0034,-0.935673 0.15932,-1.773136 0.962243,-5.158748 1.566732,-7.955315 1.77678,-8.219921 0.173738,-0.218903 0.43956,-0.267695 0.960975,-0.176415 2.973039,0.520434 4.460029,0.376706 7.742499,-0.748364 3.64541,-1.249465 6.02244,-1.405006 9.46959,-0.619649 1.83467,0.417995 4.09512,1.35874 5.30163,2.206413 1.76723,1.241639 2.79213,3.070576 2.85796,5.100053 0.0345,1.06348 -0.0293,1.361866 -0.52622,2.459638 -0.66874,1.477437 -1.28728,2.154144 -2.97033,3.249679 -2.86411,1.864318 -8.246,2.963268 -11.99362,2.449025 -1.30267,-0.178752 -3.18163,-0.690139 -7.578837,-2.062699 -5.103196,-1.592928 -5.056071,-1.57603 -5.199747,-1.864624 z m 6.242214,0.614234 c 2.47412,0.767237 5.04126,1.505812 5.70476,1.641273 4.35062,0.888258 10.1174,-0.344153 13.00203,-2.778654 0.73003,-0.616114 0.98303,-0.949117 1.35359,-1.781661 0.25036,-0.563298 0.46432,-1.316366 0.47478,-1.673797 0.0304,-1.038975 -0.46158,-2.278444 -1.28,-3.224637 -0.72353,-0.836488 -0.84401,-0.912371 -2.96412,-1.866892 -2.49505,-1.122886 -4.04182,-1.47266 -6.43732,-1.454049 -1.8505,0.01439 -2.87018,0.229435 -5.57029,1.174773 -2.03611,0.712873 -2.61372,0.831949 -4.266,0.87942 -1.051072,0.0302 -2.160106,-0.0033 -2.464547,-0.07437 -0.304457,-0.07107 -0.625927,-0.05775 -0.714425,0.02969 -0.120366,0.118889 -1.262124,5.819689 -1.489235,7.435618 -0.03779,0.26902 -0.587779,0.06878 4.650777,1.693283 z M 59.237781,16.124033 c -2.12634,-2.077378 -2.522931,-4.430576 -1.184944,-7.0309812 1.242705,-2.4152288 2.878941,-3.2459153 8.251055,-4.1888871 1.358023,-0.2383712 1.723546,-0.2432602 1.800501,-0.024063 0.0531,0.1512699 0.47348,2.2972641 0.93417,4.7688741 0.460687,2.4716172 0.91486,4.7681802 1.009273,5.1034722 0.09441,0.335301 0.114335,0.736269 0.04428,0.891044 -0.142803,0.315495 -3.195167,1.302303 -5.014372,1.621114 -2.608118,0.457064 -4.60357,0.06734 -5.839962,-1.140574 z m 4.320515,-0.109046 c 1.176058,-0.04203 4.580896,-0.920934 4.714946,-1.21709 0.04051,-0.0895 -0.07421,-0.902976 -0.254916,-1.80774 -0.180719,-0.904761 -0.50923,-2.7588 -0.730025,-4.1200769 -0.220793,-1.3612843 -0.410609,-2.5084575 -0.421799,-2.5492671 -0.0112,-0.040831 -1.067583,0.1537974 -2.347534,0.4324844 -3.229518,0.7031501 -4.189116,1.2727675 -5.135997,3.0487274 -0.89178,1.6725932 -0.746928,3.3036772 0.422961,4.7627562 0.82045,1.023275 2.079793,1.509979 3.752364,1.450206 z m 8.017689,-1.947616 C 71.276001,12.65578 70.299174,6.6964713 70.184456,5.5781463 c -0.0498,-0.4854923 -0.04212,-0.989696 0.01707,-1.1204656 0.05918,-0.1307621 1.450597,-0.6055812 3.092008,-1.0551477 1.641422,-0.4495706 3.847208,-1.0819772 4.901743,-1.4053528 4.087481,-1.2534291 6.25555,-1.51622029 9.414727,-1.14114845 2.327855,0.27637375 3.541032,0.60590955 5.554941,1.50890395 4.008629,1.7973794 5.873681,4.4691469 5.405184,7.7431513 -0.329816,2.304913 -2.00541,4.082105 -5.020005,5.324405 -4.347877,1.79174 -8.496505,1.946712 -12.566902,0.469431 -2.83524,-1.028994 -5.089351,-1.244583 -7.913486,-0.756852 -0.49259,0.08507 -0.979243,0.117178 -1.081449,0.07135 -0.102182,-0.04588 -0.287745,-0.562904 -0.412303,-1.149049 z m 3.580128,-0.624506 c 2.535045,-0.06592 3.556179,0.09954 6.038616,0.978453 4.205158,1.488854 6.788574,1.438368 11.221581,-0.219262 2.749277,-1.028027 3.439476,-1.515198 4.220903,-2.979275 0.65876,-1.2342258 0.737946,-2.1899212 0.295925,-3.5713795 -0.77475,-2.4213599 -4.853732,-4.8163437 -9.082217,-5.3326671 -3.068606,-0.3746886 -5.309784,-0.084015 -9.763228,1.2662413 -1.208271,0.3663429 -3.114762,0.9052424 -4.236626,1.1975532 -1.310752,0.3415254 -2.05475,0.6244041 -2.08168,0.7914829 -0.04677,0.2904847 1.122371,7.8505152 1.221019,7.8951662 0.0345,0.01562 1.009049,0.0038 2.165707,-0.02631 z m 36.081847,10.523418 c -1.04191,-0.652353 -1.87334,-1.690952 -2.33513,-2.916969 -1.02467,-2.720393 -0.19074,-5.541251 2.18503,-7.391138 1.08399,-0.844035 6.71505,-3.572837 7.05513,-3.418901 0.11916,0.05394 0.7243,1.211548 1.34475,2.572472 0.62046,1.360929 1.62662,3.561879 2.2359,4.891001 1.38907,3.030163 1.5098,3.386057 1.24369,3.666685 -0.11625,0.122631 -0.96181,0.693116 -1.87898,1.267777 -4.29985,2.694067 -7.07272,3.068205 -9.85039,1.329073 z m 3.46108,-0.433421 c 0.43158,-0.01113 1.2741,-0.200276 1.87229,-0.420313 1.11738,-0.411008 4.5337,-2.219073 4.64105,-2.456248 0.033,-0.07298 -0.12615,-0.4965 -0.35373,-0.941187 -0.22757,-0.444685 -1.09594,-2.329708 -1.9297,-4.188946 l -1.51592,-3.380427 -2.07782,0.984002 c -3.49832,1.656723 -4.18452,2.186608 -4.9008,3.784376 -0.71922,1.605253 -0.41072,3.605345 0.76897,4.980246 0.80051,0.932967 2.36783,1.667605 3.49567,1.638475 z m 9.3552,-5.350478 c -2.85547,-6.407712 -3.82716,-8.7253497 -3.73943,-8.9191865 0.0553,-0.1222859 1.12962,-0.8860846 2.38728,-1.6973297 1.25765,-0.8112452 3.62413,-2.3556876 5.25884,-3.4321054 2.45797,-1.6184978 3.33736,-2.0938294 5.08271,-2.7473476 3.97151,-1.48706927 7.64475,-1.7629517 11.97545,-0.89940387 1.63357,0.32573324 4.04479,1.46110987 5.00742,2.35786227 1.46216,1.3620776 2.21912,2.9435108 2.23795,4.6755124 0.0146,1.3483443 -0.80511,3.4743874 -1.78317,4.6245574 -1.54241,1.813849 -4.21363,3.550537 -7.49163,4.870628 -3.26501,1.314877 -4.46945,1.459128 -8.59719,1.02963 -3.26495,-0.339722 -4.73871,-0.08157 -8.29023,1.452166 -0.59035,0.254944 -1.12649,0.436238 -1.19144,0.402879 -0.065,-0.03312 -0.45038,-0.806395 -0.85656,-1.717855 z m 3.39634,-0.954287 c 2.67444,-0.924815 3.7635,-1.047637 6.67084,-0.752375 1.39428,0.141608 3.20155,0.224996 4.01615,0.185312 3.21821,-0.156764 8.4837,-2.661651 10.91599,-5.192927 2.83345,-2.9487418 1.97378,-6.9344928 -1.86993,-8.66984 -3.14665,-1.4205794 -7.62281,-1.6067139 -11.93728,-0.4962967 -2.30458,0.5931357 -3.53231,1.2449996 -8.38601,4.4525894 -2.26558,1.4972134 -4.2494,2.8070953 -4.40849,2.9108503 -0.23343,0.1522353 -0.24894,0.294017 -0.0804,0.734605 0.32117,0.83947 3.15957,7.383499 3.21859,7.420623 0.0289,0.01768 0.8659,-0.248612 1.8605,-0.592541 z"
     id="path1" /></svg>
