<?xml version="1.0" encoding="UTF-8" standalone="no"?>
<svg
   id="Layer_1"
   data-name="Layer 1"
   viewBox="0 0 152.26465 47.22624"
   version="1.1"
   xml:space="preserve"
   width="152.26465"
   height="47.226242"
   xmlns="http://www.w3.org/2000/svg"
   xmlns:svg="http://www.w3.org/2000/svg"
   xmlns:rdf="http://www.w3.org/1999/02/22-rdf-syntax-ns#"
   xmlns:cc="http://creativecommons.org/ns#"
   xmlns:dc="http://purl.org/dc/elements/1.1/"><defs
     id="defs1"><style
       id="style1">.cls-1{fill-rule:evenodd;}</style></defs><title
     id="title1">man-woman-toilet</title><metadata
     id="metadata1"><rdf:RDF><cc:Work
         rdf:about=""><dc:title>man-woman-toilet</dc:title></cc:Work></rdf:RDF></metadata><path
     style="fill:#000000;stroke-width:0.999997"
     d="M 2.0383295,27.34977 C 1.2326317,26.66915 0.71519716,25.871377 0.33551946,24.724393 -0.50506035,22.185067 0.24771583,19.759756 2.4372393,17.953012 2.9110538,17.56203 4.2981612,16.731856 5.5197018,16.108183 c 1.2215423,-0.623675 2.4519965,-1.262337 2.7343296,-1.419255 0.4546588,-0.252683 0.5474654,-0.246263 0.8117639,0.05616 0.3037032,0.347508 4.4073317,8.128133 4.8471317,9.190326 0.132564,0.320181 0.19085,0.693034 0.129508,0.828555 -0.179212,0.395935 -2.789973,2.122559 -4.3264789,2.861307 C 8.0585471,28.422162 6.583323,28.793637 5.4757021,28.69302 4.3752097,28.59305 2.7654002,27.963971 2.0383295,27.349771 Z M 30.221281,38.442405 c -1.972441,-1.622646 -2.672546,-4.366451 -1.674198,-6.561373 1.4086,-3.097769 4.103864,-4.034395 9.538433,-3.315626 2.266042,0.299702 2.168357,0.165054 2.151116,2.96504 -0.0082,1.33331 -0.0043,3.735471 0.0086,5.338139 0.01296,1.602668 -0.01625,3.001874 -0.06489,3.10935 -0.09815,0.216837 -5.315575,0.135869 -6.762535,-0.104945 -1.106718,-0.184188 -2.367193,-0.7483 -3.196555,-1.430583 z m 11.840455,-0.948753 c -0.150598,-3.799261 -0.158337,-7.807799 -0.01568,-8.122979 0.102173,-0.225731 0.507733,-0.318442 1.585979,-0.362553 1.730382,-0.07079 3.681925,-0.481759 4.826869,-1.01648 0.458265,-0.214018 1.58246,-0.850682 2.498212,-1.414803 2.924028,-1.801253 5.520772,-2.463768 9.116179,-2.325844 2.812901,0.107908 4.078226,0.385209 5.851199,1.282322 1.240367,0.627618 1.571462,0.871294 2.155846,1.586626 1.014486,1.241815 1.484127,2.427567 1.529614,3.862 0.03652,1.151442 -0.01051,1.353486 -0.625878,2.688405 -0.576095,1.249757 -0.804314,1.578018 -1.701168,2.44682 -1.371757,1.328876 -3.233131,2.487251 -5.455272,3.394945 -3.297187,1.346822 -6.194611,1.712454 -10.476331,1.322036 -5.456388,-0.49753 -8.528779,-0.840386 -8.855314,-0.988186 -0.290885,-0.131664 -0.361361,-0.513426 -0.434258,-2.352309 z M 15.242614,22.31507 c -1.566793,-2.888348 -4.346019,-8.643437 -4.289054,-8.881576 0.03514,-0.146888 0.870955,-0.799304 1.857374,-1.449802 0.986419,-0.6505 2.698536,-1.846363 3.804699,-2.657476 3.352007,-2.4579055 4.713307,-3.2531992 7.092157,-4.1433503 2.369794,-0.8867618 5.322297,-1.4748633 7.397767,-1.4735441 2.925534,0.00186 6.073579,0.926051 7.688297,2.2570824 1.682901,1.3872502 2.662761,3.5778931 2.473515,5.529985 -0.120441,1.242357 -1.164127,3.159997 -2.31631,4.255937 -2.348252,2.233607 -5.837554,4.235692 -8.56623,4.9151 -1.731299,0.431077 -3.154654,0.537285 -5.822608,0.43446 -2.624109,-0.101134 -4.236464,0.269556 -7.334982,1.686351 l -1.384539,0.63308 z m 68.522001,17.798572 c -0.887632,-0.942374 -1.278516,-1.620846 -1.577405,-2.737954 -0.347982,-1.300581 -0.237761,-2.250963 0.436966,-3.767707 0.717368,-1.612576 1.419732,-2.279813 3.002982,-2.852729 2.1037,-0.761239 3.729775,-0.578466 7.374101,0.828876 l 1.826265,0.705258 -0.08322,0.402074 c -0.04577,0.221133 -0.410271,2.029107 -0.809969,4.017699 -1.025785,5.103629 -1.315959,6.35744 -1.486162,6.421572 -0.08187,0.03089 -1.296149,-0.190328 -2.698263,-0.49156 -3.219814,-0.691747 -4.942819,-1.418782 -5.985278,-2.525529 z m 10.846631,3.058664 c -0.0686,-0.13776 0.0034,-0.935673 0.15932,-1.773136 0.962243,-5.158748 1.566732,-7.955315 1.77678,-8.219921 0.173738,-0.218903 0.43956,-0.267695 0.960975,-0.176415 2.973039,0.520434 4.460029,0.376706 7.742499,-0.748364 3.64541,-1.249465 6.02244,-1.405006 9.46959,-0.619649 1.83467,0.417995 4.09512,1.35874 5.30163,2.206413 1.76723,1.241639 2.79213,3.070576 2.85796,5.100053 0.0345,1.06348 -0.0293,1.361866 -0.52622,2.459638 -0.66874,1.477437 -1.28728,2.154144 -2.97033,3.249679 -2.86411,1.864318 -8.246,2.963268 -11.99362,2.449025 C 106.08716,46.920877 104.2082,46.40949 99.810993,45.03693 94.707797,43.444002 94.754922,43.4609 94.611246,43.172306 Z M 59.237781,16.124033 c -2.12634,-2.077378 -2.522931,-4.430576 -1.184944,-7.0309812 1.242705,-2.4152288 2.878941,-3.2459153 8.251055,-4.1888871 1.358023,-0.2383712 1.723546,-0.2432602 1.800501,-0.024063 0.0531,0.1512699 0.47348,2.2972641 0.93417,4.7688741 0.460687,2.4716172 0.91486,4.7681802 1.009273,5.1034722 0.09441,0.335301 0.114335,0.736269 0.04428,0.891044 -0.142803,0.315495 -3.195167,1.302303 -5.014372,1.621114 -2.608118,0.457064 -4.60357,0.06734 -5.839962,-1.140574 z M 71.575985,14.067371 C 71.276001,12.65578 70.299174,6.6964713 70.184456,5.5781463 c -0.0498,-0.4854923 -0.04212,-0.989696 0.01707,-1.1204656 0.05918,-0.1307621 1.450597,-0.6055812 3.092008,-1.0551477 1.641422,-0.4495706 3.847208,-1.0819772 4.901743,-1.4053528 4.087481,-1.2534291 6.25555,-1.51622029 9.414727,-1.14114845 2.327855,0.27637375 3.541032,0.60590955 5.554941,1.50890395 4.008629,1.7973794 5.873681,4.4691469 5.405184,7.7431513 -0.329816,2.304913 -2.00541,4.082105 -5.020005,5.324405 -4.347877,1.79174 -8.496505,1.946712 -12.566902,0.469431 -2.83524,-1.028994 -5.089351,-1.244583 -7.913486,-0.756852 -0.49259,0.08507 -0.979243,0.117178 -1.081449,0.07135 -0.102182,-0.04588 -0.287745,-0.562904 -0.412303,-1.149049 z m 39.661975,9.898912 c -1.04191,-0.652353 -1.87334,-1.690952 -2.33513,-2.916969 -1.02467,-2.720393 -0.19074,-5.541251 2.18503,-7.391138 1.08399,-0.844035 6.71505,-3.572837 7.05513,-3.418901 0.11916,0.05394 0.7243,1.211548 1.34475,2.572472 0.62046,1.360929 1.62662,3.561879 2.2359,4.891001 1.38907,3.030163 1.5098,3.386057 1.24369,3.666685 -0.11625,0.122631 -0.96181,0.693116 -1.87898,1.267777 -4.29985,2.694067 -7.07272,3.068205 -9.85039,1.329073 z m 12.81628,-5.783899 c -2.85547,-6.407712 -3.82716,-8.7253497 -3.73943,-8.9191865 0.0553,-0.1222859 1.12962,-0.8860846 2.38728,-1.6973297 1.25765,-0.8112452 3.62413,-2.3556876 5.25884,-3.4321054 2.45797,-1.6184978 3.33736,-2.0938294 5.08271,-2.7473476 3.97151,-1.48706927 7.64475,-1.7629517 11.97545,-0.89940387 1.63357,0.32573324 4.04479,1.46110987 5.00742,2.35786227 1.46216,1.3620776 2.21912,2.9435108 2.23795,4.6755124 0.0146,1.3483443 -0.80511,3.4743874 -1.78317,4.6245574 -1.54241,1.813849 -4.21363,3.550537 -7.49163,4.870628 -3.26501,1.314877 -4.46945,1.459128 -8.59719,1.02963 -3.26495,-0.339722 -4.73871,-0.08157 -8.29023,1.452166 -0.59035,0.254944 -1.12649,0.436238 -1.19144,0.402879 -0.065,-0.03312 -0.45038,-0.806395 -0.85656,-1.717855 z"
     id="path1" /></svg>
