<?xml version="1.0" encoding="UTF-8" standalone="no"?>
<!-- Created with Inkscape (http://www.inkscape.org/) -->

<svg
   width="40.240822mm"
   height="90.217522mm"
   viewBox="0 0 40.240822 90.217522"
   version="1.1"
   id="svg1"
   xml:space="preserve"
   xmlns="http://www.w3.org/2000/svg"
   xmlns:svg="http://www.w3.org/2000/svg"><defs
     id="defs1" /><g
     id="layer1"
     transform="translate(0.00862855,-0.86305535)"><path
       style="fill:#000000;stroke-width:1"
       d="M 8.3497935,90.882658 C 7.3985053,90.575097 6.851675,90.24244 6.1593631,89.550124 5.4365595,88.827323 4.9297246,87.931242 4.6651234,86.908326 4.5208822,86.350703 4.504706,85.862277 4.5622383,83.801882 4.599788,82.457251 4.6793339,80.496103 4.7390152,79.443782 5.006646,74.724726 5.4901464,64.484911 5.639926,60.363801 5.7779443,56.566318 6.0223761,50.629888 6.2767355,44.897855 6.3078615,44.196307 6.4100691,42.187329 6.50385,40.433459 6.5976367,38.679589 6.6467375,36.957607 6.612972,36.606833 6.4608576,35.026553 6.0134763,34.361855 4.1577839,32.959031 1.8089252,31.183395 0.83439712,29.699678 0.2353429,26.987122 -0.09716315,25.481514 -0.08834976,20.586697 0.25294397,17.207968 1.1070934,8.7522331 1.7730936,2.961035 1.9797666,2.1923811 2.4336406,0.50435437 4.7644988,0.3984256 5.4276596,2.0356872 5.5957575,2.4506998 5.6087801,3.2305918 5.5934017,11.961539 l -0.01669,9.475451 0.2527255,0.293809 c 0.3156116,0.366921 0.881872,0.391194 1.158433,0.04966 0.2392506,-0.295462 0.2679765,-0.591846 0.40197,-4.147307 C 7.5181785,14.227754 7.8812826,6.2721629 8.016269,3.9081571 8.0886237,2.640956 8.1486355,2.2638459 8.3412382,1.8659834 8.9693698,0.56843535 10.837195,0.52058777 11.528709,1.7843318 c 0.221076,0.4040163 0.267507,0.6782099 0.341994,2.0196076 0.0989,1.7811687 0.44446,8.9600926 0.677472,14.0745896 0.152197,3.340656 0.215067,3.827042 0.521085,4.031376 0.23845,0.159217 0.775202,0.08104 0.977417,-0.142353 0.195168,-0.215611 0.204413,-0.574345 0.255638,-9.919857 l 0.05315,-9.6961573 0.291859,-0.4409552 c 0.794444,-1.20029025 2.49801,-1.10921668 3.155841,0.1687133 0.232163,0.4510102 1.333967,9.7737012 1.874435,15.8601522 0.238311,2.683712 0.270767,3.503431 0.225169,5.686791 -0.04318,2.067538 -0.09661,2.751188 -0.281914,3.606792 -0.594771,2.746326 -1.570049,4.174587 -4.162432,6.095735 -1.471672,1.090618 -1.858651,1.61041 -2.114569,2.840301 -0.148981,0.715974 -0.120311,1.973892 0.216864,9.514969 0.113747,2.543966 0.350368,8.092573 0.525827,12.330239 0.175461,4.237665 0.367873,8.589753 0.427585,9.671306 0.05971,1.081554 0.155873,2.97095 0.213692,4.198659 0.05781,1.227709 0.204253,4.145509 0.325407,6.484005 0.304251,5.872623 0.320439,8.32266 0.06005,9.088234 -0.617336,1.815022 -1.878395,3.098808 -3.551587,3.615605 -0.886142,0.273702 -2.3828009,0.278631 -3.2119,0.01063 z m 2.8260455,-1.617151 c 0.610212,-0.188478 0.824083,-0.324803 1.375762,-0.876937 0.463759,-0.464142 0.727126,-0.838749 0.908014,-1.291536 C 13.83383,86.16032 13.810143,84.8307 13.239002,74.713647 13.029602,71.004388 12.6999,63.992088 12.496839,58.928817 12.435883,57.408796 12.289675,53.988749 12.171943,51.328713 11.506228,36.287499 11.505307,36.214067 11.965166,34.848995 c 0.400214,-1.188019 1.053657,-1.955623 2.709189,-3.182504 2.79889,-2.074199 3.664988,-4.087751 3.666556,-8.52421 7.23e-4,-2.031196 -0.150229,-4.047213 -0.750738,-10.026676 C 17.198907,9.2196449 16.502388,3.2483354 16.371997,2.6721053 16.30971,2.3968186 16.056456,2.3530238 15.961269,2.601082 c -0.03548,0.092479 -0.06479,4.3854706 -0.06511,9.53999 -4.01e-4,6.445502 -0.03686,9.504616 -0.116737,9.797034 -0.159669,0.584537 -0.541148,1.056883 -1.135243,1.405658 -1.24088,0.728481 -3.035682,0.03422 -3.420307,-1.323031 -0.105155,-0.371038 -0.255966,-3.131226 -0.53013,-9.702338 C 10.633978,10.886068 10.533404,8.7575076 10.470237,7.5882605 10.407074,6.4190145 10.322664,4.7926978 10.28267,3.9742247 10.213772,2.5641256 10.198099,2.4844011 9.9838116,2.4538322 9.7757067,2.4241428 9.7524399,2.4834982 9.6921115,3.1978984 9.6083809,4.1894413 9.3676212,9.1101889 9.0976485,15.347807 8.8522789,21.017009 8.8147479,21.532896 8.6042942,22.129386 8.0470527,23.708778 5.9429237,24.155081 4.7374244,22.949582 3.9650154,22.177171 3.991688,22.565402 3.991688,12.095205 3.991688,6.9659126 3.9626526,2.6935571 3.9271702,2.601082 3.8456353,2.3886125 3.6084694,2.3828708 3.5284388,2.591388 3.3668967,3.0123607 1.9158596,16.477411 1.644037,20.077902 c -0.1490216,1.973888 -0.066632,5.47848 0.1536712,6.537152 0.4639208,2.229319 1.2883621,3.476245 3.2910929,4.977612 1.8468871,1.384536 2.4197418,2.070325 2.9009588,3.472853 0.2816358,0.82084 0.2533117,3.01552 -0.1557035,12.0645 C 7.6517236,51.16392 7.45328,55.899369 7.3930696,57.65324 7.2339487,62.288316 6.8032014,71.711817 6.489344,77.424137 6.233165,82.086702 6.1300147,85.562275 6.2295174,86.17881 c 0.4006165,2.482265 2.5534948,3.82573 4.9463186,3.086662 z m 22.075142,1.65373 c -0.890055,-0.239702 -1.577721,-0.644288 -2.300688,-1.353597 -1.14973,-1.128017 -1.660354,-2.433823 -1.660354,-4.245984 0,-1.760521 0.5826,-12.548959 1.069275,-19.800539 0.395251,-5.889364 0.842896,-14.412453 0.843615,-16.06231 3.78e-4,-0.865597 -0.02864,-1.011217 -0.273313,-1.371768 -0.150554,-0.221854 -1.233205,-1.422863 -2.405892,-2.668908 -1.172687,-1.246046 -2.191332,-2.350732 -2.263656,-2.454857 -0.07232,-0.104123 -0.266287,-0.548067 -0.431029,-0.986535 -0.291922,-0.776959 -0.300644,-0.862027 -0.34332,-3.348298 -0.08175,-4.762177 0.356333,-12.01944 1.052282,-17.432405 0.286177,-2.225833 1.252756,-7.322494 1.78544,-9.41442 1.452968,-5.7060181 3.434233,-9.5623715 5.413856,-10.5375817 0.405569,-0.1997926 0.669039,-0.24407795 1.452125,-0.24407795 0.848949,0 1.011856,0.0324576 1.446979,0.28824875 0.601224,0.3534463 1.115871,0.9254355 1.409472,1.5665161 0.207714,0.453547 0.226431,0.7456944 0.299986,4.6823868 0.04316,2.3092627 0.05181,11.780161 0.01925,21.046441 -0.05761,16.391612 0.01507,23.592412 0.281623,27.902478 0.146525,2.369248 0.913083,15.980019 1.167376,20.727557 0.115861,2.163107 0.258737,4.642258 0.3175,5.509229 0.148778,2.19502 0.133472,3.432099 -0.05124,4.141236 -0.541533,2.079085 -2.153533,3.703434 -4.07239,4.10359 -0.760974,0.158688 -2.077642,0.136529 -2.756894,-0.0464 z m 2.750931,-1.643967 c 1.009402,-0.318865 1.715125,-0.921749 2.201996,-1.881101 0.353805,-0.697161 0.449565,-1.710708 0.335947,-3.55568 -0.05524,-0.89707 -0.174563,-3.066018 -0.265148,-4.81989 C 37.696419,67.822543 37.422947,62.831446 37.203063,59.460292 37.115362,58.115658 36.990074,56.17843 36.924653,55.155338 36.84598,53.925006 36.783991,44.8914 36.741578,28.475255 36.677749,3.768068 36.676476,3.6536458 36.461248,3.2833027 36.164948,2.7734557 35.639779,2.5161543 35.006532,2.5705833 34.014513,2.6558557 33.322941,3.4116726 32.263324,5.5686481 31.016461,8.1067819 29.931921,11.593175 29.13858,15.61354 c -0.813216,4.121088 -1.162663,6.718069 -1.616238,12.011353 -0.257909,3.009827 -0.287834,3.858689 -0.296036,8.397317 l -0.0091,5.04902 0.276401,0.584624 c 0.199066,0.42105 0.813653,1.156472 2.196586,2.62846 1.056101,1.124109 2.095255,2.257485 2.309227,2.51861 0.592166,0.722659 0.798346,1.377401 0.797928,2.533895 -4.02e-4,1.458983 -0.284162,6.990272 -0.742602,14.481575 -0.110909,1.812332 -0.230591,3.869143 -0.265964,4.570691 -0.03538,0.701548 -0.134033,2.447447 -0.219246,3.879773 -0.08521,1.432328 -0.22488,4.015301 -0.310374,5.739938 -0.0855,1.724641 -0.212784,4.164115 -0.282866,5.421053 -0.115032,2.06318 -0.109764,2.364224 0.05427,3.096746 0.499127,2.228973 2.723435,3.458796 4.971367,2.748675 z"
       id="path1" /></g></svg>
