<?xml version="1.0" encoding="UTF-8" standalone="no"?>
<!-- Created with Inkscape (http://www.inkscape.org/) -->

<svg
   width="149.19643mm"
   height="121.57602mm"
   viewBox="0 0 149.19643 121.57602"
   version="1.1"
   id="svg1"
   xml:space="preserve"
   xmlns="http://www.w3.org/2000/svg"
   xmlns:svg="http://www.w3.org/2000/svg"><defs
     id="defs1" /><g
     id="layer1"><path
       style="fill:#000000"
       d="m 42.02274,121.49505 c -0.534627,-0.0445 -1.098283,-0.23302 -1.252568,-0.41892 -0.435999,-0.52535 -0.713176,-10.74598 -0.311765,-11.49603 0.184557,-0.34485 1.131329,-0.97469 2.222693,-1.47866 4.68292,-2.16248 5.52936,-2.60776 7.834572,-4.12144 5.179377,-3.40096 9.067082,-8.595586 10.097079,-13.491396 0.171544,-0.81538 0.252318,-2.56686 0.183902,-3.98766 -0.103838,-2.1564 -0.252349,-2.81641 -0.997456,-4.43295 -0.481499,-1.04462 -0.962528,-1.89932 -1.068953,-1.89932 -0.106425,0 -0.759339,0.62508 -1.450921,1.38907 -1.037769,1.14641 -8.756245,9.29169 -10.913628,11.5171 -0.713106,0.7356 -2.165233,1.38133 -3.106322,1.38133 -0.37315,0 -1.105902,-0.17859 -1.628338,-0.39688 -1.065335,-0.44513 -5.229921,-4.37474 -5.804454,-5.47696 -0.513009,-0.98418 -0.465723,-2.84294 0.09391,-3.69145 0.254561,-0.38597 2.820457,-3.10765 5.701991,-6.04818 2.881534,-2.94053 5.179052,-5.40652 5.105595,-5.47998 -0.07346,-0.0734 -2.134122,-0.42158 -4.579256,-0.7736 -12.173172,-1.75258 -21.567606,-4.8568 -29.31653,-9.68713 C 5.500957,58.331984 0,51.917884 0,47.939594 c 0,-0.55142 0.142875,-1.14546 0.3175,-1.32008 0.241039,-0.24104 4.885308,-0.3175 19.285137,-0.3175 h 18.967637 l 0.168739,-0.89946 c 0.09281,-0.4947 0.32294,-1.02743 0.511407,-1.18384 0.205037,-0.17017 2.088491,-0.31368 4.689353,-0.35732 l 4.346684,-0.0729 0.141057,-1.40413 c 0.08185,-0.81479 0.303956,-1.50716 0.529167,-1.6496 0.226471,-0.14323 6.565505,-0.24715 15.220678,-0.24951 l 14.832567,-0.004 2.75238,-2.84428 c 1.51381,-1.56434 4.65904,-4.8088 6.98941,-7.20989 2.33036,-2.4011 5.13062,-5.28902 6.22279,-6.4176 l 1.98576,-2.05198 -3.92724,-3.9338 c -3.46897,-3.474761 -3.95121,-4.064823 -4.13256,-5.056567 -0.36159,-1.977354 0.005,-2.583169 4.54691,-7.515727 C 97.830576,0.691282 98.731946,0 100.55552,0 c 1.52361,0 2.6973,0.805391 6.21856,4.267221 l 3.54134,3.481572 1.05958,-0.957265 c 1.32591,-1.197881 2.18932,-1.431768 3.31095,-0.896899 1.07784,0.513988 5.34284,4.536983 5.85034,5.51839 0.61779,1.19467 0.47424,2.416399 -0.41546,3.535939 -0.43656,0.549342 -0.79375,1.093291 -0.79375,1.208774 0,0.115483 0.83791,1.765892 1.86202,3.667582 1.0241,1.90169 2.52779,4.82106 3.34152,6.48749 l 1.47952,3.02988 -0.50885,0.80366 c -0.72584,1.14639 -5.63679,6.08372 -6.49015,6.525 -0.39386,0.20368 -0.87085,0.36958 -1.05998,0.36867 -0.18913,-9e-4 -3.13128,-1.5437 -6.53813,-3.42844 l -6.19425,-3.4268 -2.15793,2.30397 c -1.18686,1.26718 -3.303064,3.55412 -4.702674,5.08209 l -2.54474,2.77812 26.432574,0.0674 c 26.43248,0.0674 26.43257,0.0674 26.7259,0.61552 0.18626,0.34803 0.26185,1.83269 0.20707,4.06719 l -0.0863,3.51908 -1.15103,2.26818 c -0.63307,1.24749 -1.52831,2.70462 -1.98943,3.23805 -0.8174,0.94559 -0.92774,0.98521 -4.40522,1.58155 -9.16918,1.5724 -16.738,4.44324 -23.17742,8.79116 -3.16537,2.13727 -4.09142,2.89174 -6.65522,5.42211 -11.740634,11.58755 -10.24651,26.42218 3.51165,34.865966 1.01865,0.62518 3.28084,1.77729 5.02709,2.56026 1.74625,0.78297 3.32382,1.61924 3.50572,1.85839 0.50596,0.66517 0.46613,11.15995 -0.045,11.85862 -0.3613,0.49387 -0.79037,0.51359 -11.17864,0.51359 h -10.80292 l -1.852084,-1.09527 c -4.78947,-2.83234 -10.8344,-4.33023 -17.4625,-4.32708 -6.70435,0.003 -12.25441,1.36003 -17.197916,4.20445 l -2.116666,1.2179 H 53.048956 c -5.529791,0 -10.491589,-0.0364 -11.026216,-0.0809 z m 19.889758,-6.26908 v -4.36563 h -9.657292 -9.657291 v 4.36563 4.36562 h 9.657291 9.657292 z m 60.060422,0 v -4.36563 h -9.65729 -9.6573 v 4.36563 4.36562 h 9.6573 9.65729 z m -55.531786,2.13302 c 5.173192,-2.44668 10.581412,-3.47044 17.167192,-3.2497 6.08359,0.20391 10.60445,1.1882 14.98971,3.26358 1.04105,0.49269 1.963794,0.8958 2.050524,0.8958 0.0867,0 0.15769,-1.82594 0.15769,-4.05764 v -4.05765 l -2.524724,-2.67634 c -4.48382,-4.7531 -9.2637,-7.23914 -14.6732,-7.631626 -6.11148,-0.44342 -11.58585,1.922576 -16.999474,7.347106 l -2.844271,2.85001 v 4.24536 c 0,2.33495 0.04359,4.24537 0.09687,4.24537 0.05328,0 1.214135,-0.52842 2.579687,-1.17427 z m -1.197368,-11.72417 c 5.90089,-5.754056 11.74462,-8.311746 18.09014,-7.917686 3.25019,0.20184 5.08266,0.70388 8.34422,2.286036 3.2461,1.57466 5.38123,3.17975 8.414094,6.3253 l 2.32867,2.4152 h 7.67496 c 5.04927,0 7.61902,-0.0905 7.51144,-0.26458 -0.0899,-0.14552 -0.31692,-0.26458 -0.50441,-0.26458 -0.52995,0 -4.63598,-2.6585 -6.7738,-4.38578 -3.93239,-3.17723 -6.81272,-7.582996 -7.94365,-12.150676 -0.51351,-2.07403 -0.57007,-2.82501 -0.43839,-5.82083 0.15708,-3.57356 0.43844,-4.94826 1.58459,-7.74215 4.78547,-11.66525 19.94274,-21.57432 37.34315,-24.41311 2.63944,-0.43062 3.26666,-0.62262 3.64479,-1.11577 0.62554,-0.81581 2.0596,-3.51307 2.0596,-3.87382 0,-0.21343 -7.97772,-0.29369 -29.19058,-0.29369 H 88.198016 l -1.96412,2.05142 c -1.08026,1.12829 -3.33279,3.5393 -5.00561,5.35781 -1.67283,1.81852 -4.05441,4.37795 -5.29241,5.68764 -5.63251,5.95869 -15.486835,16.6053 -15.563722,16.81503 -0.04682,0.12773 0.338339,1.09957 0.855919,2.15965 1.145721,2.34659 1.743422,4.59456 1.740759,6.54705 -0.0089,6.4995 -3.538143,12.89877 -9.599983,17.406626 -2.483965,1.84719 -5.054364,3.50601 -5.432673,3.50601 -0.115521,0 -0.441154,0.17481 -0.723629,0.38846 -0.455458,0.3445 0.355512,0.38942 7.164723,0.39688 l 7.678314,0.008 z M 47.095291,89.230654 c 3.213124,-3.25483 7.449995,-7.74965 16.273305,-17.26406 2.901438,-3.1287 6.063821,-6.52198 7.02752,-7.54062 0.96369,-1.01865 3.34144,-3.57849 5.28387,-5.68855 1.94244,-2.11005 6.03899,-6.50171 9.10346,-9.75924 3.06447,-3.25753 6.34071,-6.76987 7.28053,-7.8052 2.04434,-2.25209 8.565624,-9.25588 10.442574,-11.21521 l 1.33662,-1.39529 -0.92315,-0.82943 c -0.50773,-0.45618 -1.70985,-1.59421 -2.67137,-2.52894 l -1.748224,-1.69952 -4.07205,4.18881 c -2.23963,2.30385 -6.63725,6.80819 -9.77249,10.00965 -3.13524,3.20146 -7.5408,7.72288 -9.79014,10.04761 -2.24934,2.32473 -6.893299,7.08723 -10.319913,10.58334 -3.426613,3.4961 -8.965287,9.15452 -12.308164,12.57426 -3.342878,3.41974 -8.010457,8.19365 -10.372398,10.60869 -3.515334,3.59436 -4.29444,4.52761 -4.29444,5.14411 0,0.59745 0.509053,1.26218 2.462661,3.21579 3.310741,3.31074 3.140156,3.32635 7.061799,-0.6462 z m 1.259877,-30.69166 -0.06871,-12.63386 h -3.704166 -3.704167 l -0.132292,5.79238 c -0.119336,5.22514 -0.179258,5.82107 -0.611888,6.08542 -0.390483,0.23859 -0.574841,0.17698 -0.992188,-0.33159 -0.459351,-0.55975 -0.51259,-1.06127 -0.51259,-4.82864 v -4.20402 h -18.25625 c -12.38603,0 -18.256249,0.0879 -18.256249,0.27337 0,0.62942 1.486263,3.15598 2.822863,4.79871 5.51484,6.77795 15.855633,12.42999 27.996888,15.30245 4.182658,0.98956 12.173651,2.27488 14.625001,2.35237 l 0.862461,0.0273 z m 10.000345,3.17286 c 4.082772,-4.18255 8.650355,-8.88284 10.150182,-10.44509 l 2.726961,-2.84046 -8.298101,-0.07 -8.298099,-0.07 -0.08646,-0.60987 c -0.194198,-1.36991 -0.163202,-1.3743 9.709999,-1.37707 l 9.161881,-0.003 1.6735,-1.85203 1.6735,-1.85202 -13.05059,0.0687 -13.050584,0.0686 -0.06859,13.29532 c -0.03773,7.31242 0.02181,13.29435 0.132292,13.29317 0.110486,-0.001 3.541335,-3.42422 7.624108,-7.60677 z m 88.752817,-17.26192 v -1.85209 l -26.65677,0.008 c -21.152304,0.007 -26.738724,0.0778 -27.053644,0.34437 -0.21828,0.18478 -1.04765,1.01443 -1.84305,1.84367 l -1.44617,1.50771 h 28.499824 28.49981 z m -23.77636,-14.8994 c 0.20211,-0.36604 0.0791,-0.83591 -0.51966,-1.98437 -4.69486,-9.00559 -5.12661,-9.74766 -6.33482,-10.88804 -0.6883,-0.649651 -4.26514,-4.102463 -7.94853,-7.672917 -3.6834,-3.570455 -6.97066,-6.598136 -7.30503,-6.728182 -1.21071,-0.470874 -1.921144,0.05674 -6.086384,4.520193 -3.63774,3.898184 -4.12088,4.520977 -4.12088,5.312021 0,0.824675 0.63478,1.521911 7.96358,8.747045 l 7.963584,7.85094 4.00882,2.20667 c 2.20484,1.21367 4.72318,2.6092 5.59631,3.10119 l 1.5875,0.89452 2.46535,-2.43973 c 1.35594,-1.34186 2.58451,-2.65556 2.73016,-2.91934 z m -4.93772,-15.779132 c 0.22202,-0.429336 0.40367,-0.94893 0.40367,-1.154654 0,-0.390021 -4.58285,-4.75589 -5.12892,-4.886086 -0.1718,-0.04096 -0.63842,0.265848 -1.03693,0.6818 l -0.72456,0.756276 2.7176,2.688322 c 1.49468,1.478577 2.86337,2.689814 3.04153,2.691638 0.17817,0.0018 0.50559,-0.34796 0.72761,-0.777296 z"
       id="path1" /></g></svg>
