<?xml version="1.0" encoding="UTF-8" standalone="no"?>
<!-- Created with Inkscape (http://www.inkscape.org/) -->

<svg
   width="113.24146mm"
   height="113.64893mm"
   viewBox="0 0 113.24146 113.64893"
   version="1.1"
   id="svg1"
   xml:space="preserve"
   xmlns="http://www.w3.org/2000/svg"
   xmlns:svg="http://www.w3.org/2000/svg"><defs
     id="defs1" /><g
     id="layer1"><path
       style="fill:#000000;stroke-width:0.999998"
       d="M 101.09589,113.19322 C 99.507509,112.4017 89.920495,102.14239 86.052414,97.09482 83.369548,93.593867 81.710446,90.966629 79.494178,86.709659 c -1.779896,-3.418802 -2.410157,-4.345384 -3.823246,-5.62075 -1.444298,-1.30353 -2.984181,-2.113196 -4.675202,-2.458198 -0.723937,-0.147702 -1.536653,-0.382524 -1.806035,-0.52183 -0.670719,-0.346835 -1.669191,-1.529846 -2.153582,-2.551598 -0.836631,-1.764751 -0.394529,-3.166328 1.891083,-5.995172 l 1.28136,-1.585917 -0.244116,-0.364334 c -0.134261,-0.200383 -0.84386,-1.102525 -1.576886,-2.004758 -2.373437,-2.921298 -3.098406,-4.443831 -3.107898,-6.527042 -0.0067,-1.480159 0.401297,-2.873122 1.210334,-4.131714 0.328299,-0.510728 1.957154,-2.76014 3.619672,-4.998687 1.662518,-2.238548 4.2815,-5.787157 5.819961,-7.885795 4.291934,-5.854681 5.778208,-7.864458 9.284353,-12.554556 4.530826,-6.060789 4.480658,-5.983124 4.480658,-6.936023 v -0.79796 l -1.213206,-1.514831 c -0.667263,-0.833156 -1.79667,-2.239815 -2.509794,-3.125906 -0.713131,-0.886092 -2.052035,-2.565002 -2.975349,-3.730913 -0.923313,-1.165909 -1.797151,-2.212802 -1.94186,-2.326426 -0.621749,-0.488198 -2.131347,-0.0096 -2.318219,0.734944 -0.05499,0.21923 0.118687,0.777379 0.440108,1.414115 1.251805,2.47981 2.209813,6.351531 2.204936,8.911094 -0.0045,2.238385 -0.733782,4.596056 -1.863459,6.022387 -0.283701,0.3582 -1.296082,1.242235 -2.249738,1.964519 -0.953663,0.722283 -4.328611,3.308544 -7.499881,5.74725 -3.171276,2.438706 -8.894838,6.837437 -12.719023,9.774956 -16.45163,12.6372 -28.378682,21.815631 -31.458375,24.208701 -2.199901,1.709423 -3.619188,2.6895 -4.239673,2.927654 C 15.642104,74.974133 7.0192,69.020507 2.5267283,59.785698 0.86716254,56.374267 0.15688315,53.788109 0.02590906,50.680114 -0.07552133,48.2732 0.11079952,46.961087 0.76362853,45.484928 1.4345191,43.967927 2.1426737,43.280871 5.6906389,40.704724 7.5416144,39.36075 11.421787,36.509837 14.313244,34.369363 17.204701,32.228888 20.562522,29.74379 21.775068,28.846916 25.414003,26.155339 29.293971,23.278854 37.179383,17.426643 59.448686,0.89932924 59.596882,0.79530104 61.62123,0.26906068 65.349206,-0.70004795 69.170312,0.92817749 73.869018,5.4880116 l 1.557048,1.5110251 0.477995,-0.3372563 c 2.324615,-1.6401577 5.157318,-1.9157019 7.491336,-0.7287007 0.526484,0.2677533 1.195644,0.7417551 1.487018,1.0533359 0.904604,0.9673441 8.299149,10.2553694 8.973386,11.2711494 1.563195,2.355053 1.859298,4.987611 0.80921,7.194483 -0.581574,1.222237 -1.886431,3.019888 -22.377987,30.82928 l -1.416538,1.922407 v 0.794238 0.794237 l 1.346455,1.777403 c 0.740551,0.977577 1.531122,2.001976 1.756835,2.276448 l 0.41038,0.499045 1.44192,-0.701345 c 2.696839,-1.311721 4.430631,-1.698187 5.599893,-1.248228 0.648657,0.249615 1.939009,1.475692 2.423983,2.303241 0.290713,0.496064 0.456946,1.149226 0.585163,2.299176 0.214888,1.927259 0.501743,2.872468 1.403834,4.625759 0.853462,1.658768 1.903249,2.730047 4.961928,5.063539 4.58934,3.501255 8.182258,7.07745 12.376323,12.318715 4.18616,5.231394 9.52498,12.948607 9.90974,14.324447 0.28847,1.03154 0.16089,2.70574 -0.28163,3.69563 -0.9126,2.04138 -4.69564,5.31276 -7.21826,6.24198 -1.45169,0.53472 -3.3308,0.50343 -4.49116,-0.0748 z m 4.63526,-1.49694 c 1.25735,-0.57564 2.44682,-1.4722 4.04141,-3.04622 1.61968,-1.5988 2.04062,-2.39071 2.04062,-3.83904 0,-1.28227 -0.17672,-1.67628 -1.87175,-4.17296 -7.67516,-11.305163 -13.403981,-17.828031 -20.162003,-22.956583 -4.655672,-3.533104 -6.34729,-6.0952 -6.703849,-10.153525 -0.159592,-1.816534 -0.280297,-2.138007 -1.114069,-2.96717 -1.157032,-1.150631 -1.812579,-1.181705 -4.160672,-0.197242 -1.809471,0.758639 -3.239392,1.622606 -4.632829,2.799188 l -1.10464,0.932729 -6.41e-4,0.763144 c -0.0019,1.616484 0.833175,3.777123 1.739119,4.499996 0.327952,0.261678 1.11903,0.663097 1.75795,0.892048 1.542261,0.552647 3.138235,1.603973 4.729408,3.115429 1.581065,1.501856 1.849344,1.886828 3.641163,5.224818 2.446128,4.556913 4.033366,7.039243 7.051075,11.027395 2.337152,3.08874 3.913192,4.886725 7.84794,8.953113 1.831568,1.89285 3.350668,3.49984 3.375778,3.5711 0.0251,0.0713 -0.15039,0.31374 -0.39001,0.53885 l -0.43566,0.40928 -2.847167,-2.87807 c -3.278707,-3.31429 -5.2407,-5.491808 -7.505597,-8.330068 -3.505844,-4.393373 -5.005315,-6.682966 -8.285433,-12.651308 -2.683507,-4.882789 -4.440169,-6.534078 -8.51214,-8.001539 -1.451065,-0.522939 -2.641665,-2.225152 -3.19105,-4.562291 l -0.272452,-1.159026 -1.027206,1.328611 c -1.757701,2.273441 -2.010539,2.962804 -1.470045,4.008022 0.771227,1.491414 1.735658,2.206909 3.382043,2.509076 2.142897,0.393292 5.261096,2.524428 6.741755,4.607665 0.413354,0.581573 1.482895,2.45164 2.37675,4.155705 3.952035,7.534191 7.645257,12.340219 16.665138,21.686493 2.304829,2.38823 3.887004,3.88976 4.344724,4.12328 0.97773,0.49881 2.56065,0.40634 3.95258,-0.2309 z M 20.606984,71.491017 C 22.37,70.967457 23.570053,69.376745 23.993798,67.00168 24.291196,65.334778 24.288143,64.22774 23.980524,62.186844 23.213734,57.099601 20.159213,51.516084 15.879002,47.37764 13.293022,44.877312 11.12675,43.616541 8.5967506,43.13936 7.0593169,42.849384 5.3309958,43.024801 4.2396122,43.581583 1.3719929,45.044532 0.58672718,50.209471 2.3947806,55.715612 c 2.078907,6.330983 6.8880923,12.352271 11.8639024,14.85406 0.736608,0.370358 1.737052,0.780527 2.223208,0.911481 1.172127,0.315736 3.079745,0.3203 4.125095,0.0099 z m -5.88137,-6.889072 c -3.71016,-0.553976 -7.9620782,-6.204352 -7.9580421,-10.575438 5.204e-4,-0.563358 0.081912,-1.315862 0.1808727,-1.672242 0.2670361,-0.961649 1.1902502,-1.893384 2.1393878,-2.159126 l 0.7954006,-0.222701 1.104582,0.289713 c 1.477106,0.387415 2.46025,1.050634 4.05523,2.735617 2.168633,2.291017 3.501276,5.309751 3.49073,7.907293 -0.011,2.70937 -1.398815,4.056635 -3.808161,3.696884 z m 2.021722,-1.750806 c 0.202639,-0.202594 0.294679,-0.661603 0.335332,-1.672337 0.102398,-2.545804 -1.11967,-5.308348 -3.347625,-7.567457 -1.384446,-1.403808 -2.617139,-2.085563 -3.8033067,-2.103459 -0.7053857,-0.01064 -0.8981783,0.05865 -1.2269874,0.440903 -1.2536166,1.457417 -0.2546566,5.532573 2.0336751,8.296175 1.112808,1.343929 2.516106,2.448698 3.527021,2.776709 0.890219,0.288841 2.105953,0.205305 2.481891,-0.170534 z m 12.743937,2.167679 c 3.298811,-2.534192 6.533737,-5.018431 15.517203,-11.916317 2.611638,-2.005328 6.236559,-4.78912 8.05538,-6.18621 1.818815,-1.397091 6.05425,-4.647385 9.412073,-7.222871 C 75.002745,30.085222 77.45361,28.157001 78.213409,27.311923 80.524115,24.741856 80.505976,20.242535 78.162324,14.633445 76.705496,11.146842 73.867691,7.2707505 71.040103,4.9053714 68.487255,2.769819 65.792294,1.532591 63.693429,1.532591 c -1.193317,0 -2.906304,0.4595596 -3.827915,1.026952 -0.535706,0.3298096 -13.651176,9.972082 -20.962135,15.411009 -1.772184,1.318401 -3.947136,2.926265 -4.833227,3.57303 -0.886092,0.646766 -4.511012,3.328552 -8.055379,5.95952 -3.544366,2.630974 -7.894271,5.8522 -9.666454,7.158281 -1.772183,1.306081 -4.557648,3.370006 -6.189923,4.586494 l -2.9677704,2.211806 1.0109216,0.130878 c 0.5560064,0.07198 1.4336189,0.252922 1.9502498,0.402092 4.162025,1.201733 9.582858,6.403444 12.445348,11.942293 2.09912,4.061747 2.87514,6.857069 2.895402,10.429601 0.0074,1.305818 -0.04434,2.751532 -0.114996,3.212701 l -0.128462,0.838483 0.467636,-0.428231 c 0.257199,-0.235533 1.95576,-1.571438 3.77458,-2.968682 z M 17.860647,39.335092 c -0.230244,-0.254416 -0.267113,-0.418129 -0.141998,-0.630498 0.165469,-0.280862 4.283881,-3.391157 16.435412,-12.412314 3.32943,-2.471728 8.366319,-6.211119 11.193088,-8.309758 8.011169,-5.947619 13.86305,-10.2596458 14.364689,-10.5847906 1.010281,-0.6548287 1.586663,0.2833037 0.686653,1.1176117 -0.256506,0.2377751 -2.717632,2.0969459 -5.469183,4.1314899 -2.751545,2.034544 -5.842267,4.322576 -6.868267,5.084514 -1.026001,0.761939 -3.964094,2.944242 -6.529097,4.849562 -2.565002,1.905321 -5.643254,4.187577 -6.840559,5.071683 -1.197305,0.8841 -3.448572,2.547894 -5.002814,3.697318 -6.778159,5.012705 -10.822005,7.962793 -11.156706,8.139082 -0.296466,0.156157 -0.41527,0.128916 -0.671218,-0.1539 z m 55.165479,25.60583 c -0.112963,-0.150805 -0.836233,-1.053584 -1.607261,-2.00617 -0.771035,-0.952586 -1.553254,-2.028697 -1.738267,-2.391364 -0.390683,-0.765792 -0.437903,-1.967127 -0.108335,-2.755904 0.125436,-0.300212 1.252908,-1.919433 2.505488,-3.598276 1.25258,-1.678844 4.450533,-6.015395 7.106569,-9.636785 2.656035,-3.621383 5.325191,-7.259591 5.931468,-8.084902 0.606269,-0.825311 2.59044,-3.52697 4.409255,-6.003685 1.818822,-2.476721 3.47836,-4.829173 3.687864,-5.22767 0.872184,-1.658996 0.849802,-3.941841 -0.05391,-5.501254 C 92.933769,19.34627 91.285673,17.209475 89.496572,14.986478 83.191906,7.1528033 83.209885,7.1705488 81.185693,6.7848713 79.770297,6.5151906 77.484088,7.133986 76.701683,7.9985332 l -0.270607,0.2990148 0.639779,1.0691783 c 0.35188,0.5880479 0.665495,1.1012767 0.696921,1.1405077 0.03141,0.03923 0.229591,-0.09068 0.440358,-0.288683 0.506203,-0.4755533 1.510373,-0.8849616 2.170573,-0.8849616 1.1517,0 1.549101,0.3863242 5.281235,5.1339966 1.985914,2.526294 3.933549,4.961968 4.328085,5.412607 1.085072,1.239393 1.279872,1.716442 1.201765,2.943047 -0.07842,1.231608 0.219951,0.753301 -4.034872,6.468065 -2.967394,3.985582 -8.826876,11.917796 -12.610204,17.070941 -0.948176,1.291474 -2.842407,3.86032 -4.209411,5.708543 -1.367004,1.848229 -2.69964,3.725891 -2.96142,4.172581 l -0.475963,0.812165 -0.06849,1.565913 c -0.105528,2.412824 0.206933,3.088228 2.986263,6.455075 l 1.427703,1.729505 0.994076,-0.795455 0.994075,-0.795455 z m -56.48477,42.484208 c -1.802179,-0.43623 -3.137736,-1.20181 -4.532134,-2.59792 -2.5479672,-2.55111 -3.423467,-5.762141 -2.5268841,-9.267742 0.4004086,-1.565586 1.6545031,-4.229255 3.3890961,-7.198373 2.779947,-4.758456 4.222196,-7.288537 5.006186,-8.782156 0.564714,-1.075868 0.909572,-1.558728 1.088616,-1.524244 0.144623,0.02788 0.911989,1.30351 1.712363,2.846611 0.797665,1.537884 2.395589,4.398616 3.550941,6.357193 3.466084,5.875768 4.413799,8.215933 4.413799,10.898889 0,3.379902 -1.992372,6.776472 -4.876756,8.313832 -2.110473,1.12487 -4.963075,1.50149 -7.225227,0.95391 z m 4.165447,-1.27794 c 3.044423,-0.64409 5.411002,-2.89134 6.251344,-5.93615 0.112633,-0.4081 0.203326,-1.39067 0.201539,-2.183491 -0.0055,-2.441763 -1.018988,-4.818661 -4.696503,-11.014563 -0.910657,-1.534281 -2.082537,-3.609596 -2.60418,-4.611811 l -0.948441,-1.822207 -1.070184,2.029307 c -0.588601,1.116114 -1.784261,3.229584 -2.657024,4.696597 -3.297342,5.542458 -3.961805,6.915064 -4.452186,9.197087 l -0.29316,1.364235 0.199548,1.310184 c 0.382267,2.509882 1.92684,4.844382 4.014862,6.068162 1.636945,0.9594 4.070893,1.32227 6.054385,0.90265 z m -3.425788,-2.2475 c -1.250838,-0.34435 -2.072572,-0.81245 -2.93586,-1.67238 -1.071604,-1.06743 -1.643607,-2.335841 -1.76254,-3.908413 -0.105483,-1.394738 0.105686,-1.773417 0.880492,-1.578956 l 0.426169,0.106963 v 0.899284 c 0,1.270604 0.420153,2.350752 1.291252,3.319622 0.876812,0.97523 1.821182,1.47913 3.120034,1.6648 l 0.930702,0.13304 0.05264,0.63452 0.05264,0.63451 -0.646188,-0.0115 c -0.355403,-0.006 -0.989601,-0.10599 -1.409329,-0.22155 z"
       id="path1" /></g></svg>
