<?xml version="1.0" encoding="UTF-8" standalone="no"?>
<svg
   id="Layer_1"
   data-name="Layer 1"
   viewBox="0 0 16.059229 85.846958"
   version="1.1"
   xml:space="preserve"
   width="16.059229"
   height="85.846962"
   xmlns="http://www.w3.org/2000/svg"
   xmlns:svg="http://www.w3.org/2000/svg"
   xmlns:rdf="http://www.w3.org/1999/02/22-rdf-syntax-ns#"
   xmlns:cc="http://creativecommons.org/ns#"
   xmlns:dc="http://purl.org/dc/elements/1.1/"><defs
     id="defs1"><style
       id="style1">.cls-1{fill-rule:evenodd;}</style></defs><title
     id="title1">Storage area</title><metadata
     id="metadata1"><rdf:RDF><cc:Work
         rdf:about=""><dc:title>Storage area</dc:title></cc:Work></rdf:RDF></metadata><path
     style="fill:#000000;stroke-width:0.999999"
     d="M 4.0156221,84.396651 0.05057826,82.946395 0.02528913,77.452961 C 0.01137566,74.431573 0.01501006,71.95952 0.03332853,71.95952 c 0.01831943,0 0.93285512,-0.325902 2.03228747,-0.724224 1.0994333,-0.398323 2.8946217,-1.025203 3.9893078,-1.393062 l 1.9903408,-0.668834 1.485191,0.501972 c 2.4604634,0.831599 5.4666954,1.903823 6.0131724,2.144714 l 0.513987,0.226562 v 5.427598 5.42759 l -0.513987,0.20206 c -1.210423,0.475844 -6.3474537,2.342361 -7.4160991,2.694606 l -0.1468533,0.04846 z M 7.6902787,75.209939 C 7.6433717,75.163039 1.2346535,72.734198 0.8093198,72.60214 L 0.58903979,72.53372 v 4.988978 4.988985 l 0.41608541,0.16653 c 0.3636828,0.145562 3.5954055,1.334925 5.8986144,2.170855 l 0.7832175,0.284256 0.025404,-4.937988 c 0.013962,-2.715887 0.00402,-4.959331 -0.022057,-4.985422 z m 5.7239633,8.090148 c 0.726926,-0.272732 1.486892,-0.561683 1.688816,-0.642122 l 0.367133,-0.146256 v -4.941214 -4.941217 l -0.269231,0.05924 c -0.298055,0.06555 -2.379737,0.81044 -2.443741,0.874447 -0.0222,0.02215 -0.04866,0.620348 -0.0588,1.329218 l -0.01844,1.288859 -0.660841,0.278727 -0.66084,0.278729 V 75.42595 c 0,-0.721903 -0.03304,-1.313479 -0.07343,-1.314608 -0.04039,-0.0014 -0.723254,0.247411 -1.5174861,0.552324 l -1.4440588,0.554392 v 4.966944 4.966948 l 1.8846189,-0.677979 c 1.03654,-0.372893 2.479375,-0.901129 3.2063,-1.173856 z m -3.328678,-9.382688 c 0.457693,-0.174977 0.872579,-0.35522 0.921967,-0.40053 l 0.08979,-0.08239 -0.138748,-0.04059 c -0.0763,-0.0223 -1.5604661,-0.579442 -3.2981271,-1.237998 L 4.5010638,70.958523 2.9656624,71.494414 c -0.8444717,0.294732 -1.5473655,0.575037 -1.5619864,0.622885 -0.014636,0.04789 1.4805372,0.644464 3.3225731,1.325796 L 8.0754062,74.68189 8.664399,74.458729 c 0.3239459,-0.122742 0.9634686,-0.366326 1.421161,-0.541304 z m 3.303843,-1.24382 c 0.767112,-0.258117 1.394912,-0.49565 1.395108,-0.52785 1.97e-4,-0.03218 -1.521709,-0.588716 -3.382016,-1.2367 l -3.3823743,-1.178153 -1.2661296,0.45348 c -0.6963711,0.249418 -1.266963,0.479554 -1.2679834,0.511411 -0.00106,0.0319 0.1633541,0.107581 0.3652769,0.168247 0.2019238,0.06073 1.6447603,0.594773 3.2063012,1.186889 1.5615422,0.592116 2.8611942,1.080039 2.8881182,1.084275 0.02693,0.0042 0.676588,-0.203483 1.443699,-0.461599 z m -8.4926641,-5.3721 C 3.2005844,66.685278 1.4163161,66.033803 0.93169806,65.853756 L 0.05057826,65.526402 0.02528913,60.074003 0,54.621604 0.31900668,54.49015 C 0.49446054,54.41785 2.3322402,53.77904 4.4029634,53.070575 l 3.7649507,-1.288124 3.7245759,1.337086 c 2.048517,0.735395 3.801674,1.377851 3.895905,1.427673 l 0.171329,0.0906 v 5.468608 5.468612 l -0.171329,0.0667 c -0.22022,0.08573 -7.5798498,2.711399 -7.7098058,2.7506 -0.05385,0.01623 -1.4856668,-0.474631 -3.1818241,-1.090832 z M 7.7359082,62.726856 V 57.801799 L 4.2336088,56.51006 C 2.3073431,55.799603 0.69929725,55.218319 0.66017256,55.218319 c -0.0391219,0 -0.0711324,2.225774 -0.0711324,4.946167 v 4.946164 l 0.22028001,0.09831 C 1.2130546,65.389146 7.4892068,67.63457 7.61353,67.643311 l 0.1223782,0.0086 z M 9.46271,67.306585 c 0.5310309,-0.18993 2.099955,-0.74825 3.486496,-1.240709 l 2.520985,-0.895385 v -4.98656 -4.98656 l -0.122378,0.04289 c -0.06731,0.02358 -0.706121,0.258777 -1.419583,0.522633 l -1.297206,0.479741 v 1.325008 1.325005 l -0.513987,0.182424 c -0.282694,0.100334 -0.569057,0.203502 -0.636365,0.229261 l -0.122378,0.04683 v -1.332158 c 0,-0.732686 -0.01442,-1.332154 -0.03203,-1.332154 -0.03767,0 -2.3409276,0.837026 -2.7337087,0.993455 l -0.2692315,0.107223 v 4.932189 4.932188 h 0.086937 c 0.047809,0 0.521417,-0.155396 1.0524501,-0.345327 z M 9.5108559,56.72906 C 10.338486,56.429198 11.05749,56.142833 11.108644,56.092696 l 0.09301,-0.09115 -0.141958,-0.0013 C 10.981615,55.999467 9.8383647,55.599467 8.5191311,55.111311 7.1998965,54.623155 5.7485098,54.086104 5.2938224,53.917862 L 4.4671237,53.61197 2.8952169,54.141689 c -0.8645473,0.291342 -1.6059263,0.556844 -1.6475072,0.59 -0.052101,0.04155 5.4509887,2.112423 6.7456626,2.538473 0.00706,0.0024 0.689857,-0.241165 1.5174859,-0.541027 z m 2.3758181,0.137281 c -0.02773,-0.04488 0.01355,-0.08158 0.09173,-0.08158 0.07819,0 0.165775,-0.06154 0.19464,-0.136765 l 0.05248,-0.136769 -0.24334,-0.04653 -0.243339,-0.04652 -0.144707,0.144707 -0.144705,0.144706 0.09973,0.120165 c 0.11047,0.133108 0.417628,0.168218 0.337507,0.03858 z M 11.5541,56.744721 c 0,-0.01865 0.06608,-0.08874 0.146854,-0.155771 l 0.146853,-0.121875 v 0.09941 c 0,0.05469 -0.06608,0.124776 -0.146853,0.155771 -0.08078,0.03099 -0.146854,0.04111 -0.146854,0.02246 z m 0.811631,0.113463 0.163738,-0.122379 -0.0908,-0.144108 -0.0908,-0.144112 -0.07155,0.193063 c -0.03935,0.10618 -0.118822,0.225426 -0.176596,0.264989 l -0.105038,0.07192 0.103669,0.0016 c 0.05702,7.71e-4 0.177349,-0.05358 0.267405,-0.120881 z m 1.118829,-1.517486 c 0.714111,-0.255772 1.29882,-0.491613 1.299351,-0.524098 5.34e-4,-0.03248 -0.957253,-0.401761 -2.12841,-0.820617 -1.171156,-0.418854 -2.6640092,-0.953271 -3.3174521,-1.187597 l -1.1880757,-0.426042 -1.2406614,0.42235 c -0.6823642,0.232295 -1.2422079,0.462765 -1.2440962,0.512163 -0.00185,0.0494 1.091045,0.497532 2.4287394,0.995856 1.3376943,0.498327 2.762591,1.035506 3.166438,1.193733 0.403847,0.158227 0.777358,0.290298 0.830024,0.293486 0.05267,0.0033 0.680031,-0.203464 1.394143,-0.459234 z M 4.1011092,49.693432 C 2.021198,48.92359 0.26997008,48.263138 0.20949246,48.225759 L 0.09953141,48.157794 V 42.790931 37.42407 L 0.22190742,37.323932 C 0.38407586,37.191237 3.3478267,36.127047 5.9844609,35.254779 l 2.1156907,-0.699928 2.6839254,0.924708 c 1.476159,0.508586 3.244559,1.131166 3.929776,1.383511 l 1.24585,0.45881 0.0062,2.46219 c 0.0035,1.354204 0.0035,3.78387 1.52e-4,5.399256 l -0.006,2.937068 -0.15581,0.115137 c -0.167202,0.12355 -1.177713,0.504399 -5.177067,1.951179 -1.3982973,0.505838 -2.5878117,0.916719 -2.6433626,0.913067 -0.055556,-0.0037 -1.8027488,-0.636509 -3.8826599,-1.406352 z m 3.6348002,-4.20038 V 40.565001 L 4.431708,39.332248 C 2.6143937,38.654233 1.0059402,38.06942 0.85736122,38.032663 l -0.27014274,-0.06683 0.0253964,4.91533 0.0253964,4.915331 3.47553152,1.301522 c 1.9115427,0.715838 3.5085743,1.306375 3.5489588,1.312305 0.040388,0.006 0.073431,-2.206836 0.073431,-4.917267 z m 2.8881186,4.093461 c 1.076926,-0.397752 2.596859,-0.961076 3.377629,-1.251831 l 1.419583,-0.528647 0.02538,-4.916145 0.02538,-4.916149 -0.172239,0.05219 c -1.065793,0.322904 -1.879052,0.595152 -2.239939,0.749846 l -0.438475,0.18795 0.01566,1.296676 0.01566,1.296672 -0.573761,0.263671 c -0.315567,0.145023 -0.606801,0.267048 -0.647186,0.27117 -0.04039,0.0041 -0.07343,-0.591968 -0.07343,-1.324654 v -1.332156 l -0.122379,0.04452 c -0.06731,0.02449 -0.750175,0.281363 -1.5174846,0.570821 l -1.3951239,0.526296 v 4.932658 4.932658 l 0.1713283,-0.06617 c 0.094227,-0.0364 1.0524511,-0.391613 2.1293752,-0.789365 z M 9.5715789,39.485692 C 10.392734,39.176776 11.064395,38.900553 11.064159,38.871856 11.063924,38.843156 10.678434,38.680214 10.207515,38.50975 9.7365954,38.339285 8.2939534,37.796305 7.001643,37.303127 l -2.3496545,-0.896688 -0.3663166,0.0573 c -0.2014718,0.03151 -0.9119282,0.255088 -1.5787904,0.496831 -0.6668619,0.241743 -1.2619886,0.439533 -1.3225008,0.439533 -0.3708454,0 0.077418,0.229914 1.4319381,0.73444 2.0166837,0.751163 5.1510387,1.89701 5.2132981,1.905858 0.026925,0.0038 0.7208059,-0.245792 1.541962,-0.554706 z M 13.509564,38.02266 c 0.707772,-0.249905 1.251218,-0.485545 1.207658,-0.52365 -0.09425,-0.08245 -1.327118,-0.524489 -4.405599,-1.57962 L 8.0411682,35.141208 6.7520729,35.579611 c -0.7090046,0.241123 -1.3035662,0.452875 -1.3212503,0.470557 -0.065346,0.06535 6.2794414,2.41923 6.5310074,2.422975 0.143481,0.0021 0.839962,-0.200584 1.547734,-0.450483 z m -9.5190829,-5.693291 -3.89228231,-1.43977 0.0251289,-5.47794 0.0251289,-5.477939 3.96504451,-1.360462 3.9650436,-1.360461 0.7342674,0.243977 c 1.8866979,0.626904 7.0133929,2.457495 7.1232149,2.543489 l 0.123201,0.09648 -0.02531,5.385777 -0.02529,5.385774 -0.146851,0.08384 c -0.197209,0.112588 -7.4570466,2.705881 -7.7490787,2.768058 l -0.2299607,0.04896 z m 3.7454283,-4.18346 V 23.199421 L 7.4666778,23.093926 C 7.3185999,23.035903 5.7876525,22.468648 4.0645712,21.833359 2.3414929,21.198069 0.85459991,20.647164 0.76037045,20.609123 l -0.17133066,-0.06917 1.9754e-4,4.979016 1.9493e-4,4.979015 3.49984094,1.286296 c 1.9249141,0.707461 3.5328853,1.291202 3.5732677,1.297203 0.040377,0.006 0.07343,-2.215008 0.07343,-4.935576 z M 11.505148,31.9567 c 1.561543,-0.562904 3.09249,-1.115751 3.402106,-1.228549 l 0.562937,-0.205084 v -4.968041 -4.968041 l -1.343684,0.48182 c -0.739028,0.265003 -1.371053,0.526104 -1.404502,0.580226 -0.03344,0.05412 -0.0422,0.349092 -0.01945,0.655489 0.02275,0.306398 0.01264,0.871802 -0.02246,1.256451 l -0.06381,0.699365 -0.565613,0.206233 c -0.311089,0.113427 -0.594134,0.206233 -0.628991,0.206233 -0.03486,0 -0.06338,-0.572729 -0.06338,-1.27273 v -1.272729 h -0.110119 c -0.06057,0 -0.743436,0.229779 -1.5174852,0.510622 l -1.4073705,0.510622 v 4.982381 4.982381 l 0.1713293,-0.0666 c 0.094231,-0.03663 1.4489575,-0.527154 3.0104994,-1.090058 z M 9.6005698,22.102865 C 10.40475,21.820174 11.062881,21.56685 11.063083,21.539927 11.063284,21.513002 10.590103,21.317553 10.011568,21.105592 9.4330347,20.893629 7.9583074,20.3386 6.7343977,19.872197 L 4.5091066,19.024184 2.8923603,19.572265 c -0.8892124,0.301445 -1.6170299,0.570865 -1.6173744,0.598712 -2.673e-4,0.02785 0.3628341,0.179494 0.8070666,0.336997 0.4442313,0.157503 1.9090936,0.694387 3.2552512,1.193072 1.3461577,0.498685 2.5271077,0.908749 2.6243384,0.911253 0.097226,0.0024 0.834747,-0.22674 1.6389277,-0.509434 z m 3.8626242,-1.362118 c 0.59231,-0.214208 1.131996,-0.407001 1.199304,-0.428434 0.145172,-0.04622 0.165263,-0.24092 0.02486,-0.24092 -0.05363,0 -1.540524,-0.510646 -3.304202,-1.134773 L 8.1764684,17.801847 6.8797898,18.226828 c -0.7131727,0.233742 -1.2845295,0.462146 -1.2696782,0.507564 0.014843,0.04542 1.2151399,0.521071 2.6673123,1.057002 1.4521699,0.535929 2.9046451,1.078324 3.2277221,1.205323 0.323078,0.126996 0.653498,0.208987 0.734268,0.182197 0.08076,-0.02678 0.63147,-0.223963 1.223779,-0.438167 z M 4.0149354,15.091455 C 1.9953224,14.352943 0.29523687,13.719238 0.23696493,13.683225 L 0.13102001,13.617749 0.07372119,8.6452545 C 0.04220702,5.9103814 0.0407325,3.4645328 0.07046094,3.2100309 L 0.12448748,2.7473007 0.87075799,2.461424 C 1.8440783,2.0885646 7.2125605,0.2402527 7.7157936,0.1047454 L 8.1047642,0 11.224545,1.0702655 c 1.715881,0.5886442 3.477295,1.2073319 3.914256,1.3748627 l 0.794474,0.3045995 0.06133,0.5104642 c 0.03373,0.2807546 0.0617,2.6954241 0.06217,5.3659298 l 8.41e-4,4.8554653 -0.171329,0.149414 c -0.09423,0.08218 -1.853655,0.749845 -3.90983,1.483708 l -3.7385077,1.334297 -0.2754902,-0.0074 C 7.8109371,16.437597 6.0345539,15.829979 4.014943,15.091466 Z M 7.7359082,10.931229 V 6.0008597 L 4.9212168,4.9453531 C 2.0532899,3.869883 0.81493574,3.4280008 0.66888892,3.4280008 h -0.0816601 l 0.0253964,4.9039982 0.0253693,4.903998 2.79021674,1.024646 c 1.5346169,0.563558 3.120635,1.151563 3.5244818,1.306678 0.4038456,0.155117 0.745282,0.284782 0.7587434,0.28815 0.013463,0.0034 0.024491,-2.212542 0.024491,-4.924242 z m 2.9472748,4.039839 c 1.205928,-0.43594 2.765325,-0.998377 3.465327,-1.249857 l 1.272729,-0.457238 0.02538,-4.9288088 0.02538,-4.9288101 -0.12329,0.045375 c -0.0678,0.024969 -0.685004,0.2317309 -1.371544,0.4594933 l -1.248254,0.4141116 -0.0099,0.1142692 c -0.0054,0.062848 -0.0016,0.6732653 0.0085,1.3564791 l 0.01832,1.2422076 -0.424526,0.1142127 c -0.233523,0.062815 -0.545714,0.1768082 -0.693791,0.2533158 L 11.358281,7.5449225 V 6.2102527 4.8755833 l -0.122378,0.045832 C 11.16859,4.9466233 10.485727,5.2008123 9.7184182,5.486287 L 8.3233093,6.0053289 v 4.8791801 4.879183 h 0.083633 c 0.045994,0 1.0703001,-0.356681 2.2762277,-0.792625 z M 9.5715778,4.930628 C 10.392733,4.6252842 11.063679,4.3495169 11.06257,4.3178141 11.061483,4.2861079 10.125269,3.9126743 8.9821449,3.4879523 7.8390226,3.0632336 6.3546293,2.5066803 5.6834939,2.251171 L 4.463249,1.7866034 2.9592995,2.3135956 C 2.1321271,2.6034404 1.4366534,2.8405877 1.413805,2.8405877 c -0.022861,0 -0.04155,0.040464 -0.04155,0.089925 0,0.04945 0.2753499,0.1820287 0.6118901,0.2946093 0.3365381,0.1125785 1.8234284,0.6653322 3.3042014,1.2283409 1.4807728,0.5630076 2.7143411,1.0256074 2.7412654,1.0279979 0.026925,0.00239 0.7208058,-0.2454845 1.541962,-0.5508293 z M 11.749903,4.6028303 c 0,-0.053851 -0.0771,-0.097226 -0.171328,-0.096401 l -0.17133,0.00163 0.146853,0.094901 c 0.184763,0.1194011 0.195805,0.1194011 0.195805,0 z M 12.43372,4.3786891 c 8.41e-4,-0.042507 -0.05996,-0.020482 -0.135078,0.04895 -0.07511,0.069432 -0.113667,0.1639821 -0.08567,0.2101168 l 0.05091,0.083883 0.08417,-0.1328311 c 0.04629,-0.073061 0.08484,-0.1676079 0.08566,-0.2101166 z M 12.167851,4.2449051 C 12.10157,4.2180885 11.9694,4.2164478 11.874145,4.2413194 l -0.173192,0.045136 0.293706,0.00359 c 0.161539,0.00185 0.239475,-0.01832 0.173192,-0.045125 z M 13.511854,3.4666849 C 14.184773,3.2309805 14.745385,3.0047 14.757657,2.9638363 14.769936,2.9229704 14.153276,2.6766591 13.387316,2.416472 12.621354,2.1562852 11.107963,1.6405618 10.024225,1.2704248 L 8.053791,0.59744208 6.7587086,1.0215784 5.4636284,1.4457126 l 0.132641,0.084426 c 0.1501705,0.095575 1.0333459,0.4396471 3.5102726,1.3675404 0.942309,0.3530038 1.977626,0.7447223 2.300703,0.8704809 0.323078,0.1257629 0.653499,0.2058041 0.734268,0.1778683 0.08076,-0.027936 0.697423,-0.2436384 1.370341,-0.4793406 z"
     id="path1" /></svg>
