<?xml version="1.0" encoding="UTF-8" standalone="no"?>
<!-- Created with Inkscape (http://www.inkscape.org/) -->

<svg
   width="93.929047mm"
   height="91.080605mm"
   viewBox="0 0 93.929047 91.080605"
   version="1.1"
   id="svg1"
   xml:space="preserve"
   xmlns="http://www.w3.org/2000/svg"
   xmlns:svg="http://www.w3.org/2000/svg"><defs
     id="defs1" /><g
     id="layer1"><path
       style="fill:#000000;stroke-width:1"
       d="m 42.611006,91.016061 c -3.925585,-0.26621 -5.615987,-0.49815 -8.836617,-1.2125 -2.289162,-0.50775 -3.804869,-0.93232 -5.589121,-1.56559 -6.140181,-2.17927 -11.327207,-5.34585 -15.750233,-9.61519 C 5.6662648,72.089191 1.4481694,63.614358 0.2459943,54.133044 0.0072753,52.25031 -0.0770577,48.419261 0.0797683,46.581751 0.5577363,40.98145 2.0532366,35.526425 4.484432,30.515175 c 1.8362867,-3.785004 5.618113,-9.488375 6.432475,-9.700814 0.57209,-0.149238 1.274716,0.432497 1.274716,1.055394 0,0.111007 -0.335458,0.679748 -0.745462,1.263867 -3.2533849,4.634992 -4.9305511,7.591699 -6.3743956,11.237531 -1.1686481,2.950943 -1.7764362,5.162246 -2.3551872,8.568842 -0.5456066,3.211502 -0.6282618,4.304822 -0.5616475,7.429185 0.109379,5.130127 1.0379425,9.511279 2.9884295,14.100031 1.8516099,4.35612 4.4660561,8.24012 7.9587018,11.82336 3.665204,3.76029 7.977127,6.73266 12.821876,8.83863 7.852779,3.41352 17.807043,4.70543 26.490119,3.43801 6.574056,-0.95958 11.340462,-4.14887 13.766838,-9.21165 0.766561,-1.59947 1.176484,-2.9011 1.560127,-4.95388 0.0439,-0.23491 0.05886,-0.23084 0.590254,0.16067 0.299868,0.22093 0.704711,0.54958 0.899655,0.73035 l 0.354447,0.32865 -0.14375,0.74245 c -0.150321,0.77641 -0.737579,2.54444 -1.163413,3.50264 -0.350333,0.78832 -1.467251,2.64219 -2.041409,3.38835 -3.193337,4.14998 -8.063181,6.70452 -14.200076,7.44884 -2.668515,0.32366 -7.08543,0.46913 -9.425724,0.31043 z m 47.771284,-2.50856 c -5.800007,-0.36093 -11.085964,-2.22234 -14.10799,-4.96804 -0.758719,-0.68934 -1.766755,-1.98319 -2.330521,-2.99129 -0.664455,-1.18816 -1.33982,-3.49427 -1.343293,-4.58685 -0.0024,-0.75845 -0.09309,-0.90646 -0.947085,-1.54586 C 67.157832,71.049521 60.804216,65.929711 55.80044,61.640984 55.484594,61.370272 54.853687,60.835483 54.398426,60.452561 53.590849,59.773314 52.617094,58.905984 48.882394,55.539409 45.766436,52.730589 42.487303,49.538912 34.562178,41.601115 27.318192,34.345544 21.51017,28.406062 17.487698,24.140171 14.889664,21.384919 8.9029367,14.979314 7.6394267,13.602841 6.8146758,12.704353 5.3445841,11.107858 4.3725563,10.055073 1.6865407,7.1459005 0.7813533,6.0781605 0.3909043,5.3583985 c -0.336146,-0.619657 -0.356324,-0.717507 -0.356324,-1.727958 0,-1.272397 0.188197,-1.783736 0.9603008,-2.609177 C 1.6600838,0.31010848 2.3641438,0.01233748 3.4085618,4.3748262e-4 4.8169651,-0.01561252 5.6196037,0.40397848 7.7116306,2.2499205 c 0.6083064,0.536752 2.6966024,2.361946 4.6406584,4.055988 5.16233,4.4984305 6.965318,6.1029665 14.674139,13.0589785 1.178215,1.063156 3.202604,2.898928 4.498641,4.079492 1.296037,1.180565 3.055327,2.771269 3.909533,3.534899 1.538735,1.37557 5.092963,4.640537 6.640852,6.10038 0.44183,0.4167 1.717797,1.600751 2.835481,2.631226 8.353842,7.702002 15.228017,14.623266 21.210827,21.356112 4.061942,4.571174 6.89342,7.818465 8.835935,10.133525 1.013326,1.20767 1.962606,2.33282 2.109505,2.50033 0.237464,0.27077 0.322469,0.29935 0.766127,0.25759 0.274465,-0.0258 0.932827,-0.006 1.463025,0.0449 2.432918,0.23197 4.700739,1.26969 6.27827,2.87287 1.504293,1.52875 2.25866,3.01586 3.191179,6.29086 0.814046,2.85893 1.18299,3.75766 2.074569,5.05352 0.34775,0.50543 1.7129,1.91014 2.56779,2.64218 0.566402,0.48501 0.666693,0.8985 0.321331,1.3248 -0.344706,0.4255 -0.85952,0.4747 -3.347203,0.3199 z m -0.557965,-2.32164 c -0.44844,-0.47736 -1.245896,-1.78419 -1.80242,-2.95374 -0.306131,-0.64333 -0.804578,-2.04258 -1.21687,-3.41601 -0.384092,-1.27948 -0.805962,-2.58087 -0.937491,-2.89198 -1.131912,-2.67738 -3.561413,-4.49786 -6.550685,-4.90858 -0.482562,-0.0663 -1.170768,-0.0893 -1.52934,-0.0511 -0.637955,0.0679 -0.667961,0.0859 -1.397572,0.8393 -1.76599,1.82349 -1.752902,1.80425 -1.752902,2.57677 0,0.38026 0.06791,1.04507 0.15092,1.47735 0.725414,3.77796 3.672227,6.63602 8.525031,8.26828 1.841717,0.61947 5.056651,1.28111 6.527003,1.34328 l 0.261037,0.011 z m -15.458194,-14.26932 1.06395,-1.06796 -0.219505,-0.24415 c -0.120728,-0.13428 -1.515754,-1.76244 -3.100061,-3.61813 -2.60458,-3.050737 -4.215027,-4.889405 -7.631614,-8.713115 l -1.133828,-1.268934 -0.855043,0.947603 c -0.470272,0.521182 -1.473717,1.550103 -2.229877,2.286488 l -1.374837,1.33888 1.636679,1.363434 c 2.514074,2.094344 3.24054,2.684124 6.24243,5.067934 4.948388,3.92953 6.293766,4.9616 6.482193,4.97264 0.03056,0.002 0.534343,-0.47732 1.119513,-1.06469 z M 58.765268,58.872683 c 1.51932,-1.492768 2.846129,-2.917978 3.021399,-3.245475 0.098,-0.183115 -0.249005,-0.58676 -2.826794,-3.288216 -4.047454,-4.241621 -8.883984,-8.991109 -14.045991,-13.793197 -0.883662,-0.82205 -1.871756,-1.742104 -2.195765,-2.044567 -0.910051,-0.84953 -9.659321,-8.852909 -12.105849,-11.0738 -1.200574,-1.08985 -2.81183,-2.562199 -3.58057,-3.271889 C 24.986332,20.267284 21.460183,17.071758 20.063872,15.841038 19.395501,15.25193 18.085866,14.096772 17.153573,13.274021 16.221279,12.451269 14.928296,11.316475 14.280278,10.752255 9.8633655,6.9065175 7.9319715,5.2160945 6.9387045,4.3266585 4.8989338,2.5001155 4.2675394,2.0788215 3.5692275,2.0783985 2.2656483,2.0775885 1.6964747,3.3792225 2.4451534,4.6489845 2.9815308,5.5586825 5.0389451,7.8379405 12.932402,16.267031 29.854843,34.3378 47.105094,51.503469 55.967285,59.090917 c 0.600671,0.514268 1.121663,0.982823 1.157761,1.041231 0.03611,0.05841 0.107174,0.106195 0.157952,0.106195 0.05078,0 0.717799,-0.614548 1.48227,-1.36566 z m -13.4765,24.320228 c -3.171756,-0.53317 -5.487392,-2.54851 -6.441823,-5.60644 -0.323126,-1.03528 -0.347764,-3.08792 -0.05009,-4.17354 0.260914,-0.95157 0.912082,-2.16865 1.610401,-3.00996 3.194023,-3.84803 9.338449,-3.65598 12.21985,0.38193 1.880086,2.63471 2.060295,5.99891 0.466304,8.70501 -0.463433,0.78676 -1.7988,2.1217 -2.58665,2.58582 -1.499516,0.88336 -3.746756,1.3645 -5.217987,1.11718 z m 2.790028,-2.26283 c 0.984604,-0.34333 1.459819,-0.63325 2.23203,-1.36171 2.415154,-2.27834 2.421344,-5.9565 0.01385,-8.22762 -1.884838,-1.77806 -4.284617,-2.14774 -6.557437,-1.01016 -1.597057,0.79935 -2.671244,2.24399 -3.048557,4.09989 -0.607782,2.98953 1.442848,6.03113 4.51654,6.69917 0.650906,0.14147 2.171635,0.0347 2.843583,-0.19957 z m -25.336789,-5.53077 c -2.640491,-0.4807 -4.898198,-2.39285 -5.82447,-4.933 -0.585097,-1.60453 -0.66073,-2.94886 -0.264254,-4.69692 0.518191,-2.284711 2.131289,-4.200175 4.40558,-5.231387 0.954052,-0.432586 1.906303,-0.617272 3.182692,-0.617272 1.416504,0 2.336766,0.20883 3.579564,0.812301 2.239688,1.087536 3.777457,3.29067 4.1882,6.000358 0.403978,2.66506 -0.953708,5.7275 -3.272875,7.38243 -1.680821,1.19941 -3.875318,1.66928 -5.994437,1.28349 z m 2.887533,-2.04327 c 1.916661,-0.49923 3.569193,-2.17107 4.171441,-4.22019 0.253999,-0.86422 0.221023,-2.25432 -0.07401,-3.11973 -0.488823,-1.43387 -1.58793,-2.771557 -2.834852,-3.450217 -1.440192,-0.78385 -3.707844,-0.822989 -5.146917,-0.08883 -0.82169,0.419194 -1.715707,1.194633 -2.205367,1.912857 -0.700676,1.02773 -0.948261,1.78681 -1.004476,3.07966 -0.0412,0.94757 -0.01392,1.16985 0.234392,1.90955 0.650145,1.93674 2.051058,3.30879 4.022779,3.93986 0.74173,0.2374 2.004462,0.25389 2.837006,0.037 z m 45.384958,-13.91137 -0.707083,-0.686562 0.183346,-0.581632 c 0.4535,-1.43867 1.732826,-3.632437 3.079128,-5.280038 1.236204,-1.512859 3.285868,-3.072488 5.833574,-4.438877 3.4354,-1.842481 5.123363,-2.920131 6.604087,-4.216274 3.055586,-2.674693 4.601981,-5.308761 5.464283,-9.307672 0.195184,-0.905153 0.236593,-1.436658 0.235755,-3.026002 -8.09e-4,-1.839967 -0.01935,-2.008675 -0.402402,-3.695314 -0.854533,-3.762553 -2.084123,-6.610719 -4.277282,-9.907721 -3.13728,-4.716303 -8.068293,-8.9726545 -13.569072,-11.7125485 -5.015435,-2.498149 -9.905706,-3.885769 -15.58458,-4.422143 -1.82341,-0.172223 -6.590602,-0.173882 -8.35462,-0.0029 -5.42689,0.525991 -10.990568,1.929641 -15.843699,3.997176 -3.044871,1.29718 -6.869595,3.411357 -9.273713,5.1261925 -1.442073,1.028619 -1.612189,1.118317 -1.95687,1.031807 -0.333914,-0.08381 -0.804655,-0.555341 -0.852669,-0.854105 -0.104175,-0.648234 0.313007,-1.037475 2.988442,-2.7882955 4.048355,-2.649261 8.81369,-4.895653 13.317021,-6.277672 1.952713,-0.599265 5.962391,-1.55660902 7.604846,-1.81572102 3.091956,-0.487784 4.457479,-0.565936 8.967933,-0.513252 5.502394,0.06427 7.157797,0.264988 11.304744,1.37070302 3.985483,1.062662 6.709236,2.152608 10.146704,4.060335 6.566887,3.644492 11.949549,9.2011385 15.097319,15.5853115 1.290949,2.618244 2.11261,5.17548 2.584513,8.043692 0.295148,1.793898 0.244115,4.630469 -0.113501,6.309117 -0.285937,1.342164 -0.946984,3.340613 -1.484246,4.4871 -0.50418,1.075893 -1.681761,2.838898 -2.63289,3.941809 -1.776337,2.059801 -4.757071,4.202053 -8.656588,6.221477 -3.159271,1.636076 -5.255944,3.406377 -6.751561,5.700609 -0.490331,0.752149 -1.447516,2.710277 -1.793283,3.668535 -0.132856,0.36819 -0.288577,0.669438 -0.34605,0.669438 -0.05748,0 -0.422688,-0.308951 -0.811586,-0.686558 z M 15.4487,53.699369 C 14.45841,53.570087 13.191786,53.102435 12.392198,52.570869 11.305335,51.848325 10.129245,50.538021 9.6259223,49.488908 8.9433332,48.066139 8.8191217,47.518687 8.820503,45.939088 8.8213531,44.956953 8.876675,44.341503 9.0082173,43.850435 9.9122731,40.47546 13.069036,38.06265 16.57351,38.068051 c 1.302443,0.002 2.170153,0.206109 3.383624,0.79589 2.071594,1.006853 3.570084,2.828652 4.189662,5.093603 0.304203,1.112056 0.256733,3.010076 -0.105299,4.210243 -0.353543,1.172027 -0.676164,1.815941 -1.309134,2.612884 -1.354205,1.705014 -3.090243,2.684857 -5.181522,2.924523 -1.017035,0.116554 -1.16794,0.116133 -2.102141,-0.0058 z m 2.558681,-2.189366 c 2.026458,-0.527826 3.654317,-2.187002 4.152151,-4.232034 0.861301,-3.538104 -1.994393,-7.185293 -5.617775,-7.17482 -1.944006,0.0056 -4.073025,1.27612 -4.968649,2.965063 -0.408092,0.769564 -0.774728,2.102875 -0.772062,2.807679 0.0029,0.76873 0.277224,1.878118 0.658863,2.664576 0.408657,0.842133 1.596313,2.107003 2.338372,2.490395 1.182907,0.611163 2.936047,0.810731 4.2091,0.479141 z M 67.427528,37.796472 c -0.981495,-0.186192 -2.397346,-0.745744 -3.437541,-1.358535 -1.594436,-0.939304 -3.515838,-3.236896 -4.158744,-4.972977 -0.714419,-1.929195 -0.846182,-4.092134 -0.36677,-6.020585 1.038366,-4.176839 4.49167,-7.206091 8.826276,-7.742443 4.963557,-0.614177 9.682225,2.797453 10.907459,7.886162 0.254847,1.058452 0.278112,1.319756 0.228885,2.570651 -0.06469,1.643894 -0.311065,2.694683 -0.940498,4.011291 -1.308219,2.736428 -3.464049,4.562506 -6.406454,5.426533 -1.187172,0.348609 -3.373542,0.442549 -4.652613,0.199903 z m 4.263979,-2.229111 c 2.270109,-0.739393 4.172221,-2.501896 5.052769,-4.681915 0.641339,-1.587801 0.745116,-3.822256 0.251005,-5.404463 -0.790259,-2.530492 -2.787195,-4.594676 -5.196665,-5.371665 -1.252677,-0.403955 -3.091928,-0.471388 -4.341289,-0.159166 -1.377027,0.344125 -2.476169,0.934636 -3.486128,1.872908 -1.92173,1.785322 -2.85059,4.028168 -2.690428,6.496353 0.21087,3.249584 2.636736,6.255583 5.867786,7.271035 0.979419,0.30781 1.086613,0.320324 2.454297,0.286484 0.978326,-0.02421 1.408078,-0.0879 2.088653,-0.309571 z M 39.665467,25.90759 c -0.563096,-0.103861 -1.204374,-0.328908 -1.870401,-0.656389 -0.849436,-0.417664 -1.172109,-0.656157 -1.99314,-1.473161 -0.762741,-0.759 -1.066286,-1.152672 -1.371061,-1.778148 -0.570529,-1.170874 -0.823378,-2.14285 -0.892065,-3.429188 -0.07114,-1.332371 0.158181,-2.436752 0.776785,-3.740811 1.939476,-4.088553 7.214551,-5.6542115 11.026737,-3.272771 0.882277,0.551149 2.016967,1.676853 2.563463,2.543158 1.758609,2.787742 1.596873,6.263325 -0.416069,8.941135 -0.560386,0.745477 -1.841122,1.825901 -2.650769,2.236181 -1.296492,0.656982 -3.543599,0.93062 -5.17348,0.629994 z m 2.919861,-2.033861 c 3.176764,-0.748997 5.179751,-4.191626 4.204122,-7.225829 -0.302483,-0.940723 -1.09496,-2.173192 -1.791724,-2.786509 -0.685369,-0.603286 -1.855072,-1.152013 -2.788405,-1.308086 -3.189414,-0.533339 -6.330988,1.95495 -6.623659,5.246279 -0.220318,2.477663 1.469878,5.055513 3.865584,5.895703 1.066683,0.374092 2.063533,0.430849 3.134082,0.178442 z"
       id="path1" /></g></svg>
