<?xml version="1.0" encoding="UTF-8" standalone="no"?>
<!-- Created with Inkscape (http://www.inkscape.org/) -->

<svg
   width="102.28254mm"
   height="94.438934mm"
   viewBox="0 0 102.28254 94.438934"
   version="1.1"
   id="svg1"
   xml:space="preserve"
   xmlns="http://www.w3.org/2000/svg"
   xmlns:svg="http://www.w3.org/2000/svg"><defs
     id="defs1" /><g
     id="layer1"><path
       style="fill:#000000;stroke-width:1"
       d="m 27.593165,94.38189 c -1.273361,-0.0837 -1.989392,-0.43521 -2.891466,-1.41967 -0.877896,-0.95806 -1.306146,-1.83714 -1.452192,-2.98093 -0.208678,-1.63431 0.151207,-3.04082 1.163459,-4.54705 0.335299,-0.49893 1.669894,-2.0592 2.965766,-3.46727 1.295872,-1.40807 2.650719,-2.89952 3.010772,-3.31433 l 0.654641,-0.7542 0.01243,-7.26012 c 0.0068,-3.99307 0.0022,-13.390269 -0.01029,-20.882669 l -0.02271,-13.622551 0.372041,0.260918 c 0.204623,0.143504 0.685101,0.509824 1.067729,0.814044 l 0.695687,0.553131 v 2.201935 2.201936 l 0.417413,0.111565 c 1.300013,0.347468 2.744942,0.598697 6.149877,1.069278 1.378532,0.190518 1.677788,0.330413 3.235465,1.512473 l 0.604729,0.458907 -1.44703,-0.07203 c -2.68554,-0.133686 -7.009505,-0.70895 -8.314535,-1.106178 -0.28756,-0.08753 -0.550529,-0.131448 -0.584377,-0.0976 -0.03385,0.03382 -0.06154,1.201075 -0.06154,2.593842 v 2.532306 L 34.1809,49.40753 c 2.535802,0.595336 8.286582,1.175804 14.338913,1.447328 l 2.504477,0.112356 0.723514,0.497763 c 0.397931,0.27377 0.873325,0.619265 1.05643,0.767771 l 0.332916,0.270005 -0.666846,0.08371 c -0.739248,0.09279 -5.057607,8.41e-4 -8.137337,-0.173189 -4.644107,-0.2625 -8.720859,-0.785753 -10.923485,-1.402031 l -0.250448,-0.07008 v 2.570005 2.570001 l 0.584378,0.165478 c 1.560559,0.441898 6.0903,1.042467 10.713586,1.420444 2.47519,0.202361 11.717525,0.19775 13.783843,-0.0069 l 1.539742,-0.152478 0.742114,0.515049 c 0.943948,0.655138 1.290558,0.94821 1.213065,1.025703 -0.12138,0.12138 -3.041272,0.370871 -5.847996,0.499681 -3.050793,0.140013 -8.78829,0.08173 -11.876008,-0.12064 -4.290179,-0.28113 -7.235656,-0.67522 -10.602276,-1.418486 l -0.250448,-0.05529 v 2.564187 2.564183 l 0.751343,0.168679 c 8.177561,1.835891 21.122978,2.146001 30.767191,0.737041 0.84879,-0.124003 1.905793,-0.294083 2.348894,-0.377949 l 0.805635,-0.152495 1.00179,0.732234 c 0.550985,0.40273 1.339893,1.00064 1.753133,1.3287 l 0.75134,0.59648 v 5.88835 5.88834 l 0.640034,0.70093 c 0.352016,0.38552 0.819312,0.90179 1.038433,1.14727 0.219121,0.24549 1.021492,1.12255 1.78305,1.94903 2.434237,2.64174 2.71552,2.97123 3.342606,3.91545 0.33844,0.50959 0.729909,1.24802 0.86993,1.64096 0.224961,0.6313 0.249365,0.87092 0.209731,2.05924 -0.0411,1.23269 -0.07473,1.40864 -0.403273,2.11051 -0.496308,1.06028 -1.810736,2.37549 -2.749833,2.75146 l -0.66786,0.26737 -23.430757,0.005 C 39.083509,94.4417 28.113743,94.4159 27.593165,94.3817 Z M 75.303151,92.1373 c 0.853199,-0.31922 1.530579,-1.00277 1.760302,-1.77633 0.320307,-1.07859 0.191574,-2.47341 -0.274439,-2.97362 L 76.56126,87.14288 H 51.191252 25.821247 l -0.222408,0.23873 c -0.295612,0.3173 -0.49622,1.33354 -0.409275,2.07331 0.133353,1.13462 0.925274,2.22154 1.958732,2.68838 0.498447,0.22516 0.615742,0.22627 24.010954,0.22871 l 23.510058,0.003 z M 31.858197,84.51752 c 0.983063,-1.03737 1.385969,-1.35659 3.368122,-2.66853 1.989345,-1.3167 3.052975,-2.1939 3.052975,-2.51784 0,-0.1101 -1.179046,-0.11554 -3.766642,-0.0174 l -1.930026,0.0732 -0.745743,0.73345 c -0.410158,0.4034 -1.527835,1.61002 -2.483726,2.68137 -0.955891,1.07136 -1.918165,2.12055 -2.138387,2.33152 -0.220223,0.21098 -0.400404,0.42386 -0.400404,0.47307 0,0.0492 0.883618,0.0895 1.963596,0.0895 h 1.963596 z m 35.57326,0.86054 c -0.126458,-0.36277 -1.518392,-2.14553 -3.141269,-4.0233 -0.608465,-0.70403 -1.181386,-1.4369 -1.273149,-1.62858 -0.163585,-0.34172 -0.186307,-0.35004 -1.163784,-0.42651 -0.548319,-0.0429 -1.017966,-0.057 -1.043658,-0.0313 -0.02571,0.0257 0.288162,0.51484 0.697464,1.087 1.000246,1.39823 1.185034,1.98195 0.743439,2.34845 -0.129016,0.10707 -0.25894,0.0283 -0.688815,-0.4177 -0.586922,-0.60893 -1.400369,-1.72041 -1.822111,-2.48973 l -0.274599,-0.50089 -8.254926,-0.0249 -8.25493,-0.0249 -0.269171,0.53118 c -0.388104,0.76589 -1.490535,2.21701 -2.249605,2.96114 -1.783432,1.74834 -3.604079,2.682 -3.604079,1.84824 0,-0.28962 0.187943,-0.47237 1.480418,-1.43958 0.583406,-0.43659 1.320032,-1.0775 1.636945,-1.42425 0.629067,-0.6883 1.668967,-2.17171 1.668967,-2.38077 0,-0.0893 -0.132585,-0.10899 -0.417412,-0.0619 -0.229577,0.038 -0.677008,0.0696 -0.99429,0.0702 -0.491596,8.5e-4 -0.588082,0.0365 -0.652676,0.24005 -0.04169,0.13136 -0.275108,0.45505 -0.518707,0.71932 -0.48099,0.52181 -1.896631,1.7133 -2.035625,1.7133 -0.04723,0 -0.792998,0.47292 -1.657259,1.05093 -1.486394,0.99409 -3.07407,2.29553 -3.07407,2.51985 0,0.062 6.969924,0.10245 17.636843,0.10245 h 17.636841 z m 8.018732,0.0117 C 75.302755,85.2214 74.630335,84.50453 73.955929,83.7967 73.281523,83.08887 72.069408,81.80663 71.262348,80.94727 L 69.794957,79.3848 66.976912,79.3229 c -1.549927,-0.034 -2.830321,-0.0502 -2.845327,-0.0359 -0.0369,0.0352 0.367758,0.55125 1.752586,2.23529 2.122596,2.58122 2.798348,3.44584 2.979173,3.81182 l 0.178738,0.36176 h 3.338089 3.338083 z m -6.226718,-10.8778 v -2.72434 l -0.276147,0.10499 c -1.012337,0.3849 -3.834585,0.87521 -6.680728,1.16067 -8.163992,0.81882 -17.485519,0.69427 -24.599507,-0.32869 -1.662449,-0.23905 -3.735572,-0.66725 -4.313262,-0.89088 -0.182192,-0.0705 -0.194792,0.097 -0.194792,2.58938 0,1.46564 0.03339,2.69819 0.07421,2.73901 0.04081,0.0408 8.155313,0.0742 18.032219,0.0742 h 17.958011 z m -9.962245,-2.9469 c 3.247953,-0.28363 6.390517,-0.6961 8.403904,-1.10302 l 1.502687,-0.30371 0.02987,-2.58306 c 0.03424,-2.96059 0.161044,-2.7062 -1.180086,-2.36764 -3.487247,0.88032 -12.476798,1.56359 -18.607314,1.4143 -6.44584,-0.15697 -12.128712,-0.72162 -15.228686,-1.51311 -0.490985,-0.12536 -0.921921,-0.22793 -0.957637,-0.22793 -0.03572,0 -0.06494,1.17167 -0.06494,2.60371 v 2.60371 l 0.806998,0.18482 c 2.934419,0.67207 8.447964,1.30292 13.551991,1.5506 2.368733,0.11494 9.183858,-0.0352 11.743203,-0.25867 z M 101.18236,84.91634 C 99.765239,84.23103 98.05773,83.19671 93.878635,80.49212 92.9161,79.8692 89.074187,77.16957 87.422653,75.95564 86.749231,75.46065 85.171411,74.32052 83.91639,73.42201 79.45265,70.22629 77.326507,68.65113 67.712299,61.417198 65.809792,59.985714 62.428754,57.457026 60.198872,55.797898 57.968994,54.138756 54.241145,51.362473 51.914767,49.628377 49.588389,47.894276 46.733288,45.773977 45.570098,44.9166 44.406909,44.059228 42.152882,42.380811 40.561149,41.186782 38.969416,39.992758 36.214494,37.964323 34.4391,36.679155 32.663705,35.393982 30.534902,33.834185 29.708425,33.212943 25.124727,29.76748 19.941284,26.23675 16.796466,24.417899 11.378674,21.28444 8.3494549,19.36298 8.3407014,19.054333 c -0.00556,-0.196152 1.122501,-2.374901 1.2056318,-2.328564 0.038851,0.02166 0.4713548,0.267096 0.9611188,0.545422 1.566385,0.890157 2.876234,1.097716 3.843538,0.609049 1.173459,-0.592813 1.390985,-1.879334 0.586267,-3.467371 -0.313539,-0.618737 -1.317709,-1.736371 -1.560093,-1.736371 -0.08746,0 -0.543043,0.128912 -1.012403,0.286471 -2.9810653,1.000711 -4.7946016,3.414376 -5.7645945,7.672193 -0.154672,0.678939 -0.203774,1.366448 -0.206691,2.89406 -0.0034,1.783383 0.02992,2.157433 0.3032368,3.403498 0.8570516,3.907345 1.6860413,6.205427 3.8765747,10.746445 2.097387,4.347926 2.531529,5.320448 3.198924,7.165921 1.075017,2.972622 1.403191,4.84162 1.407221,8.014319 0.0032,2.503202 -0.06784,3.146418 -0.571503,5.175913 -0.355374,1.43198 -1.441918,3.69755 -2.375547,4.953295 -1.32134,1.777227 -3.425823,3.664217 -4.7298676,4.241057 L 6.9806424,67.46052 6.7215896,67.21715 C 6.3500425,66.8681 6.1759055,66.39944 6.3186545,66.13271 c 0.0634,-0.11847 0.7109318,-0.64525 1.4389522,-1.17063 1.6160334,-1.166208 2.4290433,-2.035941 3.5418233,-3.788935 1.065905,-1.679154 1.324035,-2.256686 1.725843,-3.861342 0.807639,-3.225374 0.63769,-6.791384 -0.511915,-10.741413 C 12.163163,45.367123 11.392206,43.570817 9.5036497,39.55786 6.2277655,32.597001 6.0050235,31.990441 5.0891045,27.536381 c -0.332375,-1.616321 -0.36571,-1.955887 -0.3606,-3.673229 0.0061,-2.052063 0.21593,-3.531449 0.774011,-5.457271 0.848583,-2.928281 2.6794062,-5.304664 4.9704375,-6.451558 0.551794,-0.276229 1.095394,-0.502235 1.207999,-0.502235 0.417506,0 0.311798,-0.217165 -0.36607,-0.752051 C 9.2823979,9.096263 7.4633118,8.700505 6.1925095,9.585619 c -0.482677,0.336185 -0.679013,0.821915 -0.686956,1.699504 -0.0061,0.678655 0.04672,0.891796 0.409812,1.652219 l 0.416862,0.873048 -0.319389,0.462671 c -0.175665,0.25447 -0.503266,0.800445 -0.728003,1.21328 -0.396194,0.727795 -0.416195,0.74564 -0.658087,0.587146 -0.692422,-0.453692 -2.966139,-3.256936 -3.67213898,-4.527346 -0.666328,-1.199019 -0.884358,-2.010687 -0.832568,-3.099422 0.03867,-0.812819 0.098,-1.045355 0.421069,-1.650284 C 1.6010975,4.815437 3.9214355,4.182418 6.6972225,5.117514 c 1.7360781,0.584842 4.1609035,1.931189 6.3703595,3.537044 2.338992,1.700004 2.646608,1.990661 9.517003,8.99232 2.284258,2.327901 3.047795,3.022417 6.160999,5.604069 0.553692,0.459154 1.702392,1.428169 2.552668,2.153367 1.675239,1.428809 7.280407,5.944763 11.377787,9.166822 1.408071,1.107264 3.586964,2.848125 4.841984,3.868578 2.263622,1.840542 11.550443,9.322046 17.141737,13.809454 3.733688,2.996544 4.864999,3.91695 6.165368,5.015976 0.802652,0.678369 3.337726,2.75332 5.633494,4.610997 6.154059,4.979709 8.513067,6.963129 13.630443,11.460269 6.889744,6.05468 12.193475,11.22 12.193475,11.87525 0,0.21868 -0.0837,0.1962 -1.10018,-0.29533 z M 70.25272,54.8192 69.222731,53.916859 69.250921,52.4975 c 0.01552,-0.780649 0.01426,-1.419287 -0.0029,-1.419203 -0.01704,8.8e-5 -0.660944,0.127703 -1.430861,0.283597 -1.340079,0.271334 -1.412426,0.275234 -1.694299,0.09133 -0.552479,-0.360459 -1.699898,-1.316225 -1.609259,-1.34047 0.04972,-0.01329 0.866792,-0.15345 1.815709,-0.311452 0.94892,-0.158002 2.000799,-0.350148 2.337509,-0.426993 l 0.612206,-0.139714 -0.03778,-2.556509 c -0.02078,-1.406077 -0.04745,-2.566492 -0.05929,-2.578692 -0.01186,-0.0122 -0.620969,0.0978 -1.353616,0.244439 -2.203656,0.441086 -6.699694,0.942795 -8.471767,0.945353 l -0.795012,0.0013 -0.963031,-0.751344 -0.963027,-0.751339 0.644945,-0.07691 c 0.354716,-0.0423 1.897181,-0.181511 3.427693,-0.309357 3.829275,-0.319862 7.76808,-0.902766 8.43604,-1.248446 0.183598,-0.09502 0.196921,-0.29759 0.171069,-2.601288 -0.01544,-1.374041 -0.05955,-2.498251 -0.09808,-2.498251 -0.03854,0 -1.017116,0.147813 -2.174649,0.328478 -4.211228,0.657267 -8.154703,0.97537 -13.402571,1.081125 l -3.506263,0.07066 -1.02768,-0.823615 -1.027677,-0.823616 3.977393,-0.07125 c 6.766067,-0.121216 13.39162,-0.776535 16.866528,-1.66824 l 0.422412,-0.108393 -0.03281,-2.526669 c -0.02284,-1.758258 -0.07001,-2.519912 -0.155074,-2.504464 -1.147234,0.208305 -5.755855,0.842504 -7.05725,0.971154 -5.011166,0.495378 -11.960094,0.640961 -16.807809,0.352134 -3.799876,-0.226395 -4.500965,-0.321587 -5.00895,-0.68009 -0.777649,-0.54881 -2.09114,-1.668051 -1.998054,-1.702561 0.05248,-0.01948 1.387555,0.09236 2.966834,0.248482 5.18697,0.512769 5.83728,0.549189 9.82829,0.550371 4.667658,0.0013 7.773671,-0.191081 12.466718,-0.7725 1.954493,-0.242138 4.637712,-0.680801 5.231571,-0.855269 l 0.500893,-0.147161 0.02991,-2.527471 c 0.02284,-1.931565 -0.0021,-2.527473 -0.10594,-2.527473 -0.07473,0 -1.265291,0.172673 -2.645701,0.383717 -1.380415,0.211044 -3.085875,0.4364 -3.789911,0.500792 -5.356228,0.489885 -5.559136,0.498553 -11.631895,0.49688 -5.661653,-0.0017 -6.19796,-0.01929 -9.238565,-0.303659 -3.702941,-0.346306 -6.905651,-0.774847 -8.48348,-1.135137 -0.240277,-0.05487 -0.247348,-0.02804 -0.278275,1.055616 l -0.03173,1.111913 -0.66786,-0.56609 C 32.068252,24.149865 31.59813,23.7428 31.390861,23.556625 l -0.376855,-0.338499 0.05304,-3.307961 0.05304,-3.30796 -2.224951,-2.38024 C 24.32233,9.330015 23.993581,8.929199 23.519174,7.667548 23.231736,6.903129 23.20521,6.705993 23.204635,5.330039 c -5.47e-4,-1.310643 0.03227,-1.58537 0.256813,-2.1496776 0.483874,-1.216059 1.785933,-2.50628702 2.960975,-2.93407202 0.533956,-0.194391 1.629501,-0.204762 24.539578,-0.232309 26.239975,-0.03155 24.669695,-0.06819 25.813849,0.602327 1.625944,0.95286702 2.411519,2.33878702 2.542281,4.48510462 0.05889,0.966659 0.03462,1.182343 -0.227888,2.024609 -0.469547,1.506595 -1.218493,2.508933 -4.208519,5.632417 -0.923839,0.965071 -2.09889,2.211131 -2.611226,2.769022 l -0.931516,1.014347 -0.02815,19.589863 -0.02814,19.589865 z M 56.589786,22.576618 c 3.814105,-0.219062 9.243897,-0.871445 11.798862,-1.417619 l 0.890477,-0.190357 0.03063,-1.679217 0.03063,-1.679216 -3.527217,-0.07369 c -4.567056,-0.09542 -25.329579,-0.09545 -29.46649,-5.2e-5 l -3.193246,0.07364 0.03063,1.672469 0.03063,1.672469 0.89048,0.196385 c 1.276268,0.281467 5.129956,0.8235 8.236939,1.15855 4.091209,0.441188 9.459437,0.541652 14.247679,0.266641 z M 38.208261,15.2088 C 38.038207,14.927697 36.309812,12.925673 35.386249,11.940024 34.863293,11.381912 34.110666,10.493848 33.713745,9.966549 l -0.721675,-0.958724 -3.040777,-0.0023 -3.040777,-0.0023 0.219317,0.306103 c 0.120625,0.168356 0.355478,0.431326 0.521895,0.584377 0.336452,0.309429 2.053098,2.16673 3.837657,4.152099 l 1.168755,1.300271 2.817146,9.25e-4 c 2.224588,7.16e-4 2.799442,-0.02836 2.732975,-0.138227 z m 3.299023,0.09771 c 0,-0.124038 -1.308092,-2.193857 -1.782699,-2.820799 -0.305146,-0.403088 -0.554811,-0.771929 -0.554811,-0.819647 0,-0.168854 0.352921,-0.436591 0.575497,-0.436591 0.124116,0 0.364623,0.148754 0.534459,0.330565 0.487885,0.522282 1.973335,2.813483 2.221267,3.426147 l 0.146395,0.361758 h 8.666414 8.666412 l 0.238179,-0.466866 c 0.841263,-1.649019 3.040275,-4.235042 4.477573,-5.265599 0.341532,-0.244882 0.623371,-0.482807 0.626311,-0.528722 0.0029,-0.04592 -6.96051,-0.08348 -15.474329,-0.08348 H 34.368286 l 0.225777,0.306103 c 0.243772,0.330498 0.940201,1.146866 2.516476,2.949859 0.550985,0.630233 1.302327,1.580431 1.66965,2.111551 l 0.66786,0.965673 1.029618,0.0057 c 0.566289,0.0032 1.029617,-0.0129 1.029617,-0.03569 z m 22.05472,-0.466311 c 0.8924,-1.786859 3.614408,-3.974265 6.663257,-5.354598 l 1.057444,-0.478747 -2.304018,-0.0018 -2.304018,-0.0018 -0.294594,0.386234 c -0.162028,0.21243 -0.831306,0.833908 -1.487285,1.381064 -1.253162,1.04527 -2.101153,2.000161 -2.928176,3.297307 -0.273223,0.428544 -0.580022,0.847915 -0.681773,0.931937 -0.347224,0.286727 -0.18491,0.348128 0.920292,0.348128 h 1.105291 z m 6.440636,0.410468 c 0,-0.10192 2.494922,-2.916702 4.447947,-5.018192 L 75.592949,9.003273 H 74.291323 72.989696 L 72.28911,9.521808 c -0.385322,0.285194 -1.370469,0.863901 -2.189213,1.286016 -1.720142,0.886839 -2.871625,1.586044 -3.583903,2.17622 -0.510745,0.42319 -1.967543,2.105722 -1.967543,2.272418 0,0.05032 1.227193,0.09148 2.727095,0.09148 1.499901,0 2.727094,-0.04377 2.727094,-0.09728 z M 76.6206,7.37579 C 76.933987,7.255531 77.113781,6.728059 77.19127,5.701546 77.320883,3.984608 76.762598,2.8341994 75.518675,2.2549614 l -0.56274,-0.262042 -23.709028,0.0013 c -22.958921,0.0013 -23.723596,0.008 -24.169516,0.210459 -0.648163,0.294322 -1.318603,0.9342 -1.620069,1.5462176 -0.223057,0.452834 -0.2543,0.671211 -0.236848,1.655459 0.01952,1.100995 0.103084,1.438346 0.456691,1.843729 0.160889,0.184447 1.513453,0.194793 25.466582,0.194793 13.913166,0 25.377748,-0.03111 25.476853,-0.06914 z M 1.9658415,41.088377 c -0.352806,-0.37154 -1.08807898,-2.510202 -1.40869898,-4.097433 -0.12291,-0.60847 -0.301101,-1.817921 -0.39598,-2.687666 -0.456446,-4.184249 0.04932,-7.771692 1.61116298,-11.428164 0.758611,-1.776004 1.769565,-3.788511 2.016891,-4.015031 0.08981,-0.08226 0.108204,-0.08165 0.0617,0.0021 -0.03644,0.06558 -0.191535,1.117457 -0.344659,2.33751 -0.201325,1.604098 -0.359662,2.43401 -0.571875,2.997449 -0.582881,1.547583 -1.276003,5.335021 -1.273146,6.956876 0.0042,2.405461 0.644216,6.334513 1.328545,8.156389 0.247218,0.658163 0.449487,1.242232 0.449487,1.297924 0,0.0557 -0.129677,0.255377 -0.28817,0.443733 -0.370468,0.440278 -0.789507,0.453135 -1.185256,0.03639 z"
       id="path1" /></g></svg>
