<?xml version="1.0" encoding="UTF-8" standalone="no"?>
<!-- Created with Inkscape (http://www.inkscape.org/) -->

<svg
   width="73.318321mm"
   height="43.077488mm"
   viewBox="0 0 73.318323 43.077488"
   version="1.1"
   id="svg1"
   xml:space="preserve"
   xmlns="http://www.w3.org/2000/svg"
   xmlns:svg="http://www.w3.org/2000/svg"><defs
     id="defs1" /><g
     id="layer1"
     transform="translate(-53.658177,-7.1514874)"><path
       id="path1"
       style="fill:#000000;stroke-width:1"
       d="m 75.64753,14.322123 -0.507462,0.82889 c -0.278997,0.455891 -0.796842,1.561734 -1.150834,2.457731 -1.011553,2.560409 -1.758565,3.468046 -4.178557,5.07721 -1.168046,0.776718 -1.527358,1.233556 -1.282092,1.630391 0.250379,0.405122 4.008635,2.048382 5.69681,2.490804 l 1.760616,0.461471 -0.04806,2.055688 -0.04754,2.055689 c 0,0 -0.03369,1.095389 0.02894,1.1467 2.53e-4,1.71e-4 0.0013,3.79e-4 0.0016,5.17e-4 2.6e-4,1.03e-4 0.0013,4.47e-4 0.0015,5.16e-4 2.66e-4,3.5e-5 7.64e-4,0 0.001,0 0.029,0 0.05219,2.426526 0.05219,5.391919 0,4.124981 0.05053,5.424276 0.214457,5.530412 0.240171,0.155447 1.260567,0.436891 11.017932,3.040125 3.772635,1.006525 8.449065,2.259427 10.392131,2.784326 l 3.533109,0.954463 5.98413,-2.698543 c 3.29149,-1.484155 7.45085,-3.347332 9.24285,-4.140316 1.79202,-0.792984 3.58599,-1.592312 3.98684,-1.776635 l 0.72916,-0.33538 v -7.289995 -7.290511 h 0.58187 c 1.14338,0 2.8206,-0.658999 3.56051,-1.398881 2.30225,-2.302257 2.35236,-6.148767 0.0956,-7.346838 l -0.80771,-0.428915 v -0.735355 c -6.4e-4,-1.053468 -0.47941,-1.85368 -1.93735,-3.238562 l -1.28054,-1.215947 c 0,0 -1.11009,-0.561687 -1.18701,-0.569991 -0.0769,-0.0086 -2.99518,-0.616588 -6.48487,-1.351855 -3.48969,-0.7352829 -8.32665,-1.7429118 -10.7487,-2.23914 L 98.464226,7.2698405 c 0,0 -1.033103,-0.3484264 -2.127519,0.1503784 -0.02179,0.020417 -2.663696,0.8594721 -5.870443,1.8650025 -3.206748,1.0055126 -7.570796,2.4027206 -9.698116,3.1042036 -2.127303,0.701483 -4.164291,1.300989 -4.282203,1.36182 -0.586471,0.302563 -0.838415,0.570878 -0.838415,0.570878 z m 22.449793,-6.1076373 3.215307,0.6712768 c 1.76842,0.36904 6.4143,1.3282525 10.32392,2.1311365 3.9096,0.802883 7.12488,1.476131 7.1453,1.496549 0.0204,0.02042 -2.25265,0.880744 -5.05086,1.912028 -2.79819,1.031266 -6.85596,2.55556 -9.01753,3.386873 -2.16157,0.831314 -3.97489,1.504959 -4.02973,1.497067 -0.0547,-0.0086 -0.56272,-0.119034 -1.128615,-0.246497 -0.565905,-0.12748 -1.125446,-0.237046 -1.243335,-0.242879 -0.166599,-0.0086 -0.214457,-1.190669 -0.214457,-5.308203 z M 96.95269,8.3488444 c 0.06347,7.592e-4 0.115755,2.2767466 0.115755,5.0586056 0,3.944656 -0.04729,5.053886 -0.214457,5.036385 -0.117872,-0.01201 -3.91831,-0.85864 -8.445479,-1.880505 -4.527169,-1.021847 -8.655378,-1.950976 -9.174117,-2.064473 L 78.291297,14.292668 81.37793,13.286011 C 86.008685,11.776205 96.818006,8.3497743 96.95269,8.3488444 Z m 23.4704,4.6271076 0.62684,0.501778 c 1.14642,0.917941 2.10528,2.017215 2.33009,2.671155 0.26978,0.784748 0.12595,1.545808 -0.60772,3.217375 -0.28415,0.647402 -0.49238,1.383759 -0.46302,1.636076 0.0552,0.475108 0.17562,0.542062 1.61127,0.892452 1.08323,0.26438 1.43848,1.415626 0.77308,2.506823 -0.53251,0.873281 -1.55997,1.249259 -3.89898,1.426787 -3.74226,0.284076 -5.71921,1.33423 -7.5675,4.018876 -0.32254,0.468519 -0.79641,0.910793 -1.11466,1.040246 -1.32832,0.540323 -2.79898,0.415665 -3.92999,-0.332796 -0.99772,-0.66027 -2.10054,-2.280863 -2.6262,-3.859196 -0.45222,-1.357927 -2.13216,-4.343326 -3.27164,-5.814115 -0.31264,-0.403556 -0.55165,-0.753464 -0.54467,-0.794784 9e-5,-2.89e-4 4e-4,-7.83e-4 5.2e-4,-10e-4 v -5.17e-4 l 5.2e-4,-5.17e-4 v -5.17e-4 c 0.0592,-0.05508 5.28688,-2.046207 9.64644,-3.674194 1.98064,-0.739607 4.82397,-1.814414 6.31848,-2.389001 z m -43.944086,2.048454 v 10e-4 c 0.49573,-0.0051 1.983614,0.298379 5.511292,1.106393 3.058525,0.700557 8.261539,1.865804 11.562601,2.589506 3.301062,0.723702 6.101504,1.34701 6.222876,1.384928 0.143607,0.04478 -0.103925,0.504011 -0.709,1.315165 -1.156516,1.550331 -1.352909,1.942108 -1.809709,3.616317 -0.479603,1.757851 -0.866826,2.487116 -1.741496,3.27732 -0.813436,0.734889 -1.692887,1.164861 -3.166731,1.548742 -1.219673,0.317688 -3.953909,0.323655 -5.654952,0.01189 -2.510103,-0.458859 -4.296445,-1.075498 -8.441346,-2.915585 -0.796141,-0.353444 -2.290096,-0.811183 -3.429764,-1.050581 -1.341284,-0.28176 -2.522936,-0.66181 -3.519682,-1.132748 -0.81881,-0.386874 -1.4899,-0.749299 -1.500167,-0.808736 V 23.9675 c 1.72e-4,-0.05508 0.361885,-0.328856 0.804085,-0.608231 1.232489,-0.778692 2.849103,-2.374408 3.364136,-3.320728 0.254857,-0.468227 0.65728,-1.365803 0.894002,-1.99471 0.396269,-1.05285 1.058684,-2.440873 1.416451,-2.968294 0.02162,-0.03191 0.08301,-0.04961 0.197404,-0.05116 z m 48.298346,3.098519 c 0.009,-4.11e-4 0.0183,-3.26e-4 0.0274,0 0.17518,0.0051 0.37562,0.145108 0.632,0.401526 0.48708,0.4871 0.68824,1.539048 0.53227,2.787426 -0.12543,1.0033 -0.25807,1.141737 -0.52245,0.545704 -0.15047,-0.339409 -0.56406,-0.675167 -1.54823,-1.256771 l -0.30541,-0.180351 0.41238,-1.148767 c 0.27795,-0.77502 0.4934,-1.136242 0.77205,-1.148767 z m -24.35304,3.08715 c 0.0405,0.0017 0.0739,6.251552 0.0739,13.890108 0,7.639584 -0.0578,13.883409 -0.12867,13.875122 -0.20126,-0.02368 -14.547276,-3.875349 -21.907194,-5.881811 l -1.37201,-0.374138 -0.04444,-7.575248 -0.04444,-7.575248 0.644922,0.234094 c 0.354662,0.128681 1.4164,0.578794 2.359546,1.000456 3.825858,1.710428 7.111729,2.445133 10.288777,2.300118 2.276607,-0.103974 3.747069,-0.527555 5.201233,-1.498617 1.312769,-0.876643 1.909772,-1.782897 2.670122,-4.053499 0.501079,-1.496375 1.980404,-4.34023 2.258254,-4.341337 z m 1.10278,0.344682 c 0.27996,0.0034 2.56188,3.919133 3.11557,5.34696 0.76901,1.983026 1.26824,2.817011 2.3089,3.857646 1.06151,1.061515 2.07895,1.481445 3.59255,1.48208 1.62311,6.52e-4 2.36481,-0.423596 3.92017,-2.245341 0.6656,-0.779601 1.47637,-1.609341 1.80144,-1.843815 0.69474,-0.501101 2.02639,-1.02139 3.05253,-1.192176 l 0.72915,-0.121439 0.0284,6.617167 c 0.0154,3.639458 0.035,6.742072 0.0429,6.89467 0.0103,0.200845 -0.9326,0.689773 -3.4153,1.770951 -1.88633,0.821465 -5.43618,2.404957 -7.8884,3.518648 -2.45221,1.113691 -5.06343,2.284599 -5.80275,2.601909 -0.73931,0.31731 -1.40309,0.576709 -1.47536,0.576709 -0.0722,0 -0.12347,-6.134344 -0.11369,-13.632243 0.0103,-7.497933 0.0567,-13.632189 0.10387,-13.631726 z M 62.195638,33.242416 c -0.187188,0 -0.54473,0.219013 -0.794783,0.486275 -0.659207,0.704589 -1.054144,0.87096 -2.921786,1.233 -2.150945,0.416961 -2.551157,0.577028 -2.797762,1.118278 -0.162996,0.357527 -0.148346,0.590132 0.077,1.197859 l 0.279569,0.753959 -1.189591,1.274341 c -0.654438,0.70078 -1.190108,1.402986 -1.190108,1.560629 0,0.409788 0.290489,0.903395 1.163753,1.978173 l 0.765845,0.942578 -0.104387,1.234034 -0.104386,1.23455 0.431498,0.51263 c 0.50618,0.601575 1.109002,0.812868 2.692859,0.942578 0.750296,0.06142 1.566249,0.27638 2.315104,0.610299 1.895883,0.845366 3.223074,0.678062 4.243669,-0.534851 l 0.470255,-0.558623 1.070219,0.04806 1.069702,0.04806 0.464055,-0.551387 c 0.612196,-0.727545 1.813079,-3.129485 1.811775,-3.623551 -6.18e-4,-0.214314 -0.154721,-0.620877 -0.342098,-0.903821 -0.408605,-0.616982 -0.428122,-1.040394 -0.08578,-1.859835 0.492659,-1.179095 0.315673,-1.919072 -0.731739,-3.057178 -0.242743,-0.263745 -0.485998,-0.810967 -0.572575,-1.286743 -0.255852,-1.405934 -1.257541,-1.991528 -2.750736,-1.608687 l -0.828377,0.212388 -1.050582,-0.701249 c -0.577623,-0.385734 -1.203408,-0.701766 -1.390613,-0.701766 z m 0.179317,1.081071 v 5.16e-4 c 0.442028,-0.01029 1.974394,1.129398 2.672705,2.009697 l 0.608749,0.767395 -0.421163,0.08578 c -0.512372,0.104326 -0.392594,0.338245 0.426847,0.835091 0.723582,0.438716 1.372009,0.480653 1.372009,0.08837 0,-0.152358 -0.347638,-0.799725 -0.772045,-1.438155 -0.424424,-0.638412 -0.77153,-1.208012 -0.77153,-1.266073 0,-0.167285 1.019565,-0.122958 1.360124,0.05943 0.176379,0.09437 0.35398,0.446816 0.413928,0.821655 0.06005,0.375371 0.402572,1.055592 0.800985,1.589567 0.383041,0.513403 0.738293,1.097764 0.788582,1.298112 0.09968,0.396921 -0.338408,1.613338 -0.580843,1.613338 -0.08253,0 -0.298945,-0.280687 -0.480591,-0.623734 -0.358145,-0.676347 -0.56877,-0.768691 -0.825789,-0.361218 -0.264242,0.418882 0.33813,1.731461 1.192692,2.598291 0.418247,0.424253 0.760677,0.854632 0.760677,0.95653 0,0.241096 -0.807449,1.840359 -1.23455,2.445846 -0.250773,0.355503 -0.474533,0.471806 -0.910539,0.471806 -0.318116,0 -0.613898,-0.05781 -0.657324,-0.128675 -0.04341,-0.07069 0.135745,-0.601669 0.398426,-1.179773 0.305352,-0.671989 0.424994,-1.13596 0.331245,-1.286226 -0.266798,-0.427632 -0.705398,0.07158 -1.296044,1.475879 -0.622146,1.479128 -1.225464,2.235612 -2.070675,2.597257 -0.697177,0.298299 -0.601984,0.308117 -2.020032,-0.207739 -1.880252,-0.683965 -2.172979,-0.756543 -3.051493,-0.756543 -0.930106,0 -1.734663,-0.347666 -2.014347,-0.870231 -0.263642,-0.492625 0.0185,-1.683306 0.769978,-3.251481 0.652223,-1.360964 0.755078,-1.95877 0.363802,-2.108915 -0.29842,-0.11444 -0.442649,0.05745 -1.02681,1.221114 -0.250327,0.498648 -0.528833,0.861122 -0.618567,0.805635 -0.08973,-0.05542 -0.399729,-0.445122 -0.689364,-0.866097 l -0.526583,-0.765328 0.3483,-0.489375 c 0.191648,-0.269273 0.814162,-0.920948 1.383378,-1.447974 1.444435,-1.337288 2.376178,-1.470572 3.751709,-0.535885 0.339872,0.230957 0.676886,0.42013 0.749308,0.42013 0.224848,0 0.145057,-0.730388 -0.111104,-1.015442 l -0.243913,-0.270785 0.76171,-1.593184 c 0.418934,-0.876232 0.873892,-1.635716 1.010791,-1.688269 0.01544,-0.0069 0.0354,-0.01034 0.05736,-0.01034 z m -1.763716,1.226281 c 1.6e-4,-0.02716 0.04498,0.0071 0.05219,0.01395 0.03311,0.03174 -0.11166,0.363974 -0.321944,0.737939 l -0.382406,0.680062 -1.306897,0.07441 c -0.718901,0.04093 -1.442082,0.133889 -1.607137,0.206706 -0.176825,0.07807 -0.30024,0.06074 -0.30024,-0.04289 0,-0.0966 -0.04691,-0.298336 -0.104386,-0.448035 -0.07498,-0.195183 0.06255,-0.34223 0.485241,-0.518831 0.552487,-0.230837 3.078327,-0.731179 3.485576,-0.7028 z m 3.433899,2.631881 c -0.09067,0.0018 -0.180379,0.01352 -0.269235,0.03617 -0.875152,0.223078 -2.29861,0.876235 -2.82205,1.769401 -0.431167,0.735746 -0.563765,1.315165 -0.301273,1.315165 0.07429,0 0.517948,-0.391763 0.985986,-0.870748 0.468039,-0.478985 1.059447,-0.980592 1.314132,-1.114661 0.564447,-0.297167 1.326228,-0.306725 1.701188,-0.02119 0.502919,0.382886 1.179773,1.531196 1.179773,2.001945 0,0.254068 0.05124,0.513327 0.114205,0.576192 0.222344,0.222344 0.532648,0.109745 0.620117,-0.224792 0.334957,-1.280891 -1.162881,-3.494399 -2.522843,-3.467489 z m -4.428671,3.78995 c -0.08459,6.52e-4 -0.128157,0.05364 -0.128157,0.15968 0,0.07858 0.578129,0.764482 1.284159,1.524455 l 1.283126,1.381827 -0.554488,0.09715 c -0.30518,0.05319 -1.11607,0.148633 -1.801957,0.21239 -1.289504,0.119759 -1.515013,0.238029 -1.33687,0.702283 l 0.104387,0.272335 1.3255,-0.115755 c 0.728969,-0.06365 1.809105,-0.197683 2.399854,-0.298174 0.590766,-0.100543 1.261104,-0.135854 1.489831,-0.07855 0.716787,0.179896 0.652819,-0.20735 -0.114205,-0.69143 -0.404316,-0.2552 -1.366126,-1.068099 -2.137337,-1.806608 -0.936385,-0.896906 -1.813843,-1.613122 -1.813843,-1.359607 z" /></g></svg>
