<?xml version="1.0" encoding="UTF-8" standalone="no"?>
<!-- Created with Inkscape (http://www.inkscape.org/) -->

<svg
   width="71.76432mm"
   height="110.77489mm"
   viewBox="0 0 71.764323 110.77489"
   version="1.1"
   id="svg1"
   xml:space="preserve"
   xmlns="http://www.w3.org/2000/svg"
   xmlns:svg="http://www.w3.org/2000/svg"><defs
     id="defs1" /><g
     id="layer1"><path
       style="fill:#000000;stroke-width:1"
       d="m 0.78720008,110.58931 c -0.80533526,-0.38909 -0.81888964,-0.54369 -0.77202205,-8.80527 L 0.05845562,94.155308 0.64045629,92.942444 C 1.1695171,91.839907 1.2074744,91.679571 1.0577441,91.179815 0.94850688,90.815218 0.89303131,87.989577 0.89303131,82.790187 c 0,-8.629372 -0.0443604,-8.196218 0.98631719,-9.630846 C 2.1921917,72.723887 2.4225981,72.345606 2.3913627,72.31872 2.3601271,72.291822 2.1772792,72.187948 1.9850339,72.087859 1.7927885,71.98777 1.502839,71.688318 1.3407017,71.422405 1.0586491,70.959829 1.0458821,70.592623 1.0453395,62.927056 1.0447169,54.134326 0.98352748,54.761268 1.9852301,53.297025 L 2.4277871,52.650115 1.8880207,52.14105 1.3482543,51.631985 V 43.377608 35.123231 L 1.9705374,34.063452 C 2.3127932,33.480573 3.1412287,32.047704 3.8115053,30.879299 6.9136087,25.471805 10.67882,19.159407 11.007074,18.815887 l 0.362493,-0.379353 4.093806,-0.0449 4.093805,-0.0449 8.6e-4,-1.320767 c 4.66e-4,-0.726422 0.0766,-1.593901 0.169186,-1.927732 0.09259,-0.33383 1.087308,-2.928601 2.210491,-5.7661585 1.123184,-2.837561 2.317913,-5.910317 2.654954,-6.8283496 C 25.0041,1.3830707 25.350284,0.69745165 25.646157,0.41728715 L 26.086844,0 h 10.462589 c 9.380708,0 10.516513,0.02571616 10.984072,0.24867769 0.286817,0.13677396 0.593029,0.40570226 0.680472,0.59762029 0.08744,0.19191802 1.425613,3.53227872 2.973709,7.42302382 l 2.81472,7.0740832 v 1.42469 1.42469 l 3.411952,0.04601 3.41195,0.04601 0.526511,0.531094 c 0.487334,0.491573 3.236445,5.20348 6.99401,11.987541 0.855171,1.543965 1.734814,3.124153 1.954755,3.51153 l 0.399902,0.704322 -0.04169,8.352328 -0.04169,8.352328 -0.42832,0.446982 -0.428325,0.446982 0.542127,1.076517 0.542132,1.076517 v 8.285346 8.285352 l -0.418747,0.418743 c -0.230316,0.23031 -0.513899,0.450463 -0.630195,0.489226 -0.158255,0.05276 -0.05293,0.333301 0.418747,1.11535 0.346607,0.574673 0.638649,1.185742 0.648989,1.357927 0.08402,1.399362 -0.07984,16.604421 -0.180999,16.79478 -0.08961,0.168629 0.05908,0.674866 0.475192,1.617819 l 0.605615,1.372391 -0.04204,7.67297 -0.04204,7.67296 -0.420715,0.42064 -0.420715,0.42064 -16.835254,0.0399 -16.835251,0.0399 -0.497737,-0.44489 -0.497736,-0.44489 v -7.94075 c 0,-7.75356 0.0076,-7.958646 0.322011,-8.699466 0.177107,-0.417285 0.372192,-0.878197 0.433523,-1.024253 0.07898,-0.188065 0.04139,-0.265546 -0.128838,-0.265546 -0.132191,0 -0.349735,-0.166943 -0.483432,-0.370992 l -0.243085,-0.370992 -0.430603,0.490425 -0.430603,0.490431 0.328772,0.90482 c 0.318576,0.876752 0.330153,1.144535 0.373298,8.634213 0.03283,5.69851 -0.0027,7.84338 -0.135179,8.16323 -0.381208,0.92032 0.539497,0.87572 -17.845187,0.86449 -11.5290263,-0.007 -16.9176409,-0.0609 -17.14629158,-0.17137 z m 6.45482412,-1.69537 c 1.7906139,-2.76879 4.9586748,-5.03145 7.9146638,-5.65272 1.321716,-0.27779 3.32208,-0.20114 4.40049,0.16863 0.375558,0.12877 0.477984,0.19272 0.227611,0.1421 -0.250373,-0.0506 -1.274624,-0.12642 -2.276115,-0.16845 -2.643655,-0.11095 -4.25173,0.36258 -6.489866,1.91107 -1.3645172,0.94407 -2.2889696,1.88513 -3.2928508,3.35201 l -0.7788481,1.13805 2.1539062,0.0422 2.1539067,0.0422 0.774889,-0.82241 c 1.589425,-1.6869 3.977175,-2.28966 6.365602,-1.6069 0.919443,0.26282 0.583222,0.28594 -0.583257,0.0401 -1.923974,-0.40548 -3.977125,0.1748 -5.348872,1.51178 -0.354694,0.34571 -0.644899,0.68262 -0.644899,0.7487 0,0.0661 3.960441,0.12015 8.80098,0.12015 5.543342,0 8.80098,-0.0541 8.80098,-0.14619 0,-0.27387 -1.88927,-2.16686 -3.108718,-3.11484 -0.668746,-0.51987 -1.591461,-1.15899 -2.050478,-1.42027 -0.985994,-0.56124 -0.906107,-0.6346 0.123116,-0.11305 1.46398,0.74185 3.986677,2.8917 5.136175,4.37706 l 0.322934,0.41729 h 2.438614 c 2.255687,0 2.450398,-0.022 2.595695,-0.29351 0.09752,-0.18222 0.157079,-1.9004 0.157079,-4.53176 0,-4.88411 0.115939,-4.47405 -1.630532,-5.766853 -1.333877,-0.987382 -3.75399,-2.325884 -6.071846,-3.35819 -1.01846,-0.453588 -1.824202,-0.852252 -1.790537,-0.885917 0.03366,-0.03366 0.727971,0.223663 1.542904,0.571841 3.33369,1.42431 6.014898,2.966655 7.108296,4.088996 0.329904,0.338643 0.643678,0.615703 0.697277,0.615703 0.07594,0 0.08508,-5.008137 0.01004,-5.50061 -0.0095,-0.06259 -2.206441,-0.113807 -4.882009,-0.113807 -3.194638,0 -4.83257,0.05196 -4.77117,0.151286 0.06214,0.100548 -0.03994,0.100548 -0.304405,0 -0.245794,-0.09345 -3.389755,-0.151286 -8.224296,-0.151286 H 8.8920882 L 7.5100923,95.228045 C 5.3840955,96.061372 4.1378,96.641649 2.5242473,97.549462 l -1.4794751,0.83238 v 2.320008 2.32 l 1.324272,-1.06244 c 1.8406194,-1.4768 3.3732461,-2.476934 4.9729806,-3.245196 6.5847692,-3.162285 13.9098082,-2.875289 20.9653232,0.821415 1.432332,0.750461 3.405464,2.012501 3.698528,2.365621 0.09125,0.10995 -0.495508,-0.24232 -1.303901,-0.78283 C 27.999492,99.311513 24.554973,97.882752 21.33676,97.233803 19.066,96.775907 14.85389,96.743619 12.880572,97.168985 8.7867374,98.051449 5.2919051,99.752977 2.18283,102.3774 l -1.0621873,0.8966 -0.041185,3.09948 c -0.022652,1.70471 -0.00772,3.18667 0.033173,3.29325 0.056491,0.14721 0.7267164,0.19378 2.7893295,0.19378 h 2.7149714 z m 15.2826018,-0.0172 c -0.551483,-0.80073 -1.165853,-1.42762 -2.132873,-2.17633 -0.605875,-0.4691 -0.167556,-0.24567 0.647499,0.33006 0.609087,0.43023 1.581873,1.57343 1.988529,2.33688 0.314437,0.59032 0.09178,0.37322 -0.503155,-0.49061 z m 10.903599,-0.26647 c -0.40888,-0.5225 -1.358426,-1.55518 -2.110102,-2.29484 -4.260954,-4.19284 -8.803875,-6.1645 -14.206861,-6.16586 -3.834428,-10e-4 -7.3790336,1.05261 -10.3705544,3.08251 -1.4894168,1.01064 -3.3662308,2.93083 -4.4376002,4.54015 -0.5423833,0.81472 -1.0182624,1.48131 -1.0575092,1.48131 -0.1101546,0 0.8516097,-1.66355 1.4036331,-2.42785 0.6282578,-0.86985 2.8146761,-2.99034 3.7103403,-3.59846 1.9516949,-1.32513 3.8655004,-2.2027 6.2511814,-2.86647 1.91772,-0.533566 5.588824,-0.675866 7.629259,-0.29573 2.979881,0.55516 5.87553,1.78768 8.325885,3.5439 1.409143,1.00996 4.160546,3.66893 5.099176,4.92787 0.890833,1.19483 0.689522,1.25728 -0.236848,0.0735 z m -15.69194,-2.84677 -0.531093,-0.11179 0.531093,-0.009 c 0.292101,-0.005 0.667661,0.0494 0.834576,0.1211 l 0.303482,0.13041 -0.303482,-0.009 c -0.166915,-0.005 -0.542475,-0.0596 -0.834576,-0.1211 z m -1.100122,-0.25224 c 0.104321,-0.0421 0.275031,-0.0421 0.379352,0 0.104322,0.0421 0.01897,0.0765 -0.189676,0.0765 -0.208644,0 -0.293998,-0.0345 -0.189676,-0.0765 z m 27.255506,4.07865 c -0.177885,-0.14327 -0.451018,-0.34949 -0.606964,-0.45825 -0.155947,-0.10878 0.108057,0.0107 0.586674,0.26554 l 0.870212,0.46331 h 12.79407 c 9.748621,0 12.837411,-0.0434 12.976154,-0.18209 0.100152,-0.10015 0.18209,-0.54931 0.18209,-0.99814 v -0.81605 l -0.591438,0.50625 c -0.325294,0.27844 -0.88863,0.66429 -1.251862,0.85746 -0.363232,0.19316 -0.52386,0.24498 -0.356941,0.11514 0.166915,-0.12984 0.72869,-0.56159 1.248393,-0.95944 l 0.944908,-0.72337 0.0034,-2.82045 0.0034,-2.82044 -1.327731,1.3064 c -1.817933,1.78872 -3.958844,3.20576 -5.879963,3.89187 -3.202895,1.14387 -6.457931,1.68396 -9.243216,1.53364 -5.677951,-0.30642 -10.934308,-2.56865 -14.665692,-6.31182 -1.286363,-1.29042 -2.412802,-2.801552 -2.22692,-2.987438 0.03644,-0.03642 0.310467,0.327411 0.608942,0.808558 1.178684,1.90005 4.456223,4.622 7.294524,6.05798 1.303105,0.65928 3.312032,1.32001 5.309429,1.74625 2.110038,0.45027 6.825691,0.49389 8.702833,0.0805 1.903684,-0.41923 4.20898,-1.10582 5.132445,-1.5286 1.379462,-0.63153 3.516495,-2.19445 4.9463,-3.61746 l 1.349049,-1.34265 v -3.485098 -3.485107 h -6.580234 -6.580235 l -0.370232,0.719415 c -0.497772,0.967276 -1.499027,1.592894 -2.679403,1.674189 -0.473419,0.03257 -1.020891,-0.0017 -1.216605,-0.07573 -0.26206,-0.09942 -0.0821,-0.132716 0.682835,-0.126316 0.863514,0.0072 1.155628,-0.06007 1.73216,-0.399007 0.599369,-0.352364 1.506764,-1.368055 1.506764,-1.686594 0,-0.05794 -4.523781,-0.08841 -10.052845,-0.06771 l -10.052843,0.03762 -0.04248,1.936185 c -0.02554,1.16423 0.02196,2.056587 0.119145,2.238178 0.118591,0.221592 0.114312,0.301998 -0.01607,0.301998 -0.244984,0 -0.06576,10.113787 0.184569,10.415417 0.135305,0.16303 0.877644,0.20539 3.529008,0.20141 3.197845,-0.005 3.342263,-0.0174 3.034231,-0.26555 z m -1.354659,-0.87583 c -0.282848,-0.22661 -0.280987,-0.22941 0.04687,-0.0705 0.18778,0.091 0.341418,0.19719 0.341418,0.23598 0,0.11612 -0.07869,0.0826 -0.388286,-0.16545 z m -3.504144,-2.31956 c -0.73845,-0.57098 -1.445061,-1.163 -1.570247,-1.31561 -0.125187,-0.15262 0.323172,0.1609 0.996353,0.69671 0.67318,0.53581 1.424298,1.12404 1.669151,1.30718 0.244853,0.18315 0.40068,0.33679 0.346282,0.34142 -0.0544,0.005 -0.70309,-0.45873 -1.441539,-1.0297 z m 13.207549,-0.17944 c -1.042202,-0.13117 -4.098853,-1.01445 -3.966968,-1.14634 0.0356,-0.0356 0.458277,0.0707 0.939277,0.23616 2.817776,0.96946 5.409653,0.99135 9.190157,0.0776 l 0.379354,-0.0917 -0.379354,0.21815 c -1.041068,0.59867 -4.168687,0.95704 -6.162466,0.7061 z m -0.817621,-3.34186 c -1.409113,-0.1907 -3.341169,-0.8258 -4.927385,-1.61972 -1.82291,-0.91238 -3.566183,-2.626621 -4.37185,-4.299032 -0.299401,-0.621501 -0.586721,-1.300714 -0.638488,-1.509356 -0.05176,-0.208643 0.208099,0.235196 0.57748,0.986315 1.909173,3.882203 6.055119,6.182963 11.181135,6.204863 1.525009,0.007 2.128482,-0.0582 3.079051,-0.33037 1.652811,-0.47317 3.196262,-1.28953 4.175799,-2.20864 1.011241,-0.948858 2.183173,-2.694058 2.627591,-3.912915 0.409256,-1.122421 0.552198,-1.072801 0.170091,0.05904 -0.437645,1.296343 -1.225165,2.498648 -2.465476,3.764015 -1.271654,1.29735 -2.653754,2.0659 -4.609183,2.56304 -1.347164,0.34249 -3.501061,0.47838 -4.798765,0.30276 z m 14.567708,-1.35847 c 1.879414,-1.880078 2.999248,-3.319185 3.719415,-4.779839 0.28804,-0.584205 0.524847,-0.93997 0.526235,-0.790594 0.0093,1.004341 -2.858307,4.697553 -5.066319,6.524803 -0.424626,0.3514 -0.05534,-0.0781 0.820669,-0.95437 z m -13.42965,-2.32878 c -1.117271,-0.288997 -2.007785,-0.729103 -3.07023,-1.517351 -0.897901,-0.666171 -1.862015,-1.771049 -1.860787,-2.132469 3.12e-4,-0.0918 0.126712,0.03797 0.280889,0.288315 0.412924,0.670559 1.649335,1.767149 2.601624,2.307418 1.300597,0.737871 2.413211,1.000223 3.930354,0.926751 1.122131,-0.05437 1.438542,-0.13466 2.26108,-0.573951 1.081378,-0.577536 2.260152,-1.77675 2.758629,-2.806469 0.389379,-0.804346 0.717719,-0.93728 0.392493,-0.158907 -0.585169,1.400498 -1.961431,2.748704 -3.50832,3.436783 -0.913905,0.406515 -2.686691,0.514169 -3.785732,0.22988 z m -1.611133,-3.267782 c -0.324012,-0.324016 -0.585531,-0.682499 -0.581154,-0.796645 0.0044,-0.11414 0.123008,-0.03682 0.263622,0.171829 0.140614,0.208643 0.45153,0.567132 0.690923,0.796639 0.239394,0.229507 0.385864,0.417286 0.325491,0.417286 -0.06037,0 -0.37487,-0.265099 -0.698882,-0.589109 z M 4.0037221,96.469143 c 0.7511184,-0.376939 1.9777704,-0.901362 2.7258939,-1.165377 0.7481235,-0.264015 1.3911261,-0.510928 1.4288946,-0.548699 0.037771,-0.0378 -1.5473719,-0.06867 -3.522534,-0.06867 H 1.0447722 v 1.743141 1.743136 L 1.8414127,97.663579 C 2.2795649,97.383581 3.2526042,96.846082 4.0037221,96.469143 Z M 34.579539,93.391726 c 0,-0.12787 -0.100407,-0.472796 -0.223126,-0.766507 l -0.223127,-0.534018 -2.697888,0.04577 -2.697888,0.04571 -0.06524,0.606962 -0.06524,0.606963 -0.0865,-0.606963 -0.0865,-0.606962 H 15.313357 2.1926877 l -0.3364233,0.599576 c -0.1850327,0.329762 -0.3027169,0.65411 -0.2615203,0.720769 0.041196,0.06665 7.4796283,0.121194 16.5298489,0.121194 14.678771,0 16.454946,-0.02512 16.454946,-0.232483 z m 35.659142,0.175723 c 0,-0.0312 -0.172029,-0.364563 -0.382295,-0.740762 L 69.474084,92.14268 53.666392,92.1748 37.858701,92.20692 37.596043,92.801758 c -0.144462,0.327158 -0.267722,0.646047 -0.273911,0.70864 -0.0062,0.06259 7.397502,0.113807 16.452648,0.113807 9.055147,0 16.463901,-0.02552 16.463901,-0.05678 z M 9.4388697,89.944493 c 3.0669933,-4.59798 7.7975453,-7.382116 12.5633883,-7.394091 1.752408,-0.0046 2.626741,0.181189 4.567259,0.969461 2.167215,0.880365 3.606564,1.799684 5.001086,3.1942 1.053429,1.053434 2.104436,2.628033 2.094446,3.137865 -0.0022,0.113504 -0.220234,-0.19216 -0.484467,-0.679253 -0.603174,-1.111908 -2.150123,-2.794006 -3.370197,-3.664633 -1.220949,-0.871247 -3.849241,-2.133524 -5.094013,-2.446471 -1.371532,-0.344816 -4.483653,-0.219516 -6.046519,0.243449 -2.717295,0.804932 -4.87176,2.141037 -7.010835,4.34781 -1.227639,1.266486 -2.7237125,3.16662 -2.7237125,3.459334 0,0.04628 1.2814325,0.0842 2.8476275,0.0842 h 2.847629 l 0.510507,-0.853514 c 1.524163,-2.548229 4.507111,-4.305576 7.299188,-4.300174 2.223099,0.004 3.7711,0.724836 5.690289,2.648598 0.751118,0.752909 1.490437,1.60749 1.642933,1.899074 l 0.277264,0.53014 -0.353135,-0.40082 c -0.194224,-0.220451 -0.670629,-0.806996 -1.05868,-1.303426 -1.34162,-1.716336 -3.174802,-2.789578 -5.288225,-3.096004 -2.734031,-0.396404 -5.776977,1.08723 -7.669527,3.739401 -0.371926,0.521206 -0.67623,0.990193 -0.67623,1.042187 0,0.05202 0.710459,0.09454 1.578797,0.09454 h 1.578795 l 0.453522,-0.796645 c 0.620353,-1.089685 1.181039,-1.578229 2.240983,-1.952639 1.100617,-0.388776 2.524292,-0.335818 3.584948,0.133364 0.807343,0.357124 1.944038,1.349077 2.410128,2.103225 l 0.316862,0.512695 h 3.639384 c 2.218539,0 3.753972,-0.06133 3.932891,-0.157085 0.27811,-0.148837 0.293506,-0.355157 0.293506,-3.933179 v -3.7761 L 34.010511,82.552036 C 31.069356,80.318091 26.302421,78.896797 22.440257,79.10228 19.438882,79.261968 16.990914,79.945499 13.866889,81.496177 9.6852884,83.5718 5.9604355,86.810769 4.238475,89.868623 3.7509524,90.734364 3.5419461,90.985699 3.7337311,90.475591 4.1995377,89.236627 5.7074258,87.288703 7.4611627,85.660401 11.52885,81.883658 16.701037,79.3888 21.468431,78.903863 c 4.328495,-0.440294 10.070546,1.203476 12.904245,3.694089 l 0.662086,0.581923 V 81.141554 79.103227 L 33.93464,78.561094 c -3.933769,-1.938542 -7.638299,-2.819246 -12.083066,-2.872588 -2.500194,-0.02999 -2.506915,-0.03097 -0.776986,-0.113807 2.632911,-0.12604 4.559981,0.05729 7.046844,0.670363 2.313528,0.570356 4.272507,1.256416 5.824225,2.039721 0.510791,0.257844 0.964799,0.46881 1.008908,0.46881 0.17546,0 0.07845,-3.582834 -0.101892,-3.763174 C 34.714123,74.851865 31.805591,74.80833 22.688564,74.80833 H 10.706543 l -1.6063885,0.848662 c -2.1768357,1.150029 -3.7177806,2.277251 -5.5814717,4.082916 l -1.5661697,1.517414 0.00135,2.162309 c 7.456e-4,1.189269 0.052565,2.161843 0.1151585,2.161275 0.062593,-5.73e-4 0.2747416,-0.237369 0.4714409,-0.526217 2.2404079,-3.289994 8.0482445,-7.622445 11.0683465,-8.25662 1.315017,-0.276133 1.252277,-0.179967 -0.197146,0.302165 -3.266704,1.08664 -7.2290712,3.951474 -10.125152,7.320595 l -1.3241729,1.540463 -0.00356,2.38132 c -0.00342,2.290763 0.00926,2.390296 0.3336843,2.617531 0.277506,0.194374 0.8663711,0.236218 3.3243109,0.236218 H 8.6038401 Z M 18.687555,75.765362 c 0.147639,-0.03848 0.352489,-0.03596 0.455223,0.0057 0.102733,0.04158 -0.01806,0.07304 -0.268435,0.06995 -0.250373,-0.0029 -0.334428,-0.03711 -0.186788,-0.07557 z m 8.060497,15.241322 c -0.06083,-0.104322 -0.375787,-0.510785 -0.699897,-0.903255 -1.591167,-1.926756 -4.830127,-2.172453 -6.44757,-0.489094 -0.351685,0.366014 -0.746069,0.871705 -0.876408,1.123751 l -0.23698,0.458275 h 4.18573 c 3.306413,0 4.162495,-0.03986 4.075125,-0.189677 z m 18.288973,0.131115 c -0.03477,-0.03223 -0.860589,-0.468063 -1.835144,-0.968571 -1.810993,-0.930083 -4.697134,-2.79131 -5.853068,-3.774546 l -0.644899,-0.548556 v 2.4389 c 0,2.348274 0.01253,2.447681 0.337245,2.675117 0.283782,0.198767 0.949319,0.236218 4.198169,0.236218 2.123508,0 3.832472,-0.02638 3.797697,-0.05856 z m 24.557554,-0.131115 c 0.173188,-0.21646 0.341823,-1.9347 0.189883,-1.9347 -0.05488,0 -0.251472,0.161403 -0.436796,0.358673 -0.185324,0.19727 -0.658142,0.582405 -1.050704,0.855848 -0.587939,0.409543 -0.506455,0.299515 0.462306,-0.624219 l 1.17605,-1.121394 -5.7e-5,-2.617532 c -3.5e-5,-1.439646 -0.03292,-2.617537 -0.07312,-2.617537 -0.0402,0 -0.501098,0.426772 -1.024254,0.948384 -2.563976,2.556401 -5.459029,4.047537 -9.704226,4.998295 -2.241203,0.501935 -6.406111,0.503673 -8.883488,0.0034 -1.871216,-0.377644 -4.325978,-1.182117 -5.656442,-1.853731 -1.592085,-0.803688 -3.675574,-2.316273 -5.181549,-3.76174 -1.441894,-1.383964 -2.672195,-2.849424 -2.519978,-3.001639 0.04008,-0.04009 0.266889,0.185054 0.504024,0.500289 2.063179,2.7427 5.377836,5.37208 8.213702,6.515594 5.696754,2.297118 12.482112,2.289306 17.848743,-0.02053 2.218002,-0.954653 4.721405,-2.742419 5.863583,-4.187382 l 0.618209,-0.7821 -0.04055,-2.63812 c -0.02231,-1.450968 -0.07471,-2.635431 -0.116445,-2.632139 -0.04175,0.0034 -0.519709,0.702291 -1.062186,1.553339 -1.05126,1.649241 -3.573577,4.342888 -4.556337,4.865831 l -0.526986,0.280418 0.531093,-0.416747 c 1.34871,-1.058319 3.341472,-3.282825 4.519265,-5.044829 1.178545,-1.763123 1.246895,-1.910463 1.246895,-2.687792 0,-0.654885 -0.05918,-0.854087 -0.290522,-0.977902 -0.459439,-0.245881 -31.992368,-0.207519 -32.485544,0.03951 l -0.379352,0.190027 -0.03202,5.230629 -0.03202,5.230624 1.081058,0.834577 c 1.940698,1.498218 3.650287,2.577202 5.782933,3.649813 l 2.095967,1.054162 h 11.883568 c 9.324752,0 11.91624,-0.04083 12.035324,-0.189677 z M 50.967571,87.029803 c -1.208793,-0.19805 -4.039032,-1.101195 -3.896751,-1.243477 0.03552,-0.0355 0.530537,0.110802 1.100037,0.325163 2.449335,0.921927 6.079471,1.114477 8.5472,0.453359 0.784231,-0.2101 1.456723,-0.351143 1.494436,-0.313435 0.03774,0.03774 -0.501505,0.249253 -1.198258,0.470095 -1.577398,0.499968 -4.093728,0.628262 -6.046664,0.308295 z m -0.151742,-3.266984 c -1.337438,-0.214384 -3.307333,-0.889382 -4.779842,-1.63784 -1.941988,-0.98709 -3.525167,-2.593065 -4.52022,-4.585311 -0.395998,-0.792848 -0.754658,-1.680531 -0.797022,-1.972637 -0.09375,-0.646397 0.06527,-0.370418 0.542743,0.941897 0.759343,2.087047 2.683034,4.289793 4.633745,5.30592 4.185871,2.180425 8.338345,2.380557 12.005346,0.578596 2.223312,-1.092529 3.872335,-3.001478 4.787393,-5.541999 0.255441,-0.70919 0.489318,-1.264559 0.519725,-1.234152 0.0304,0.0304 -0.0883,0.526597 -0.263808,1.102641 -0.781464,2.564935 -2.697267,4.845346 -4.996231,5.947097 -0.709388,0.339971 -1.6995,0.72713 -2.200243,0.860362 -1.097708,0.292065 -3.779526,0.42009 -4.931586,0.235426 z m 1.102331,-3.564201 c -1.523422,-0.429059 -3.782332,-1.861388 -4.372098,-2.772252 -0.20888,-0.322605 -0.109065,-0.270014 0.438109,0.230849 1.835688,1.680308 3.643203,2.499514 5.562997,2.521273 1.152083,0.01308 1.3993,-0.03716 2.315345,-0.470157 1.314558,-0.621398 2.55825,-1.796444 3.145736,-2.972104 0.251249,-0.502801 0.456823,-1.005706 0.456823,-1.117557 0,-0.111857 0.07288,-0.203378 0.161965,-0.203378 0.203802,0 0.08008,0.441625 -0.416654,1.487179 -0.530284,1.116181 -1.648565,2.180482 -2.985143,2.841056 -0.931717,0.460482 -1.320494,0.563897 -2.316153,0.616104 -0.775098,0.04066 -1.476288,-0.01606 -1.990927,-0.161013 z m 1.773875,-2.217743 c 1.185724,-0.232432 2.270303,-0.864354 2.715386,-1.582095 0.783391,-1.263298 0.762734,-1.237559 0.772609,-0.962704 0.0052,0.136621 -0.213001,0.580466 -0.484237,0.986321 -0.611951,0.915671 -2.077341,1.733857 -3.058363,1.707607 l -0.621355,-0.01663 z m -3.087587,-0.759034 c -0.45076,-0.354567 -1.008294,-1.345356 -0.991828,-1.762567 0.0059,-0.149376 0.14642,0.03567 0.312279,0.411241 0.165857,0.375557 0.515847,0.904757 0.777753,1.175992 0.542808,0.562149 0.49716,0.64365 -0.0982,0.175334 z M 3.5876181,79.353661 C 5.1184087,77.855655 7.5411518,76.11124 9.118762,75.371149 9.5117645,75.186783 9.836111,74.984724 9.839532,74.922131 9.842973,74.859538 8.1470261,74.80833 6.0708057,74.80833 c -2.9111002,0 -3.8123865,0.04514 -3.9385602,0.197144 -0.1370379,0.165119 -0.2714242,5.873934 -0.1382263,5.871939 0.020388,-3.04e-4 0.7375078,-0.685992 1.5935989,-1.523752 z M 2.4044159,76.854038 c 0.1891758,-0.295994 1.5340288,-1.426771 1.9786591,-1.663694 0.202321,-0.107808 0.202321,-0.09674 0,0.09964 -0.7019548,0.681335 -2.1420194,1.819648 -1.9786591,1.564052 z M 36.304822,73.122981 c 0.196993,-0.708543 0.216333,-0.9764 0.08217,-1.138055 -0.225742,-0.272004 -0.431957,-0.267347 -0.745989,0.01686 -0.232543,0.210449 -0.23373,0.299286 -0.0152,1.138055 0.130367,0.500387 0.278512,0.909792 0.329212,0.909792 0.0507,0 0.208115,-0.416987 0.349811,-0.926642 z m -1.693383,0.0129 -0.243682,-0.762011 -2.739253,0.04124 -2.739253,0.04124 -0.06291,0.455223 -0.06291,0.455223 -0.0903,-0.455223 -0.0903,-0.455223 -8.077761,-0.03929 -8.07776,-0.03928 -0.224554,0.494485 -0.224554,0.494486 0.0339,-0.455223 0.0339,-0.455223 -4.277778,-0.04026 -4.2777788,-0.04026 -0.4641284,0.674585 c -0.2552706,0.37102 -0.4641283,0.713497 -0.4641283,0.761053 0,0.04754 7.2659108,0.08647 16.1464685,0.08647 H 34.85512 Z m 23.791442,0.529527 c 0,-0.127864 -0.09914,-0.469762 -0.220313,-0.759774 l -0.220314,-0.527291 -10.209854,0.039 -10.209849,0.039 -0.175281,0.379353 c -0.0964,0.208649 -0.221416,0.532991 -0.277803,0.72077 l -0.102522,0.341421 h 10.707968 c 9.516798,0 10.707968,-0.02587 10.707968,-0.232489 z m 10.92286,0.118682 c -0.0011,-0.06259 -0.157159,-0.386942 -0.346194,-0.72077 l -0.343692,-0.606968 -5.209364,-0.03997 c -4.925167,-0.03774 -5.203399,-0.02535 -5.10003,0.227614 0.06014,0.147157 0.173424,0.489479 0.251754,0.760714 l 0.142414,0.493161 h 5.303803 c 2.917092,0 5.302685,-0.05121 5.301309,-0.113807 z M 8.1766002,71.136367 C 6.7622303,70.534693 3.9893477,69.106132 3.1312114,68.537045 l -1.024252,-0.679253 v 1.393002 c 0,2.161844 -0.1551006,2.069647 3.4607125,2.057219 2.2553196,-0.0077 2.895234,-0.04984 2.6089283,-0.171646 z m 21.9047798,0.06545 c 0.03959,-0.06406 0.8743,-0.593255 1.854912,-1.175998 0.980611,-0.582737 2.152954,-1.408901 2.605206,-1.835924 l 0.822276,-0.7764 -0.0507,-1.840237 c -0.02788,-1.012129 -0.07358,-1.840638 -0.10155,-1.841131 -0.02796,-4.94e-4 -0.505951,0.401387 -1.062187,0.893063 -3.206628,2.834461 -6.389838,4.353423 -10.907528,5.204838 -2.558962,0.48227 -7.014984,0.482574 -9.245601,5.74e-4 C 10.148958,68.999374 6.280834,67.282395 3.3354187,65.0985 l -1.2381398,-0.918022 0.042776,1.785914 0.042776,1.78592 1.8722001,1.090178 c 1.0297097,0.599598 2.6002293,1.399099 3.4900435,1.776669 l 1.6178436,0.686485 10.4232399,0.0063 c 5.732783,0.0034 10.455632,-0.04611 10.495222,-0.110177 z m 4.924916,-0.07684 c 0.123909,-0.149301 0.25291,-2.21795 0.19023,-3.050513 -0.0055,-0.07322 -0.300227,0.133983 -0.654922,0.460453 -0.826702,0.760927 -1.774139,1.409537 -3.171685,2.17133 l -1.114999,0.607776 2.295471,0.0023 c 1.676465,0.0017 2.338734,-0.05001 2.455905,-0.191179 z m 15.243057,-0.474688 c 0.9761,-1.015083 2.503634,-1.271218 3.601297,-0.603865 0.26057,0.158421 0.284326,0.199685 0.07587,0.131787 -0.931563,-0.303421 -1.86609,-0.261882 -2.700304,0.120035 -0.461762,0.211402 -0.916112,0.527394 -1.009668,0.702205 l -0.170102,0.317839 h 9.68642 c 7.331555,0 9.730682,-0.04427 9.868502,-0.182089 0.136983,-0.136983 0.182089,-2.147982 0.182089,-8.118146 v -7.936057 l -3.452108,0.0025 -3.452107,0.0025 1.262632,0.677896 c 1.893109,1.016397 3.320207,2.013922 4.423541,3.092005 0.544737,0.532269 0.702125,0.72194 0.349743,0.42149 -1.251535,-1.067112 -2.872846,-2.193082 -4.590426,-3.187969 l -1.741071,-1.008493 h -9.198465 c -8.765005,0 -9.239516,0.01412 -10.069675,0.299741 -1.459101,0.502004 -3.429412,1.381546 -4.845041,2.162818 -0.739268,0.407989 -1.377342,0.708588 -1.417941,0.667984 -0.212466,-0.212463 3.392279,-2.029974 5.341662,-2.693259 l 1.062187,-0.361413 -3.106593,-0.04118 c -1.708627,-0.02265 -3.193793,-0.0077 -3.300368,0.03317 -0.15379,0.05901 -0.193773,1.71391 -0.193773,8.020231 0,4.370233 0.04552,7.991406 0.10116,8.047042 0.05564,0.05563 2.924693,0.101161 6.375677,0.101161 h 6.274515 z m -6.186826,0.136909 c 0.188473,-0.945368 0.906812,-2.143159 1.833646,-3.057511 2.480843,-2.44744 5.694624,-3.394722 8.164606,-2.406571 2.594307,1.037885 4.18187,2.335439 5.039805,4.119156 0.295994,0.615399 0.515069,1.238046 0.486829,1.38366 -0.03085,0.159017 -0.165887,-0.03825 -0.338158,-0.493958 -0.84116,-2.225107 -2.313477,-3.564687 -5.163401,-4.697913 -3.354116,-1.333702 -7.659708,0.652785 -9.50936,4.387375 -0.332598,0.67154 -0.563883,1.016133 -0.513967,0.765762 z M 56.680194,70.356394 C 55.024712,67.531528 50.937523,66.77656 48.628858,68.869193 l -0.44195,0.40059 0.290209,-0.416591 c 0.390518,-0.560588 1.855816,-1.284174 2.852762,-1.408734 1.770468,-0.221208 3.963283,0.646896 4.93631,1.954204 0.657672,0.883624 0.980409,1.457339 0.877624,1.560124 -0.03837,0.03837 -0.246982,-0.232725 -0.463619,-0.602392 z m 10.647526,0.57507 c -0.04588,-0.07935 -0.204554,-0.519829 -0.352577,-0.978843 -0.421099,-1.305864 -1.406055,-3.168938 -2.246189,-4.248753 -0.695684,-0.894152 -0.714128,-0.93669 -0.197356,-0.455223 0.313526,0.292106 0.839187,0.940797 1.168141,1.441539 0.621885,0.946663 1.867874,3.916215 1.768399,4.214629 -0.03315,0.0994 -0.09189,0.110555 -0.140418,0.02667 z m -28.127819,-0.44775 c 0.204589,-0.980352 1.04988,-2.407604 2.010245,-3.394247 l 0.97944,-1.006245 -0.85711,1.062185 c -0.471411,0.584206 -1.165465,1.676741 -1.542343,2.42786 -0.376878,0.75112 -0.642482,1.160818 -0.590232,0.910447 z m 23.824847,0.217514 c -0.055,-0.08901 -0.06748,-0.194379 -0.0277,-0.234152 0.0398,-0.0398 0.112752,0.03303 0.162171,0.161833 0.102607,0.267387 0.01514,0.314421 -0.13447,0.07232 z m -0.915012,-1.985386 c -1.547282,-3.059162 -4.189056,-5.357753 -7.054259,-6.137869 -3.049574,-0.830316 -8.177794,0.288016 -11.674958,2.546003 -0.385681,0.249023 -0.473936,0.271321 -0.322335,0.08144 0.312782,-0.391753 1.823481,-1.2701 3.079408,-1.790422 2.394608,-0.992068 5.92124,-1.607053 7.736078,-1.349043 3.370393,0.479161 6.594923,2.941294 8.311919,6.346673 0.267255,0.530054 0.451891,0.997757 0.410311,1.039342 -0.04158,0.04158 -0.260356,-0.289674 -0.486164,-0.736128 z M 37.159137,66.10552 c 0,-0.04531 0.329865,-0.478594 0.733034,-0.962808 1.366098,-1.640707 5.166667,-4.039175 7.647101,-4.825932 2.618868,-0.830666 4.090905,-1.047532 7.09745,-1.045628 2.617384,0.0017 2.899556,0.02971 4.172879,0.414985 1.537346,0.465145 4.167139,1.723264 4.855717,2.323017 l 0.455223,0.396508 -0.531098,-0.329809 c -1.775579,-1.10264 -4.141111,-2.04791 -6.145512,-2.455755 -2.824057,-0.574634 -7.926666,0.08599 -11.143683,1.44276 -1.688151,0.711972 -5.017566,2.943594 -6.19273,4.150826 -0.521609,0.535841 -0.948381,0.937172 -0.948381,0.891836 z m 30.579915,-3.53966 c -3.289931,-3.470804 -6.621217,-5.265539 -11.364584,-6.122692 -2.080893,-0.376029 -5.507018,-0.413218 -7.563403,-0.0821 -4.499613,0.724531 -8.492026,2.388263 -10.806025,4.50313 -0.465246,0.425212 -0.845903,0.707315 -0.845903,0.626903 0,-0.08041 0.336707,-0.461147 0.748238,-0.846087 2.843687,-2.659936 8.332728,-4.587646 13.557362,-4.761241 3.80619,-0.126465 6.412162,0.333782 9.66568,1.70708 2.288469,0.965956 4.068809,2.173715 5.941426,4.030596 1.303828,1.292867 2.452664,2.608802 2.228795,2.552965 -0.02655,-0.0066 -0.729263,-0.730473 -1.561586,-1.608556 z m -44.335616,6.92902 c 4.281821,-0.721005 7.728199,-2.428061 10.825253,-5.361957 l 1.033685,-0.979233 0.01983,-2.063217 c 0.0109,-1.134769 -0.02873,-2.063212 -0.08808,-2.063212 -0.05935,0 -0.340485,0.324343 -0.624749,0.720769 -0.885823,1.235334 -3.194277,3.431072 -4.548168,4.326079 -1.472009,0.973097 -4.913263,2.674728 -6.328664,3.129406 -1.437562,0.46179 -3.250687,0.67911 -4.76759,0.571439 -1.253952,-0.08901 -3.55319,-0.515843 -3.431924,-0.637112 0.02983,-0.02982 0.597983,0.04261 1.262559,0.161042 3.277689,0.583976 6.207543,0.142012 9.405961,-1.418874 3.770982,-1.840311 6.046074,-3.588615 8.277985,-6.361257 l 0.886914,-1.101786 -0.08205,-1.477812 c -0.04512,-0.812796 -0.10861,-1.563165 -0.141075,-1.667487 -0.04643,-0.149191 -2.165257,-0.189676 -9.926958,-0.189676 -7.793973,0 -9.867618,0.03986 -9.866447,0.189676 0.0035,0.445164 0.758856,1.763455 1.183862,2.066086 0.715326,0.509357 1.724225,0.923797 2.257809,0.927468 0.266312,0.0017 0.52239,0.06512 0.569063,0.140636 0.17275,0.279517 -1.232778,-0.02443 -2.162615,-0.467645 -1.093667,-0.52132 -1.798544,-1.345429 -1.947494,-2.276911 l -0.09315,-0.582538 -6.4672774,0.03955 -6.4672768,0.03955 -0.040331,4.306184 c -0.030889,3.298011 0.00464,4.361149 0.151741,4.54095 0.1056399,0.12912 0.7253852,0.631135 1.3772119,1.115596 3.1739825,2.359005 7.9547743,4.186704 12.2433393,4.680645 1.621774,0.186792 5.5029,0.02799 7.488645,-0.306357 z M 10.867086,65.488945 C 9.1294758,64.73033 5.9747497,62.493586 4.8382981,61.21446 c -0.2086438,-0.234841 0.1669148,0.01864 0.8345755,0.563329 2.1331168,1.740182 2.9010998,2.259358 4.8093664,3.251271 2.052635,1.066957 2.212264,1.257712 0.384846,0.459885 z m 4.593083,-1.758867 C 11.371342,62.714525 7.8063517,60.07719 6.1875108,56.870285 5.591601,55.689794 5.6366358,55.544816 6.2480872,56.675273 c 1.5194374,2.80915 3.5937136,4.613032 6.9359668,6.031842 1.954455,0.829673 3.022342,1.05699 5.007455,1.065902 4.03704,0.01812 7.406943,-1.370544 10.103591,-4.163472 1.236757,-1.28091 1.753869,-1.945223 2.556792,-3.284588 0.749668,-1.25053 0.891292,-1.095926 0.172877,0.188721 -1.040977,1.86144 -2.914032,3.965749 -4.487504,5.041544 -1.561672,1.067725 -3.821803,1.990846 -5.680222,2.320011 -1.417556,0.251083 -4.091052,0.179176 -5.396874,-0.145155 z m 2.579598,-2.894605 c -2.206822,-0.38268 -4.560295,-2.150924 -5.562931,-4.179619 -0.30488,-0.616881 -0.520185,-1.155744 -0.478456,-1.197473 0.04173,-0.04173 0.325317,0.428851 0.630196,1.045732 0.400325,0.810003 0.82695,1.376628 1.535637,2.039571 1.712601,1.602052 3.653989,2.271183 6.124194,2.110801 0.784281,-0.05093 1.18554,-0.03338 0.991696,0.0433 -0.542041,0.214515 -2.353391,0.291469 -3.240336,0.137671 z m 6.524865,-2.350127 c 0,-0.05351 0.196498,-0.346067 0.436662,-0.650182 0.240165,-0.304109 0.683225,-0.99677 0.98458,-1.539244 0.301354,-0.542474 0.548699,-0.879874 0.549654,-0.749778 0.0022,0.304541 -0.924987,1.845229 -1.514752,2.516935 -0.25088,0.285734 -0.456144,0.475755 -0.456144,0.422269 z m -4.666037,-0.16965 c 0.146051,-0.03814 0.385043,-0.03814 0.531094,0 0.14605,0.0382 0.02655,0.0694 -0.265547,0.0694 -0.292102,0 -0.411598,-0.03126 -0.265547,-0.0694 z m 2.402685,-1.35517 c 0.299121,-0.323804 0.691751,-0.785723 0.87251,-1.026487 0.18076,-0.240763 0.328654,-0.373711 0.328654,-0.29544 0,0.25729 -0.902958,1.376396 -1.328299,1.646264 -0.368201,0.233615 -0.353399,0.19585 0.127135,-0.324337 z m 14.099462,-3.700722 c 0.199963,-0.833535 0.131866,-1.212632 -0.217821,-1.212632 -0.423504,0 -0.581738,0.564134 -0.386505,1.37796 0.09839,0.410146 0.233545,0.711945 0.300338,0.670664 0.06679,-0.04128 0.203588,-0.417477 0.303988,-0.835992 z m 21.801268,0.707974 c 0.02523,-0.02523 -0.06618,-0.331119 -0.203126,-0.679756 l -0.249,-0.633886 H 47.674378 37.598874 l -0.219868,0.52622 c -0.120928,0.289421 -0.219882,0.613767 -0.219897,0.720769 -2.3e-5,0.15676 2.039234,0.186584 10.498499,0.153537 5.77419,-0.02256 10.519173,-0.06165 10.544402,-0.08688 z M 5.2331823,53.330039 5.5521963,52.654136 H 4.4644836 3.3767712 l -0.3314238,0.589689 c -0.1822831,0.324329 -0.3314238,0.631604 -0.3314238,0.682835 0,0.05123 0.4950551,0.09003 1.1001223,0.08621 l 1.1001224,-0.0069 z m 29.6498397,0.396162 c 0,-0.161482 -0.06659,-0.468758 -0.147986,-0.682834 L 34.587051,52.654136 H 20.256144 5.9252369 l -0.3158577,0.511069 c -0.1737223,0.281088 -0.315858,0.588363 -0.315858,0.682834 0,0.126686 3.8828831,0.171766 14.7947498,0.171766 14.527667,0 14.794751,-0.0053 14.794751,-0.293604 z m 34.263996,-0.351295 -0.355696,-0.6449 -5.345963,-0.03988 c -2.940273,-0.02193 -5.345956,0.0043 -5.345956,0.05827 0,0.05398 0.07909,0.362127 0.175758,0.684776 l 0.175758,0.586633 h 5.5259 5.525901 z M 6.3213662,51.624796 c 0.1062988,-0.03744 0.4603233,-0.521062 0.7867212,-1.074713 3.0795066,-5.223594 8.0133166,-7.961063 13.4255466,-7.449015 3.277943,0.310124 6.053095,1.595151 8.483453,3.928239 0.968399,0.92964 2.527632,3.017732 2.527632,3.384951 0,0.0894 -0.282658,-0.274804 -0.628129,-0.809353 -2.239582,-3.465319 -5.985088,-5.730529 -10.315476,-6.238599 -4.238372,-0.497275 -8.409808,1.284577 -11.4985249,4.91166 -0.8576397,1.007127 -2.2916581,3.129597 -2.2916581,3.39185 0,0.04063 1.0095962,0.07387 2.2435469,0.07387 h 2.2435471 l 0.471771,-0.948382 c 0.566761,-1.139334 1.349049,-2.23818 1.593402,-2.23818 0.09748,0 0.03508,0.153638 -0.138673,0.341417 -0.374498,0.404732 -1.323757,2.01795 -1.473259,2.503727 -0.102537,0.333178 -0.07744,0.341418 1.039712,0.341418 1.084145,0 1.158672,-0.0221 1.406935,-0.417288 1.195288,-1.902647 2.463681,-2.696283 4.297077,-2.68869 1.859454,0.0077 3.146755,0.759272 3.975937,2.321288 l 0.348682,0.656851 1.416401,0.02873 c 0.77902,0.0158 1.442065,-0.0128 1.473432,-0.06355 0.132571,-0.214504 -1.139105,-2.107699 -1.980764,-2.948848 -1.527118,-1.526191 -4.0065,-2.499519 -5.810626,-2.281069 -0.605731,0.07334 -0.655851,0.06112 -0.333508,-0.08135 0.217366,-0.09607 0.852464,-0.138981 1.487316,-0.10049 0.944468,0.05727 1.325016,0.174926 2.578856,0.797364 1.678809,0.833405 2.67399,1.750529 3.523796,3.24741 0.290498,0.511693 0.596776,1.032736 0.68062,1.157874 0.127241,0.189909 0.893932,0.243112 4.637588,0.321816 l 4.485145,0.09429 0.332215,-0.422342 c 0.328339,-0.417416 0.33214,-0.48716 0.325817,-5.978938 -0.0035,-3.056127 -0.05486,-5.632108 -0.11409,-5.724402 -0.416721,-0.649337 -5.301519,-3.353055 -7.249816,-4.012746 l -1.051892,-0.356169 -8.421627,8.03e-4 -8.421627,8.03e-4 -1.3656688,0.502709 C 8.2600579,36.07423 7.3040894,36.472361 6.8868017,36.682476 5.8811151,37.188864 3.70942,38.686761 2.9035998,39.429833 l -0.6448994,0.594683 v 1.914292 c 0,1.052862 0.019656,1.914293 0.043681,1.914293 0.024024,0 0.4910943,-0.436548 1.0379329,-0.970106 3.0529134,-2.978716 6.307172,-4.535751 11.5128917,-5.508409 2.053672,-0.383717 7.296423,-0.385741 9.067711,-0.0035 3.777924,0.81527 8.675843,3.152721 10.886234,5.195276 l 0.606964,0.560877 -0.605825,-0.433682 c -3.862038,-2.764655 -7.736887,-4.528599 -11.305846,-5.14675 -1.138775,-0.197238 -2.094875,-0.234539 -4.552231,-0.177597 -4.571332,0.105926 -6.921911,0.591598 -10.1282591,2.092681 -1.9143112,0.896204 -3.6678807,2.114079 -5.31139,3.688827 l -1.2518633,1.199486 v 2.406944 c 0,1.503469 0.056958,2.406944 0.1517411,2.406944 0.083457,0 0.151741,-0.06128 0.151741,-0.136173 0,-0.218719 2.358143,-3.111042 3.3915469,-4.159821 1.4587986,-1.480503 3.0472814,-2.591465 5.1148344,-3.577244 2.084383,-0.993803 3.874626,-1.585281 5.605534,-1.85201 1.387926,-0.213876 3.919378,-0.09414 4.855713,0.229678 0.375559,0.12988 0.512126,0.197279 0.303482,0.149775 -0.868354,-0.197706 -4.40096,-0.245049 -5.404471,-0.07243 -2.236952,0.384793 -5.645176,1.770803 -7.605124,3.092748 -1.6987664,1.145783 -3.9816208,3.468368 -5.7561177,5.856294 -0.6482487,0.872343 -0.6705221,0.938327 -0.6267025,1.856555 0.041382,0.867132 0.079276,0.961941 0.424787,1.06278 0.4022785,0.117406 3.1286957,0.125729 3.4557016,0.01055 z M 31.94204,45.449235 c -1.588937,-1.474612 -3.290385,-2.63606 -5.394571,-3.682461 -1.048832,-0.521578 -1.853552,-0.948349 -1.788266,-0.948381 0.483993,-2.34e-4 2.782838,1.101245 4.008652,1.920724 1.960181,1.310416 4.794835,3.709494 4.355728,3.686421 -0.07553,-0.004 -0.607223,-0.443305 -1.181543,-0.976303 z m -9.457704,6.199795 c 0.168621,-0.168621 -0.466037,-1.210365 -1.049471,-1.722626 -0.854438,-0.750206 -1.658716,-1.058636 -2.770529,-1.062462 -1.53072,-0.0053 -2.085561,0.230455 -3.242101,1.377387 -0.563339,0.558659 -1.024253,1.125232 -1.024253,1.259051 0,0.217092 0.430568,0.24331 3.995847,0.24331 2.197717,0 4.038444,-0.04259 4.090507,-0.09466 z m 20.44096,-0.02397 c 0,-0.06225 -0.402434,-0.291049 -0.894297,-0.508439 -1.76759,-0.781227 -5.199669,-3.040967 -4.968975,-3.271661 0.04426,-0.04426 0.374427,0.158276 0.733696,0.45009 0.982868,0.798327 2.612771,1.810669 4.178163,2.595082 l 1.400572,0.701821 h 9.786379 9.786381 l 1.147661,-0.4559 c 2.034955,-0.80837 4.230125,-1.930947 4.891943,-2.501664 l 0.6449,-0.556127 v -1.67139 -1.671389 l -0.782622,0.703645 c -0.936099,0.841636 -2.030803,1.499881 -3.876551,2.330978 -4.428714,1.994142 -8.855527,2.849171 -12.847281,2.481426 -2.080864,-0.191702 -5.031461,-0.758053 -6.875697,-1.319752 -2.573911,-0.783937 -5.798528,-2.756646 -7.52752,-4.605079 -0.399747,-0.427362 -0.757184,-0.777022 -0.794305,-0.777022 -0.03712,0 -0.06708,1.772787 -0.06657,3.939526 7.45e-4,3.231901 0.03935,3.961 0.214899,4.059073 0.275205,0.153749 5.849227,0.226919 5.849227,0.07678 z m 26.459218,-0.16859 c 0.194936,-0.161782 0.247205,-0.493907 0.247205,-1.570759 v -1.365598 l -0.341416,0.24449 c -0.917248,0.656843 -2.289833,1.395422 -3.743886,2.014562 -0.882746,0.375873 -1.654351,0.731155 -1.71469,0.789515 -0.06034,0.05836 1.108737,0.10315 2.59794,0.09953 2.044234,-0.005 2.76821,-0.05685 2.954847,-0.211741 z M 58.479359,49.634982 c 3.246304,-0.601548 7.410412,-2.271885 9.465973,-3.79706 1.822114,-1.35196 1.663728,-0.808033 1.696762,-5.826993 0.01629,-2.473968 -0.03131,-4.433404 -0.109552,-4.511663 C 69.410849,35.377572 64.7402,35.342045 50.306221,35.353022 l -3.468558,0.0026 0.103236,0.417288 c 0.05678,0.229508 0.312799,0.844568 0.56893,1.366799 1.278454,2.606659 4.157362,4.042986 6.940465,3.462693 1.38137,-0.288024 2.755539,-0.928608 3.635683,-1.694816 0.76091,-0.662407 1.765354,-2.133833 1.911811,-2.800638 0.05408,-0.246314 0.165819,-0.447843 0.248272,-0.447843 0.417251,0 -0.501419,1.808148 -1.442083,2.838341 -0.98237,1.075873 -2.02046,1.744322 -3.343506,2.152969 -3.306674,1.021328 -6.572953,-0.390048 -8.137716,-3.516349 -0.332163,-0.663642 -0.603933,-1.335281 -0.603933,-1.492533 0,-0.274077 -0.200299,-0.285911 -4.839479,-0.285911 -5.377013,0 -5.023688,-0.07408 -5.023688,1.053238 0,1.114158 1.562066,3.575659 3.475972,5.477432 2.574637,2.558315 6.498769,4.793389 9.76,5.559016 1.326669,0.311458 4.363919,0.354816 5.564124,0.07943 1.000161,-0.229485 1.206681,-0.125262 0.296654,0.14971 -1.029989,0.311218 -4.968766,0.267099 -6.187003,-0.0693 -3.139383,-0.866905 -7.359317,-3.347008 -9.729271,-5.718003 -1.253084,-1.253634 -2.876994,-3.448634 -2.876994,-3.888763 0,-0.118195 -0.06828,-0.214899 -0.151741,-0.214899 -0.0955,0 -0.151741,1.004395 -0.151741,2.709705 v 2.709705 l 1.328006,1.280201 c 0.730403,0.704112 1.737584,1.558123 2.23818,1.897803 2.482047,1.684198 5.774793,2.8445 9.846793,3.469824 1.934556,0.297084 6.022841,0.189646 8.210725,-0.215773 z m 0.395177,-2.965752 c 0.03688,-0.03685 0.623571,-0.305227 1.303816,-0.596384 1.755271,-0.751287 3.568347,-1.829716 4.977006,-2.960348 1.155323,-0.927296 1.180965,-0.939592 0.531093,-0.254682 -1.240071,1.306942 -3.113525,2.47101 -5.608366,3.484755 -0.892203,0.362535 -1.368772,0.491882 -1.203549,0.326659 z m -8.157292,-2.585124 c -3.959226,-0.718503 -7.975122,-4.137197 -9.465894,-8.058224 -0.293298,-0.771431 0.01549,-0.307704 0.791475,1.188604 0.665241,1.282766 1.045939,1.796332 2.17227,2.93042 2.711108,2.729778 5.262726,3.851157 8.777143,3.857356 2.823373,0.005 6.064071,-0.906155 8.368271,-2.352779 1.829966,-1.148888 2.553924,-1.782694 3.672468,-3.215148 0.540183,-0.691781 1.014991,-1.257784 1.055131,-1.257784 0.208006,0 -0.746554,1.382585 -1.56837,2.271638 -1.744375,1.887086 -4.502634,3.485099 -7.18958,4.165327 -2.776135,0.702808 -4.61301,0.833525 -6.612914,0.47059 z m 1.0649,-5.849237 c -0.831165,-0.328154 -1.576239,-0.917477 -1.568664,-1.240749 0.0028,-0.120636 0.06389,-0.09519 0.157634,0.06568 0.08416,0.144432 0.464862,0.445356 0.846002,0.668719 0.814698,0.477444 2.544283,0.663366 3.435361,0.369284 0.853233,-0.281592 1.743853,-1.013315 2.265758,-1.861519 0.264451,-0.429784 0.510088,-0.693625 0.545857,-0.586314 0.03579,0.107311 -0.206311,0.580045 -0.537954,1.050521 -1.137453,1.613607 -3.305399,2.260273 -5.143994,1.534376 z M 3.3334253,38.695615 c 1.9678939,-1.637698 4.2657095,-2.931283 5.5486201,-3.123667 1.4121066,-0.211759 0.6535908,-0.291561 -2.6270274,-0.276387 -2.799092,0.01295 -3.4504523,0.05616 -3.6355021,0.241214 -0.1703443,0.170345 -0.2339472,0.676408 -0.2602453,2.070667 -0.019142,1.014873 -0.012468,1.845224 0.014831,1.845224 0.027299,0 0.4589948,-0.340673 0.9593237,-0.757051 z M 35.641727,37.584906 c 0,-1.137662 -0.06393,-1.800696 -0.189677,-1.967258 -0.218989,-0.290064 -0.959465,-0.33219 -4.741907,-0.269771 -1.979929,0.03267 -2.34387,0.07105 -1.972633,0.208018 1.056054,0.389626 4.633116,2.285327 5.614418,2.975419 0.584203,0.410836 1.113399,0.752067 1.175993,0.758293 0.06259,0.0062 0.113806,-0.760891 0.113806,-1.704701 z m 0.489079,-3.632852 c -0.03543,-0.396423 -0.128917,-0.72077 -0.207753,-0.72077 -0.08129,0 -0.102397,0.246336 -0.04877,0.569029 0.198516,1.194487 0.358149,1.288915 0.256521,0.151741 z m 23.602789,0.275213 c 0.03326,-0.03326 -0.389596,-1.374391 -0.939683,-2.980289 -0.550093,-1.605896 -0.973619,-2.946362 -0.941169,-2.978812 0.05477,-0.05479 0.864278,2.074435 1.843603,4.849313 l 0.415043,1.175993 h 4.532553 c 2.492908,0 4.532554,-0.04067 4.532554,-0.09038 0,-0.04971 -0.125897,-0.271631 -0.279775,-0.493158 -0.153878,-0.221528 -0.675766,-1.119753 -1.159751,-1.996058 -1.549742,-2.805973 -4.948325,-8.820224 -6.012156,-10.639329 -0.905439,-1.54827 -1.089261,-1.774189 -1.512453,-1.858828 -0.729068,-0.145813 -1.505996,-0.115499 -1.505996,0.05876 0,0.08531 0.267795,0.687721 0.595097,1.338691 0.743526,1.478806 2.181956,4.88419 2.098379,4.967769 -0.03424,0.03424 -0.664021,-1.21783 -1.399512,-2.782372 -1.889725,-4.019827 -1.538887,-3.679197 -3.789444,-3.679197 -1.314953,0 -1.911236,0.05615 -2.014417,0.189676 -0.08811,0.114023 -0.152378,2.621637 -0.161141,6.287036 -0.01546,6.466709 -0.04864,6.782663 -0.748094,7.123657 -0.149137,0.07271 -3.856041,0.166335 -8.237562,0.208064 l -7.966405,0.07587 -0.04472,0.682834 -0.04472,0.682835 11.33965,-0.0408 c 6.236804,-0.02244 11.366865,-0.06801 11.400123,-0.101275 z M 8.745775,34.103795 c 0.083111,-0.104322 0.6103041,-1.213928 1.1715398,-2.465792 2.1371862,-4.7671 2.5642432,-5.684659 2.6198982,-5.629004 0.05914,0.05914 -1.884816,4.762888 -2.788826,6.748071 -0.2802798,0.615486 -0.5095992,1.212966 -0.5095992,1.327734 0,0.170404 0.5813057,0.208668 3.1701112,0.208668 h 3.170112 l 0.09912,-0.417289 c 0.236301,-0.994814 1.65736,-5.496764 1.71643,-5.437693 0.0358,0.0358 -0.257106,1.180033 -0.650896,2.542746 -0.393791,1.362713 -0.748999,2.665439 -0.78935,2.894947 l -0.07337,0.417289 h 9.652777 9.652778 v -0.682835 -0.682835 h -7.139364 c -6.037189,0 -7.207055,-0.03501 -7.577839,-0.226744 -0.934193,-0.48309 -0.912122,-0.311736 -0.912122,-7.081633 0,-3.398265 -0.05121,-6.206441 -0.113806,-6.240391 -0.06259,-0.03395 -1.353656,-0.02966 -2.869028,0.0095 l -2.755222,0.07126 -0.416206,0.778149 c -1.691875,3.163177 -3.5972801,6.620178 -3.6488621,6.620178 -0.077275,0 1.7434441,-3.6344 2.8797231,-5.748315 0.465759,-0.866491 0.810221,-1.63468 0.765471,-1.707087 -0.123959,-0.20057 -1.338615,-0.156927 -1.615006,0.05803 -0.13414,0.104322 -0.94146,1.384637 -1.7940468,2.845144 -0.8525865,1.460508 -2.0433061,3.47487 -2.6460444,4.476361 -0.6027383,1.001491 -1.7626757,2.981711 -2.5776394,4.400489 -0.8149637,1.418779 -1.5866315,2.699094 -1.7148175,2.845145 -0.2209683,0.251764 -0.083167,0.265547 2.6549525,0.265547 2.1286601,0 2.9277497,-0.04987 3.0391286,-0.189677 z m 8.699008,-6.120221 c 0.0073,-0.17677 0.04324,-0.212726 0.09168,-0.09168 0.04383,0.109538 0.03844,0.240414 -0.01198,0.290837 -0.05042,0.05042 -0.08629,-0.0392 -0.0797,-0.19916 z m 10.002928,3.851693 c 0,-0.141625 0.04047,-0.141625 0.182089,0 0.135817,0.135816 1.793916,0.182089 6.524865,0.182089 3.488526,0 6.342774,-0.04123 6.342774,-0.09162 0,-0.05039 -0.249539,-0.566491 -0.554533,-1.146895 -0.882842,-1.680051 -2.288849,-2.441076 -4.528791,-2.451282 -1.009989,-0.0046 -1.354137,0.06213 -2.048504,0.397198 -0.459016,0.221502 -1.056497,0.612569 -1.327734,0.869038 -0.271237,0.256468 -0.493158,0.400365 -0.493158,0.31977 0,-0.300881 1.350573,-1.320877 2.111072,-1.594348 0.617752,-0.222141 1.080748,-0.269492 2.139918,-0.218852 1.169472,0.05591 1.489517,0.13504 2.375039,0.587199 1.156975,0.590767 1.858064,1.38254 2.2826,2.577848 l 0.267065,0.75194 h 1.194762 1.194762 l -0.09993,-0.398151 C 42.62938,30.102663 41.125942,28.051809 39.7454,27.165917 c -4.091119,-2.625264 -9.364022,-1.005738 -11.695922,3.592299 -0.2454,0.483881 -0.447047,0.787343 -0.448105,0.674361 -10e-4,-0.112981 0.244495,-0.674354 0.545671,-1.247493 0.676889,-1.288122 2.482871,-3.064743 3.727752,-3.667148 3.2404,-1.568048 6.672975,-0.992524 9.245182,1.550098 1.023581,1.011808 1.497484,1.76639 1.95505,3.112968 l 0.25841,0.76048 3.589454,0.04068 c 3.224914,0.03655 3.589455,0.01571 3.589455,-0.205229 0,-0.60372 -0.998846,-3.137379 -1.699847,-4.311813 -0.963216,-1.613736 -0.910712,-1.51741 -0.82707,-1.51741 0.03883,0 0.32614,0.355704 0.638476,0.790453 0.780262,1.086068 1.525132,2.706599 1.868578,4.06526 l 0.287682,1.138057 0.941526,0.04552 c 0.563153,0.02722 1.027672,-0.02597 1.155889,-0.132386 0.334134,-0.277306 0.317698,-15.555014 -0.01725,-16.033217 l -0.231614,-0.330669 -15.699637,-0.0081 c -18.256547,-0.0095 -16.30972,-0.223361 -16.30972,1.791999 v 1.190051 l 2.529133,-1.265921 c 1.391023,-0.696256 2.671338,-1.261554 2.845144,-1.256216 0.23863,0.0073 0.185962,0.06903 -0.215083,0.251981 -0.292101,0.133251 -1.572415,0.751765 -2.845144,1.374474 l -2.31405,1.132198 v 1.575856 1.575856 l 1.100122,-0.809954 c 2.983968,-2.196917 6.430824,-3.573488 11.115031,-4.439011 1.652681,-0.305373 5.597808,-0.217164 7.283509,0.162854 2.709282,0.610768 5.52727,1.748183 7.5298,3.039231 1.613015,1.039923 4.319072,3.782899 4.973737,5.041596 0.29037,0.558281 0.09011,0.392402 -0.550323,-0.45585 -1.077307,-1.426884 -2.888459,-3.236921 -4.018779,-4.016306 -2.18304,-1.505264 -5.017586,-2.679934 -8.010246,-3.319544 -1.953832,-0.417584 -6.061584,-0.382968 -8.194015,0.06905 -4.82543,1.022867 -6.721138,1.819123 -9.981259,4.192439 l -1.247577,0.908215 v 4.736598 c 0,4.350963 0.02162,4.749189 0.265547,4.891264 0.400578,0.233315 6.562799,0.216232 6.562799,-0.01819 z m 6.366929,-0.413301 c 0.533445,-0.99675 2.382856,-1.384687 3.684461,-0.77286 0.388726,0.182722 0.795604,0.442854 0.904175,0.57807 0.138675,0.172709 0.03795,0.148642 -0.33858,-0.0809 -1.253607,-0.764234 -2.566521,-0.727911 -3.746255,0.103643 -0.508017,0.358083 -0.624687,0.397926 -0.503801,0.172048 z M 22.82973,31.258651 c 0.330949,-1.326731 2.19624,-4.219352 3.147819,-4.881517 0.413882,-0.288004 0.384198,-0.2282 -0.205289,0.413587 -0.924294,1.006298 -1.529003,1.909224 -2.35066,3.509905 -0.377574,0.735557 -0.643916,1.166669 -0.59187,0.958025 z m 22.378914,-2.534218 c -0.644159,-1.242411 -2.703066,-3.438672 -4.083063,-4.355454 -1.63327,-1.08504 -2.616855,-1.351911 -5.028631,-1.364388 -2.769059,-0.01433 -4.738065,0.475431 -7.662922,1.906022 -0.667661,0.326563 -1.077362,0.481138 -0.910446,0.343501 0.574832,-0.474005 3.037637,-1.574463 4.382893,-1.958414 2.897186,-0.826889 5.983179,-0.830893 7.781938,-0.01009 2.069469,0.944325 4.730229,3.442319 5.644265,5.298987 0.654094,1.328655 0.55201,1.44375 -0.124034,0.139843 z M 22.212646,25.117851 c 1.923075,-1.836146 4.66221,-3.4359 7.359439,-4.298177 4.486692,-1.43435 8.453176,-1.449944 12.077452,-0.04748 1.28979,0.499101 3.665436,1.97218 4.31058,2.672881 0.208644,0.226611 -0.201057,-0.0025 -0.910446,-0.509057 -3.130083,-2.235273 -5.941052,-3.04379 -9.92912,-2.855908 -2.957459,0.139329 -5.630298,0.827862 -8.203933,2.113363 -1.309268,0.653964 -3.445611,2.06241 -4.502921,2.968683 -1.181821,1.012997 -1.284672,0.990333 -0.201051,-0.0443 z m 29.466118,-5.763248 c -1.294023,-1.032965 -3.036554,-2.153578 -4.466784,-2.872569 -1.078243,-0.542043 -1.459589,-0.830125 -0.733381,-0.554021 1.507448,0.57313 4.33237,2.351979 5.627029,3.543329 0.417288,0.383991 0.724564,0.700495 0.682835,0.703344 -0.04173,0.0029 -0.541093,-0.366189 -1.109699,-0.820083 z M 25.272751,8.7228914 c 1.070229,-3.2143354 1.968342,-5.7768322 1.995807,-5.6944372 0.02747,0.082395 -0.305605,1.2612825 -0.740156,2.6197496 -2.139966,6.6898352 -2.721515,8.5552032 -2.721975,8.7309602 -3.96e-4,0.151534 1.286858,0.183126 6.182946,0.151741 l 6.183447,-0.03964 0.09413,-2.623152 c 0.05177,-1.442732 0.137128,-2.6661444 0.189676,-2.7186927 0.05255,-0.052551 0.09554,1.1449407 0.09554,2.6610867 v 2.756628 h 6.069641 c 3.43559,0 6.069641,-0.05849 6.069641,-0.134766 0,-0.07412 -0.17688,-0.739885 -0.393066,-1.479475 -1.196257,-4.0924823 -2.022437,-7.0979307 -1.966543,-7.1538244 0.03493,-0.034927 0.310058,0.7457102 0.611404,1.7347483 0.301345,0.9890388 0.906689,2.9590711 1.345208,4.3778491 l 0.797307,2.579598 1.699608,0.0429 c 0.953871,0.02408 1.699608,-0.01781 1.699608,-0.09548 0,-0.294496 -4.400908,-11.7162901 -4.874403,-12.6506671 C 47.453397,1.4778563 47.19294,1.1535103 47.031784,1.067262 46.682052,0.88009145 42.674357,0.85441085 42.560515,1.0386094 c -0.04356,0.07049 0.05635,0.6957472 0.222043,1.3894596 0.473979,1.9844767 1.52011,7.3241192 1.466459,7.4850729 C 44.222354,9.9931373 43.944799,8.9050122 43.632234,7.4950853 43.319668,6.0851594 42.84496,4.0438979 42.577327,2.9589494 L 42.09072,0.98631457 34.326202,0.94700623 c -6.763413,-0.0342385 -7.794107,-0.009715 -7.99402,0.19019637 -0.126227,0.1262271 -0.838348,1.7827184 -1.58249,3.6810912 -1.441389,3.677114 -3.717497,9.4459052 -3.801555,9.6350352 -0.02782,0.06259 0.496017,0.113805 1.164081,0.113805 h 1.214662 z"
       id="path2" /></g></svg>
