<?xml version="1.0" encoding="UTF-8" standalone="no"?>
<!-- Created with Inkscape (http://www.inkscape.org/) -->

<svg
   width="126.31266mm"
   height="131.50879mm"
   viewBox="0 0 126.31266 131.50879"
   version="1.1"
   id="svg1"
   xml:space="preserve"
   xmlns="http://www.w3.org/2000/svg"
   xmlns:svg="http://www.w3.org/2000/svg"><defs
     id="defs1" /><g
     id="layer1"><path
       style="fill:#000000;stroke-width:1"
       d="m 85.419722,131.2381 -0.465917,-0.37728 0.468635,-3.87052 c 0.257755,-2.12879 0.615578,-4.36534 0.795176,-4.97011 0.368776,-1.24179 1.57181,-2.65795 3.557688,-4.18794 0.779175,-0.6003 1.477975,-1.38082 1.890221,-2.1113 0.359727,-0.6374 0.835693,-1.25612 1.057704,-1.37494 0.630305,-0.33733 1.211809,0.11146 1.472265,1.13626 0.126256,0.49679 0.479031,1.76746 0.783933,2.82371 0.304902,1.05626 0.615683,2.30455 0.690614,2.774 0.177057,1.1093 -0.105408,2.93375 -0.642975,4.15298 -0.979499,2.22151 -4.78403,5.08963 -8.028066,6.05209 -1.035719,0.30729 -1.145854,0.30402 -1.579278,-0.0469 z m 3.696768,-2.74261 c 1.309805,-0.70188 3.502153,-2.56512 4.065947,-3.45558 0.720268,-1.13758 0.748004,-3.52206 0.06694,-5.75504 -0.301135,-0.98731 -0.585786,-1.83339 -0.632563,-1.88016 -0.209832,-0.20984 -2.052542,2.51811 -2.075285,3.07225 -0.01484,0.36064 -0.06396,0.45292 -0.122337,0.22959 -0.05371,-0.20538 -0.175396,-0.37342 -0.270497,-0.37342 -0.292248,0 -1.714502,1.68582 -2.033171,2.40997 -0.280352,0.63706 -0.96824,4.97621 -0.964885,6.08642 0.0016,0.58537 0.365477,0.52357 1.965853,-0.33403 z m -69.073618,-3.48617 c -2.581946,-0.1062 -5.202809,-0.29726 -5.82414,-0.42457 -2.730691,-0.55955 -6.4381644,-3.08502 -8.3768025,-5.70614 -1.0479693,-1.4169 -2.3363155,-4.28314 -2.3363155,-5.19771 0,-0.26282 -0.5778739,-1.69769 -1.2841646,-3.1886 C 0.16683627,106.15521 0.02035337,105.40373 0.00108712,99.101425 -0.0182122,92.789813 0.20570428,91.317008 1.7853437,87.365308 c 0.5629627,-1.408334 1.1933351,-3.08873 1.4008282,-3.734221 0.5385874,-1.675484 0.8424424,-2.224261 2.3869857,-4.310979 2.354451,-3.180936 4.4943264,-4.875575 7.5347354,-5.967007 l 1.386996,-0.497903 18.76257,-0.05589 c 10.319413,-0.03073 18.800504,-0.09384 18.846867,-0.140208 0.107406,-0.1074 -0.486749,-4.788966 -0.625382,-4.927601 -0.05693,-0.05694 -1.081125,0.434698 -2.275983,1.092512 -2.107145,1.160064 -2.188428,1.185574 -2.703202,0.848283 -0.291904,-0.191267 -0.53047,-0.465563 -0.530148,-0.609562 8.87e-4,-0.393003 -0.474351,-4.948481 -0.522304,-5.006726 -0.02286,-0.02774 -0.99506,0.476362 -2.160459,1.120264 -1.165399,0.643902 -2.22831,1.170734 -2.362026,1.170734 -0.133714,0 -0.444407,-0.16804 -0.690428,-0.373421 -0.374147,-0.312346 -0.489152,-0.783522 -0.703121,-2.88068 -0.140694,-1.378994 -0.343619,-2.507266 -0.450944,-2.507266 -0.107324,0 -0.977837,0.460651 -1.934473,1.023662 -2.264118,1.332516 -2.3835,1.37126 -2.894886,0.939441 -0.330664,-0.279215 -0.482025,-0.804862 -0.657451,-2.283175 -0.125341,-1.056253 -0.276289,-2.227882 -0.335442,-2.603626 l -0.107551,-0.683162 -2.197888,1.163282 c -1.208839,0.639797 -2.342751,1.163274 -2.519806,1.163274 -0.744996,0 -0.990189,-0.695961 -1.146454,-3.254101 -0.08424,-1.378994 -0.23787,-2.507267 -0.34141,-2.507267 -0.10354,0 -1.161921,0.488613 -2.351959,1.085803 -1.826392,0.91652 -2.24069,1.05072 -2.657535,0.860791 -0.271608,-0.123756 -0.534463,-0.444328 -0.584121,-0.712381 -0.04966,-0.268053 -0.212649,-1.111513 -0.3622,-1.874365 -0.377737,-1.926803 -0.358728,-2.053357 0.645661,-4.298538 0.491174,-1.097957 0.938879,-2.102094 0.994901,-2.231407 0.06155,-0.142087 -0.382086,-0.332314 -1.121144,-0.480741 -2.646888,-0.531574 -5.99664,-2.729696 -8.121595,-5.329443 -0.56426,-0.690332 -1.723004,-2.115006 -2.574987,-3.165936 C 9.3624934,35.609775 9.0638846,35.366569 6.166075,33.613928 4.4628055,32.583765 2.6033969,31.372691 2.0340565,30.922653 -0.34666681,29.040796 -0.50209852,26.361069 1.6918504,25.022827 2.1357179,24.75208 2.9283554,24.597508 4.2769158,24.518714 6.7035373,24.376941 7.0465644,24.14247 9.6758852,20.828373 12.83506,16.846431 15.070137,14.907314 18.94144,12.789727 23.162396,10.480881 23.994731,8.6414827 22.390096,5.168459 21.542653,3.3342791 21.455955,2.3215293 22.061381,1.3285974 c 1.338014,-2.19441672 3.842773,-1.69294892 8.350177,1.6717559 2.729115,2.0372405 4.685185,4.0039856 6.077392,6.110561 1.964367,2.9723197 2.971774,3.7481707 5.924044,4.5623817 2.898945,0.799505 4.102925,1.739039 12.362835,9.647437 2.203115,2.109356 4.195588,4.142502 4.42772,4.518093 0.26765,0.433061 0.423246,1.064003 0.425319,1.724632 0.0016,0.572947 0.07379,1.151661 0.16004,1.286022 0.08622,0.134361 9.470684,9.592601 20.854364,21.018323 l 20.697598,20.77403 5.22856,0.12595 c 4.59625,0.110715 5.37758,0.180516 6.46091,0.577173 2.14897,0.786828 3.75002,1.773973 5.15342,3.177371 2.76148,2.761473 4.16112,5.137875 4.17167,7.082912 0.004,0.769852 0.14076,1.084569 0.77576,1.787442 0.42389,0.469184 1.04341,1.441053 1.37672,2.159701 1.27955,2.758811 2.10631,9.513831 1.70097,13.897718 -0.49151,5.31586 -0.56087,5.66751 -1.55691,7.89377 -0.52508,1.17362 -1.1204,2.70998 -1.32293,3.41415 -1.29841,4.51437 -4.72235,8.91138 -8.31633,10.67981 -2.32093,1.14202 -4.04428,1.37638 -10.121,1.37638 -4.42291,0 -5.344449,-0.0533 -5.742589,-0.33217 -0.502614,-0.35204 -0.598417,-0.84765 -0.265788,-1.3749 0.168275,-0.26673 1.190287,-0.34147 6.131527,-0.4484 6.26988,-0.13567 7.2895,-0.28454 9.02366,-1.31742 1.04019,-0.61957 2.34722,-1.65091 2.34722,-1.85215 0,-0.20317 -1.11291,-0.35181 -4.90783,-0.65546 -3.40596,-0.27253 -3.62753,-0.32494 -3.62753,-0.8581 0,-0.63281 0.74893,-0.7076 5.57907,-0.55718 3.15071,0.0981 4.59119,0.0673 4.97275,-0.10662 0.6698,-0.30518 1.98511,-2.19005 2.1655,-3.1032 0.20861,-1.05605 -0.11717,-1.10385 -5.6223,-0.82487 -3.75506,0.19028 -4.39836,0.0118 -2.19028,-0.60777 1.41738,-0.3977 5.37669,-0.96755 6.76743,-0.97401 0.63315,-0.003 0.95734,0.10493 1.10426,0.36748 0.1144,0.2044 0.25381,0.32442 0.30982,0.26673 0.18517,-0.19077 1.85849,-4.32917 1.78157,-4.4061 -0.0415,-0.0415 -1.85791,-0.0814 -4.03654,-0.0888 -2.86384,-0.01 -4.06463,-0.0891 -4.33474,-0.28661 -0.86732,-0.6342 0.0436,-0.96441 4.44476,-1.61118 2.03404,-0.29891 3.2575,-0.59326 3.97312,-0.9559 l 1.03405,-0.52399 0.27865,-2.81351 c 0.70439,-7.112144 -1.17621,-14.598361 -4.03912,-16.078827 -0.3103,-0.160468 -1.02251,-0.360486 -1.58266,-0.44449 -1.30699,-0.195993 -2.06029,-0.769658 -1.72747,-1.315547 0.18859,-0.309346 0.56472,-0.39931 1.87857,-0.44932 1.58294,-0.06025 1.63758,-0.07968 1.50045,-0.533462 -0.265,-0.876986 -1.20881,-2.464116 -1.80495,-3.035248 -0.57002,-0.546107 -0.71024,-0.572867 -3.60222,-0.687356 -2.09413,-0.0829 -3.07955,-0.20397 -3.24072,-0.398173 -0.37402,-0.450666 -0.0203,-0.724414 0.938,-0.726043 0.49187,-8.06e-4 1.54267,-0.06274 2.33512,-0.137587 1.20755,-0.114046 1.40038,-0.184807 1.19101,-0.437078 -0.44712,-0.538743 -3.0303,-1.9429 -4.19836,-2.282134 -1.48771,-0.43207 -7.92906,-0.733899 -7.92906,-0.37155 0,0.137353 3.24077,3.567495 7.2017,7.622534 3.96094,4.055052 7.42538,7.774304 7.69875,8.265013 0.70974,1.273997 0.55169,2.427884 -0.66939,4.88718 -1.78169,3.588368 -3.5567,6.665468 -4.1682,7.225838 -0.77691,0.71197 -5.26041,3.1826 -5.77549,3.1826 -0.65805,0 -0.85037,-0.47038 -1.09636,-2.68152 -0.37727,-3.391014 -0.0914,-3.16123 -2.45646,-1.97472 -2.1973,1.10237 -2.94765,1.25127 -3.27003,0.64891 -0.1118,-0.2089 -0.31359,-1.38517 -0.44842,-2.613957 -0.13483,-1.228777 -0.28374,-2.354057 -0.33091,-2.500613 -0.0572,-0.177774 -0.51887,0.01347 -1.386969,0.574544 -1.779876,1.150395 -3.024815,1.610941 -3.568342,1.320056 -0.323402,-0.173081 -0.454199,-0.538518 -0.560874,-1.567076 -0.300191,-2.894495 -0.391389,-3.525856 -0.545268,-3.774836 -0.114981,-0.186033 -0.756198,0.05162 -2.287264,0.847662 -2.157048,1.121531 -2.862671,1.234141 -3.143733,0.501718 -0.06774,-0.176557 -0.234721,-1.421198 -0.371042,-2.765867 -0.154685,-1.525736 -0.338331,-2.444869 -0.488507,-2.444869 -0.240399,0 -3.507622,1.801716 -3.78778,2.088787 -0.08146,0.08346 -0.0024,0.7759 0.175549,1.538744 0.480128,2.057575 0.340379,9.059107 -0.197171,9.878857 -0.208091,0.31733 -0.496153,0.57549 -0.640152,0.57369 -0.707293,-0.009 -0.806636,-0.36062 -0.862494,-3.05417 -0.04653,-2.24558 -0.119699,-2.768653 -0.430399,-3.078039 -0.326968,-0.325589 -0.852203,-0.37426 -4.152679,-0.384817 -5.271537,-0.01686 -6.504887,-0.07113 -6.870655,-0.302378 -0.817483,-0.516831 0.263585,-0.724011 5.167524,-0.990306 2.731536,-0.14833 5.232328,-0.275521 5.557303,-0.282651 0.497726,-0.01089 0.575052,-0.08865 0.490524,-0.493072 -0.05516,-0.264069 -0.255061,-1.296313 -0.444143,-2.293885 -0.392285,-2.069584 -1.482966,-5.474346 -2.405255,-7.508396 l -0.627627,-1.384212 -7.115828,-0.147709 c -9.160572,-0.190146 -12.082681,-0.483136 -11.421803,-1.145208 0.08981,-0.08998 3.300176,-0.224301 7.134136,-0.298507 6.588504,-0.127506 10.278288,-0.330693 10.278288,-0.565979 0,-0.358831 -2.672735,-3.71566 -3.792297,-4.762953 -2.513517,-2.351283 -1.718881,-2.207381 -12.638265,-2.288626 -9.583944,-0.07129 -14.490529,0.06887 -14.154956,0.404471 0.25259,0.252585 3.835532,1.182025 6.153055,1.596133 1.220417,0.218075 3.800721,0.387293 7.078687,0.464224 2.837025,0.06662 5.282829,0.198058 5.43511,0.292176 0.875841,0.5413 -1.198905,0.79945 -6.581464,0.818902 -4.980287,0.01798 -7.613734,-0.274634 -12.440544,-1.382421 C 39.788721,75.235225 36.9525,74.904676 29.250074,74.825681 l -4.87614,-0.05 1.675381,1.53034 c 1.674683,1.529711 1.676002,1.530405 3.169068,1.664903 2.160414,0.194631 5.952608,0.737762 7.681824,1.100231 0.821527,0.172202 3.062524,0.492927 4.979993,0.712712 1.917468,0.219785 3.543454,0.456764 3.613301,0.526606 0.783162,0.783164 -4.669874,0.862482 -10.190754,0.148233 -1.934853,-0.25031 -4.017127,-0.455119 -4.627274,-0.455119 h -1.109359 l 0.825136,1.412017 c 1.153983,1.974765 2.239625,4.579689 2.889544,6.933279 0.810493,2.935086 0.790085,2.901197 1.84478,3.06339 0.506603,0.07791 2.553484,0.467281 4.548624,0.865268 4.094684,0.816798 6.819306,1.084012 13.123115,1.287022 4.149782,0.133644 5.406212,0.322725 4.979571,0.749367 -0.417796,0.417794 -10.044735,0.673613 -15.435386,0.410165 -2.875349,-0.140523 -5.756033,-0.221341 -6.401519,-0.179598 l -1.173613,0.07589 -0.136667,4.374373 c -0.151813,4.85912 -0.53077,7.8467 -1.369766,10.79879 -0.116742,0.41077 0.03519,0.49056 1.756238,0.92236 3.397723,0.85247 3.945672,0.90364 11.209084,1.04682 5.254726,0.10359 7.262033,0.21263 7.454214,0.40493 0.144653,0.14475 0.213351,0.31283 0.152663,0.37352 -0.269583,0.26958 -10.228676,0.77696 -15.774361,0.80364 l -6.097491,0.0294 -0.994724,1.85039 -0.994724,1.85039 2.717843,0.17968 c 1.494814,0.0988 4.636868,0.18376 6.982341,0.18877 3.832618,0.008 4.271569,0.0457 4.334329,0.37036 0.05105,0.26411 -0.120226,0.39283 -0.63697,0.4787 -1.35214,0.22468 -8.073328,0.54703 -11.405777,0.54703 h -3.353725 l -1.616717,1.54704 c -0.889194,0.85087 -1.892442,1.74057 -2.229439,1.97711 l -0.612723,0.43008 17.471073,-0.0577 c 9.60909,-0.0317 19.871641,-0.0886 22.80567,-0.12641 l 5.334605,-0.0688 2.667298,-1.09405 c 2.92311,-1.19898 5.0681,-1.59888 5.974435,-1.11382 0.594327,0.31808 0.340976,0.51046 -0.95991,0.72894 -1.258101,0.21129 -4.374373,1.23904 -4.374373,1.44268 0,0.0967 1.824435,0.17577 4.054293,0.17577 3.717706,0 4.088418,0.0341 4.465234,0.41093 0.464337,0.46435 0.379656,1.20322 -0.170863,1.4908 -0.190719,0.0996 -10.573191,0.24094 -23.07216,0.31402 -12.498966,0.0731 -25.173975,0.17188 -28.166685,0.21958 -2.99271,0.0477 -7.553793,-1.8e-4 -10.135739,-0.10637 z m 0.137561,-2.74798 c 2.439959,-0.7539 4.653056,-2.31985 5.981702,-4.23255 0.702522,-1.01134 0.754542,-0.80428 -0.628674,-2.50226 l -0.69976,-0.85898 -1.23141,1.19751 c -0.713427,0.69378 -1.853791,1.5039 -2.711004,1.92591 -1.424298,0.70118 -1.571467,0.7284 -3.937996,0.7284 -2.255751,0 -2.557835,-0.0489 -3.664633,-0.5925 -2.501154,-1.22855 -4.423154,-3.23005 -4.5421702,-4.73002 -0.076496,-0.96413 -0.1918456,-1.08302 -0.6277804,-0.64709 -0.2743278,0.27433 -0.3174331,0.59527 -0.209148,1.5572 0.07502,0.66641 0.072084,1.15267 -0.00653,1.08058 -0.078609,-0.0721 -0.2785804,-1.28856 -0.444386,-2.70327 -0.2500162,-2.13325 -0.4521727,-2.92632 -1.1845541,-4.64705 -0.49955,-1.1737 -1.060828,-2.99171 -1.2923255,-4.18591 C 4.0217357,98.698881 4.8263158,91.833581 6.8319104,87.864405 7.4732245,86.595207 8.2648983,82.335734 7.9925964,81.61953 7.8467015,81.235794 7.8751206,81.077061 8.1055463,80.988637 c 0.4912544,-0.188509 1.002913,0.07404 1.7663766,0.906382 0.5429791,0.591965 0.7401861,0.699978 0.8320771,0.455764 0.285725,-0.759351 1.930182,-2.09317 3.150729,-2.555547 1.920305,-0.727471 4.493891,-0.709285 6.127976,0.04331 0.671078,0.309072 1.695686,1.006755 2.276905,1.550419 l 1.056762,0.988475 0.85566,-1.133587 c 0.470613,-0.623471 0.954408,-1.393492 1.0751,-1.71116 0.203978,-0.536873 0.136251,-0.651717 -0.961118,-1.629789 -2.225525,-1.98358 -5.430994,-3.180557 -7.899992,-2.949998 -2.564727,0.239496 -5.073989,1.376664 -6.7858357,3.075254 -0.7548429,0.749004 -2.4670524,3.122003 -2.4670524,3.419162 0,0.07331 -0.2435932,0.387535 -0.5413189,0.698292 -0.2977257,0.310757 -1.1201244,1.948401 -1.8275522,3.639201 -2.1116659,5.047034 -2.8199082,8.364477 -2.8201986,13.209929 -1.766e-4,2.946656 0.4238181,5.947216 1.0537672,7.457376 0.1738842,0.41685 0.77794,1.43007 1.3423448,2.25159 1.1296869,1.64433 1.4096714,2.37543 1.619788,4.22959 0.1587956,1.40127 0.5580141,2.49679 1.0624055,2.91539 0.1873631,0.1555 0.5408519,0.74809 0.7855323,1.31686 0.8459152,1.96638 4.42868,4.6879 6.955913,5.28379 1.462635,0.34488 3.974128,0.25771 5.416611,-0.188 z m -0.244253,-5.47971 c 1.597641,-0.7591 2.953428,-1.78977 3.716654,-2.82541 0.494765,-0.67136 0.510374,-0.76457 0.221568,-1.32305 -0.412926,-0.79852 -0.402204,-1.88059 0.02024,-2.04271 0.19027,-0.073 0.550406,0.0792 0.847281,0.3581 0.674666,0.63382 0.963246,0.3963 1.673192,-1.37711 1.353236,-3.38033 1.910734,-7.02281 1.808595,-11.816695 -0.06982,-3.276973 -0.05662,-3.402665 0.393,-3.741504 0.45989,-0.346573 0.468469,-0.3365 0.745233,0.875099 0.177438,0.776771 0.274875,2.593416 0.266029,4.959917 -0.01298,3.472323 -0.06039,3.909733 -0.675992,6.236583 -0.364117,1.3763 -1.103016,3.43329 -1.641995,4.57109 l -0.979963,2.06872 0.816436,0.96325 c 0.44904,0.52979 0.928438,1.00059 1.065329,1.04622 0.622349,0.20745 2.364898,-3.55086 3.345807,-7.21621 0.810823,-3.02977 1.037327,-5.52751 0.904521,-9.974434 -0.126202,-4.225769 -0.420816,-6.018541 -1.535483,-9.343702 -0.611278,-1.823499 -3.040654,-6.702534 -3.337335,-6.702534 -0.258862,0 -1.291595,1.181936 -1.731711,1.981903 -0.205382,0.373308 -0.373421,1.105069 -0.373421,1.626143 v 0.947409 l -0.533461,-0.501162 -0.533459,-0.501161 -0.507297,0.476579 -0.507297,0.476588 -0.150807,-1.207026 c -0.132933,-1.063955 -0.264398,-1.315854 -1.109189,-2.125305 -0.52711,-0.505064 -1.551277,-1.235059 -2.275926,-1.622215 -1.105598,-0.590687 -1.540662,-0.703442 -2.704539,-0.700934 -2.526582,0.0056 -4.964876,1.183102 -6.148095,2.969431 l -0.680193,1.026904 -0.02475,-0.836766 C 10.283685,82.64658 10.253498,82.7271 9.8786305,84.656242 9.7029107,85.560519 9.6016832,85.74077 9.375144,85.552761 9.0332097,85.268981 8.9747738,85.354888 8.5639846,86.745246 c -0.17664,0.59786 -0.6655346,2.006452 -1.0864324,3.130216 -1.2769352,3.40931 -1.827828,8.001774 -1.425273,11.881668 0.2265424,2.18346 0.4629482,3.00542 2.3246092,8.08239 0.4133273,1.1272 0.5389543,1.6828 0.3438933,1.52091 -0.2437723,-0.20232 -0.307331,-0.19031 -0.307331,0.0581 0,0.37854 0.7258012,1.07603 0.9188364,0.883 0.075544,-0.0756 0.3207195,0.2904 0.5448272,0.81322 0.6180247,1.4418 2.9873357,3.36675 5.1179907,4.15812 1.28255,0.47637 3.333846,0.27244 4.941081,-0.49121 z m -2.558075,-4.94393 c 0.0015,-0.21703 0.495078,-0.63048 1.242775,-1.04108 3.483853,-1.91314 5.167015,-5.55067 5.148767,-11.12716 -0.0087,-2.65333 -0.363246,-4.844412 -1.142473,-7.060099 -0.670023,-1.905165 -0.671995,-1.936602 -0.121462,-1.936602 0.330295,0 0.586705,0.336581 1.059941,1.391333 0.908656,2.025219 1.234012,3.271771 1.50087,5.750343 0.766243,7.116815 -2.345092,13.555225 -6.89076,14.259325 -0.658003,0.10193 -0.799741,0.06 -0.797658,-0.23606 z m -3.88215,-0.67939 c -2.627498,-1.74038 -4.442358,-6.44495 -4.442358,-11.515714 0,-1.78724 0.017783,-1.855533 0.4744213,-1.821895 0.445578,0.03283 0.5016697,0.228503 0.9225987,3.218449 0.246497,1.75092 0.663081,3.82592 0.925742,4.61112 0.613362,1.83358 1.817588,3.68922 3.112356,4.79596 1.579236,1.34989 0.806711,1.90401 -0.99276,0.71208 z m 1.540021,-6.13548 c -2.805779,-2.82161 -2.570919,-11.362693 0.312449,-11.362693 0.69189,0 0.694979,0.493282 0.0082,1.309475 -0.71147,0.845533 -0.965823,1.884075 -0.967238,3.949304 -0.0014,2.043264 0.58755,4.209444 1.410331,5.187264 0.415364,0.49363 0.724356,0.64992 1.284937,0.64992 1.562785,0 2.531022,-2.04073 2.531022,-5.334595 0,-3.334549 -0.905071,-5.163895 -2.554837,-5.163895 -1.010944,0 -0.957342,-0.596231 0.07771,-0.864437 3.273483,-0.848251 5.047048,5.969401 2.774259,10.664357 -0.602501,1.2446 -1.466037,1.76367 -2.935767,1.7647 -1.040304,7.2e-4 -1.218361,-0.0726 -1.941071,-0.7994 z M 9.7003251,93.664202 c -0.2453563,-0.151645 -0.2289676,-0.418174 0.1005726,-1.635595 0.6326423,-2.33717 1.8598803,-4.577996 2.9259903,-5.342598 1.80869,-1.297167 4.188519,-1.699275 5.930904,-1.002113 0.726989,0.290885 0.841965,0.417851 0.724654,0.800192 -0.187885,0.612361 -0.164224,0.602126 -0.817559,0.353727 -0.96171,-0.365639 -2.677513,-0.260077 -3.68281,0.226576 -1.224445,0.592746 -1.980697,1.55155 -3.384796,4.291377 -0.643601,1.255859 -1.245255,2.329782 -1.337008,2.386486 -0.09175,0.0567 -0.2987297,0.02161 -0.4599479,-0.07807 z M 110.62906,102.49831 c 0.79976,-0.42026 1.59645,-0.92438 1.77043,-1.12027 0.17398,-0.19589 1.24638,-2.006255 2.3831,-4.023047 2.27353,-4.033727 2.56506,-4.959941 1.89446,-6.019073 C 116.45566,90.98625 108.59371,82.95403 99.206067,73.486551 89.818419,64.019061 76.808344,50.897378 70.294795,44.327261 L 58.451988,32.381594 56.9583,34.358303 c -2.302201,3.046672 -2.536408,3.255601 -3.503998,3.125813 -0.448853,-0.06016 -1.331147,-0.456313 -1.960653,-0.880245 -1.457804,-0.981741 -2.601715,-1.048099 -3.599197,-0.208768 -0.367359,0.309112 -1.720527,2.126256 -3.007042,4.038099 -2.523479,3.750052 -3.096191,4.357098 -4.887349,5.180371 -1.151917,0.529462 -1.26372,0.538438 -8.208028,0.659395 l -7.040205,0.122619 -0.803409,1.813765 c -0.61095,1.379269 -0.803593,2.094908 -0.804176,2.987379 -0.0012,1.874453 0.06168,1.890502 2.538295,0.647676 1.288371,-0.646531 2.334221,-1.044373 2.558412,-0.973216 0.641777,0.203687 0.870741,1.105529 0.870741,3.429642 0,1.578286 0.07402,2.230495 0.253142,2.230495 0.139229,0 1.18723,-0.528889 2.328893,-1.175299 1.755992,-0.994258 2.157706,-1.144144 2.607777,-0.973023 0.606347,0.230527 0.672613,0.464587 0.997429,3.523049 0.123924,1.166871 0.246838,2.139822 0.273143,2.162105 0.02631,0.02226 0.960044,-0.474813 2.074975,-1.104682 1.114931,-0.629862 2.180306,-1.146701 2.367498,-1.148532 0.740131,-0.0073 1.026409,0.71514 1.291574,3.258988 0.143273,1.374486 0.339579,2.499065 0.436233,2.499065 0.09665,0 1.020159,-0.480112 2.052232,-1.066923 2.018742,-1.147797 2.87707,-1.32083 3.23494,-0.652144 0.122089,0.228124 0.320218,1.404407 0.440287,2.613957 0.120068,1.209542 0.263487,2.326734 0.318709,2.482636 0.07228,0.204067 0.726977,-0.05266 2.337381,-0.916439 1.822395,-0.977523 2.313951,-1.15871 2.65231,-0.97762 0.459615,0.24598 0.757808,1.45507 0.989253,4.01117 0.07704,0.850864 0.161543,1.547034 0.187777,1.547034 0.02623,0 1.032931,-0.52813 2.237104,-1.173613 1.204174,-0.645483 2.361492,-1.173613 2.571817,-1.173613 0.648862,0 0.85984,0.510807 1.023662,2.478418 l 0.157846,1.895955 6.188139,0.10669 c 7.355968,0.126829 6.867485,-0.02686 9.940537,3.128071 2.263408,2.323734 3.532026,4.075778 4.505879,6.222919 2.987574,6.586988 3.141815,6.866187 3.793129,6.866187 0.195711,0 1.243641,-0.432101 2.328734,-0.960224 2.048147,-0.996854 2.795692,-1.156273 3.19063,-0.680396 0.127732,0.153903 0.349235,1.402197 0.492225,2.77399 0.15229,1.460973 0.354187,2.493991 0.487387,2.493757 0.125079,-2.25e-4 1.043599,-0.491903 2.041171,-1.092609 1.780086,-1.071923 2.592231,-1.307942 3.021945,-0.878228 0.231471,0.231471 0.814959,3.745488 0.817459,4.923053 8.06e-4,0.391204 0.07355,0.679275 0.16154,0.640152 0.08803,-0.03912 0.784401,-0.426174 1.54751,-0.860114 0.763102,-0.433941 1.739272,-0.935981 2.169262,-1.115635 0.71688,-0.299539 0.8195,-0.296039 1.23598,0.0421 0.44395,0.360485 0.50929,0.699638 1.06869,5.547696 0.011,0.096 1.74412,-0.807773 3.02195,-1.575932 1.27195,-0.764625 1.91229,-0.892631 2.27557,-0.454917 0.12204,0.147056 0.34309,1.443369 0.49123,2.880683 0.14813,1.43732 0.31005,2.61332 0.35982,2.61332 0.0498,0 0.74485,-0.34385 1.5446,-0.76411 z M 39.24743,43.756951 c 1.1176,-0.508992 2.155604,-1.686493 4.044662,-4.588206 0.850541,-1.30649 1.937483,-2.867429 2.415426,-3.468756 1.845841,-2.322363 4.420822,-2.633192 6.797341,-0.820532 0.379911,0.289772 0.775046,0.526856 0.878077,0.526856 0.203223,0 3.456861,-4.078649 3.861351,-4.84046 0.584692,-1.101198 0.363297,-1.510452 -2.259788,-4.177274 C 51.95722,23.310828 46.686,18.49205 44.942753,17.208744 43.590344,16.213158 43.268214,16.062323 40.978233,15.352388 38.255046,14.508152 36.95117,13.400737 34.804203,10.108627 33.583879,8.2374107 31.770224,6.4912061 29.005,4.5250948 26.303977,2.6046325 24.682574,1.7682912 24.220998,2.0574423 c -0.574766,0.3600586 -0.504312,1.0763827 0.287091,2.9189622 1.137438,2.6482322 1.022028,4.239706 -0.463425,6.3905025 -0.63189,0.914918 -2.541149,2.345586 -4.321868,3.23851 -3.046062,1.527419 -5.2147,3.415466 -8.206073,7.144321 -3.2967083,4.109468 -4.1524368,4.694448 -6.8671875,4.694448 -1.8532155,0 -2.4242254,0.303507 -2.4242254,1.288546 0,0.807306 1.0273973,1.681211 4.4933691,3.822056 3.9409408,2.434215 3.9884708,2.474693 6.3598438,5.41548 3.447482,4.275304 5.700749,6.095384 8.498099,6.864348 0.760862,0.209156 3.072023,0.286006 8.922065,0.296676 7.201655,0.01315 7.970186,-0.01976 8.748743,-0.374341 z M 37.031837,40.17956 c -1.372209,-0.961127 -1.243663,-3.285828 0.223649,-4.044607 1.042613,-0.539155 2.053393,-0.389793 2.866818,0.423634 0.618252,0.618248 0.725506,0.873042 0.725506,1.723486 0,0.818516 -0.112164,1.110143 -0.623738,1.621716 -0.518076,0.518074 -0.799213,0.62374 -1.659592,0.62374 -0.612302,0 -1.238987,-0.142281 -1.532643,-0.347969 z M 19.93618,39.060458 c -1.924216,-0.633523 -3.577382,-2.120699 -4.655007,-4.187606 -0.42849,-0.821854 -0.558173,-1.385511 -0.564581,-2.453917 -0.01811,-3.019477 1.78992,-5.073996 7.193998,-8.174742 4.075762,-2.338587 5.761628,-3.594074 7.080793,-5.27316 1.922979,-2.447646 3.797279,-3.288772 6.236752,-2.798855 1.697426,0.340892 4.157143,1.789145 5.859419,3.449959 1.195441,1.166323 1.486666,1.594978 1.788121,2.631946 0.746975,2.569501 -0.03089,3.987472 -3.414861,6.224935 -2.237134,1.479177 -3.460578,2.681308 -4.805431,4.721713 -1.835384,2.784643 -2.222347,3.071939 -4.668072,3.465813 -0.72425,0.116634 -2.537861,0.708655 -4.030248,1.315596 -2.795136,1.136756 -4.769428,1.490346 -6.020883,1.078318 z m 4.633675,-2.715002 c 1.762493,-0.793498 3.958068,-1.529607 5.051337,-1.69355 1.439543,-0.215873 2.126894,-0.76611 3.431311,-2.746851 1.29707,-1.969579 2.710433,-3.316354 5.466846,-5.20926 0.970554,-0.666508 1.958535,-1.476265 2.195512,-1.79945 1.253512,-1.709535 -0.404624,-4.119384 -4.209744,-6.118227 -0.968241,-0.50862 -1.520634,-0.655908 -2.459938,-0.655908 -1.472533,0 -2.075122,0.381027 -3.65946,2.313935 -1.392364,1.6987 -3.817494,3.496992 -7.669001,5.686735 -3.401683,1.934005 -4.675905,2.932457 -5.468564,4.285022 -0.965508,1.647515 -0.642277,3.440699 0.924094,5.126571 1.755532,1.889462 3.50853,2.111675 6.397607,0.810983 z M 50.983549,32.06066 c -1.295086,-0.274611 -2.027148,-1.164549 -2.027148,-2.464329 0,-2.668355 3.846374,-3.054535 4.698764,-0.471765 0.50935,1.543341 -1.067451,3.276239 -2.671616,2.936094 z m -0.07372,88.50623 c -0.173723,-0.10737 0.168749,-0.33699 0.969477,-0.65003 0.893887,-0.34945 2.009288,-0.54005 4.01208,-0.68557 3.999198,-0.29057 6.025788,-0.68027 10.407686,-2.00129 6.687468,-2.01609 7.311402,-2.11096 13.642248,-2.07448 5.627532,0.0324 6.453064,0.14632 6.314259,0.87098 -0.06162,0.32169 -0.656596,0.37264 -5.720891,0.48991 -6.229463,0.14426 -7.163185,0.27497 -12.212551,1.70964 -6.181105,1.75623 -7.36984,1.94257 -15.320683,2.4016 -1.002657,0.0579 -1.943889,0.0306 -2.091625,-0.0607 z m 49.848681,-2.31425 c -0.813881,-0.92175 -2.059538,-3.12324 -2.176375,-3.84641 -0.07065,-0.43709 -0.170943,-1.40842 -0.22293,-2.15852 -0.05202,-0.7501 -0.307329,-2.08068 -0.567438,-2.95685 -0.529873,-1.78489 -0.439772,-2.16465 0.579366,-2.44206 1.733147,-0.47178 5.698157,2.34948 6.855857,4.87823 0.86152,1.88183 0.80229,2.07418 -1.42572,4.62965 -1.08822,1.24816 -2.14383,2.26938 -2.34581,2.26938 -0.20196,0 -0.5156,-0.16804 -0.69695,-0.37342 z m 1.9494,-3.52939 c 1.14649,-1.0769 1.28276,-1.50346 0.78674,-2.46267 -0.51524,-0.99635 -3.767725,-3.73643 -4.060941,-3.42118 -0.07162,0.077 0.02202,0.6656 0.616331,3.87406 0.29313,1.58237 1.03941,3.23097 1.4011,3.0952 0.0927,-0.0348 0.65828,-0.52324 1.25677,-1.08541 z m -46.06968,0.63084 c 0,-0.1873 0.198123,-0.44657 0.440273,-0.57616 0.572633,-0.30647 5.29675,-1.1147 5.672542,-0.9705 0.600924,0.2306 0.269602,0.79683 -0.724866,1.23876 -1.372203,0.60979 -5.387949,0.83927 -5.387949,0.3079 z m 32.46189,-5.87602 c -0.277763,-0.27776 -0.43198,-0.87344 -0.537405,-2.07565 -0.0813,-0.92735 -0.393043,-2.72138 -0.692743,-3.98674 -0.299708,-1.26535 -0.488459,-2.44776 -0.419456,-2.62758 0.08541,-0.22257 0.347041,-0.30556 0.819645,-0.25996 0.68346,0.066 0.702993,0.0983 1.26294,2.09412 0.312813,1.11494 0.636297,2.53127 0.718857,3.14741 0.08256,0.61616 0.19384,1.12027 0.247278,1.12027 0.05347,0 0.575988,-0.40374 1.16121,-0.8972 0.895285,-0.75492 1.042986,-0.98105 0.931303,-1.42598 -0.22539,-0.89803 -1.168363,-2.32873 -1.945207,-2.9513 -2.09511,-1.679035 -2.218914,-2.045601 -0.727624,-2.154324 0.873268,-0.06363 0.981015,-0.004 2.128264,1.175584 1.790821,1.84151 2.982757,4.46776 2.410084,5.31025 -0.266198,0.39163 -4.201453,3.62667 -4.595649,3.77794 -0.22981,0.0882 -0.520792,-0.006 -0.761497,-0.24684 z m -23.996187,-0.70094 c -0.918512,-0.10495 -3.175057,-0.58562 -5.014525,-1.06814 l -3.344486,-0.87733 -6.766793,-0.16661 c -3.721737,-0.0916 -6.866484,-0.22823 -6.988326,-0.30353 -0.121842,-0.0753 -0.221531,-0.26206 -0.221531,-0.41502 0,-0.37936 1.301163,-0.50449 7.041671,-0.67716 5.441599,-0.16367 7.242603,0.002 10.626305,0.9773 4.64662,1.33936 5.185992,1.3928 13.517968,1.33937 6.381898,-0.041 7.625613,-3.2e-4 7.722488,0.25213 0.06347,0.1655 -0.0065,0.40211 -0.155523,0.52581 -0.654484,0.54317 -12.639831,0.84482 -16.417248,0.41318 z m 0.283038,-5.88024 c -0.293401,-0.0517 -1.829758,-0.41401 -3.414149,-0.8051 -4.186217,-1.03334 -4.385583,-1.05645 -9.175503,-1.06348 -3.688512,-0.006 -4.374372,-0.0553 -4.374372,-0.31776 0,-0.48969 1.172101,-0.65699 5.556354,-0.793062 4.475251,-0.138902 5.710475,0.01573 9.537096,1.193602 1.100238,0.33867 2.763399,0.73144 3.695912,0.87283 1.9687,0.29848 2.732939,0.55417 2.548478,0.85264 -0.127828,0.20681 -3.294861,0.25049 -4.373816,0.0603 z M 66.773964,90.224761 C 65.835071,90.109772 63.386493,89.668452 61.332668,89.244053 L 57.598456,88.472418 50.343401,88.34563 c -7.070536,-0.123562 -7.255055,-0.137644 -7.255055,-0.553551 0,-0.586561 0.798659,-0.683557 7.148363,-0.868163 5.742791,-0.16696 6.881464,-0.07363 12.269572,1.005299 4.419287,0.884954 7.273425,1.240294 10.02905,1.248608 2.577222,0.0081 3.30745,0.125829 3.30745,0.534712 0,0.14866 -0.21605,0.332855 -0.480112,0.409318 -0.85217,0.246762 -6.829443,0.318378 -8.588705,0.102908 z"
       id="path1" /></g></svg>
